<?xml version="1.0" encoding="UTF-8"?>
<svg id="Layer_1" data-name="Layer 1" xmlns="http://www.w3.org/2000/svg" xmlns:xlink="http://www.w3.org/1999/xlink" viewBox="0 0 1800 1080">
  <defs>
    <style>
      .cls-1, .cls-2, .cls-3, .cls-4, .cls-5, .cls-6, .cls-7, .cls-8, .cls-9, .cls-10, .cls-11, .cls-12, .cls-13, .cls-14, .cls-15, .cls-16, .cls-17, .cls-18 {
        fill: none;
      }

      .cls-1, .cls-4, .cls-5, .cls-19, .cls-6, .cls-7, .cls-8, .cls-9, .cls-10, .cls-12, .cls-13, .cls-15, .cls-16, .cls-18 {
        stroke: #ff00f2;
        stroke-miterlimit: 10;
      }

      .cls-1, .cls-7, .cls-10, .cls-18 {
        stroke-width: 4.5px;
      }

      .cls-20 {
        fill: #fff;
      }

      .cls-2 {
        stroke-width: 1.92px;
      }

      .cls-2, .cls-3, .cls-14, .cls-17 {
        opacity: .2;
        stroke: #fff;
        stroke-linecap: round;
        stroke-linejoin: round;
      }

      .cls-3 {
        stroke-width: 3.46px;
      }

      .cls-4, .cls-6 {
        stroke-width: 6.75px;
      }

      .cls-5, .cls-8, .cls-12, .cls-13 {
        stroke-width: 2.25px;
      }

      .cls-5, .cls-10, .cls-15 {
        opacity: .75;
      }

      .cls-19 {
        fill: #fefefe;
        opacity: .8;
      }

      .cls-21 {
        clip-path: url(#clippath-1);
      }

      .cls-22 {
        opacity: .3;
      }

      .cls-6, .cls-8, .cls-9, .cls-16, .cls-18 {
        opacity: .5;
      }

      .cls-7, .cls-13 {
        opacity: .25;
      }

      .cls-9 {
        stroke-width: 2.18px;
      }

      .cls-23 {
        clip-path: url(#clippath);
      }

      .cls-14 {
        stroke-width: 1.15px;
      }

      .cls-15 {
        stroke-width: 6.54px;
      }

      .cls-16 {
        stroke-width: 2.44px;
      }

      .cls-17 {
        stroke-width: 5px;
      }

      .cls-24 {
        fill: #ab00a2;
      }
    </style>
    <clipPath id="clippath">
      <path class="cls-11" d="M180.14,486.12c-.9,2.02-9,20.92-9,54,0,3.36,.18,34.16,9,54,.9-2.02,9-20.92,9-54,0-3.36-.18-34.16-9-54Z"/>
    </clipPath>
    <clipPath id="clippath-1">
      <path class="cls-11" d="M540.14,486.12c-1.79,2.02-18,20.92-18,54,0,3.36,.36,34.16,18,54,1.79-2.02,18-20.92,18-54,0-3.36-.36-34.16-18-54Z"/>
    </clipPath>
  </defs>
  <circle class="cls-13" cx="1260.14" cy="535.46" r="67.5"/>
  <circle class="cls-6" cx="1260.14" cy="535.46" r="47.6"/>
  <circle class="cls-9" cx="1620.14" cy="535.46" r="40.5"/>
  <circle class="cls-15" cx="1620.14" cy="535.46" r="28.56"/>
  <circle class="cls-5" cx="180.39" cy="895.71" r="31.25"/>
  <circle class="cls-4" cx="180.39" cy="895.71" r="22.04"/>
  <path class="cls-19" d="M1235.66,888.64c-.22-.51-.11-.9,.43-1.11-.07,.4-.13,.8-.43,1.11Z"/>
  <path class="cls-19" d="M1341.3,872.83c.22-.51,.11-.9-.43-1.11,.07,.4,.13,.8,.43,1.11Z"/>
  <path class="cls-19" d="M552.05,888.64c-.22-.51-.11-.9,.43-1.11-.07,.4-.13,.8-.43,1.11Z"/>
  <circle class="cls-8" cx="540.1" cy="895.62" r="87.84"/>
  <circle class="cls-4" cx="540.1" cy="895.62" r="13.68"/>
  <path class="cls-1" d="M505.93,895.3c0,1.33,9.34,4.12,18.47,5.03,1.89,.19,3.04,.22,3.83,1.15,3.63,4.28-8.06,18.85-6.56,20.05,1.52,1.22,12.31-14.72,20.05-12.55,7.21,2.02,8.43,18.81,10.12,18.55,1.64-.25-2.28-17.14,3.56-20.61,6.19-3.68,20.48,9.37,21.36,8.25,.82-1.04-13.73-9.13-13.87-19.68-.14-10.92,15.23-19.49,14.24-20.8-1.03-1.36-14.59,12.08-24.73,8.43-9.3-3.35-11.74-19.63-14.43-18.93-2.17,.57,.1,9.41-4.5,12.74-4.97,3.6-14.3-1.97-14.99-.56-.76,1.54,11.2,6.84,10.49,11.06-.92,5.54-23.06,5.67-23.05,7.87Z"/>
  <path class="cls-4" d="M502.98,938.77c-.81,.07-1.42,.94-1.26,1.41,.24,.74,2.51,.89,2.81,.28,.22-.46-.49-1.78-1.55-1.69Z"/>
  <path class="cls-4" d="M500.07,998.42c-.81,.07-1.42,.94-1.26,1.41,.24,.74,2.51,.89,2.81,.28,.22-.46-.49-1.78-1.55-1.69Z"/>
  <path class="cls-4" d="M529.98,830.68c-.3,.26,.06,.79-.21,2.31-.09,.51-.17,.64-.07,.79,.44,.65,3.51-.03,3.65-1.12,.15-1.11-2.74-2.52-3.37-1.97Z"/>
  <path class="cls-4" d="M549.23,768.28c-.3,.26,.06,.79-.21,2.31-.09,.51-.17,.64-.07,.79,.44,.65,3.51-.03,3.65-1.12,.15-1.11-2.74-2.52-3.37-1.97Z"/>
  <path class="cls-4" d="M621.78,798.25c-.3,.26,.06,.79-.21,2.31-.09,.51-.17,.64-.07,.79,.44,.65,3.51-.03,3.65-1.12,.15-1.11-2.74-2.52-3.37-1.97Z"/>
  <path class="cls-4" d="M594.18,862.28c-1.3,.58-1.43,2.96-.56,3.65,1,.79,3.61-.4,3.65-1.69,.04-1.11-1.81-2.54-3.09-1.97Z"/>
  <path class="cls-4" d="M648.07,891.05c-1.3,.58-1.43,2.96-.56,3.65,1,.79,3.61-.4,3.65-1.69,.04-1.11-1.81-2.54-3.09-1.97Z"/>
  <path class="cls-4" d="M494.03,864.71c-.81,.88-.27,2.99,.84,3.37,1.25,.43,3.11-1.39,2.81-2.53-.29-1.12-2.75-1.83-3.65-.84Z"/>
  <path class="cls-4" d="M556.24,957.7c-.44,.18-.65,1.42,0,2.25,.71,.91,2.09,.88,2.34,.47,.4-.66-1.61-3.01-2.34-2.72Z"/>
  <path class="cls-4" d="M568.36,824c-.44,.18-.65,1.42,0,2.25,.71,.91,2.09,.88,2.34,.47,.4-.66-1.61-3.01-2.34-2.72Z"/>
  <path class="cls-4" d="M491.71,790.81c-.44,.18-.65,1.42,0,2.25,.71,.91,2.09,.88,2.34,.47,.4-.66-1.61-3.01-2.34-2.72Z"/>
  <path class="cls-4" d="M434.39,842.31c-.44,.18-.65,1.42,0,2.25,.71,.91,2.09,.88,2.34,.47,.4-.66-1.61-3.01-2.34-2.72Z"/>
  <path class="cls-4" d="M467.13,929.71c-.44,.18-.65,1.42,0,2.25,.71,.91,2.09,.88,2.34,.47,.4-.66-1.61-3.01-2.34-2.72Z"/>
  <path class="cls-4" d="M597.3,977.24c-.44,.18-.65,1.42,0,2.25,.71,.91,2.09,.88,2.34,.47,.4-.66-1.61-3.01-2.34-2.72Z"/>
  <path class="cls-4" d="M594.18,921.76c-.44,.18-.65,1.42,0,2.25,.71,.91,2.09,.88,2.34,.47,.4-.66-1.61-3.01-2.34-2.72Z"/>
  <path class="cls-4" d="M473.74,896.61c-.34,1.02,.93,2.12,1.55,1.97,.74-.18,1.15-2.32,.42-2.81-.51-.34-1.69,.03-1.97,.84Z"/>
  <path class="cls-12" d="M840.88,963.14c-1.05,.1-1.84,1.22-1.64,1.82,.31,.95,3.26,1.16,3.64,.36,.29-.6-.63-2.31-2-2.18Z"/>
  <path class="cls-12" d="M767.16,842.45c-1.05,.1-1.84,1.22-1.64,1.82,.31,.95,3.26,1.16,3.64,.36,.29-.6-.63-2.31-2-2.18Z"/>
  <path class="cls-12" d="M986.38,946.1c-.84,.72-.78,3.14,.73,4,1.69,.97,3.97-.7,4-1.82,.04-1.43-3.56-3.19-4.73-2.18Z"/>
  <path class="cls-12" d="M883.1,797.3c-.38,.33,.08,1.03-.27,2.99-.12,.66-.22,.84-.09,1.02,.57,.84,4.54-.04,4.73-1.46,.19-1.44-3.54-3.26-4.37-2.55Z"/>
  <path class="cls-12" d="M914.92,752.67c-.38,.33,.08,1.03-.27,2.99-.12,.66-.22,.84-.09,1.02,.57,.84,4.54-.04,4.73-1.46,.19-1.44-3.54-3.26-4.37-2.55Z"/>
  <path class="cls-12" d="M981.83,837.21c-1.69,.76-1.85,3.83-.73,4.73,1.29,1.03,4.67-.51,4.73-2.18,.05-1.44-2.34-3.29-4-2.55Z"/>
  <path class="cls-12" d="M1012.7,767.44c-1.69,.76-1.85,3.83-.73,4.73,1.29,1.03,4.67-.51,4.73-2.18,.05-1.44-2.34-3.29-4-2.55Z"/>
  <path class="cls-12" d="M958.47,788.34c-1.69,.76-1.85,3.83-.73,4.73,1.29,1.03,4.67-.51,4.73-2.18,.05-1.44-2.34-3.29-4-2.55Z"/>
  <path class="cls-12" d="M827.82,846.96c-1.05,1.14-.34,3.88,1.09,4.37,1.62,.56,4.02-1.8,3.64-3.28-.38-1.45-3.56-2.37-4.73-1.09Z"/>
  <path class="cls-12" d="M835.21,772.83c-1.05,1.14-.34,3.88,1.09,4.37,1.62,.56,4.02-1.8,3.64-3.28-.38-1.45-3.56-2.37-4.73-1.09Z"/>
  <path class="cls-12" d="M921.31,987.05c-.57,.23-.84,1.84,0,2.91,.92,1.18,2.71,1.14,3.03,.61,.52-.85-2.09-3.9-3.03-3.52Z"/>
  <path class="cls-12" d="M983.05,1007.78c-.57,.23-.84,1.84,0,2.91,.92,1.18,2.71,1.14,3.03,.61,.52-.85-2.09-3.9-3.03-3.52Z"/>
  <path class="cls-12" d="M807.34,892.65c-.44,1.31,1.21,2.74,2,2.55,.95-.23,1.49-3,.55-3.64-.66-.44-2.19,.03-2.55,1.09Z"/>
  <circle class="cls-10" cx="540.1" cy="895.62" r="47.77"/>
  <path class="cls-19" d="M911.85,888.64c-.22-.51-.11-.9,.43-1.11-.07,.4-.13,.8-.43,1.11Z"/>
  <circle class="cls-13" cx="899.9" cy="895.62" r="114.08"/>
  <circle class="cls-18" cx="899.9" cy="895.62" r="62.03"/>
  <g>
    <path class="cls-16" d="M1186.82,995.04c-1.14,.1-1.99,1.32-1.78,1.97,.34,1.03,3.53,1.26,3.95,.39,.32-.65-.68-2.5-2.17-2.37Z"/>
    <path class="cls-16" d="M1105.52,815.86c-1.14,.1-1.99,1.32-1.78,1.97,.34,1.03,3.53,1.26,3.95,.39,.32-.65-.68-2.5-2.17-2.37Z"/>
    <path class="cls-16" d="M1403.28,957.37c-.91,.78-.85,3.4,.79,4.34,1.83,1.05,4.3-.76,4.34-1.97,.05-1.55-3.86-3.46-5.13-2.37Z"/>
    <path class="cls-16" d="M1278.42,764.2c-.42,.36,.09,1.11-.29,3.24-.13,.72-.23,.91-.1,1.1,.62,.91,4.92-.05,5.13-1.58,.21-1.56-3.84-3.54-4.73-2.76Z"/>
    <path class="cls-16" d="M1376.33,831.65c-1.83,.82-2.01,4.16-.79,5.13,1.4,1.12,5.06-.55,5.13-2.37,.06-1.56-2.53-3.57-4.34-2.76Z"/>
    <path class="cls-16" d="M1367.53,756.03c-1.83,.82-2.01,4.16-.79,5.13,1.4,1.12,5.06-.55,5.13-2.37,.06-1.56-2.53-3.57-4.34-2.76Z"/>
    <path class="cls-16" d="M1176.18,816.67c-1.14,1.24-.37,4.2,1.18,4.73,1.76,.6,4.36-1.96,3.95-3.55-.41-1.57-3.85-2.56-5.13-1.18Z"/>
    <path class="cls-16" d="M1192.99,745.7c-1.14,1.24-.37,4.2,1.18,4.73,1.76,.6,4.36-1.96,3.95-3.55-.41-1.57-3.85-2.56-5.13-1.18Z"/>
    <path class="cls-16" d="M1322.54,1016.53c-.62,.25-.91,1.99,0,3.16,.99,1.27,2.93,1.24,3.29,.66,.56-.92-2.26-4.23-3.29-3.81Z"/>
    <path class="cls-16" d="M1215.23,1057.8c-.62,.25-.91,1.99,0,3.16,.99,1.27,2.93,1.24,3.29,.66,.56-.92-2.26-4.23-3.29-3.81Z"/>
    <path class="cls-16" d="M1394.66,1037.39c-.62,.25-.91,1.99,0,3.16,.99,1.27,2.93,1.24,3.29,.66,.56-.92-2.26-4.23-3.29-3.81Z"/>
    <path class="cls-16" d="M1136.09,899.73c-.48,1.43,1.31,2.97,2.17,2.76,1.03-.25,1.62-3.25,.59-3.95-.71-.48-2.38,.04-2.76,1.18Z"/>
    <circle class="cls-7" cx="1259.71" cy="895.62" r="97.9"/>
  </g>
  <circle class="cls-24" cx="1620.14" cy="180.12" r="58.5"/>
  <path class="cls-20" d="M1620.14,126.12c-.45,2.02-4.5,20.93-4.5,54,0,3.36,.09,34.16,4.5,54,.45-2.02,4.5-20.93,4.5-54,0-3.36-.09-34.16-4.5-54h0Z"/>
  <path class="cls-22" d="M1620.14,121.62c-34.53,1.22-60.8,30.8-58.5,63,2.16,30.3,28.99,54.06,58.5,54,22.64-.05,43.8-14.12,54-36-3.32,3.17-14.9,13.43-31.5,13.5-21.57,.09-39.42-17.07-45-36-6.25-21.19,2.73-45.07,22.5-58.5Z"/>
  <path class="cls-17" d="M1643.49,136.89c3.82,2.19,9.97,6.36,15.41,13.55,6.16,8.14,8.42,16.21,9.33,20.68"/>
  <circle class="cls-24" cx="900.11" cy="180.12" r="36"/>
  <path class="cls-20" d="M900.11,146.89c-.28,1.24-2.77,12.88-2.77,33.23,0,2.07,.06,21.02,2.77,33.23,.28-1.24,2.77-12.88,2.77-33.23,0-2.07-.06-21.02-2.77-33.23h0Z"/>
  <path class="cls-22" d="M900.11,144.13c-21.25,.75-37.41,18.95-36,38.77,1.33,18.65,17.84,33.27,36,33.23,13.93-.03,26.95-8.69,33.23-22.15-2.05,1.95-9.17,8.27-19.38,8.31-13.27,.05-24.26-10.51-27.69-22.15-3.85-13.04,1.68-27.74,13.85-36Z"/>
  <path class="cls-17" d="M914.48,153.52c2.35,1.35,6.14,3.91,9.48,8.34,3.79,5.01,5.18,9.98,5.74,12.73"/>
  <circle class="cls-24" cx="1260.13" cy="180.12" r="49.5"/>
  <path class="cls-20" d="M1260.13,134.43c-.38,1.71-3.81,17.71-3.81,45.69,0,2.85,.08,28.9,3.81,45.69,.38-1.71,3.81-17.71,3.81-45.69,0-2.85-.08-28.9-3.81-45.69h0Z"/>
  <path class="cls-22" d="M1260.13,130.63c-29.22,1.03-51.44,26.06-49.5,53.31,1.83,25.64,24.53,45.75,49.5,45.69,19.16-.04,37.06-11.95,45.69-30.46-2.81,2.68-12.61,11.37-26.65,11.42-18.25,.07-33.35-14.45-38.08-30.46-5.29-17.93,2.31-38.14,19.04-49.5Z"/>
  <path class="cls-17" d="M1279.89,143.55c3.23,1.85,8.44,5.38,13.04,11.46,5.21,6.89,7.12,13.72,7.9,17.5"/>
  <circle class="cls-24" cx="540.1" cy="180.12" r="27"/>
  <path class="cls-20" d="M540.1,155.2c-.21,.93-2.08,9.66-2.08,24.92,0,1.55,.04,15.76,2.08,24.92,.21-.93,2.08-9.66,2.08-24.92,0-1.55-.04-15.76-2.08-24.92h0Z"/>
  <path class="cls-22" d="M540.1,153.13c-15.94,.56-28.06,14.22-27,29.08,1,13.99,13.38,24.95,27,24.92,10.45-.02,20.22-6.52,24.92-16.62-1.53,1.46-6.88,6.2-14.54,6.23-9.95,.04-18.19-7.88-20.77-16.62-2.88-9.78,1.26-20.8,10.38-27Z"/>
  <path class="cls-17" d="M550.88,160.17c1.76,1.01,4.6,2.93,7.11,6.25,2.84,3.76,3.89,7.48,4.31,9.55"/>
  <circle class="cls-24" cx="180.08" cy="180.13" r="13.5"/>
  <path class="cls-22" d="M180.08,166.63c-7.97,.28-14.03,7.11-13.5,14.54,.5,6.99,6.69,12.48,13.5,12.46,5.23-.01,10.11-3.26,12.46-8.31-.77,.73-3.44,3.1-7.27,3.12-4.98,.02-9.1-3.94-10.38-8.31-1.44-4.89,.63-10.4,5.19-13.5Z"/>
  <path class="cls-17" d="M185.47,170.15c.88,.5,2.3,1.47,3.56,3.13,1.42,1.88,1.94,3.74,2.15,4.77"/>
  <circle class="cls-24" cx="180.14" cy="540.12" r="58.5"/>
  <g class="cls-23">
    <g>
      <path class="cls-20" d="M180.14,518.12c12.13,0,22,9.87,22,22s-9.87,22-22,22-22-9.87-22-22,9.87-22,22-22m0-5c-14.91,0-27,12.09-27,27s12.09,27,27,27,27-12.09,27-27-12.09-27-27-27h0Z"/>
      <path class="cls-20" d="M180.14,527.12c7.17,0,13,5.83,13,13s-5.83,13-13,13-13-5.83-13-13,5.83-13,13-13m0-5c-9.94,0-18,8.06-18,18s8.06,18,18,18,18-8.06,18-18-8.06-18-18-18h0Z"/>
      <path class="cls-20" d="M180.14,536.12c2.21,0,4,1.79,4,4s-1.79,4-4,4-4-1.79-4-4,1.79-4,4-4m0-5c-4.97,0-9,4.03-9,9s4.03,9,9,9,9-4.03,9-9-4.03-9-9-9h0Z"/>
    </g>
    <path class="cls-20" d="M180.18,502.61c3.82,16.78,3.96,34.95,3.96,37.51,0,16.1-1.98,28.72-4.04,37.51-3.82-16.78-3.96-34.95-3.96-37.51,0-16.1,1.98-28.72,4.04-37.51m-.04-16.49c-.9,2.02-9,20.92-9,54,0,3.36,.18,34.16,9,54,.9-2.02,9-20.92,9-54,0-3.36-.18-34.16-9-54h0Z"/>
  </g>
  <path class="cls-22" d="M180.14,481.62c-34.53,1.22-60.8,30.8-58.5,63,2.16,30.3,28.99,54.06,58.5,54,22.64-.05,43.8-14.12,54-36-3.32,3.17-14.9,13.43-31.5,13.5-21.57,.09-39.42-17.07-45-36-6.25-21.19,2.73-45.07,22.5-58.5Z"/>
  <path class="cls-17" d="M203.49,496.89c3.82,2.19,9.97,6.36,15.41,13.55,6.16,8.14,8.42,16.21,9.33,20.68"/>
  <circle class="cls-24" cx="540.14" cy="540.12" r="58.5"/>
  <g class="cls-21">
    <g>
      <path class="cls-20" d="M540.14,518.12c12.13,0,22,9.87,22,22s-9.87,22-22,22-22-9.87-22-22,9.87-22,22-22m0-5c-14.91,0-27,12.09-27,27s12.09,27,27,27,27-12.09,27-27-12.09-27-27-27h0Z"/>
      <path class="cls-20" d="M540.14,527.12c7.17,0,13,5.83,13,13s-5.83,13-13,13-13-5.83-13-13,5.83-13,13-13m0-5c-9.94,0-18,8.06-18,18s8.06,18,18,18,18-8.06,18-18-8.06-18-18-18h0Z"/>
      <path class="cls-20" d="M540.14,536.12c2.21,0,4,1.79,4,4s-1.79,4-4,4-4-1.79-4-4,1.79-4,4-4m0-5c-4.97,0-9,4.03-9,9s4.03,9,9,9,9-4.03,9-9-4.03-9-9-9h0Z"/>
    </g>
    <path class="cls-20" d="M540.21,494.31c12.54,18.19,12.93,42.83,12.93,45.81,0,22.71-8.09,38.34-13.07,45.81-12.54-18.19-12.93-42.83-12.93-45.81,0-22.71,8.09-38.34,13.07-45.81m-.07-8.19c-1.79,2.02-18,20.92-18,54,0,3.36,.36,34.16,18,54,1.79-2.02,18-20.92,18-54,0-3.36-.36-34.16-18-54h0Z"/>
  </g>
  <path class="cls-22" d="M540.14,481.62c-34.53,1.22-60.8,30.8-58.5,63,2.16,30.3,28.99,54.06,58.5,54,22.64-.05,43.8-14.12,54-36-3.32,3.17-14.9,13.43-31.5,13.5-21.57,.09-39.42-17.07-45-36-6.25-21.19,2.73-45.07,22.5-58.5Z"/>
  <path class="cls-17" d="M563.49,496.89c3.82,2.19,9.97,6.36,15.41,13.55,6.16,8.14,8.42,16.21,9.33,20.68"/>
  <circle class="cls-24" cx="900.14" cy="540.12" r="58.5"/>
  <g>
    <path class="cls-20" d="M900.19,492.57c21.31,18.23,21.95,44.5,21.95,47.55,0,25.05-15.27,41.49-22.05,47.55-21.31-18.23-21.95-44.5-21.95-47.55,0-25.05,15.27-41.49,22.05-47.55m-.05-6.45c-2.69,2.02-27,20.92-27,54,0,3.36,.54,34.16,27,54,2.69-2.02,27-20.92,27-54,0-3.36-.54-34.16-27-54h0Z"/>
    <path class="cls-20" d="M900.14,518.12c12.13,0,22,9.87,22,22s-9.87,22-22,22-22-9.87-22-22,9.87-22,22-22m0-5c-14.91,0-27,12.09-27,27s12.09,27,27,27,27-12.09,27-27-12.09-27-27-27h0Z"/>
    <path class="cls-20" d="M900.14,527.12c7.17,0,13,5.83,13,13s-5.83,13-13,13-13-5.83-13-13,5.83-13,13-13m0-5c-9.94,0-18,8.06-18,18s8.06,18,18,18,18-8.06,18-18-8.06-18-18-18h0Z"/>
    <path class="cls-20" d="M900.14,536.12c2.21,0,4,1.79,4,4s-1.79,4-4,4-4-1.79-4-4,1.79-4,4-4m0-5c-4.97,0-9,4.03-9,9s4.03,9,9,9,9-4.03,9-9-4.03-9-9-9h0Z"/>
  </g>
  <path class="cls-22" d="M900.14,481.62c-34.53,1.22-60.8,30.8-58.5,63,2.16,30.3,28.99,54.06,58.5,54,22.64-.05,43.8-14.12,54-36-3.32,3.17-14.9,13.43-31.5,13.5-21.57,.09-39.42-17.07-45-36-6.25-21.19,2.73-45.07,22.5-58.5Z"/>
  <path class="cls-17" d="M923.49,496.89c3.82,2.19,9.97,6.36,15.41,13.55,6.16,8.14,8.42,16.21,9.33,20.68"/>
  <g>
    <circle class="cls-24" cx="1260.23" cy="535.46" r="40.5"/>
    <g>
      <path class="cls-20" d="M1260.27,502.54c14.75,12.62,15.19,30.8,15.19,32.92,0,17.34-10.57,28.72-15.27,32.92-14.75-12.62-15.19-30.8-15.19-32.92,0-17.34,10.57-28.72,15.27-32.92m-.04-4.46c-1.86,1.4-18.69,14.49-18.69,37.38,0,2.33,.37,23.65,18.69,37.38,1.86-1.4,18.69-14.49,18.69-37.38,0-2.33-.37-23.65-18.69-37.38h0Z"/>
      <path class="cls-20" d="M1260.23,520.23c8.4,0,15.23,6.83,15.23,15.23s-6.83,15.23-15.23,15.23-15.23-6.83-15.23-15.23,6.83-15.23,15.23-15.23m0-3.46c-10.32,0-18.69,8.37-18.69,18.69s8.37,18.69,18.69,18.69,18.69-8.37,18.69-18.69-8.37-18.69-18.69-18.69h0Z"/>
      <path class="cls-20" d="M1260.23,526.46c4.96,0,9,4.04,9,9s-4.04,9-9,9-9-4.04-9-9,4.04-9,9-9m0-3.46c-6.88,0-12.46,5.58-12.46,12.46s5.58,12.46,12.46,12.46,12.46-5.58,12.46-12.46-5.58-12.46-12.46-12.46h0Z"/>
      <path class="cls-20" d="M1260.23,532.69c1.53,0,2.77,1.24,2.77,2.77s-1.24,2.77-2.77,2.77-2.77-1.24-2.77-2.77,1.24-2.77,2.77-2.77m0-3.46c-3.44,0-6.23,2.79-6.23,6.23s2.79,6.23,6.23,6.23,6.23-2.79,6.23-6.23-2.79-6.23-6.23-6.23h0Z"/>
    </g>
    <path class="cls-22" d="M1260.23,494.96c-23.91,.84-42.09,21.32-40.5,43.62,1.5,20.98,20.07,37.43,40.5,37.38,15.68-.03,30.32-9.78,37.38-24.92-2.3,2.2-10.31,9.3-21.81,9.35-14.93,.06-27.29-11.82-31.15-24.92-4.33-14.67,1.89-31.2,15.58-40.5Z"/>
    <path class="cls-3" d="M1276.4,505.53c2.65,1.51,6.9,4.4,10.67,9.38,4.26,5.64,5.83,11.22,6.46,14.32"/>
  </g>
  <g>
    <ellipse class="cls-24" cx="1620.16" cy="535.46" rx="22.47" ry="22.5"/>
    <g>
      <path class="cls-20" d="M1620.18,517.17c8.18,7.01,8.43,17.11,8.43,18.29,0,9.63-5.86,15.96-8.47,18.29-8.18-7.01-8.43-17.11-8.43-18.29,0-9.63,5.86-15.96,8.47-18.29m-.02-2.48c-1.03,.78-10.37,8.05-10.37,20.77,0,1.29,.21,13.14,10.37,20.77,1.03-.78,10.37-8.05,10.37-20.77,0-1.29-.21-13.14-10.37-20.77h0Z"/>
      <path class="cls-20" d="M1620.16,527c4.66,0,8.45,3.8,8.45,8.46s-3.79,8.46-8.45,8.46-8.45-3.8-8.45-8.46,3.79-8.46,8.45-8.46m0-1.92c-5.73,0-10.37,4.65-10.37,10.38s4.64,10.38,10.37,10.38,10.37-4.65,10.37-10.38-4.64-10.38-10.37-10.38h0Z"/>
      <path class="cls-20" d="M1620.16,530.46c2.75,0,4.99,2.24,4.99,5s-2.24,5-4.99,5-4.99-2.24-4.99-5,2.24-5,4.99-5m0-1.92c-3.82,0-6.91,3.1-6.91,6.92s3.1,6.92,6.91,6.92,6.91-3.1,6.91-6.92-3.1-6.92-6.91-6.92h0Z"/>
      <path class="cls-20" d="M1620.16,533.92c.85,0,1.54,.69,1.54,1.54s-.69,1.54-1.54,1.54-1.54-.69-1.54-1.54,.69-1.54,1.54-1.54m0-1.92c-1.91,0-3.46,1.55-3.46,3.46s1.55,3.46,3.46,3.46,3.46-1.55,3.46-3.46-1.55-3.46-3.46-3.46h0Z"/>
    </g>
    <path class="cls-22" d="M1620.16,512.96c-13.27,.47-23.36,11.85-22.47,24.23,.83,11.66,11.14,20.79,22.47,20.77,8.7-.02,16.83-5.43,20.74-13.85-1.28,1.22-5.72,5.17-12.1,5.19-8.29,.03-15.14-6.57-17.29-13.85-2.4-8.15,1.05-17.34,8.64-22.5Z"/>
    <path class="cls-2" d="M1629.14,518.83c1.47,.84,3.83,2.45,5.92,5.21,2.37,3.13,3.23,6.24,3.58,7.95"/>
  </g>
  <g>
    <ellipse class="cls-24" cx="180.15" cy="895.46" rx="13.48" ry="13.5"/>
    <g>
      <path class="cls-20" d="M180.17,884.48c4.91,4.21,5.06,10.27,5.06,10.97,0,5.78-3.52,9.57-5.08,10.97-4.91-4.21-5.06-10.27-5.06-10.97,0-5.78,3.52-9.57,5.08-10.97m-.01-1.49c-.62,.47-6.22,4.83-6.22,12.46,0,.78,.12,7.88,6.22,12.46,.62-.47,6.22-4.83,6.22-12.46,0-.78-.12-7.88-6.22-12.46h0Z"/>
      <path class="cls-20" d="M180.15,890.38c2.8,0,5.07,2.28,5.07,5.08s-2.27,5.08-5.07,5.08-5.07-2.28-5.07-5.08,2.27-5.08,5.07-5.08m0-1.15c-3.44,0-6.22,2.79-6.22,6.23s2.79,6.23,6.22,6.23,6.22-2.79,6.22-6.23-2.79-6.23-6.22-6.23h0Z"/>
      <path class="cls-20" d="M180.15,892.46c1.65,0,3,1.35,3,3s-1.34,3-3,3-3-1.35-3-3,1.34-3,3-3m0-1.15c-2.29,0-4.15,1.86-4.15,4.15s1.86,4.15,4.15,4.15,4.15-1.86,4.15-4.15-1.86-4.15-4.15-4.15h0Z"/>
      <path class="cls-20" d="M180.15,894.53c.51,0,.92,.41,.92,.92s-.41,.92-.92,.92-.92-.41-.92-.92,.41-.92,.92-.92m0-1.15c-1.15,0-2.07,.93-2.07,2.08s.93,2.08,2.07,2.08,2.07-.93,2.07-2.08-.93-2.08-2.07-2.08h0Z"/>
    </g>
    <path class="cls-22" d="M180.15,881.96c-7.96,.28-14.01,7.11-13.48,14.54,.5,6.99,6.68,12.48,13.48,12.46,5.22-.01,10.1-3.26,12.45-8.31-.77,.73-3.43,3.1-7.26,3.12-4.97,.02-9.09-3.94-10.37-8.31-1.44-4.89,.63-10.4,5.19-13.5Z"/>
    <path class="cls-14" d="M185.54,885.48c.88,.5,2.3,1.47,3.55,3.13,1.42,1.88,1.94,3.74,2.15,4.77"/>
  </g>
</svg>