<?xml version="1.0" encoding="UTF-8"?>
<svg id="Layer_1" data-name="Layer 1" xmlns="http://www.w3.org/2000/svg" viewBox="0 0 1008 432">
  <defs>
    <style>
      .cls-1 {
        fill: #fff936;
        stroke: #ffbc00;
        stroke-miterlimit: 10;
        stroke-width: 2.87px;
      }
    </style>
  </defs>
  <g>
    <path class="cls-1" d="M519.4,24.78s-12.07,25.87-16.6,37.19c-4.53,11.32,9.05,53.36,13.58,63.07,4.53,9.7,45.32,40.48,43,45.28-10.18,21.02-33.95,59.83-38.47,59.83s-13.14-4.85-19.02,0c-5.88,4.85,7.7,24.26,11.09,30.72,3.39,6.47-21.5,67.92-24.89,71.15-3.39,3.23,1.51,22.64,7.54,30.72s7.17,24.26,7.17,24.26c0,0,2.64,0,2.26-4.31-.38-4.31-2.26-17.25-4.9-19.94-2.64-2.7-11.13-18.59-10.56-26.41,.57-7.82,22.25-53.9,25.65-59.83,3.39-5.93,2.64-12.4,1.89-16.17-.75-3.77-14.33-23.18-13.2-25.33,1.13-2.16,18.97,3.23,19.29,2.16,.32-1.08,26.34-39.35,28.61-40.43s7.73,1.62,7.64-2.16c-.1-3.77,2.92-19.4,4.05-24.26,1.13-4.85-13.62-21.02-21.71-29.11-8.09-8.09-22.42-13.48-24.31-22.64-1.89-9.16-12.82-26.95-12.07-42.04,.75-15.09,3.39-12.4,5.28-18.33,1.89-5.93,1.89-6.15,1.13-10.78s6.79-18.87,7.54-22.64Z"/>
    <path class="cls-1" d="M529.66,94.31s-36.21,48.51-43,51.75c-6.79,3.23-21.5,4.85-24.89,9.7-3.39,4.85-12.57,48.94-13.7,60.26-1.13,11.32,16.52,28.68,20.77,44.85,4.25,16.17-5.94,21.02-4.8,27.49,1.13,6.47,31.68,6.47,37.34,21.02,5.66,14.55,9.05,51.75,7.92,61.45-1.13,9.7,7.92,16.17,7.92,16.17,0,0,0-84.09,4.53-93.79,4.53-9.7-7.92-4.85-13.58-6.47-5.66-1.62-31.12-49.63-33.38-62.26-.86-4.82,3.61-45.1,13.55-54.17,5.37-4.89,44.72-35.58,50.38-40.43,5.66-4.85-4.53-90.56-7.92-105.11,0,0-10.18,24.26-12.45,30.72-2.26,6.47,9.05,3.23,10.18,11.32s1.13,27.49,1.13,27.49Z"/>
    <path class="cls-1" d="M540.39,24.78s4.81,21.56,5.28,28.03c.48,6.47,.54,2.16,3.48,7.55,2.94,5.39,1.69,40.97,3.83,49.59,2.14,8.62-33.27,59.39-39.42,67.43-6.15,8.04,5.06,15.58,5.06,15.58,0,0-3.15,9.7-.94,12.94,2.22,3.23,16.53,29.11,19.6,39.89,3.07,10.78-10.6,17.25-12.21,24.79-1.61,7.55,1.91,14.01,5.29,20.48,3.38,6.47-8.84,38.81-9.49,47.43-.65,8.62,.09,43.26,.61,46.49,0,0,4.88-5.26,4.36-8.49-.52-3.23-1.96-1.21-2.69-9.7-.73-8.49-1.59-27.49,.72-31.13,2.31-3.64,11.11-28.3,12.59-31.94,1.48-3.64-.75-5.66-1.28-8.49-.53-2.83,1.51-6.47-1-9.7-2.5-3.23-8.33-10.92-6.58-14.96,1.75-4.04,15.81-18.19,15.29-21.43-.52-3.23-18.35-41.64-20.18-43.26-1.82-1.62-3.47-5.66-1.73-8.49,1.74-2.83,3.19-5.66,3.22-7.68,.03-2.02-6.21-.81-7.3-3.64-1.09-2.83,.12-8.89,.12-8.89,0,0,15.49-14.96,17.49-16.98,2.01-2.02,1.05-3.51,1.53-8.09,.48-4.57,11.9-21.43,13.64-24.66,1.74-3.23,4.29-3.64,5.47-6.47,1.17-2.83,1.35-15.77,.33-23.45-1.02-7.68-2.28-30.47-3.31-37.75-1.03-7.28-8.33-22.08-11.81-35.02Z"/>
    <path class="cls-1" d="M499.11,387s-3.02-16.17-3.39-17.25-8.04-2.7-8.73-4.85c-.69-2.16,1.64-9.97,0-12.13-1.64-2.16-15.03-9.7-16.16-11.32-1.13-1.62-3.39-22.37-3.39-22.37,0,0-2.26,6.2-2.26,8.35s1.7,0,1.7,2.16,2.07,12.67,2.26,14.82c.19,2.16,7.35,7.82,8.11,8.62,.75,.81,4.53-2.7,4.9-1.89,.38,.81,3.21,2.43,2.64,2.96s-1.7,9.43-1.51,12.94,6.41,1.35,7.35,2.16c.94,.81,3.2,.81,3.58,2.7,.38,1.89,4.72,12.67,4.9,15.09Z"/>
    <path class="cls-1" d="M526.64,383.77s4.34-4.85,4.71-8.62c.38-3.77-4.71-5.66-4.71-9.16s1.72-16.44,2.37-17.52,2.54-1.35,3.29-2.16c.75-.81,10.94-22.64,10.75-25.87-.19-3.23-2.26-6.74-1.7-8.89,.57-2.16,11.5-10.24,12.45-11.05,.94-.81-3.77-19.67-4.15-21.83,0,0,3.83,1.89,4.27,4.31s2,7.01,2.26,10.51c.26,3.5,1.63,7.01,0,8.62s-7.1,8.35-8.32,9.16c-1.23,.81-3.49-1.08-4.05,.27-.57,1.35,4.15,8.09,4.05,9.97s-5.56,7.68-7.47,9.7c-1.91,2.02-5.35,15.09-6.44,16.98-1.09,1.89-2.97,.81-3.35,1.62-.38,.81-.38,12.94,0,13.74,.38,.81-.57,2.43-.57,2.43,0,0,3.11,4.85,3.91,6.74,.8,1.89,.42,2.7-1.27,4.85-1.7,2.16-6.03,6.2-6.03,6.2Z"/>
    <path class="cls-1" d="M568.33,274.93s-.41,32.72,1.24,48.88c1.65,16.15-10.49,43.81-14.54,50.32-4.06,6.51-22.13,10.27-25.44,10.28,0,0,1.75-2.07,3.72-4.66,1.97-2.59,2.82-.2,5.69-.35,2.88-.15,9.74,.27,12.05-4.17,2.31-4.44,2.56-6.61,5.54-12.14,2.98-5.53,4.98-8.28,6.63-10.01,1.65-1.74,3.67-8.74,3.29-13.59-.38-4.85-1.68-14.4-1.43-15.97s1.98-2.11,2.23-4.27c.25-2.16-.3-17.62-1.1-20.93-.81-3.31,.95-4.89,.84-6.18-.12-1.29-1.25-10.11-1.06-11.61,.19-1.5,2.63-4.17,2.35-5.59Z"/>
    <path class="cls-1" d="M540.59,362.49s.75-8.35,1.7-11.05c.94-2.7,7.54-8.35,8.49-7.82,.94,.54,1.13,6.2,0,7.28-1.13,1.08-4.53,2.43-5.47,3.23-.94,.81-4.53,7.01-4.71,8.35Z"/>
    <path class="cls-1" d="M467.82,308.57c-.68-.97,3.21,0,3.21,0,0,0,.19,7.82,0,9.43-.19,1.62-.86-5.39-1.56-6.47-.7-1.08-.7-1.62-1.64-2.96Z"/>
    <path class="cls-1" d="M473.84,317.33c-.45-.55,.19,2.96,0,3.37-.19,.4,1.04-.94,.94-1.68-.09-.74-.28-.88-.94-1.68Z"/>
    <path class="cls-1" d="M493.48,90.07c-.94-.21,1.99,3.78,1.97,4.55-.02,.77,.85-2.52,.29-3.4-.56-.89-.9-.84-2.26-1.15Z"/>
    <path class="cls-1" d="M436.14,201.1s2.85,1.91,3.18,4.31c.33,2.39,1,18.66,1,19.86s7.7,8.38,8.37,9.81c.67,1.44-.84,7.42-1,6.46-.17-.96-.17-4.79-1.17-6.46-1-1.68-7.53-5.26-8.2-7.42-.67-2.15,.33-12.68,.33-13.88s-.33-7.18-.67-8.14c-.33-.96-1.84-4.55-1.84-4.55Z"/>
    <path class="cls-1" d="M561.3,128.31s-1.1,10.06-.7,12.33c.4,2.27,3.03,9.06,3.03,9.06,0,0-2.79-1.9-3.69-3.51-.9-1.61,.04-2.55-.08-5.41-.12-2.86,.2-4.78,.04-7.08-.16-2.3,1.39-5.39,1.39-5.39Z"/>
    <path class="cls-1" d="M547.45,256.22s1.07-4.31,.18-6.63c-.89-2.32-1.16-5.02-1.31-6.75-.16-1.73,10.05-5.96,10.45-6.47,.39-.5-6.98,5.88-7.76,6.89-.79,1.01,.52,4.11,.98,5.65,.47,1.54-2.53,7.3-2.53,7.3Z"/>
    <path class="cls-1" d="M492.52,61.44s2.76,3.23,3.77,5.02c1,1.79,1,15.43,2.01,19.38,0,0-2.76-2.15-2.89-5.03-.13-2.87,1.13-9.33,0-10.77-1.13-1.44-2.89-8.61-2.89-8.61Z"/>
    <path class="cls-1" d="M555.93,201.1s2.85,1.91,3.18,4.31c.33,2.39,1,18.66,1,19.86s7.7,8.38,8.37,9.81c.67,1.44-.84,7.42-1,6.46-.17-.96-.17-4.79-1.17-6.46-1-1.68-7.53-5.26-8.2-7.42s.33-12.68,.33-13.88-.33-7.18-.67-8.14c-.33-.96-1.84-4.55-1.84-4.55Z"/>
  </g>
  <g>
    <path class="cls-1" d="M219.47,114.25s-10.2,45.21-12.11,48.22c-1.91,3.01-6.05,4.52-7.01,9.04-.96,4.52-3.54,45.61-3.86,56.16-.32,10.55,4.65,26.72,5.85,41.79,1.2,15.07-1.67,19.59-1.35,25.62,.32,6.03,8.92,6.03,10.51,19.59,1.59,13.56,2.55,48.22,2.23,57.26-.32,9.04,2.23,15.07,2.23,15.07,0,0,0-78.36,1.27-87.4,1.27-9.04-2.23-4.52-3.82-6.03-1.59-1.51-8.76-46.24-9.4-58.02-.24-4.49,1.02-42.03,3.82-50.48,1.51-4.56,12.59-33.15,14.18-37.67,1.59-4.52-1.27-84.39-2.23-97.95,0,0-2.87,22.6-3.5,28.63-.64,6.03,2.55,3.01,2.87,10.55,.32,7.53,.32,25.62,.32,25.62Z"/>
    <path class="cls-1" d="M209.16,385.14s-1.04-33.74-1.36-36.09-10.97-9.83-11.52-14.49c-.56-4.66,4.37-18.85,2.46-24.04-1.91-5.19-19.55-27.62-20.84-31.46-1.29-3.84-.32-46.24-.32-46.24,0,0-4.5,11.03-4.94,15.3-.44,4.27,2.43,.95,1.99,5.22-.44,4.27,.4,26.27,.23,30.65-.17,4.38,8.95,19.6,9.86,21.62,.92,2.02,7.03-2.82,7.4-1,.38,1.81,4.1,6.6,3.18,7.35s-4.34,17.75-4.78,24.8c-.44,7.05,8.91,6.25,10.09,8.38,1.19,2.13,4.42,3.39,4.58,7.34,.16,3.95,4.18,27.74,3.96,32.66Z"/>
    <path class="cls-1" d="M193.04,361.41c-.68-.97,3.21,0,3.21,0,0,0,.19,7.82,0,9.43-.19,1.62-.86-5.39-1.56-6.47-.7-1.08-.7-1.62-1.64-2.96Z"/>
    <path class="cls-1" d="M199.06,370.17c-.45-.55,.19,2.96,0,3.37-.19,.4,1.04-.94,.94-1.68-.09-.74-.28-.88-.94-1.68Z"/>
    <path class="cls-1" d="M187.86,325.59s-2.91,10.92-2.51,13.24c.41,2.32,3.99,8.93,3.99,8.93,0,0-4.39-1.39-5.69-2.89s.34-2.71,.46-5.72c.12-3,.86-5.12,.85-7.52,0-2.4,2.89-6.03,2.89-6.03Z"/>
    <path class="cls-1" d="M244.15,173.68s-.73-4.45-2.35-5.72-2.87-3.33-3.66-4.66c-.79-1.33,6.21-12.78,6.35-13.51,.14-.73-3.65,10.33-3.93,11.79s1.99,3.06,2.96,4,.63,8.1,.63,8.1Z"/>
    <path class="cls-1" d="M219.49,383.6s6.39-9.48,6.61-16.32c.22-6.83-8.04-9.3-8.39-15.58-.35-6.28,1.08-29.79,2-31.84,.92-2.05,3.89-2.87,5-4.46s15.07-42.57,14.45-48.34c-.62-5.77-4.26-11.67-3.58-15.64s17.21-20.44,18.63-22.07c1.41-1.62-7.95-34.6-8.76-38.4,0,0,6.26,2.69,7.21,6.96,.94,4.27,3.87,12.2,4.63,18.44,.76,6.24,3.28,12.27,.86,15.47-2.42,3.19-10.42,16.27-12.28,17.94-1.86,1.67-5.64-1.3-6.4,1.22-.76,2.52,7.39,13.75,7.43,17.15,.04,3.4-8.05,14.79-10.87,18.75s-6.98,28.03-8.51,31.61c-1.53,3.58-4.63,1.99-5.15,3.51-.52,1.52,.7,23.27,1.38,24.65,.68,1.38-.65,4.45-.65,4.45,0,0,5.42,8.14,6.88,11.38,1.46,3.24,.94,4.76-1.53,8.93-2.47,4.17-8.95,12.21-8.95,12.21Z"/>
    <path class="cls-1" d="M240.07,312.89s1.78,3.7,1.23,6.01c-.56,2.31-5.72,16.84-6.14,17.88-.42,1.03,3.7,12.78,3.77,14.5,.07,1.72-3.34,5.8-3.15,4.86s1.54-4.25,1.27-6.42-4.65-9.98-4.47-12.32c.18-2.34,4.76-10.71,5.19-11.74,.42-1.03,2.24-6.44,2.29-7.51,.05-1.07,.01-5.25,.01-5.25Z"/>
    <path class="cls-1" d="M174.66,192.2s2.63,2.47,2.72,4.91c.09,2.44-.85,18.68-.97,19.86-.12,1.18,6.8,9.85,7.32,11.4,.52,1.56-1.56,7.17-1.63,6.19-.07-.98,.31-4.77-.52-6.63-.83-1.86-6.94-6.73-7.39-9-.45-2.27,1.58-12.49,1.7-13.67,.12-1.18,.38-7.17,.14-8.19-.24-1.02-1.37-4.87-1.37-4.87Z"/>
  </g>
  <g>
    <path class="cls-1" d="M67.33,38.68s-9.77,24.88-13.38,35.77c-3.61,10.88,9.88,51.32,14.23,60.64,4.35,9.33,41.53,38.93,39.64,43.54-8.27,20.22-27.94,57.54-31.94,57.54s-11.8-4.67-16.83,0c-5.03,4.66,7.67,23.32,10.9,29.55,3.23,6.22-16.64,65.31-19.53,68.42-2.89,3.11,2.13,21.77,7.75,29.55,5.63,7.77,7.19,23.32,7.19,23.32,0,0,2.34,0,1.85-4.15-.49-4.15-2.61-16.59-5.04-19.18s-10.5-17.87-10.27-25.4c.23-7.52,17.8-51.83,20.6-57.54,2.8-5.7,1.9-11.92,1.1-15.55-.8-3.63-13.5-22.29-12.57-24.36,.93-2.07,16.9,3.11,17.15,2.07,.25-1.04,21.93-37.84,23.9-38.88,1.96-1.04,6.9,1.56,6.68-2.07s1.9-18.66,2.74-23.33c.83-4.66-12.79-20.22-20.23-27.99-7.44-7.77-20.32-12.96-22.31-21.77-1.99-8.81-12.29-25.92-12.16-40.43,.14-14.51,2.57-11.92,4.03-17.62,1.46-5.7,1.45-5.91,.62-10.37-.83-4.46,5.35-18.14,5.88-21.77Z"/>
    <path class="cls-1" d="M90.63,23.34s4.81,21.56,5.28,28.03c.48,6.47,.54,2.16,3.48,7.55,2.94,5.39,1.69,40.97,3.83,49.59,2.14,8.62-33.27,59.39-39.42,67.43-6.15,8.03,5.06,15.58,5.06,15.58,0,0-3.15,9.7-.94,12.94,2.22,3.23,16.53,29.11,19.6,39.89,3.07,10.78-10.59,17.25-12.21,24.79-1.61,7.55,1.91,14.01,5.29,20.48,3.38,6.47-8.84,38.81-9.49,47.43s.09,43.26,.61,46.49c0,0,4.88-5.26,4.36-8.49-.52-3.23-1.96-1.21-2.69-9.7-.73-8.49-1.59-27.49,.72-31.13,2.31-3.64,11.11-28.3,12.59-31.94,1.48-3.64-.75-5.66-1.28-8.49s1.51-6.47-1-9.7c-2.5-3.23-8.33-10.92-6.58-14.96,1.75-4.04,15.81-18.19,15.29-21.43-.52-3.23-18.35-41.64-20.18-43.26-1.82-1.62-3.47-5.66-1.73-8.49,1.74-2.83,3.19-5.66,3.22-7.68,.03-2.02-6.21-.81-7.3-3.64-1.09-2.83,.12-8.89,.12-8.89,0,0,15.49-14.96,17.49-16.98,2.01-2.02,1.05-3.51,1.53-8.09,.48-4.57,11.9-21.43,13.64-24.66,1.74-3.23,4.29-3.64,5.47-6.47,1.17-2.83,1.35-15.77,.33-23.45-1.02-7.68-2.28-30.47-3.31-37.75-1.03-7.28-8.33-22.08-11.81-35.02Z"/>
    <path class="cls-1" d="M79.55,383.9c-.2-11.91,3.29-58.53,12.74-78.96,9.46-20.43,25.42-64.74,25.42-64.74-.95,1.7-.21,7.18-.79,9.35-.59,2.17-5.95,13.14-6.69,14.79-.74,1.64-.03,5.14-2.37,8.96-2.34,3.82-10.51,24.17-11.37,27.27s.34,5.17-.23,7.48c-.57,2.31-6.43,14.14-9.18,20.36s-4.51,17.21-3.98,20.83c.53,3.61-1.34,9.28,.63,18.62,.64,3.04-4.18,16.04-4.18,16.04Z"/>
    <path class="cls-1" d="M87.66,349.26s.75-8.35,1.7-11.05c.94-2.7,7.54-8.35,8.49-7.82,.94,.54,1.13,6.2,0,7.28s-4.53,2.43-5.47,3.23c-.94,.81-4.53,7.01-4.71,8.35Z"/>
    <path class="cls-1" d="M53.95,288.93c-.94-.21,1.99,3.78,1.97,4.55-.02,.77,.85-2.52,.29-3.4-.56-.89-.9-.84-2.26-1.15Z"/>
    <path class="cls-1" d="M116.23,125.2s-2.91,10.92-2.51,13.24c.41,2.32,3.99,8.93,3.99,8.93,0,0-4.39-1.39-5.69-2.89-1.3-1.51,.34-2.71,.46-5.72,.12-3,.86-5.12,.85-7.52s2.89-6.03,2.89-6.03Z"/>
    <path class="cls-1" d="M50.74,160.78s1.94,3.63,3.79,3.84c1.84,.21,3.57,1.36,4.67,2.11,1.1,.75-2,15.29-1.92,16.04,.08,.75,.37-11.56,.2-13.06s-2.69-1.63-3.85-1.91c-1.16-.28-2.9-7.02-2.9-7.02Z"/>
    <path class="cls-1" d="M38,322.86s3.21,2.24,4.47,3.66c1.27,1.42,3.45,14.7,5.06,18.21,0,0-3.03-1.19-3.62-3.95-.58-2.75-.39-9.45-1.72-10.48-1.33-1.03-4.19-7.44-4.19-7.44Z"/>
  </g>
  <g>
    <path class="cls-1" d="M325.76,31.67s-5.58,27.77-7.44,39.74,14.46,49.52,19.3,57.86c4.83,8.35,40.38,28.79,39.28,33.95-4.82,22.65-17.51,65.59-20.97,66.62-3.46,1.03-10.73-1.69-14.54,4.34-3.81,6.03,9.32,21.69,12.83,27.17,3.51,5.48-6.85,70.56-8.99,74.46s4.35,21.54,10.11,27.98c5.76,6.44,8.91,21.81,8.91,21.81,0,0,2.02-.6,1.12-4.69-.9-4.08-4.17-16.16-6.57-18.16-2.4-2-11.14-15.43-11.81-23.12s9.4-57.19,11.16-63.69c1.76-6.51,.27-12.59-.84-16.06-1.11-3.48-14.24-19.13-13.68-21.48s14.97-1.21,15.06-2.32c.09-1.12,14.59-44.05,16.17-45.61,1.58-1.56,6.14-.2,5.54-3.83-.61-3.63-.51-19.43-.33-24.37,.18-4.95-13.38-17.21-20.71-23.18-7.33-5.97-19.05-7.91-21.79-16.33-2.74-8.43-13.62-23.13-15.17-37.89-1.56-14.76,.84-12.76,1.45-18.92,.6-6.16,.57-6.37-.66-10.68-1.23-4.31,2.53-19.79,2.57-23.61Z"/>
    <path class="cls-1" d="M341.05,253.36s-4.15,.15-5-1.66c-.84-1.81,1.92-3.16,2.3-3.2s1.8,1.98,2.7,4.86Z"/>
    <path class="cls-1" d="M360.89,387s-3.76-38.07-4.29-40.61c-.53-2.54-12.81-6.47-13.78-11.55-.97-5.08,3.34-23.42,.84-28.51-2.5-5.1-23.61-23.06-25.33-26.88-1.72-3.82-3.94-52.65-3.94-52.65,0,0-4.09,14.54-4.24,19.61-.15,5.07,2.74,.03,2.59,5.1-.15,5.07,2.48,29.82,2.63,34.89,.16,5.07,11.34,18.5,12.51,20.41,1.16,1.91,7.5-6.26,8.05-4.36,.55,1.91,5.01,5.75,4.06,7.01s-3.4,22.15-3.33,30.39c.06,8.24,10.27,3.27,11.74,5.19,1.47,1.92,5.12,1.95,5.6,6.39,.48,4.44,6.74,29.86,6.88,35.56Z"/>
    <path class="cls-1" d="M374.45,381.72s10.81-8.48,11.49-9.38c.68-.9,.14-15.81,1.51-17.49s7.44,1.45,8.61-2.04c1.17-3.49,3.57-30.32,4.46-32.75,.9-2.43,15.13-10.24,15.13-10.24,0,0-4.9-3.28-6.43-2.92-1.53,.36,.38,3.24-1.16,3.6-1.53,.36-8.53,6.09-10.02,6.81-1.49,.72-3.92,15.36-4.33,16.93-.41,1.58,2.91,8.19,2.42,9.05-.49,.86-1.01,6.53-1.52,5.54s-7.07-1.66-9.52-.71c-2.45,.95,.46,12.47,.09,14.41s.13,6.25-1.12,7.29c-1.26,1.04-7.95,11.13-9.63,11.9Z"/>
    <path class="cls-1" d="M355.93,40.82s-1.37-8.19-1.15-11.19c.21-3,4.98-11.63,6-11.61,1.02,.03,2.6,5.22,1.81,6.8s-3.63,4.56-4.31,5.79-2.49,8.85-2.34,10.2Z"/>
    <path class="cls-1" d="M377.64,104.64s4.41,15.25,4.34,19.02c-.07,3.77-2.64,15.74-2.64,15.74,0,0,4.1-4.37,5.16-7.34,1.06-2.98-.72-3.99-1.27-8.53-.54-4.55-1.57-7.41-1.91-11.1-.33-3.69-3.69-7.78-3.69-7.78Z"/>
    <path class="cls-1" d="M346.72,25.44s-11.74,38.04-12.48,45.7c-.29,3.02,6.27,11.91,12.28,19.58,6,7.67,3.91,35.39,3.91,36.6s-30.08,30.15-31.01,36.64c-1.04,7.18-1.71,30.59-2.04,35.89-.76,12.11,30.35,53.35,32.98,57.06,1.97,2.77,21.78-.7,20.78,.13-1.01,.83-14.74,43.81-14.24,56.88,.23,5.87,14.05,25.14,14,30.49-.05,5.35-.12,40.17-.12,40.17,0,0,13.16-41.49,12.19-52.48-.97-10.99-16.72-13.82-14.68-23.26,2.04-9.44,23.27-63.87,20.59-70.95-1.25-3.29-20.26,4.46-24.71-.77-5.86-6.88-35.4-40.14-35.4-40.14,0,0,8.65-24.9,11.72-27.76,3.07-2.85,16.03,1.77,18.12-1.65,3.98-6.51,16.68-28.18,13.7-36.64,0,0-10.23-5.67-11.05-10.53-1.92-11.39-2.67-29.88-2.65-33.83,.01-3.95-15-23.42-13.99-24.49,1.01-1.07,2.12-36.64,2.12-36.64Z"/>
  </g>
  <g>
    <path class="cls-1" d="M796.34,355.28c-.5-1.18,3.11,1.1,3.11,1.1,0,0-1.13,7.65-1.58,9.16s.07-5.53-.43-6.81c-.5-1.29-.41-1.81-1.1-3.44Z"/>
    <path class="cls-1" d="M800.72,365.85c-.35-.69-.31,2.94-.57,3.27-.25,.33,1.17-.56,1.2-1.31,.03-.75-.13-.95-.63-1.96Z"/>
    <path class="cls-1" d="M824.82,223.81s-.3,9.65-3.03,12.31c-2.73,2.67-22.5,16.12-23.99,16.96-1.49,.85-3.38,27.27-5.32,29.39-1.18,1.29-13.46,7.54-12.39,6.37,1.07-1.16,8.69-6.67,10.04-10.78,1.35-4.11,1.03-25.68,3.23-29.15,2.19-3.47,16.04-7.99,17.53-8.83,1.49-.85,8.69-6.05,9.64-7.7,.95-1.65,4.31-8.58,4.31-8.58Z"/>
    <path class="cls-1" d="M821.3,185.39s-2.91,10.92-2.51,13.24,3.99,8.93,3.99,8.93c0,0-4.39-1.39-5.69-2.89-1.3-1.51,.34-2.71,.46-5.72,.12-3,.86-5.12,.85-7.52s2.89-6.03,2.89-6.03Z"/>
    <path class="cls-1" d="M780.02,128.69s7.13,3.71,10.03,6.3,9.61,29.97,13.56,36.89c0,0-6.6-1.55-8.27-7.19-1.66-5.64-2.32-19.87-5.29-21.61-2.97-1.75-10.03-14.39-10.03-14.39Z"/>
    <path class="cls-1" d="M791.64,387s5.02-19.66,0-23.37c-5.02-3.71-17.08-10.59-19.09-16.48-2.01-5.89-4.46-31.39-5.02-34.53-.67-3.72,1.1-22.51,6.36-28.3,0,0-16.23,22.01-15.4,24.58,1.94,6.06,3.01,39.21,6.03,45.84,3.01,6.63,23.11,7.07,24.45,10.44,1.34,3.37,2.68,21.83,2.68,21.83Z"/>
  </g>
  <g>
    <path class="cls-1" d="M658.89,156.12s-1.28-4.19-3.04-5.02c-1.76-.83-3.25-2.54-4.19-3.64-.94-1.11,4.49-14.17,4.54-14.92,.05-.75-2.28,11.11-2.37,12.61-.09,1.51,2.34,2.5,3.42,3.17,1.07,.67,1.64,7.8,1.64,7.8Z"/>
    <path class="cls-1" d="M631.75,387s15.97-3.51,20.1-7.46c4.13-3.94,6.03-27.75,6.03-27.75,0,0-27.7-22.99-26.94-30.2,.77-7.21,4.91-37.72,13-46.51,8.09-8.79,31.5-5.61,31.5-5.61,0,0-15.49-9.09-19.07-9.74s-26.6,5.92-29.17,10.83c-2.57,4.91,.31,5.52,.53,10.53,.22,5.01-12.23,39.3-11.06,45.79,1.18,6.48,12.05,1.57,11.86,8.14-.13,4.55,16.63,19.15,16.38,21.57-.25,2.42,2.38,16.89,.46,17.79-1.91,.9-13.63,12.6-13.63,12.6Z"/>
    <path class="cls-1" d="M678.91,276.77s6.7,1.89,11.39,1.08c4.69-.81,8.71-13.18,8.71-21.35s-16.07-20.03-16.07-27.5,13.4-25.66,16.07-28.53c0,0-12.06,25.48-10.05,28.53,2.01,3.06,14.73,20.28,18.08,23.16,3.35,2.87-5.36,9.33-6.11,11.49-.75,2.15-4.77,16.15-6.53,19.02-1.76,2.87-2.76-1.44-4.77-2.15-2.01-.72-8.37-.3-10.72-3.74Z"/>
    <path class="cls-1" d="M657.69,159.48s6.38,.41,7.45,2.82c1.07,2.41,4.88,19.74,5.05,21.05,.17,1.3,17.73,4.6,19.38,5.77,1.65,1.17-.71,8.57-1.21,7.63-.5-.94-1.06-5.12-3.46-6.35s-16.92-1.31-18.67-3.27c-1.75-1.95-1.13-14.01-1.31-15.32-.17-1.3-1.77-7.62-2.62-8.47s-4.61-3.87-4.61-3.87Z"/>
    <path class="cls-1" d="M667.7,341.93c.68-.97-3.21,0-3.21,0,0,0-.19,7.82,0,9.43,.19,1.62,.86-5.39,1.56-6.47,.7-1.08,.7-1.62,1.64-2.96Z"/>
    <path class="cls-1" d="M661.68,350.7c.45-.55-.19,2.96,0,3.37,.19,.4-1.04-.94-.94-1.68,.09-.74,.28-.88,.94-1.68Z"/>
    <path class="cls-1" d="M684.76,244.11s-2.14,.02-2.64-1.81,.88-3.1,1.07-3.12c.19-.03,1,2.03,1.57,4.94Z"/>
  </g>
  <g>
    <path class="cls-1" d="M918.31,297.85c-.68-.97,3.21,0,3.21,0,0,0,.19,7.82,0,9.43s-.86-5.39-1.56-6.47c-.7-1.08-.7-1.62-1.64-2.96Z"/>
    <path class="cls-1" d="M956.36,263.69s-1.1,10.06-.7,12.33c.4,2.27,3.03,9.06,3.03,9.06,0,0-2.79-1.9-3.69-3.51-.9-1.61,.04-2.55-.08-5.41-.12-2.86,.2-4.78,.04-7.08-.16-2.3,1.39-5.39,1.39-5.39Z"/>
    <path class="cls-1" d="M937.29,331.01s1.07-4.31,.18-6.63-1.16-5.02-1.31-6.75c-.16-1.73,10.05-5.96,10.45-6.47,.39-.5-6.98,5.88-7.76,6.89-.79,1.01,.52,4.11,.98,5.65s-2.53,7.3-2.53,7.3Z"/>
    <path class="cls-1" d="M933.27,218.86s2.76,3.23,3.77,5.02c1,1.79,1,15.43,2.01,19.38,0,0-2.76-2.15-2.89-5.02-.13-2.87,1.13-9.33,0-10.77-1.13-1.44-2.89-8.61-2.89-8.61Z"/>
  </g>
</svg>