<?xml version="1.0" encoding="UTF-8"?>
<svg id="Layer_1" data-name="Layer 1" xmlns="http://www.w3.org/2000/svg" viewBox="0 0 1296 432">
  <defs>
    <style>
      .cls-1 {
        opacity: .5;
      }

      .cls-2 {
        opacity: .2;
      }

      .cls-3, .cls-4 {
        fill: #b5872a;
      }

      .cls-3, .cls-4, .cls-5 {
        stroke: #845e19;
        stroke-miterlimit: 10;
      }

      .cls-3, .cls-5 {
        stroke-width: 3.06px;
      }

      .cls-6 {
        opacity: .8;
      }

      .cls-4, .cls-7, .cls-8 {
        stroke-width: 1.84px;
      }

      .cls-9 {
        fill: #f6f6f5;
      }

      .cls-10 {
        opacity: .4;
      }

      .cls-11 {
        fill: #fb7b05;
      }

      .cls-12 {
        opacity: .75;
      }

      .cls-13 {
        opacity: .25;
      }

      .cls-13, .cls-14 {
        fill: #d33406;
      }

      .cls-15 {
        opacity: .6;
      }

      .cls-7, .cls-5 {
        fill: #fffaa4;
      }

      .cls-7, .cls-8 {
        stroke: #d6c636;
        stroke-linecap: round;
        stroke-linejoin: round;
      }

      .cls-8 {
        fill: none;
      }
    </style>
  </defs>
  <path class="cls-13" d="M45.35,139.73c-.46,.27-11.5-9.81-14.05-24.94-3.48-20.55,11.08-36.36,13.15-38.54,1.5,5.9,3.79,9.99,5.67,12.69,2.02,2.91,3.33,3.86,4.08,6.12,1.15,3.45,.36,7.99-3.85,14.05,1.43-2.75,1.26-6-.45-8.39-1.99-2.77-5.16-3.12-5.67-3.17-.84,3.37-.47,5.85,.45,7.71,.87,1.74,1.87,2.22,2.49,3.85,.87,2.26,.32,4.91-1.13,7.71,.57-3.15-.67-5.73-2.49-6.35-1-.34-2.35-.15-3.17,.68-1.85,1.86-.52,6.46,1.13,9.29,1.54,2.64,2.98,3.09,3.17,5.21,.17,1.85-.83,2.6-1.36,4.53-1.34,4.83,2.33,9.35,2.04,9.52Z"/>
  <path class="cls-13" d="M1122.3,323.96c-1.67-.15-4.36-12.9,.91-22.9,1.29-2.45,2.01-2.73,4.99-7.93,4.36-7.61,3.88-8.85,6.12-10.65,4.8-3.88,9.28-.02,14.05-3.4,5.14-3.63,1.76-9.38,6.35-14.51,5.09-5.69,14.76-4.79,29.7-3.4,8.37,.78,12.56,1.17,15.42,3.4,6.94,5.43,5.22,14.17,12.47,17.68,4.04,1.96,5.72-.19,9.75,1.36,8.33,3.22,11.63,16.49,11.79,24.94,.27,14.43-8.22,33.65-25.16,37.86-8.87,2.21-22.02,.79-28.34-8.16-7.99-11.31-1.12-29.04,0-29.02,.37,0,.66,1.99,.68,2.15,.36,2.55-.49,4.61-.68,5.1-1.56,4.03-.5,10.76,0,12.69,1.86,7.21,12.72,13.75,22.67,12.01,11.17-1.95,16.08-13.42,16.89-15.3,3.3-7.7,2.49-16.23,3.17-16.21,.47,.01,.63,3.98,.79,3.97,.23-.01,2.09-7.98-.91-14.96-2.65-6.18-6.55-5.63-21.42-17.46-5.4-4.29-6.31-5.6-9.97-7.37-2.54-1.23-9.07-3.97-17.12-3.29-8.42,.71-14.26,5.01-25.96,13.6-4.91,3.61-7.66,5.65-10.88,9.29-5.62,6.34-8.52,12.82-10.2,16.66-3.98,9.07-4.06,13.92-5.1,13.83Z"/>
  <g class="cls-1">
    <path class="cls-14" d="M254.97,134.03c-.98,.18-6.76-13.7-6.35-30.23,.42-16.71,7-28.71,10.58-35.06,4.57-8.11,8.54-15.15,16.93-20.55,12.54-8.07,26.12-6.78,31.13-6.05-8.54,4.47-12.48,9.69-14.51,13.6-3.59,6.94-2.25,11.95-6.05,21.16-2.58,6.26-6.02,10.79-8.46,13.6,.29-2.17,.51-6.15-1.21-10.58-.82-2.11-1.87-3.77-2.8-5-1.03,1.87-2.44,4.47-4.08,7.59-5.46,10.43-6.34,13.24-6.72,16.15-.26,1.96-.4,4.85,.3,8.46-2.32-2.62-4.63-5.24-6.95-7.86-.91,4.62-1.97,11.51-2.12,19.95-.17,9.36,.9,14.7,.3,14.81Z"/>
    <path class="cls-11" d="M307.26,42.14c-9.64-2.24-16.55-.18-19.58,.98-9.18,3.5-13.93,10.54-19.81,19.26-3.42,5.08-6.69,10.03-8,17.5-1.03,5.9-.41,10.91,.25,14.12-.04-3.05,.26-11.99,6.62-20.12,3.49-4.46,7.5-7,10.12-8.38,1.1,1.11,4.6,4.95,4.88,10.75,.13,2.65-.47,4.83-1,6.25,4.08-5.32,5.74-10.01,6.5-13.25,1.27-5.41,.39-8.22,2.88-12.75,1.68-3.07,3.79-4.9,6.62-7.38,3.88-3.38,7.65-5.57,10.51-6.98Z"/>
    <path class="cls-9" d="M307.26,42.14c-2.67-.89-6.71-1.74-11.37-.87-7.25,1.34-14.69,6.57-16.89,14.06-.53,1.79-.65,3.37-.67,4.5,2.32-3.46,3.99-5.01,5-4.67,1.31,.45,1.53,4.06,.67,10.83,.63-2.92,2.16-8.01,6.17-13,6.17-7.69,14.2-10.13,17.09-10.86Z"/>
  </g>
  <g class="cls-12">
    <path class="cls-14" d="M469.49,124.73c-1.26-.13-4.58-21.8,4.23-44.43,2.3-5.91,8.98-22.43,26.3-35.06,5.24-3.82,24.35-17.76,48.36-14.21,23.81,3.53,43.98,23.01,51.99,49.27-11.78-1.31-18.76-5.32-22.97-8.77-3.88-3.18-7.64-7.71-12.69-7.25-2.97,.27-5.24,2.15-6.65,3.63,.11-.7,.81-4.71,4.53-7.25,2.96-2.03,6.03-1.89,6.95-1.81-2.77-1.7-7.31-4.02-13.3-5.14-1.46-.27-20.86-3.74-29.05,6.67-3.68,4.67-2.3,8.23-6.92,12.67-3.88,3.73-8.74,4.96-12.09,5.44,2.82-.48,4.95-2.82,5.14-5.59,.17-2.56-1.35-5.01-3.78-6.03-2.15,2.34-5.71,5.91-10.73,9.51-7.88,5.64-12.06,5.93-13.9,10.58-1.66,4.18,.39,6.47-.3,13.9-.49,5.29-2.04,9.54-3.32,12.39-.71-3.63-1.41-7.25-2.12-10.88-1.61,2.52-3.59,5.98-5.44,10.28-3.28,7.63-3.65,12.15-4.23,12.09Z"/>
    <path class="cls-11" d="M600.36,80.3c-1.26-4.8-3.7-11.84-8.71-19.17-3.16-4.63-13.07-18.67-31.65-23.62-13.97-3.72-25.54-.36-31.61,1.4-14.37,4.17-23.45,12.02-28.64,16.6-10.23,9.03-16.39,18.84-20,26,11.73-11.57,21.18-16.63,26.75-19,4.35-1.85,7.57-2.59,9.5-1,2.83,2.33,1.2,8.31,1,9,1.35-2.75,3.55-6.56,7-10.5,.92-1.05,3.26-3.72,6-5.75,8.36-6.19,18.92-5.25,21.75-5,13.91,1.23,23.95,9.97,23.5,11-.21,.48-2.75-.77-6.53,.16-1.97,.48-3.53,1.38-4.69,2.22,7.02-.57,10.81,1.28,12.97,3.04,2.46,2.01,2.41,3.6,6,6.67,3.02,2.58,5.9,3.89,8.28,4.97,2.21,1.01,5.27,2.18,9.08,2.99Z"/>
    <path class="cls-9" d="M600.36,80.3c-.99-4.46-3.23-11.8-8.71-19.17-9.09-12.25-21.18-16.64-26.15-18.37-3.49-1.22-13.17-4.21-25.5-3-22.59,2.22-37.05,16.89-41.25,21.5,3.71-2.6,8.82-5.55,15.31-7.62,2.74-.88,5.33-1.47,7.69-1.88-.14,1.14-.35,2.4-.69,3.75-.51,2.04-1.16,3.8-1.81,5.25,2.05-2.83,6.09-7.61,12.75-11,12.5-6.36,24.65-2.99,28-1.92,11.05,3.54,17.23,11.17,19.38,14.1-.78-.22-1.65-.42-2.62-.56-1.97-.28-3.7-.22-5.06-.06,2.62,.39,6.38,1.33,9.94,3.94,2.88,2.11,3.93,4.08,6.12,6.5,2.34,2.58,6.2,5.91,12.61,8.55Z"/>
  </g>
  <g class="cls-12">
    <path class="cls-14" d="M687.77,106.18c-.66-.04-4.17-14.12,3.02-24.79,3.07-4.55,6.24-5.75,9.37-12.09,2.62-5.31,2.9-9.55,3.32-11.79,2.53-13.33,23.07-23.2,34.46-26.6,31.67-9.44,59.97,11.12,62.87,13.3,28.94,21.72,30.88,56.02,31.43,65.89,.68,12.09,1.56,27.55-9.07,41.41-12.38,16.15-31.71,18.81-36.57,19.34,1.97-4.54,4.02-10.34,5.44-17.23,1.3-6.31,1.75-11.97,1.81-16.62,1.36,.71,5,2.84,6.95,7.25,.88,1.99,1.14,3.82,1.21,5.14,2.93-4.14,6.48-10.1,9.07-17.83,3.67-10.94,3.79-20.54,3.38-26.54-.36,.73-1.66,3.18-4.59,4.47-3.98,1.77-7.66-.05-8.16-.3,4.53-5.75,5.31-10.66,5.44-13.3,.9-18.05-23.78-29.79-25.39-30.53-5.15-2.37-9.79-3.42-13-3.93,3.72-3.23,4.12-5.56,3.93-6.95-.74-5.28-11.85-9.53-21.46-8.46-9.07,1.01-9.03,5.89-25.99,12.09-4.52,1.65-6.78,2.13-9.67,4.53-5.22,4.34-4.44,8.22-9.37,13.9-5.09,5.87-7.95,4.06-12.39,9.07-7.53,8.49-5.43,20.59-6.05,20.55Z"/>
    <path class="cls-11" d="M786.6,170.87c2.33-3,5.47-7.81,7.56-14.37,1.63-5.12,2.09-9.66,2.17-13,.8,.83,2.18,2.49,3,5,.85,2.61,.67,4.85,.5,6,5.63-4.3,9.13-8.73,11.17-11.75,1.46-2.16,13.6-20.7,6.75-39.5-1.14-3.13-2.53-5.52-3.5-7,.09,.63,.51,3.94-1.75,7-2.29,3.1-5.63,3.66-6.25,3.75,1.79-2.6,3.98-6.59,4.75-11.75,2.13-14.25-7.83-28.8-20.25-34.75-5.4-2.59-10.43-3.14-13.5-3.25,8.46,.32,10.66-.83,11-2,.92-3.16-10.38-10.77-22.25-13-1.8-.34-14.57-2.58-26.5,3-2.73,1.28-4.62,2.59-10.5,5.25-6.15,2.78-7.91,3.07-11.25,5-2.73,1.58-6.46,4.22-10.25,8.75,1.06-3.12,3.13-7.92,7.25-12.5,6.29-6.99,13.91-9.6,24.25-13,3.79-1.25,12.2-3.96,19.25-4.5,23.48-1.81,46.66,19.49,58.25,37.75,1.98,3.11,19.55,31.45,11.75,61.25-1.99,7.59-4.87,12.42-5.69,13.74-10.59,17.17-29.39,22.38-35.96,23.88Z"/>
    <path class="cls-9" d="M786.6,170.87c2.16-2.6,5.55-6.38,10.23-10.37,5.69-4.85,8.64-6.03,12-8.83,8.5-7.07,11.1-17.3,12.33-22.17,3.26-12.83,.21-23.18-3.67-36.33-2.18-7.4-5.03-16.76-12.33-27.17-6.73-9.59-14.27-15.81-19.5-19.5,7.5,4.8,17.9,12.94,26.67,25.83,4.84,7.11,13.26,19.82,14.67,38.33,.54,7.03,1.46,19.48-5.33,32.83-6.13,12.05-15.22,18.38-17.67,20-6.77,4.49-13.23,6.44-17.4,7.37Z"/>
  </g>
  <g class="cls-12">
    <path class="cls-14" d="M898.23,93.07c-.81-.46,1.01-6.62,4.99-12.24,4.06-5.74,6.68-5.72,10.43-10.43,6.05-7.6,2.4-11.63,7.25-18.14,4.43-5.94,9.28-5,22.67-11.33,14.07-6.66,11.96-9.24,19.04-11.33,20.56-6.08,46.83,13.12,60.3,30.83,1.78,2.34,3.14,4.4,4.08,5.89-2.66-3.36-6.5-3.72-8.01-2.27-1.06,1.02-1.12,3.06-.45,4.99,2.89,3.15,6.86,8.1,10.13,14.96,2.65,5.57,4.06,10.77,5.14,10.58,1.5-.27-.14-10.56,1.66-11.03,1.9-.5,8.52,9.71,10.13,22.06,2.41,18.54-7.36,35.31-11.79,42.92-1.41,2.43-2.7,4.39-3.63,5.74,2.54-.36,5.54-.54,6.05,.6,1.13,2.57-10.94,10.15-14.51,12.39-13.12,8.24-23.47,14.75-38.99,17.83-9.57,1.9-35,6.95-49.57-7.25-5.84-5.7-10.18-14.73-7.56-18.14,2.68-3.48,10.86,1.22,29.92,3.93,13.97,1.99,23.06,3.17,32.1-.96,8.68-3.97,13.77-11.21,16.56-16.27,2.95,1.27,4.76,4.26,4.5,7.36-.23,2.79-2.11,5.23-4.8,6.24-.38,.14,11.52-2.85,17.53-13.6,7.02-12.55,1.21-25.33,.6-26.6,.76,.55,1.63,1.29,2.49,2.27,1.41,1.6,2.24,3.21,2.72,4.38-1.23-3.76-3.07-9.53-5.21-16.62-4.48-14.85-3.88-14.4-5.44-18.36-4.54-11.57-11.11-19.2-17.23-26.3-6.26-7.27-9.4-10.91-14.05-13.15-8.1-3.9-15.78-2.9-25.84-1.59-10.05,1.31-17.24,2.24-23.58,7.71-4.67,4.02-4.05,6.35-10.2,11.56-5.83,4.94-7.8,4.05-13.83,8.61-9.34,7.07-12.64,15.28-13.6,14.73Z"/>
    <path class="cls-11" d="M925.59,159.72c2.05-2.91,10.4-.97,15.36,1.18,6.81,2.95,7.5,6.39,13.3,9.1,6.36,2.97,12.42,2.04,19.25,1,12.02-1.83,21.19-7.2,27-11.5-.07,.96-.36,3.24-2,5.5-1.79,2.46-4.11,3.43-5,3.75,4.05-.63,11.76-2.41,19.25-8.25,1.56-1.22,12.56-10.08,15.25-25.5,1.15-6.61,.25-11.4-1.5-20.75-2.25-11.99-6.02-21.37-8.75-27.25-3.9-8.38-9.04-19.44-20.25-29.75-8.44-7.76-12.66-10.14-15.5-11-5.1-1.55-9.76-1.31-16-1-2.34,.12-7.95,.5-15.25,2.25-8.64,2.07-14.57,3.49-20.25,8.25-3.86,3.23-6.18,6.81-7.5,9.25-.17-2.67,.01-7,2.75-10.5,2.18-2.79,4.95-3.73,8.25-5,11.93-4.59,9.3-5.2,18.75-8.5,10.06-3.51,15.09-5.26,21-5,15.42,.69,26.34,13.46,30,17.75,6,7.03,6.14,10.56,14.75,26,5.66,10.15,10.85,18.05,14.25,23,1.56-.65,3.63-1.83,4.75-4,1.86-3.63,.02-8,0-8-.02,0,4.14,9.11,4,21.75-.13,11.78-3.92,20.26-8.5,30.5-4.15,9.28-7,15.47-13.5,21.5-4.96,4.6-9.51,6.75-16,9.75-17.95,8.3-33.38,9.32-36.5,9.5-11.64,.66-20.32,1.14-28.75-4.25-8.84-5.66-15.11-16.31-12.66-19.78Z"/>
    <path class="cls-9" d="M925.59,159.72c1.45-2.18,6.13-1.88,9.16-.83,5.52,1.9,6.15,6.49,10.88,10.49,5.43,4.6,12.05,4.86,18.88,5.12,12.22,.48,21.62-4.12,26.12-6.75,0,.57-.11,1.9-1,3.25-.68,1.03-1.52,1.6-2,1.88,3.57-.12,7.94-.66,12.71-2.21,13.24-4.31,20.98-13.61,24.17-18-3.69,5.44-10.7,14.09-22.33,20.17-5.28,2.76-9.58,3.98-14.33,5.33-14.82,4.21-27.02,4-34.33,3.33-7.61-.69-11.58-1.1-16.17-3.83-8.11-4.83-14.05-14.49-11.75-17.95Z"/>
  </g>
  <g class="cls-12">
    <path class="cls-14" d="M1146.77,45.68c-.18-.82,8.2-2.47,21.16-7.56,16.1-6.32,15.03-8.43,20.86-9.37,21.49-3.45,42.27,24.32,44.43,27.2,5.69,7.58,12.5,16.65,12.69,25.69,.02,.95,.03,4.96,2.12,9.37,1.51,3.18,4.68,7.82,6.95,7.25,2.69-.67,.94-10.17,2.72-10.58,1.59-.37,5.39,6.47,7.25,13.9,3.2,12.76,2.27,33.55-10.58,44.73-2.47,2.15-9.61,5.77-23.88,13-8.08,4.09-13.37,6.49-13,8.77,.3,1.84,4.3,3.51,7.56,2.72,4.76-1.16,4.62-6.77,10.28-9.07,3.1-1.26,7.12-1.18,7.86,.3,1.03,2.07-4.14,7.18-9.07,10.28-5.82,3.65-10,3.67-17.83,5.74-9.51,2.51-13.52,5.17-18.44,6.95-14.68,5.33-33.82,1.6-47.15-5.44-15.94-8.42-35.89-28.07-34.16-52.59,1.75-24.76,24.77-42.58,26.6-41.41,.6,.39-.95,2.93-3.02,9.37-.58,1.8-5.34,16.78-4.84,27.2,.74,15.45,13.66,33.87,29.32,37.18,16.53,3.49,33.02-10.53,35.67-6.65,1.28,1.87-3.93,5.76-2.72,7.86,2.04,3.55,21.34,.55,33.85-11.79,11.52-11.36,13.81-27.19,13.14-27.49-.39-.18-2.31,4.83-3.77,4.52-2.18-.47,1.1-11.93-1.81-25.69-2.42-11.45-8.17-20.02-13-27.2-3.71-5.53-7.31-9.78-9.97-12.69,1.49-.8,3.64-2.23,3.92-4.33,.77-5.76-13.12-12.36-21.76-15.02-5.14-1.58-13.88-4.26-23.58-1.51-4.32,1.22-5,2.45-11.18,4.23-8.32,2.4-16.45,2.91-16.62,2.12Z"/>
    <path class="cls-11" d="M1143.14,85.58c1.64,.99-3.9,9.21-6.81,24.76-2.11,11.27-3.95,21.09,.33,31.67,4.14,10.22,13.97,21.13,26.33,23.33,12.85,2.29,26.25-5.2,27-3.33,.39,.97-3.14,2.72-2.75,3.88,.66,1.93,11.73,.83,21.75-2.38,7.48-2.39,24.64-7.87,33.75-24,0,0,6.88-12.18,4.12-24.12-.13-.58-.65-2.83-1.5-2.88-1.23-.06-2.16,4.58-2.62,4.5-.59-.1,1.15-7.39,1-14.12-.21-9.76-4.84-18.38-14.08-35.21-3.71-6.75-5.36-9.07-5-9.33,.8-.59,13.17,8.42,17.33,22.67,2.46,8.43,.91,14.77,6.67,22.67,.85,1.17,4.16,5.71,6.67,5,3.13-.89,2.71-9.33,3.67-9.33,1.01,0,3.36,9.34,1.67,20-2.02,12.76-8.8,20.89-10.33,22.67-2.32,2.68-5.54,5.02-11.96,9.75-5.25,3.87-10.59,7.8-16.25,10-2.63,1.02-5.16,2.34-7.88,3.12-2.43,.7-3.64,.82-3.88,1.62-.44,1.53,3,4.22,6.5,5.5,4.14,1.51,7.57,.61,7.62,1,.09,.59-7.8,2.09-14.75,3.88-9.71,2.49-13.07,4.39-17.5,5.62-14.93,4.18-29.81-2.48-34.88-4.75-4.71-2.11-24.33-10.9-32.21-32.92-.85-2.36-6.74-19.64,.67-38,5.21-12.91,15.4-22.41,17.31-21.26Z"/>
    <path class="cls-9" d="M1143.14,85.58c-1.25-.88-6.56,3.81-10.14,8.68-1.47,2-6.96,9.92-7.84,24.41-.49,8.19-1.68,28.74,12.5,43,15.35,15.44,38.92,13.65,39.08,12.96,.13-.55-14.28-.56-26.92-10.96-.9-.74-17.64-14.69-17.83-35.33-.11-11.81,5.46-26.45,6.5-29.17,2.79-7.32,5.83-12.76,4.64-13.59Z"/>
  </g>
  <g class="cls-12">
    <path class="cls-14" d="M96.58,246.17c.16-.71,49.18-.48,62.57,24.79,3.33,6.3,3.47,11.48,10.28,24.18,5.67,10.59,8.04,10.77,12.09,19.65,3.09,6.79,6.64,14.56,6.05,24.18-1.22,19.92-19.23,32.82-21.16,34.15-5.75,3.99-7.36,3.18-18.14,9.97-10.24,6.46-12.01,9.23-16.93,12.09-12.84,7.48-27.78,4.32-39.6,1.81-14.21-3.01-33.26-7.05-45.94-24.48-17.37-23.88-8.2-52.79-6.95-56.52,1.2-3.59,11.12-31.68,38.69-40.5,23.03-7.37,47.31,2.26,47.15,6.05-.1,2.24-13.63-1.29-28.41,7.25-12.26,7.09-19.53,19.07-22.67,17.23-1.75-1.03-.29-5.23-1.71-5.82-2.25-.94-9.61,8.08-13.4,17.91-4.65,12.03-7.13,33.5,4.53,45.34,10.85,11,29.55,9.24,29.62,14.21,.05,3.25-7.93,4.86-7.56,6.95,.5,2.83,15.79,3.97,30.83,.91,17.55-3.57,29.6-11.79,35.67-16.02,8.68-6.05,13.08-9.04,16.32-14.51,10.72-18.07,1.21-41.48-.3-45.04-5.98-14.1-12.35-13.97-17.23-29.92-1.95-6.38-2.32-10.96-6.65-15.72-4.06-4.46-8.56-5.76-18.14-8.77-19.38-6.09-29.07-9.13-29.02-9.37Z"/>
    <path class="cls-11" d="M124.69,281.54c.36-1.37-9.32-7.01-20.55-8.19-19.74-2.07-35.55,10.58-39.39,13.65-5.76,4.61-24.18,20.96-25,47.75-.06,2.11-.51,31.2,20.5,47.5,7.53,5.84,15.07,7.91,24.5,10.5,10.96,3.01,23.14,6.35,36.5,2.5,5.07-1.46,3.5-2,27.5-15.75,13.01-7.45,14.02-7.61,17.5-10.5,5.01-4.16,15.01-12.45,17.5-24.75,2.47-12.2-3.49-23.27-10.75-36.75-5.46-10.14-10.42-15.1-12.75-24.75-.31-1.27-1.13-4.96-3.5-9.25-3.27-5.94-7.76-9.88-8.25-9.5-.56,.43,2.87,4.98,6.75,14,2.11,4.91,2.94,7.85,4.08,11.17,4.46,12.9,8.03,14.93,12.17,25.08,3.26,8,7.64,18.67,4.75,30.5-2.36,9.65-8.35,15.62-14,21.25-11,10.96-22.86,15.38-31.5,18.5-8.31,3-18.72,6.64-32.25,5.75-13.08-.86-25.54-5.71-25.25-8.25,.29-2.51,12.96-2.4,13-4.25,.03-1.57-9.19-1.28-17-5.25-11.8-5.99-17.66-20.32-19-30.75-3.26-25.39,17.51-49.07,25-47.25,1.89,.46,2.54,2.46,5,2.5,4.03,.07,5.4-5.25,10.75-9.5,4.73-3.77,9.85-4.52,16.5-5.5,10.4-1.53,16.9,.63,17.19-.46Z"/>
    <path class="cls-9" d="M124.69,281.54c.22-.98-8.49-5.15-18.94-6.04-13.56-1.16-24.19,3.71-28,5.5-4.66,2.2-22.89,10.8-30.75,32-7.1,19.16-1.05,35.98,.67,40.33-1.69-7.69-2.88-19.1,.67-31.83,4.05-14.53,12.92-25.93,21.58-30.38,.92-.47,7.2-3.7,9.33-1.62,1.24,1.21,.4,3.53,1.25,3.88,1.3,.52,3.43-4.78,7.5-8.12,1.05-.86,4.31-3.3,16.75-4,12.48-.7,19.74,1.16,19.94,.29Z"/>
  </g>
  <g class="cls-12">
    <g>
      <path class="cls-14" d="M347.99,335.16c1.02,.29,11.74-14.83,8.77-33.55-3.34-20.99-21.58-31.96-31.74-35.36-4.32-1.45-10.69-2.7-11.18-1.51-.55,1.31,6.56,4.55,6.04,6.35-.77,2.7-17.07-3.66-31.43,0-22.69,5.78-32.67,34.53-33.55,37.18-9.04,27.17,3.11,55.08,9.67,61.36,.48,.46,3.67,3.43,3.02,4.53-.82,1.4-6.95-1.6-7.56-.6-.92,1.5,10.05,13.29,25.99,19.65,16.67,6.64,35.27,5.94,45.94,.91,1.44-.68,3.31-1.71,10.28-5.14,10.62-5.23,13.78-6.53,13.6-7.1-.24-.76-6.19,.52-21.31,3.63-19.66,4.04-23.03,4.62-28.26,4.38-11.33-.51-20.73-4.35-20.55-5.44,.18-1.11,10.39,.04,10.58-1.21,.12-.84-4.42-1.55-8.77-3.63-9.03-4.31-13.43-12.69-16.93-19.34-5.43-10.32-7.29-20.64-6.35-21.01,.72-.28,2.77,5.31,4.38,4.99,2.09-.42,.89-10.33,1.51-17.68,1.24-14.81,11.28-36.12,29.92-41.26,18.31-5.04,34.49,8.38,35.82,9.52,2.23,1.91,10.74,9.39,13.15,21.31,2.16,10.66-1.79,18.83-1.06,19.04Z"/>
      <path class="cls-14" d="M363.56,377.77c-.44-1.01,5.38-3.31,13.6-10.43,7.33-6.35,12-10.4,14.51-16.32,3.79-8.97-1.18-13.29-4.53-39.9-1.48-11.77-.67-12.18-2.27-17.68-4.85-16.7-15.95-25.36-15.42-25.84,.63-.57,17.66,10.08,22.22,28.56,2.07,8.38-.54,9.81,1.81,22.22,2.76,14.54,6.88,15.42,6.8,24.48-.13,14.76-11.19,24.9-12.24,25.84-10.17,9.06-23.84,10.54-24.48,9.07Z"/>
    </g>
    <path class="cls-11" d="M347.99,335.16c.73,.3,6.19-6.46,7.91-15.93,3.36-18.47-9.91-33.99-11.74-36.06-7.74-8.78-17.42-13.2-17.83-12.67-.31,.4,4.4,3.88,3.67,5.33-.79,1.56-7.31-.38-10.5-1.17-14.51-3.59-28.09-.36-32,.83-21.19,6.47-28.88,35.58-30,39.83-4.86,18.39-.72,35.07,2.5,41.42,4.06,8.01,6.09,12.01,8.46,13.98,.69,.57,3.11,2.48,2.67,3.77-.24,.69-1.21,.95-1.88,1.12-3.26,.84-5.79-.71-6-.38-.4,.63,7.13,8.24,19.58,13.92,5.88,2.68,15.26,6.84,28,6.5,14.06-.38,25.17-6.05,25-6.67-.12-.45-6.28,1.69-17.17,2.67-16.97,1.53-25.92-1.52-28.17-2.33-6.36-2.31-11.89-5.88-11.5-7,.45-1.29,8.69,1.03,9.17-.33,.51-1.46-9.11-3.78-16-12.33-2.65-3.29-3.93-6.41-6.5-12.67-1.33-3.23-3.36-8.75-4-15.83-.13-1.45-.62-6.8,.67-7.17,1.39-.4,3.4,5.47,4.83,5.17,2.08-.44-1.89-12.95,2.33-26.17,3.02-9.45,9.04-15.51,12.33-18.83,4.86-4.9,10.5-10.58,19.33-12.67,13.58-3.2,25.24,4.34,34,10,8.21,5.31,10.99,9.79,12.17,12,2.76,5.2,3.15,10.11,3.33,12.83,.74,10.87-3.42,18.52-2.67,18.82Z"/>
    <path class="cls-9" d="M347.99,335.16c.61,.24,6.33-7.52,7.17-18.32,.82-10.53-3.41-18.63-5.5-22.5-5.96-11.05-15.05-17.4-15.5-17-.26,.23,2.2,2.96,1.5,3.83-.61,.77-3.25-.42-3.83-.67-6.23-2.69-26.52-6.84-38.67-3.83-14.64,3.63-22.75,18.99-21.83,20,1.06,1.16,14.07-16.92,34.33-17.83,12-.54,22.11,5.14,27.5,8.17,5.13,2.88,11.03,6.29,14.83,13.33,2.48,4.59,3.01,8.76,3.33,11.5,1.56,13.18-4.01,23.06-3.34,23.32Z"/>
  </g>
  <g class="cls-12">
    <g>
      <path class="cls-14" d="M538.8,342.63c2.01,4.06,16.11,3,26.3-3.32,12.81-7.95,18.89-23.86,17.53-37.48-2.43-24.31-28.32-38.92-29.62-37.78-.84,.73,6.38,9.85,5.14,10.88-.63,.52-2.9-1.49-5.59-3.32,0,0-5.82-3.98-16.47-6.95-10.58-2.96-24.83-1.3-36.88,4.23-16.73,7.69-27.11,21.9-25.99,23.35,.53,.69,3.76-1.36,4.76-.23,1.21,1.38-2.09,6.1-2.72,7.03-6.41,9.45-7.49,27.44-5.67,39.22,2.81,18.18,13.8,29.77,20.18,36.5,7.68,8.1,14.59,15.39,24.26,15.64,6.47,.17,8.46-2.97,19.27-3.17,8.37-.16,9.82,1.67,15.42,.45,9.82-2.13,15.92-10.06,15.64-10.43-.23-.3-4.56,4.82-12.24,6.35-6.5,1.3-9.38-1.18-17.91-2.04-10.72-1.09-12.57,2.17-19.27,1.36-14.66-1.77-23.77-19.55-26.3-24.48-1.89-3.69-11.4-23.26-3.17-45.79,1.63-4.47,9.72-26.62,31.06-32.19,14.51-3.78,26.53,2.34,28.11,3.17,3.2,1.69,17.73,9.96,18.59,22.44,1.25,18.18-27.51,30.31-24.41,36.57Z"/>
      <path class="cls-14" d="M582.82,370.26c-.16-.34,3.04-3.67,6.92-6.34,7.15-4.92,9.12-2.44,13.72-6.34,6.37-5.4,8.25-14.94,8.49-16.26,1.09-5.89,.1-10.09,.65-10.19,.72-.14,3.45,6.92,1.96,13.78-.68,3.11-1.99,5.08-4.63,9.02-2.92,4.37-4.44,6.64-7.02,8.47-4.74,3.35-6.89,.84-14.05,4.34-3.61,1.76-5.91,3.79-6.04,3.51Z"/>
    </g>
    <path class="cls-11" d="M538.8,342.63c.85,2.62,9.38,3.31,16.45,.96,14.69-4.88,20.1-21.92,20.76-24.09,0,0,5.85-19.4-7.5-38.25-2.1-2.96-5.16-6.38-5.75-6-.83,.53,3.97,7.97,2.5,9.25-1.43,1.25-7.37-4.63-14.5-8.75-11.96-6.91-24.03-6.98-27.75-7-25.49-.14-44.35,18.54-43.69,19.88,.29,.57,4.55-1.28,5.2-.11,.46,.83-1.38,2.38-3.76,5.74,0,0-1.04,1.47-3.56,6-2.44,4.38-7.25,20.69-2.52,41.42,1.61,7.07,3.94,16.78,11.67,26.33,5.68,7.02,12.96,12.34,13.29,12,.24-.25-3.22-3.81-5.25-6.12-14.13-16.1-16.14-37.36-16.25-38.75-.52-6.36-2.04-24.82,10.54-40.79,2.45-3.11,10.31-12.8,24.21-16.71,18.19-5.11,41.44,1.16,49.75,16.88,.61,1.15,6.32,12.32,2,22-1.5,3.36-5.23,6.7-12.62,13.25-10.08,8.92-13.82,10.97-13.2,12.88Z"/>
    <path class="cls-9" d="M538.8,342.63c.36,1.96,7.71,3.6,14.26,1.58,10.73-3.31,15.47-15.22,17.95-21.45,2.82-7.09,6.63-16.68,2.5-25.5-2.16-4.61-6.08-7.57-13.92-13.5-4.18-3.16-8.33-6.3-13.33-8.58-16.13-7.36-33.43-2.37-33.42-2.17,0,.14,7.72-1.68,18.58,.42,3.38,.65,11.88,2.62,21,8.67,5.72,3.79,10.62,7.04,13.92,13.58,.98,1.94,3.89,7.92,2.83,15.75-1.11,8.2-5.89,13.38-7.67,15.25-1.97,2.07-4.5,3.74-9.5,7-9.7,6.33-13.48,7.49-13.2,8.96Z"/>
  </g>
  <g class="cls-12">
    <g>
      <path class="cls-14" d="M742.99,329.74c-.83,.77,4.42,13.09,15.72,17.23,13.21,4.85,28.43-2.36,35.97-12.69,7.07-9.69,6.57-21.1,6.35-21.16-.14-.04-1.18,4.19-4.38,9.37-.91,1.48-2.08,3.36-2.57,3.17-.93-.36,1.94-7.64,2.57-14.21,1.19-12.48-5.7-22.71-8.01-26.15-11.59-17.2-31.14-20.41-34.76-21.01-22.76-3.74-39.79,8.45-43.83,11.33-14.04,10.04-21.39,24.34-20.7,24.94,.47,.41,5.24-5.03,6.35-4.23,1.11,.81-2.64,7.18-4.68,11.79-7.66,17.31-2.46,35.58-1.66,38.24,4.88,16.31,16.13,25.71,23.27,31.66,7.13,5.94,15.2,10.57,15.72,9.9,.53-.69-7.49-6.1-14.13-13.98-18.25-21.65-17.88-52.12-16.1-52.59,.93-.24,3.29,7.86,4.99,7.48,1.37-.31,.95-5.85,1.13-9.97,.48-10.91,5.63-21.7,12.24-28.79,1.56-1.67,13.47-14.04,30.26-13.15,1.61,.09,15.97,1,22.9,8.73,.58,.65,2.95,3.4,3.74,2.95,.93-.54-1.18-5.08-.68-5.33,.79-.4,8.09,7.86,10.88,19.5,2.21,9.23,.63,16.63,0,19.16-.98,3.9-1.9,7.57-4.99,11.11-4.47,5.11-11.53,7.71-17.8,7.14-10.79-.98-17.03-11.13-17.8-10.43Z"/>
      <path class="cls-14" d="M747.78,385.23c.05-.39,3.82,.73,9.17-.64,4.27-1.09,4.61-2.5,7.83-3.45,5.93-1.74,8.4,2.39,15.67,2.17,8.77-.27,14.39-4.87,14.67-4.33,.3,.58-5.95,6.72-14.67,7.67-5.83,.63-9.26-3.57-15.67-1.83-2.28,.62-2.23,1.17-4.75,1.75-6.46,1.49-12.32-.84-12.25-1.33Z"/>
    </g>
    <path class="cls-11" d="M742.99,329.74c.53-.47,5.41,8,15.34,10.76,.87,.24,12.76,3.35,21.5-3.83,7.54-6.2,7.7-15.93,7.83-24.67,.23-14.88-5.94-26.25-11.67-30.5-.5-.37-3.88-2.83-4.83-2-.94,.81,1.11,4.27,.5,4.67-.65,.42-3.53-3.15-5-4.67-6.15-6.33-16.28-6.02-22.17-5.83-15.19,.47-25.96,9.09-29.5,12-16.44,13.53-20.35,32.14-20.67,32-.35-.15,2.75-25.01,23.33-39.67,4.29-3.05,19.47-12.88,39-9.33,4.41,.8,18.66,3.62,28.5,16.67,2.09,2.77,9.05,12.73,8.5,26.83-.3,7.61-2.67,13.49-4.33,16.83,1.24,.26,2.69,.34,4.17-.17,2.63-.91,3.95-3.21,4-3.17,.09,.07-3.29,7.87-11,13.67-1.68,1.26-15.19,11.12-28.67,6-10.57-4.01-15.42-15.07-14.84-15.59Z"/>
  </g>
  <g class="cls-1">
    <path class="cls-14" d="M964.29,324.27c-.57,0-3.27,7.82,0,14.21,4.06,7.93,14.5,9.05,20.25,9.67,3.1,.33,19.58,2.11,25.69-6.95,2.68-3.98,.89-6.38,2.42-16.93,1.8-12.44,5.03-14.19,5.44-20.25,1.06-15.67-18.75-30.8-32.95-37.18-10.91-4.9-33.84-11.54-44.43-1.51-3.72,3.53-4.25,7.53-12.39,16.02-5.54,5.78-6.43,5.11-10.13,9.29-8.31,9.42-10.46,20.39-11.33,25.16-1.37,7.43-2.67,14.53,.3,22.37,3.34,8.81,8.68,9.56,11.18,19.65,1.37,5.52,.35,7.6,2.72,11.79,3.84,6.78,11.28,9.71,11.79,9.07,.51-.64-6.4-4.01-9.37-12.09-2.44-6.62,.56-8.49-1.51-16.02-2.22-8.07-6.31-8.07-8.16-16.17-1.48-6.48-.6-14.04,1.96-14.81,1.63-.49,3.7,1.81,4.38,2.57,3.37,3.74,3.22,8.8,3.48,8.77,.19-.02,.32-2.77-.45-7.41-1.16-6.99-2.64-7.81-2.57-11.49,.12-5.92,4.11-10.94,5.06-10.62,.88,.29-.88,5.11,.34,5.78,2.87,1.58,12.65-25,33.44-30.94,3.05-.87,12.8-3.15,21.88,1.25,9.04,4.38,15.12,14.27,15.98,13.6,.45-.35-1.43-2.93-.79-3.51,.92-.84,6.7,2.22,9.63,7.14,1.44,2.41,2.42,5.65,.91,18.36-1.27,10.61-1.9,15.92-3.63,18.59-5.27,8.14-17.14,13.31-26.75,9.97-.99-.34-7.39-2.66-10.43-8.61-2.28-4.46-1.54-8.76-1.96-8.77Z"/>
    <path class="cls-11" d="M927.88,296.25c-1.81-1.04-8.42,3.61-9.62,9.75-1.01,5.16,2.05,10.13,1,10.62-.48,.22-1.37-.67-1.75-1.12-1.7-2.04-.86-4.73-1.38-4.88-.65-.18-2.91,3.89-4.75,10.5-1.79,6.44-1.99,11.01-2.62,11-.52,0-.99-3.17-1.12-5.88-.78-16.08,9.78-29.02,10.5-29.88,3.18-3.79,2.58-1.87,10.38-9.5,9.93-9.73,10.01-11.99,15.75-16.12,3.25-2.35,9.78-7.05,18.62-7.5,5.71-.29,11.05,2.01,21.75,6.62,7.27,3.13,11.46,4.97,16.5,8.88,4.23,3.27,8.79,6.89,11.62,13.38,.72,1.65,2.6,6.09,2.38,11.88-.25,6.35-2.77,7.36-3.75,15.38-.69,5.68,.48,5.99-.5,10.62-.55,2.61-1.68,7.99-5.88,12-4.59,4.39-10.38,4.76-15.88,5.12-4.98,.33-12.49,.82-18.89-4.08-1.67-1.28-5.36-4.19-6.61-9.42-1.02-4.23,.08-7.8,.67-9.35-.15,2.13-.14,6.55,2.46,10.85,5.41,8.98,16.97,9.02,18.5,9,8.18-.1,15.12-4.65,19-9.88,1.48-1.99,1.61-2.85,5.12-25.25,1.44-9.19,1.95-12.39-.12-15.62-2.34-3.66-7.46-6.56-9.82-7.91-2.07-1.17-3.38-1.69-4.8-2.34-8.41-3.86-10.78-7.96-15.38-10.5-8.08-4.46-17.94-1.26-23.38,.5-3.69,1.2-16.45,5.92-22.38,17.5-2.08,4.07-3.89,10.1-4.75,9.88-.64-.17,.36-3.54-.88-4.25Z"/>
  </g>
  <g class="cls-2">
    <path class="cls-3" d="M80.3,126.26c-2.11-6.41-4.23-12.83-6.34-19.24,2.94-13.38,12.98-24.06,26.02-27.66,19.08-5.26,33.66,7.67,34.54,8.48,2.1,6.35,4.2,12.7,6.29,19.05,.25,1.13,.49,2.84,.26,4.86-.14,1.27-.64,4.12-3.54,8.19-3.66,5.13-8.06,7.9-10.8,9.58-1.71,1.05-6.21,3.66-12.73,5.46-3.5,.96-10.78,2.76-19.6,1.28-4.66-.78-7.17-2.09-9.02-3.52-2.83-2.19-4.32-4.84-5.07-6.48Z"/>
    <ellipse class="cls-5" cx="104.36" cy="97.87" rx="31.78" ry="18.97" transform="translate(-25.56 37.95) rotate(-18.4)"/>
    <g>
      <line class="cls-7" x1="98.25" y1="121.4" x2="102.27" y2="136"/>
      <line class="cls-7" x1="124.69" y1="112.33" x2="129.37" y2="126.23"/>
      <path class="cls-8" d="M91.43,89.13c-4.89,1.93-7.73,4.78-9.12,6.42-1.91,2.26-4.56,5.38-3.79,8.84,.54,2.42,2.49,3.85,3.74,4.77,3.76,2.76,8.07,2.75,12.02,2.73,2.1,0,5.11-.2,8.7-1.1"/>
      <path class="cls-8" d="M96.96,86.47c2.8-1.28,6.72-2.72,11.55-3.48,4.13-.65,7.74-.63,10.53-.4"/>
      <path class="cls-8" d="M122.6,83.21c1.38,.16,3.23,.59,5.05,1.75,1.11,.71,2.48,1.58,3.1,3.26,.45,1.22,.3,2.31,.2,2.95-.61,4-4.28,6.76-5.3,7.48"/>
      <path class="cls-8" d="M108.18,108.99c2.2-.87,4.62-1.95,7.16-3.31,2.35-1.26,4.44-2.56,6.28-3.81"/>
      <path class="cls-8" d="M81,112.03c4.37,1.54,13.13,3.9,23.6,1.72,1.99-.42,7.56-1.73,13.79-5.51,6.47-3.92,10.58-8.64,12.87-11.7"/>
      <path class="cls-8" d="M83.44,98.08c1.61-1.67,3.96-3.83,7.14-5.85,3.97-2.53,7.39-3.69,9.88-4.51,3.23-1.07,7.85-2.25,13.6-2.62"/>
      <path class="cls-8" d="M78.32,87.15c1.84-1.63,4.27-3.51,7.32-5.25,3.48-1.98,6.71-3.18,9.28-3.92"/>
      <path class="cls-8" d="M84.37,79.34c1.02-.63,2.3-1.31,3.85-1.91,1.69-.65,3.23-1.01,4.49-1.22"/>
      <path class="cls-8" d="M103.51,75.29c2.86-.84,7.72-1.86,13.72-1.21,5.54,.6,9.79,2.39,12.36,3.72"/>
      <path class="cls-8" d="M70.65,98.04c-.68,2.32-1.34,5.61-1.14,9.53,.4,7.78,3.94,13.34,5.72,15.77"/>
      <path class="cls-8" d="M103.95,141.41c3.09,.01,6.95-.29,11.23-1.41,9.08-2.36,15.35-7.14,18.73-10.18"/>
      <path class="cls-8" d="M134.41,81.58c1.65,1.87,3.55,4.42,5.22,7.68,2.62,5.12,3.54,9.86,3.89,13.06"/>
      <path class="cls-8" d="M141.58,88.35c1.46,2.33,3.86,6.86,4.49,13.07,.55,5.35-.45,9.67-1.24,12.18"/>
      <path class="cls-8" d="M81.96,134.14c1.08,1.35,3.35,3.83,7.08,5.4,2.49,1.06,4.75,1.34,6.26,1.4"/>
      <path class="cls-8" d="M117.08,142.08c3.46-.99,8.66-2.94,14.03-6.92,4.55-3.36,7.62-7,9.56-9.69"/>
    </g>
    <path class="cls-4" d="M55.09,88.88c17.36,2.71,34.72,5.42,52.08,8.12,.06-.05,1.01-.9,2.16-.56,.85,.25,1.67,1.11,1.5,1.95-.18,.89-1.4,1.28-2.25,1.2-1.12-.1-1.76-1.01-1.86-1.15-17.38-2.54-34.76-5.08-52.14-7.62-.75-.1-1.19-.75-1.09-1.25,.1-.53,.84-.98,1.6-.7Z"/>
    <path class="cls-4" d="M85.35,60.66c8.12,9.29,16.24,18.58,24.36,27.88,.05,0,.95-.03,1.41,.67,.34,.52,.4,1.36-.07,1.73-.5,.4-1.33,.06-1.75-.37-.56-.56-.49-1.34-.48-1.46-8.21-9.21-16.41-18.42-24.62-27.63-.36-.39-.3-.94-.02-1.17,.29-.24,.9-.15,1.18,.34Z"/>
  </g>
  <g class="cls-10">
    <path class="cls-3" d="M290.67,120.6c-.45-6.74-.91-13.47-1.36-20.21,6.18-12.23,18.56-20.08,32.09-20.31,19.79-.35,30.69,15.8,31.35,16.81,.45,6.67,.9,13.34,1.36,20.02-.04,1.16-.23,2.87-.96,4.77-.46,1.2-1.64,3.83-5.47,7.06-4.82,4.06-9.77,5.64-12.85,6.59-1.92,.59-6.92,2-13.69,2.12-3.63,.06-11.12,0-19.3-3.64-4.32-1.92-6.42-3.8-7.86-5.65-2.19-2.83-2.98-5.77-3.3-7.54Z"/>
    <ellipse class="cls-5" cx="321.04" cy="99.09" rx="31.78" ry="18.97" transform="translate(-6.13 22.62) rotate(-4)"/>
    <g>
      <line class="cls-7" x1="309.26" y1="120.37" x2="309.52" y2="135.5"/>
      <line class="cls-7" x1="337.13" y1="118.16" x2="338.2" y2="132.79"/>
      <path class="cls-8" d="M310.68,87.41c-5.21,.65-8.68,2.71-10.43,3.95-2.41,1.71-5.75,4.08-5.87,7.62-.08,2.48,1.45,4.35,2.43,5.55,2.96,3.61,7.14,4.67,10.97,5.64,2.03,.51,5,1.08,8.7,1.1"/>
      <path class="cls-8" d="M316.7,86.21c3.03-.54,7.18-.96,12.06-.5,4.16,.4,7.65,1.32,10.29,2.23"/>
      <path class="cls-8" d="M342.34,89.43c1.3,.5,2.98,1.38,4.46,2.96,.9,.96,2.01,2.14,2.19,3.93,.13,1.3-.29,2.31-.54,2.91-1.59,3.72-5.82,5.48-6.99,5.93"/>
      <path class="cls-8" d="M321.97,110.81c2.35-.29,4.96-.74,7.76-1.43,2.59-.63,4.94-1.37,7.03-2.13"/>
      <path class="cls-8" d="M294.88,107c3.85,2.58,11.74,7.05,22.43,7.53,2.03,.09,7.75,.21,14.73-1.9,7.24-2.19,12.4-5.73,15.38-8.13"/>
      <path class="cls-8" d="M300.72,94.09c1.97-1.22,4.79-2.72,8.38-3.89,4.48-1.46,8.07-1.73,10.7-1.91,3.39-.23,8.16-.23,13.82,.85"/>
      <path class="cls-8" d="M298.47,82.24c2.19-1.13,5.01-2.34,8.4-3.26,3.86-1.05,7.29-1.41,9.97-1.49"/>
      <path class="cls-8" d="M306.28,76.18c1.14-.36,2.56-.7,4.2-.89,1.8-.21,3.38-.18,4.65-.07"/>
      <path class="cls-8" d="M325.83,77.02c2.98-.1,7.94,.12,13.59,2.24,5.21,1.96,8.88,4.75,11.04,6.68"/>
      <path class="cls-8" d="M288.33,90.87c-1.24,2.08-2.69,5.1-3.47,8.94-1.55,7.63,.5,13.9,1.62,16.7"/>
      <path class="cls-8" d="M309.8,141.17c2.99,.78,6.8,1.45,11.23,1.43,9.38-.03,16.64-3.09,20.67-5.2"/>
      <path class="cls-8" d="M354.19,90.79c1.13,2.22,2.34,5.16,3.15,8.74,1.26,5.61,.98,10.43,.52,13.62"/>
      <path class="cls-8" d="M359.45,99.13c.83,2.62,2.03,7.6,1.1,13.77-.8,5.31-2.84,9.25-4.23,11.49"/>
      <path class="cls-8" d="M290.31,128.65c.71,1.58,2.29,4.54,5.51,7,2.15,1.64,4.26,2.47,5.72,2.91"/>
      <path class="cls-8" d="M322.35,145.08c3.59-.1,9.12-.7,15.31-3.21,5.24-2.13,9.12-4.88,11.67-7.01"/>
    </g>
    <path class="cls-4" d="M264.21,85.41c17.37,2.65,34.74,5.29,52.11,7.94,.06-.05,1-.9,2.15-.57,.85,.25,1.68,1.11,1.51,1.95-.18,.89-1.39,1.28-2.24,1.21-1.12-.09-1.76-1-1.86-1.14-17.39-2.48-34.78-4.96-52.16-7.44-.75-.1-1.19-.75-1.09-1.25,.1-.53,.83-.99,1.59-.71Z"/>
    <path class="cls-4" d="M307.78,56.45c7.37,9.9,14.74,19.79,22.11,29.69,.05,0,.95,.05,1.36,.78,.3,.54,.29,1.38-.21,1.72-.53,.36-1.33-.04-1.72-.5-.52-.6-.39-1.37-.37-1.49-7.46-9.82-14.93-19.64-22.39-29.47-.33-.42-.22-.96,.07-1.16,.31-.21,.9-.08,1.15,.43Z"/>
  </g>
  <g class="cls-15">
    <path class="cls-3" d="M503.28,115.17c.91-6.69,1.81-13.38,2.72-20.07,8.5-10.74,22.21-15.95,35.51-13.48,19.46,3.62,26.91,21.62,27.35,22.74-.89,6.63-1.79,13.26-2.68,19.88-.27,1.13-.8,2.76-1.9,4.48-.69,1.08-2.38,3.42-6.77,5.82-5.54,3.01-10.71,3.57-13.91,3.88-2,.2-7.18,.58-13.84-.67-3.57-.67-10.9-2.23-18.19-7.43-3.85-2.75-5.53-5.01-6.57-7.11-1.58-3.21-1.76-6.25-1.72-8.05Z"/>
    <ellipse class="cls-5" cx="537.34" cy="100.17" rx="18.97" ry="31.78" transform="translate(367.41 619.68) rotate(-82.45)"/>
    <g>
      <line class="cls-7" x1="521.54" y1="118.66" x2="518.76" y2="133.54"/>
      <line class="cls-7" x1="549.29" y1="122.07" x2="547.41" y2="136.62"/>
      <path class="cls-8" d="M529.53,86.66c-5.24-.41-9.04,.92-11.01,1.78-2.71,1.19-6.45,2.84-7.28,6.29-.58,2.41,.55,4.55,1.27,5.93,2.18,4.13,6.06,6,9.62,7.72,1.89,.91,4.69,2.06,8.3,2.82"/>
      <path class="cls-8" d="M535.67,86.68c3.08,.08,7.23,.49,11.91,1.92,4,1.22,7.23,2.82,9.64,4.25"/>
      <path class="cls-8" d="M560.15,94.97c1.18,.75,2.64,1.95,3.77,3.79,.69,1.13,1.54,2.5,1.36,4.28-.13,1.3-.74,2.21-1.11,2.74-2.3,3.33-6.8,4.2-8.04,4.41"/>
      <path class="cls-8" d="M535.91,111.84c2.36,.18,5,.27,7.89,.16,2.67-.1,5.11-.35,7.31-.68"/>
      <path class="cls-8" d="M510.13,102.68c3.25,3.3,10.09,9.26,20.47,11.87,1.97,.5,7.55,1.75,14.81,1.08,7.53-.69,13.3-3.13,16.69-4.89"/>
      <path class="cls-8" d="M518.43,91.2c2.18-.8,5.24-1.71,8.98-2.14,4.68-.54,8.26-.08,10.86,.27,3.37,.45,8.04,1.41,13.37,3.6"/>
      <path class="cls-8" d="M518.61,79.14c2.37-.67,5.37-1.29,8.88-1.51,3.99-.26,7.42,.08,10.06,.54"/>
      <path class="cls-8" d="M527.47,74.77c1.19-.12,2.65-.17,4.29-.03,1.8,.16,3.34,.5,4.57,.87"/>
      <path class="cls-8" d="M546.46,79.5c2.94,.5,7.76,1.71,12.86,4.91,4.72,2.97,7.75,6.44,9.48,8.75"/>
      <path class="cls-8" d="M506.95,85.57c-1.63,1.79-3.66,4.45-5.2,8.07-3.04,7.17-2.29,13.72-1.76,16.68"/>
      <path class="cls-8" d="M517.91,139.14c2.78,1.36,6.38,2.78,10.72,3.65,9.2,1.85,16.92,.3,21.3-.96"/>
      <path class="cls-8" d="M571.48,98.68c.66,2.4,1.26,5.53,1.34,9.19,.11,5.75-1.13,10.42-2.22,13.45"/>
      <path class="cls-8" d="M574.97,107.9c.29,2.73,.47,7.85-1.68,13.72-1.85,5.05-4.64,8.5-6.44,10.41"/>
      <path class="cls-8" d="M501.32,122.98c.38,1.69,1.34,4.91,4,7.96,1.78,2.04,3.68,3.28,5.02,4"/>
      <path class="cls-8" d="M529.42,145.49c3.54,.62,9.07,1.14,15.64-.08,5.56-1.03,9.91-2.96,12.84-4.53"/>
    </g>
    <path class="cls-4" d="M491.55,88.62c17.5-1.58,35-3.17,52.49-4.75,.04-.06,.76-1.11,1.96-1.06,.89,.04,1.89,.67,1.93,1.53,.04,.91-1.05,1.58-1.89,1.71-1.11,.18-1.95-.55-2.08-.67-17.48,1.75-34.95,3.5-52.43,5.26-.75,.09-1.33-.44-1.36-.95-.03-.54,.57-1.16,1.38-1.07Z"/>
    <path class="cls-4" d="M522.62,59.68c10.22,6.91,20.45,13.82,30.67,20.72,.05-.02,.91-.27,1.54,.29,.47,.41,.73,1.21,.37,1.69-.38,.51-1.27,.4-1.79,.1-.68-.4-.82-1.17-.84-1.29-10.29-6.81-20.58-13.61-30.86-20.42-.44-.29-.53-.83-.32-1.12,.22-.3,.83-.38,1.23,.03Z"/>
  </g>
  <g class="cls-6">
    <path class="cls-3" d="M722.72,120.68c-.47-6.74-.94-13.47-1.42-20.21,6.15-12.24,18.5-20.13,32.03-20.41,19.79-.41,30.74,15.71,31.39,16.72,.47,6.67,.94,13.34,1.41,20.01-.04,1.16-.23,2.87-.95,4.77-.45,1.2-1.63,3.83-5.45,7.07-4.81,4.08-9.76,5.67-12.83,6.63-1.91,.6-6.92,2.02-13.69,2.16-3.63,.07-11.12,.03-19.32-3.58-4.33-1.91-6.43-3.79-7.87-5.63-2.2-2.82-3-5.76-3.32-7.53Z"/>
    <ellipse class="cls-5" cx="753.03" cy="99.08" rx="31.78" ry="18.97" transform="translate(-5.21 54.92) rotate(-4.16)"/>
    <g>
      <line class="cls-7" x1="741.31" y1="120.39" x2="741.62" y2="135.52"/>
      <line class="cls-7" x1="769.18" y1="118.1" x2="770.29" y2="132.72"/>
      <path class="cls-8" d="M742.64,87.43c-5.21,.67-8.67,2.73-10.42,3.98-2.41,1.72-5.74,4.1-5.85,7.64-.08,2.48,1.46,4.35,2.45,5.55,2.97,3.6,7.15,4.65,10.98,5.61,2.03,.51,5.01,1.06,8.7,1.08"/>
      <path class="cls-8" d="M748.65,86.21c3.03-.55,7.18-.98,12.05-.54,4.16,.38,7.65,1.3,10.3,2.2"/>
      <path class="cls-8" d="M774.31,89.36c1.3,.49,2.98,1.37,4.47,2.94,.91,.96,2.01,2.14,2.2,3.92,.14,1.3-.28,2.31-.53,2.91-1.58,3.72-5.81,5.5-6.98,5.95"/>
      <path class="cls-8" d="M754,110.79c2.35-.3,4.95-.76,7.75-1.45,2.59-.64,4.94-1.38,7.02-2.15"/>
      <path class="cls-8" d="M726.9,107.06c3.86,2.57,11.76,7.01,22.45,7.47,2.03,.09,7.75,.18,14.72-1.95,7.24-2.21,12.38-5.77,15.35-8.17"/>
      <path class="cls-8" d="M732.7,94.14c1.97-1.22,4.78-2.73,8.36-3.92,4.47-1.48,8.07-1.75,10.69-1.94,3.39-.24,8.16-.25,13.82,.81"/>
      <path class="cls-8" d="M730.42,82.29c2.18-1.13,5-2.35,8.39-3.29,3.85-1.06,7.29-1.43,9.96-1.52"/>
      <path class="cls-8" d="M738.21,76.2c1.14-.36,2.56-.71,4.2-.9,1.8-.21,3.38-.19,4.65-.08"/>
      <path class="cls-8" d="M757.76,76.99c2.98-.11,7.94,.09,13.59,2.2,5.22,1.95,8.9,4.73,11.06,6.65"/>
      <path class="cls-8" d="M720.3,90.95c-1.23,2.08-2.68,5.1-3.45,8.95-1.53,7.64,.54,13.9,1.67,16.69"/>
      <path class="cls-8" d="M741.91,141.18c2.99,.77,6.81,1.43,11.24,1.4,9.38-.06,16.63-3.14,20.66-5.26"/>
      <path class="cls-8" d="M786.16,90.68c1.14,2.22,2.36,5.15,3.17,8.73,1.28,5.61,1.01,10.43,.56,13.62"/>
      <path class="cls-8" d="M791.44,99.01c.84,2.61,2.05,7.6,1.14,13.77-.79,5.32-2.81,9.26-4.19,11.5"/>
      <path class="cls-8" d="M722.39,128.73c.71,1.58,2.31,4.53,5.53,6.98,2.16,1.64,4.27,2.46,5.73,2.89"/>
      <path class="cls-8" d="M754.48,145.06c3.59-.11,9.12-.72,15.3-3.25,5.23-2.14,9.11-4.91,11.65-7.04"/>
    </g>
    <path class="cls-4" d="M701.8,94.1c15.92-7.43,31.85-14.85,47.77-22.28,.02-.08,.34-1.31,1.48-1.66,.85-.27,2.01,0,2.33,.78,.35,.84-.45,1.84-1.2,2.25-.99,.54-2.02,.15-2.19,.08-15.85,7.58-31.69,15.15-47.54,22.73-.67,.33-1.41,.03-1.6-.43-.21-.49,.15-1.28,.93-1.47Z"/>
    <path class="cls-4" d="M735.13,66.28c10.9,5.78,21.8,11.57,32.7,17.35,.05-.02,.87-.37,1.56,.12,.51,.36,.86,1.12,.55,1.64-.33,.55-1.22,.53-1.77,.28-.72-.32-.94-1.07-.97-1.19-10.95-5.68-21.9-11.35-32.85-17.03-.47-.24-.61-.77-.44-1.08,.19-.33,.78-.46,1.22-.1Z"/>
  </g>
  <g class="cls-6">
    <path class="cls-3" d="M941.75,124.05c-1.42-6.6-2.85-13.2-4.27-19.8,4.34-12.99,15.46-22.55,28.81-24.75,19.53-3.21,32.66,11.19,33.45,12.09,1.41,6.54,2.83,13.07,4.24,19.61,.13,1.15,.18,2.87-.26,4.86-.28,1.25-1.07,4.03-4.39,7.77-4.18,4.72-8.85,7-11.76,8.38-1.81,.86-6.56,2.98-13.24,4.08-3.59,.59-11.01,1.61-19.63-.8-4.55-1.27-6.91-2.83-8.59-4.46-2.58-2.48-3.78-5.27-4.36-6.98Z"/>
    <ellipse class="cls-5" cx="968.69" cy="98.36" rx="31.78" ry="18.97" transform="translate(1.34 209.11) rotate(-12.33)"/>
    <g>
      <line class="cls-7" x1="960.12" y1="121.12" x2="962.56" y2="136.06"/>
      <line class="cls-7" x1="987.37" y1="114.9" x2="990.55" y2="129.21"/>
      <path class="cls-8" d="M956.74,88.31c-5.06,1.4-8.19,3.94-9.74,5.42-2.14,2.04-5.1,4.87-4.7,8.39,.28,2.47,2.06,4.1,3.21,5.14,3.45,3.14,7.74,3.58,11.67,3.99,2.09,.21,5.11,.34,8.76-.17"/>
      <path class="cls-8" d="M962.53,86.25c2.92-.98,6.97-1.99,11.86-2.24,4.18-.21,7.76,.2,10.51,.72"/>
      <path class="cls-8" d="M988.36,85.72c1.36,.3,3.15,.93,4.84,2.28,1.03,.82,2.3,1.83,2.74,3.57,.32,1.26,.05,2.33-.11,2.96-1.03,3.91-4.97,6.27-6.06,6.88"/>
      <path class="cls-8" d="M971.3,109.82c2.28-.63,4.8-1.45,7.47-2.54,2.47-1,4.69-2.07,6.64-3.12"/>
      <path class="cls-8" d="M943.95,109.98c4.18,1.99,12.64,5.27,23.28,4.21,2.02-.2,7.7-.92,14.3-4.02,6.85-3.22,11.44-7.47,14.04-10.27"/>
      <path class="cls-8" d="M947.86,96.36c1.77-1.49,4.34-3.39,7.72-5.06,4.22-2.1,7.74-2.88,10.31-3.44,3.32-.72,8.04-1.41,13.8-1.17"/>
      <path class="cls-8" d="M943.92,84.95c2-1.43,4.61-3.04,7.84-4.44,3.67-1.6,7.01-2.45,9.65-2.92"/>
      <path class="cls-8" d="M950.76,77.83c1.08-.52,2.43-1.06,4.03-1.49,1.75-.47,3.32-.66,4.59-.74"/>
      <path class="cls-8" d="M970.23,75.83c2.93-.53,7.88-1.04,13.77,.25,5.44,1.18,9.48,3.42,11.89,5.01"/>
      <path class="cls-8" d="M935.14,94.97c-.93,2.23-1.93,5.43-2.14,9.35-.42,7.78,2.51,13.68,4.02,16.29"/>
      <path class="cls-8" d="M963.66,141.62c3.07,.34,6.94,.44,11.32-.21,9.28-1.39,16.02-5.47,19.7-8.14"/>
      <path class="cls-8" d="M1000.28,85.35c1.44,2.04,3.07,4.77,4.38,8.19,2.06,5.37,2.48,10.18,2.49,13.4"/>
      <path class="cls-8" d="M1006.7,92.84c1.2,2.47,3.11,7.23,3.08,13.47-.02,5.37-1.47,9.57-2.52,11.98"/>
      <path class="cls-8" d="M942.57,132.06c.93,1.46,2.93,4.16,6.47,6.12,2.37,1.31,4.58,1.83,6.08,2.05"/>
      <path class="cls-8" d="M976.65,143.67c3.54-.62,8.92-2.01,14.68-5.39,4.88-2.86,8.32-6.15,10.53-8.63"/>
    </g>
    <path class="cls-4" d="M922.1,103.98c15.64-8,31.28-16.01,46.92-24.01,.02-.08,.29-1.32,1.42-1.72,.84-.3,2.01-.08,2.36,.7,.38,.83-.38,1.85-1.11,2.3-.97,.58-2.02,.22-2.18,.16-15.56,8.15-31.11,16.3-46.67,24.46-.66,.36-1.4,.09-1.62-.37-.23-.49,.1-1.29,.88-1.51Z"/>
    <path class="cls-4" d="M952.27,69.12c9.09,8.35,18.17,16.7,27.26,25.05,.05,0,.94-.13,1.48,.51,.4,.48,.54,1.3,.12,1.73-.46,.45-1.31,.2-1.78-.17-.62-.5-.64-1.28-.64-1.4-9.16-8.26-18.33-16.52-27.49-24.77-.4-.35-.4-.9-.15-1.16,.27-.27,.87-.25,1.21,.21Z"/>
  </g>
  <g class="cls-6">
    <path class="cls-3" d="M1164.04,128.77c-3-6.05-6-12.1-9-18.15,1.03-13.66,9.46-25.65,21.86-31.05,18.15-7.9,34.4,2.84,35.39,3.52,2.97,5.99,5.95,11.98,8.92,17.97,.4,1.09,.88,2.74,.94,4.77,.04,1.28-.05,4.17-2.35,8.61-2.9,5.6-6.87,8.96-9.34,11.01-1.54,1.28-5.63,4.5-11.84,7.2-3.33,1.45-10.28,4.26-19.23,4.03-4.73-.12-7.39-1.05-9.42-2.21-3.11-1.77-4.96-4.19-5.94-5.7Z"/>
    <ellipse class="cls-5" cx="1183.86" cy="97.26" rx="31.78" ry="18.97" transform="translate(81.11 538.77) rotate(-26.52)"/>
    <g>
      <line class="cls-7" x1="1181.13" y1="121.43" x2="1187.16" y2="135.31"/>
      <line class="cls-7" x1="1206.02" y1="108.71" x2="1212.62" y2="121.81"/>
      <path class="cls-8" d="M1169.82,90.44c-4.57,2.6-6.98,5.83-8.12,7.64-1.57,2.51-3.75,5.97-2.5,9.29,.87,2.32,3,3.46,4.38,4.2,4.12,2.2,8.38,1.58,12.29,1.01,2.08-.3,5.03-.92,8.46-2.31"/>
      <path class="cls-8" d="M1174.92,87.03c2.59-1.66,6.27-3.64,10.94-5.08,4-1.23,7.57-1.71,10.36-1.88"/>
      <path class="cls-8" d="M1199.84,80.18c1.39-.04,3.28,.13,5.25,1.02,1.2,.54,2.68,1.21,3.53,2.79,.62,1.15,.62,2.24,.61,2.9-.04,4.04-3.28,7.29-4.19,8.16"/>
      <path class="cls-8" d="M1189.21,107.73c2.06-1.17,4.29-2.58,6.62-4.29,2.15-1.58,4.04-3.16,5.68-4.66"/>
      <path class="cls-8" d="M1162.73,114.58c4.54,.91,13.55,2.01,23.6-1.63,1.91-.69,7.24-2.78,12.88-7.4,5.85-4.8,9.26-10.04,11.09-13.4"/>
      <path class="cls-8" d="M1163.17,100.43c1.35-1.88,3.38-4.35,6.25-6.8,3.58-3.07,6.79-4.69,9.15-5.86,3.04-1.51,7.45-3.34,13.09-4.51"/>
      <path class="cls-8" d="M1156.56,90.33c1.59-1.88,3.73-4.08,6.51-6.23,3.16-2.45,6.2-4.09,8.64-5.19"/>
      <path class="cls-8" d="M1161.45,81.75c.92-.77,2.1-1.63,3.54-2.43,1.58-.88,3.05-1.46,4.27-1.84"/>
      <path class="cls-8" d="M1179.83,75.04c2.72-1.23,7.38-2.93,13.41-3.14,5.57-.19,10.03,.99,12.76,1.94"/>
      <path class="cls-8" d="M1150.5,102.19c-.35,2.39-.54,5.74,.22,9.59,1.49,7.65,5.79,12.65,7.89,14.8"/>
      <path class="cls-8" d="M1189.59,140.43c3.06-.42,6.84-1.27,10.92-2.98,8.65-3.62,14.19-9.23,17.11-12.72"/>
      <path class="cls-8" d="M1211.3,76.9c1.89,1.62,4.14,3.87,6.25,6.86,3.32,4.7,4.9,9.26,5.7,12.38"/>
      <path class="cls-8" d="M1219.36,82.59c1.77,2.1,4.79,6.25,6.29,12.3,1.29,5.22,.92,9.63,.5,12.23"/>
      <path class="cls-8" d="M1166.8,136.34c1.26,1.19,3.86,3.31,7.77,4.35,2.62,.69,4.89,.65,6.4,.5"/>
      <path class="cls-8" d="M1202.69,139.24c3.28-1.47,8.16-4.14,12.91-8.83,4.03-3.97,6.56-8,8.09-10.94"/>
    </g>
    <path class="cls-4" d="M1133.81,95.32c17.57,.23,35.14,.46,52.7,.69,.05-.06,.87-1.03,2.05-.86,.88,.13,1.81,.86,1.76,1.72-.06,.91-1.2,1.46-2.06,1.51-1.13,.06-1.89-.75-2-.88-17.56-.06-35.13-.12-52.69-.18-.75,0-1.28-.58-1.25-1.08,.03-.54,.69-1.09,1.48-.92Z"/>
    <path class="cls-4" d="M1154.18,67.01c11.91,3.23,23.82,6.46,35.73,9.69,.04-.03,.77-.55,1.55-.22,.57,.24,1.08,.91,.9,1.48-.2,.61-1.07,.79-1.66,.67-.78-.16-1.15-.84-1.21-.95-11.94-3.11-23.87-6.23-35.81-9.34-.51-.13-.77-.62-.66-.96,.11-.36,.66-.62,1.17-.37Z"/>
  </g>
  <g class="cls-6">
    <path class="cls-3" d="M80.82,342.66c-2.25-6.37-4.49-12.74-6.74-19.1,2.67-13.44,12.49-24.33,25.45-28.19,18.97-5.65,33.81,6.97,34.71,7.77,2.23,6.31,4.46,12.61,6.69,18.92,.27,1.13,.55,2.83,.36,4.85-.12,1.28-.55,4.13-3.37,8.27-3.55,5.21-7.9,8.06-10.6,9.8-1.69,1.08-6.13,3.79-12.62,5.72-3.48,1.04-10.72,2.99-19.57,1.68-4.68-.69-7.21-1.94-9.09-3.34-2.87-2.13-4.42-4.75-5.2-6.37Z"/>
    <ellipse class="cls-5" cx="104.3" cy="313.77" rx="31.78" ry="18.97" transform="translate(-99.14 53.11) rotate(-19.58)"/>
    <g>
      <line class="cls-7" x1="98.67" y1="337.43" x2="102.98" y2="351.94"/>
      <line class="cls-7" x1="124.92" y1="327.82" x2="129.88" y2="341.62"/>
      <path class="cls-8" d="M91.18,305.31c-4.85,2.03-7.63,4.94-8.98,6.61-1.87,2.3-4.44,5.47-3.61,8.92,.59,2.41,2.56,3.8,3.84,4.69,3.82,2.68,8.13,2.58,12.08,2.48,2.1-.05,5.11-.31,8.67-1.28"/>
      <path class="cls-8" d="M96.66,302.53c2.78-1.34,6.66-2.86,11.48-3.72,4.12-.74,7.72-.79,10.52-.62"/>
      <path class="cls-8" d="M122.22,298.75c1.39,.13,3.24,.53,5.09,1.65,1.13,.69,2.51,1.53,3.16,3.19,.48,1.21,.35,2.3,.26,2.95-.53,4.01-4.14,6.84-5.14,7.59"/>
      <path class="cls-8" d="M108.34,324.81c2.18-.91,4.57-2.05,7.09-3.46,2.33-1.31,4.39-2.65,6.2-3.94"/>
      <path class="cls-8" d="M81.23,328.42c4.4,1.45,13.2,3.63,23.63,1.23,1.98-.46,7.52-1.89,13.67-5.79,6.39-4.06,10.4-8.85,12.63-11.96"/>
      <path class="cls-8" d="M83.38,314.42c1.57-1.7,3.88-3.91,7.02-6,3.92-2.61,7.31-3.84,9.79-4.71,3.2-1.13,7.8-2.42,13.54-2.9"/>
      <path class="cls-8" d="M78.03,303.6c1.8-1.67,4.19-3.6,7.21-5.4,3.43-2.05,6.64-3.31,9.2-4.11"/>
      <path class="cls-8" d="M83.93,295.67c1.01-.65,2.28-1.36,3.81-1.99,1.67-.68,3.21-1.08,4.46-1.31"/>
      <path class="cls-8" d="M102.98,291.22c2.84-.89,7.68-2.02,13.69-1.49,5.55,.49,9.83,2.19,12.43,3.46"/>
      <path class="cls-8" d="M70.59,314.64c-.64,2.33-1.23,5.63-.94,9.55,.56,7.77,4.22,13.26,6.05,15.65"/>
      <path class="cls-8" d="M104.78,357.32c3.09-.05,6.94-.44,11.2-1.64,9.03-2.55,15.2-7.45,18.52-10.57"/>
      <path class="cls-8" d="M134,296.87c1.69,1.84,3.64,4.34,5.38,7.57,2.72,5.07,3.75,9.79,4.16,12.98"/>
      <path class="cls-8" d="M141.31,303.49c1.5,2.3,4,6.78,4.76,12.97,.66,5.33-.25,9.67-.98,12.21"/>
      <path class="cls-8" d="M82.64,350.5c1.1,1.33,3.43,3.76,7.19,5.26,2.51,1,4.77,1.24,6.29,1.27"/>
      <path class="cls-8" d="M117.92,357.72c3.43-1.06,8.59-3.12,13.88-7.2,4.48-3.46,7.47-7.15,9.36-9.89"/>
    </g>
    <path class="cls-4" d="M59.79,282.81c14.51,9.91,29.02,19.82,43.52,29.73,.07-.02,1.3-.38,2.19,.42,.66,.59,1.03,1.72,.52,2.41-.55,.73-1.81,.55-2.55,.12-.97-.57-1.16-1.67-1.18-1.84-14.6-9.77-29.2-19.53-43.79-29.3-.63-.41-.75-1.19-.45-1.6,.32-.43,1.18-.53,1.74,.05Z"/>
    <path class="cls-4" d="M80.17,288.05c12.12-2.29,24.25-4.59,36.37-6.88,.03-.05,.46-.83,1.29-.88,.62-.03,1.37,.34,1.45,.94,.09,.64-.62,1.18-1.2,1.33-.77,.2-1.4-.25-1.5-.33-12.1,2.41-24.2,4.82-36.29,7.23-.52,.11-.96-.22-1.02-.57-.06-.37,.32-.85,.89-.84Z"/>
  </g>
  <g class="cls-6">
    <path class="cls-3" d="M292.72,339.01c-1.12-6.66-2.24-13.32-3.36-19.98,4.94-12.78,16.48-21.82,29.91-23.4,19.66-2.31,32.11,12.68,32.86,13.61,1.11,6.59,2.22,13.19,3.34,19.78,.07,1.16,.05,2.88-.48,4.84-.34,1.24-1.25,3.97-4.74,7.56-4.4,4.52-9.17,6.58-12.13,7.83-1.85,.78-6.69,2.68-13.41,3.46-3.61,.42-11.07,1.1-19.57-1.71-4.49-1.48-6.77-3.15-8.38-4.85-2.46-2.59-3.54-5.44-4.03-7.17Z"/>
    <ellipse class="cls-5" cx="320.81" cy="314.59" rx="31.78" ry="18.97" transform="translate(-48.38 58.49) rotate(-9.69)"/>
    <g>
      <line class="cls-7" x1="311.2" y1="336.93" x2="312.96" y2="351.96"/>
      <line class="cls-7" x1="338.71" y1="331.96" x2="341.23" y2="346.41"/>
      <path class="cls-8" d="M309.34,303.99c-5.12,1.17-8.36,3.56-9.98,4.97-2.23,1.94-5.32,4.63-5.09,8.17,.16,2.48,1.87,4.19,2.97,5.28,3.3,3.3,7.56,3.94,11.47,4.52,2.07,.31,5.09,.57,8.76,.23"/>
      <path class="cls-8" d="M315.21,302.2c2.96-.84,7.05-1.67,11.95-1.69,4.18-.02,7.74,.55,10.47,1.2"/>
      <path class="cls-8" d="M341.05,302.86c1.34,.37,3.1,1.08,4.73,2.5,.99,.87,2.21,1.93,2.57,3.69,.26,1.28-.06,2.33-.25,2.95-1.21,3.86-5.25,6.03-6.37,6.6"/>
      <path class="cls-8" d="M322.9,326.16c2.31-.52,4.86-1.23,7.58-2.19,2.52-.89,4.78-1.85,6.78-2.81"/>
      <path class="cls-8" d="M295.57,325.05c4.08,2.18,12.38,5.85,23.07,5.27,2.03-.11,7.73-.56,14.47-3.36,6.99-2.9,11.77-6.93,14.5-9.62"/>
      <path class="cls-8" d="M300.09,311.63c1.84-1.41,4.5-3.18,7.95-4.7,4.31-1.9,7.86-2.52,10.45-2.96,3.35-.57,8.1-1.04,13.84-.53"/>
      <path class="cls-8" d="M296.69,300.05c2.07-1.34,4.75-2.82,8.03-4.08,3.73-1.43,7.12-2.12,9.77-2.47"/>
      <path class="cls-8" d="M303.85,293.25c1.1-.47,2.48-.95,4.09-1.3,1.77-.39,3.34-.51,4.62-.53"/>
      <path class="cls-8" d="M323.39,292.15c2.96-.39,7.92-.67,13.74,.88,5.38,1.43,9.31,3.85,11.65,5.55"/>
      <path class="cls-8" d="M287.45,309.65c-1.03,2.19-2.18,5.34-2.57,9.25-.78,7.75,1.88,13.79,3.27,16.45"/>
      <path class="cls-8" d="M313.8,357.57c3.06,.48,6.91,.76,11.32,.31,9.33-.96,16.25-4.73,20.06-7.23"/>
      <path class="cls-8" d="M352.97,303.04c1.34,2.1,2.84,4.9,4,8.38,1.81,5.46,2.01,10.28,1.87,13.5"/>
      <path class="cls-8" d="M359.04,310.82c1.09,2.52,2.77,7.36,2.46,13.6-.27,5.37-1.91,9.49-3.07,11.85"/>
      <path class="cls-8" d="M293.17,347.05c.86,1.5,2.73,4.29,6.18,6.41,2.3,1.42,4.49,2.04,5.98,2.33"/>
      <path class="cls-8" d="M326.68,360.22c3.57-.46,9-1.6,14.91-4.71,5-2.64,8.59-5.76,10.92-8.13"/>
    </g>
    <path class="cls-4" d="M271.95,305.57c17.56,.62,35.12,1.24,52.68,1.85,.05-.06,.89-1.01,2.07-.81,.87,.15,1.8,.9,1.72,1.76-.08,.91-1.23,1.44-2.09,1.46-1.13,.04-1.87-.79-1.98-.92-17.56-.45-35.12-.9-52.67-1.34-.75,0-1.27-.61-1.23-1.11,.04-.53,.71-1.08,1.5-.89Z"/>
    <path class="cls-4" d="M300.72,301.34c10.48-6.51,20.97-13.02,31.45-19.53,0-.05,.12-.94,.89-1.28,.57-.26,1.4-.17,1.7,.35,.31,.56-.16,1.32-.64,1.67-.64,.46-1.4,.27-1.52,.24-10.42,6.61-20.83,13.21-31.25,19.82-.44,.29-.98,.14-1.15-.17-.19-.33,0-.91,.53-1.11Z"/>
  </g>
  <g class="cls-6">
    <path class="cls-3" d="M505.33,334.74c.03-6.75,.07-13.5,.1-20.26,7.04-11.75,19.96-18.69,33.46-17.96,19.76,1.07,29.48,17.96,30.06,19.02-.03,6.69-.06,13.38-.09,20.06-.13,1.15-.44,2.84-1.3,4.69-.54,1.16-1.91,3.7-5.96,6.64-5.1,3.7-10.15,4.93-13.29,5.65-1.95,.45-7.05,1.5-13.81,1.13-3.63-.2-11.1-.8-18.99-5.02-4.17-2.23-6.13-4.26-7.43-6.2-1.98-2.98-2.56-5.97-2.75-7.76Z"/>
    <ellipse class="cls-5" cx="537.17" cy="315.47" rx="18.97" ry="31.78" transform="translate(220.53 851.95) rotate(-89.88)"/>
    <g>
      <line class="cls-7" x1="523.89" y1="335.84" x2="523.06" y2="350.96"/>
      <line class="cls-7" x1="551.85" y1="335.64" x2="551.87" y2="350.31"/>
      <path class="cls-8" d="M527.68,303.08c-5.25,.28-8.85,2.08-10.68,3.19-2.53,1.53-6.03,3.66-6.4,7.18-.26,2.47,1.13,4.44,2.03,5.71,2.69,3.81,6.78,5.17,10.53,6.41,1.99,.66,4.91,1.43,8.6,1.72"/>
      <path class="cls-8" d="M533.77,302.31c3.06-.32,7.23-.44,12.06,.37,4.12,.69,7.54,1.87,10.11,2.97"/>
      <path class="cls-8" d="M559.11,307.37c1.26,.59,2.87,1.59,4.23,3.27,.83,1.03,1.85,2.28,1.9,4.07,.04,1.3-.45,2.28-.75,2.86-1.85,3.6-6.2,5.05-7.4,5.41"/>
      <path class="cls-8" d="M537.26,327.23c2.36-.12,5-.38,7.84-.87,2.63-.45,5.03-1.01,7.16-1.62"/>
      <path class="cls-8" d="M510.51,321.48c3.65,2.85,11.2,7.87,21.83,9.13,2.02,.24,7.72,.76,14.83-.84,7.38-1.66,12.78-4.83,15.92-7"/>
      <path class="cls-8" d="M517.26,309.02c2.05-1.07,4.97-2.37,8.63-3.28,4.57-1.14,8.18-1.15,10.81-1.14,3.4,.01,8.16,.36,13.73,1.84"/>
      <path class="cls-8" d="M515.88,297.04c2.26-.97,5.16-1.97,8.61-2.65,3.92-.77,7.37-.88,10.05-.77"/>
      <path class="cls-8" d="M524.1,291.55c1.17-.27,2.6-.51,4.25-.59,1.81-.08,3.38,.07,4.64,.27"/>
      <path class="cls-8" d="M543.54,293.8c2.98,.12,7.92,.69,13.39,3.21,5.06,2.33,8.52,5.38,10.53,7.45"/>
      <path class="cls-8" d="M505.14,304.92c-1.39,1.98-3.05,4.89-4.11,8.67-2.09,7.5-.5,13.9,.41,16.77"/>
      <path class="cls-8" d="M522.94,356.63c2.93,.99,6.68,1.93,11.1,2.24,9.36,.64,16.82-1.89,21-3.7"/>
      <path class="cls-8" d="M570.83,309.58c.97,2.3,1.97,5.32,2.51,8.94,.86,5.69,.23,10.48-.46,13.62"/>
      <path class="cls-8" d="M575.48,318.27c.64,2.67,1.48,7.73,.1,13.82-1.18,5.24-3.5,9.02-5.04,11.16"/>
      <path class="cls-8" d="M504.4,342.75c.59,1.63,1.96,4.69,5,7.37,2.03,1.79,4.08,2.77,5.49,3.31"/>
      <path class="cls-8" d="M535.18,361.43c3.59,.16,9.14-.04,15.5-2.1,5.38-1.74,9.45-4.21,12.14-6.15"/>
    </g>
    <path class="cls-4" d="M489.83,306.34c17.5-1.56,35-3.11,52.5-4.67,.04-.06,.76-1.11,1.96-1.06,.89,.04,1.89,.68,1.93,1.53,.04,.91-1.05,1.58-1.89,1.71-1.11,.18-1.95-.55-2.08-.67-17.48,1.72-34.96,3.45-52.44,5.17-.75,.08-1.33-.45-1.36-.95-.03-.54,.58-1.16,1.38-1.07Z"/>
    <path class="cls-4" d="M521.78,281.41c10.43,6.59,20.87,13.18,31.3,19.76,.05-.02,.9-.3,1.55,.24,.48,.4,.77,1.19,.42,1.68-.37,.53-1.26,.44-1.79,.15-.7-.38-.85-1.14-.88-1.26-10.49-6.48-20.99-12.97-31.48-19.45-.45-.27-.55-.82-.35-1.11,.21-.31,.81-.4,1.23,0Z"/>
  </g>
  <g class="cls-15">
    <path class="cls-3" d="M718.74,330.01c1.17-6.65,2.35-13.3,3.52-19.95,8.93-10.39,22.83-15.05,36.02-12.04,19.3,4.4,26.02,22.69,26.41,23.82-1.16,6.59-2.32,13.17-3.47,19.76-.32,1.12-.91,2.73-2.07,4.4-.73,1.05-2.51,3.33-7,5.54-5.65,2.79-10.84,3.14-14.05,3.32-2,.12-7.2,.29-13.8-1.22-3.54-.81-10.8-2.67-17.87-8.15-3.74-2.9-5.33-5.23-6.28-7.37-1.45-3.27-1.51-6.31-1.4-8.11Z"/>
    <ellipse class="cls-5" cx="753.38" cy="316.39" rx="18.97" ry="31.78" transform="translate(312.72 1004.5) rotate(-80.15)"/>
    <g>
      <line class="cls-7" x1="736.85" y1="334.23" x2="733.47" y2="348.99"/>
      <line class="cls-7" x1="764.43" y1="338.76" x2="761.98" y2="353.22"/>
      <path class="cls-8" d="M746.11,302.57c-5.22-.62-9.07,.55-11.07,1.34-2.75,1.08-6.56,2.58-7.52,5.99-.68,2.39,.37,4.57,1.03,5.97,2.01,4.21,5.81,6.24,9.3,8.1,1.85,.99,4.6,2.24,8.18,3.15"/>
      <path class="cls-8" d="M752.25,302.85c3.07,.2,7.2,.78,11.82,2.4,3.95,1.38,7.11,3.11,9.46,4.63"/>
      <path class="cls-8" d="M776.37,312.11c1.14,.79,2.56,2.05,3.62,3.94,.65,1.15,1.44,2.56,1.19,4.34-.18,1.29-.83,2.18-1.22,2.7-2.43,3.23-6.97,3.93-8.21,4.08"/>
      <path class="cls-8" d="M751.47,327.99c2.35,.28,4.99,.47,7.87,.47,2.67,0,5.12-.15,7.33-.38"/>
      <path class="cls-8" d="M726.09,317.81c3.12,3.42,9.71,9.65,19.97,12.69,1.95,.58,7.48,2.05,14.76,1.68,7.56-.39,13.41-2.6,16.88-4.21"/>
      <path class="cls-8" d="M734.84,306.67c2.21-.71,5.3-1.49,9.06-1.77,4.7-.35,8.25,.25,10.84,.71,3.35,.59,7.98,1.73,13.22,4.13"/>
      <path class="cls-8" d="M735.51,294.62c2.39-.57,5.42-1.07,8.93-1.16,4-.1,7.42,.38,10.03,.94"/>
      <path class="cls-8" d="M744.53,290.61c1.2-.07,2.65-.07,4.29,.14,1.79,.23,3.32,.64,4.53,1.05"/>
      <path class="cls-8" d="M763.31,296.11c2.92,.62,7.69,2.02,12.65,5.43,4.59,3.15,7.49,6.74,9.12,9.13"/>
      <path class="cls-8" d="M723.59,300.58c-1.7,1.72-3.84,4.3-5.52,7.85-3.33,7.04-2.84,13.62-2.43,16.6"/>
      <path class="cls-8" d="M732.39,354.55c2.72,1.48,6.26,3.03,10.56,4.08,9.12,2.22,16.9,.98,21.32-.1"/>
      <path class="cls-8" d="M787.55,316.27c.56,2.43,1.04,5.57,.97,9.23-.12,5.75-1.55,10.36-2.75,13.35"/>
      <path class="cls-8" d="M790.66,325.63c.18,2.74,.15,7.87-2.23,13.64-2.05,4.97-4.97,8.3-6.86,10.15"/>
      <path class="cls-8" d="M716.47,337.74c.31,1.7,1.14,4.96,3.68,8.11,1.7,2.11,3.55,3.42,4.85,4.2"/>
      <path class="cls-8" d="M743.64,361.36c3.51,.76,9.02,1.51,15.63,.55,5.6-.81,10.02-2.56,13.01-4.01"/>
    </g>
    <path class="cls-4" d="M700.54,311.14c15.31-8.61,30.63-17.23,45.94-25.84,.01-.08,.24-1.33,1.35-1.77,.82-.33,2-.16,2.39,.6,.41,.82-.31,1.87-1.02,2.34-.94,.62-2.01,.3-2.17,.25-15.22,8.76-30.45,17.52-45.67,26.28-.65,.38-1.4,.14-1.63-.31-.24-.48,.05-1.29,.82-1.54Z"/>
    <path class="cls-4" d="M754.24,274.62c2.75,12.03,5.51,24.06,8.26,36.09,.05,.02,.85,.42,.93,1.26,.06,.62-.29,1.38-.88,1.49-.63,.11-1.2-.58-1.37-1.15-.23-.76,.2-1.41,.27-1.51-2.87-12-5.74-23.99-8.6-35.99-.13-.51,.18-.97,.53-1.04,.37-.07,.86,.29,.88,.86Z"/>
  </g>
  <g class="cls-10">
    <path class="cls-3" d="M935.41,331.43c.84-6.7,1.69-13.4,2.53-20.1,8.4-10.82,22.06-16.16,35.38-13.8,19.49,3.44,27.1,21.38,27.55,22.49-.83,6.64-1.66,13.27-2.5,19.91-.26,1.13-.78,2.77-1.85,4.5-.68,1.09-2.34,3.45-6.72,5.88-5.51,3.06-10.67,3.67-13.87,4.01-1.99,.21-7.18,.64-13.84-.54-3.58-.63-10.92-2.13-18.25-7.26-3.87-2.71-5.58-4.96-6.63-7.05-1.61-3.19-1.82-6.23-1.8-8.03Z"/>
    <ellipse class="cls-5" cx="969.33" cy="316.12" rx="18.97" ry="31.78" transform="translate(537.02 1239.51) rotate(-82.97)"/>
    <g>
      <line class="cls-7" x1="953.7" y1="334.75" x2="951.06" y2="349.66"/>
      <line class="cls-7" x1="981.48" y1="337.91" x2="979.74" y2="352.47"/>
      <path class="cls-8" d="M961.4,302.68c-5.24-.36-9.03,1-10.99,1.89-2.7,1.22-6.42,2.9-7.22,6.36-.56,2.42,.59,4.55,1.33,5.92,2.21,4.11,6.11,5.95,9.69,7.63,1.9,.89,4.71,2.01,8.33,2.74"/>
      <path class="cls-8" d="M967.54,302.65c3.08,.05,7.23,.43,11.93,1.81,4.01,1.18,7.26,2.76,9.68,4.16"/>
      <path class="cls-8" d="M992.09,310.71c1.18,.74,2.66,1.92,3.81,3.75,.7,1.12,1.56,2.49,1.4,4.27-.12,1.3-.72,2.21-1.09,2.75-2.27,3.35-6.76,4.27-8,4.48"/>
      <path class="cls-8" d="M968,327.8c2.36,.16,5.01,.22,7.89,.08,2.67-.13,5.11-.4,7.3-.74"/>
      <path class="cls-8" d="M942.15,318.88c3.28,3.27,10.18,9.16,20.57,11.68,1.98,.48,7.57,1.68,14.82,.95,7.53-.76,13.27-3.26,16.65-5.04"/>
      <path class="cls-8" d="M950.34,307.33c2.17-.82,5.22-1.75,8.96-2.22,4.67-.58,8.26-.16,10.86,.17,3.37,.42,8.06,1.33,13.4,3.47"/>
      <path class="cls-8" d="M950.41,295.26c2.36-.69,5.36-1.34,8.87-1.6,3.99-.29,7.42,.01,10.07,.44"/>
      <path class="cls-8" d="M959.23,290.81c1.19-.13,2.65-.2,4.29-.07,1.8,.14,3.35,.47,4.58,.82"/>
      <path class="cls-8" d="M978.26,295.37c2.94,.47,7.78,1.63,12.91,4.79,4.74,2.92,7.81,6.36,9.56,8.67"/>
      <path class="cls-8" d="M938.81,301.8c-1.61,1.8-3.62,4.49-5.12,8.12-2.98,7.2-2.17,13.74-1.6,16.7"/>
      <path class="cls-8" d="M950.26,355.27c2.79,1.34,6.4,2.72,10.75,3.55,9.21,1.76,16.93,.14,21.29-1.15"/>
      <path class="cls-8" d="M1003.46,314.31c.68,2.4,1.31,5.51,1.42,9.18,.17,5.75-1.03,10.43-2.09,13.47"/>
      <path class="cls-8" d="M1007.03,323.51c.31,2.73,.54,7.85-1.56,13.73-1.8,5.06-4.56,8.54-6.35,10.47"/>
      <path class="cls-8" d="M933.52,339.26c.39,1.69,1.38,4.89,4.07,7.92,1.8,2.02,3.71,3.24,5.05,3.95"/>
      <path class="cls-8" d="M961.83,361.51c3.55,.59,9.08,1.06,15.64-.22,5.55-1.09,9.89-3.05,12.79-4.65"/>
    </g>
    <path class="cls-4" d="M916.88,304.66c16.21-6.77,32.43-13.54,48.64-20.31,.02-.07,.39-1.29,1.55-1.6,.86-.23,2.01,.07,2.3,.88,.31,.86-.52,1.82-1.29,2.2-1.01,.5-2.03,.06-2.19,0-16.14,6.92-32.28,13.85-48.42,20.77-.69,.31-1.41-.02-1.58-.5-.19-.5,.2-1.28,.99-1.43Z"/>
    <path class="cls-4" d="M951.96,281.28c9.36,8.04,18.73,16.07,28.09,24.11,.05-.01,.93-.16,1.49,.46,.42,.46,.59,1.28,.17,1.72-.44,.47-1.31,.25-1.79-.11-.63-.47-.68-1.25-.68-1.38-9.44-7.94-18.88-15.88-28.32-23.83-.41-.33-.43-.89-.19-1.15,.26-.28,.86-.28,1.21,.17Z"/>
  </g>
  <g class="cls-2">
    <path class="cls-3" d="M1153.5,335c-.03-6.75-.07-13.5-.1-20.26,6.93-11.82,19.77-18.88,33.29-18.28,19.77,.88,29.65,17.68,30.24,18.72,.04,6.69,.07,13.37,.11,20.06-.12,1.15-.41,2.85-1.25,4.7-.53,1.17-1.88,3.72-5.9,6.7-5.07,3.75-10.11,5.02-13.23,5.78-1.95,.47-7.03,1.57-13.8,1.26-3.63-.16-11.1-.7-19.04-4.83-4.19-2.18-6.17-4.2-7.49-6.13-2.01-2.96-2.62-5.94-2.82-7.73Z"/>
    <ellipse class="cls-5" cx="1185.15" cy="315.42" rx="31.78" ry="18.97" transform="translate(-2.36 8.99) rotate(-.43)"/>
    <g>
      <line class="cls-7" x1="1172.08" y1="335.92" x2="1171.39" y2="351.04"/>
      <line class="cls-7" x1="1200.03" y1="335.45" x2="1200.19" y2="350.11"/>
      <path class="cls-8" d="M1175.54,303.12c-5.24,.33-8.83,2.17-10.65,3.3-2.52,1.56-5.99,3.71-6.33,7.24-.24,2.47,1.18,4.43,2.08,5.69,2.73,3.79,6.83,5.1,10.6,6.31,2,.64,4.93,1.38,8.61,1.64"/>
      <path class="cls-8" d="M1181.62,302.29c3.06-.35,7.23-.51,12.06,.25,4.13,.65,7.55,1.79,10.14,2.87"/>
      <path class="cls-8" d="M1207.02,307.1c1.27,.58,2.89,1.56,4.26,3.23,.84,1.02,1.87,2.26,1.94,4.05,.05,1.3-.43,2.29-.72,2.87-1.82,3.61-6.15,5.11-7.35,5.48"/>
      <path class="cls-8" d="M1185.35,327.17c2.36-.15,4.99-.43,7.83-.94,2.63-.47,5.02-1.06,7.15-1.69"/>
      <path class="cls-8" d="M1158.56,321.68c3.68,2.81,11.28,7.76,21.92,8.91,2.02,.22,7.72,.69,14.82-.99,7.36-1.74,12.73-4.95,15.85-7.16"/>
      <path class="cls-8" d="M1165.18,309.16c2.04-1.09,4.95-2.42,8.6-3.36,4.56-1.18,8.17-1.23,10.79-1.24,3.4-.02,8.16,.28,13.74,1.7"/>
      <path class="cls-8" d="M1163.68,297.19c2.25-.99,5.14-2.02,8.58-2.73,3.92-.81,7.36-.95,10.04-.87"/>
      <path class="cls-8" d="M1171.85,291.63c1.16-.28,2.6-.54,4.25-.63,1.81-.1,3.38,.03,4.64,.22"/>
      <path class="cls-8" d="M1191.31,293.68c2.98,.09,7.92,.61,13.42,3.08,5.08,2.28,8.57,5.3,10.61,7.35"/>
      <path class="cls-8" d="M1153.03,305.18c-1.37,2-3.01,4.92-4.02,8.71-2.02,7.52-.37,13.91,.58,16.77"/>
      <path class="cls-8" d="M1171.32,356.71c2.94,.97,6.7,1.87,11.12,2.13,9.36,.55,16.8-2.05,20.96-3.91"/>
      <path class="cls-8" d="M1218.76,309.2c.99,2.29,2.02,5.3,2.6,8.91,.91,5.68,.33,10.47-.33,13.63"/>
      <path class="cls-8" d="M1223.49,317.85c.67,2.66,1.55,7.71,.24,13.82-1.13,5.25-3.41,9.06-4.93,11.21"/>
      <path class="cls-8" d="M1152.65,343.01c.61,1.62,2.01,4.67,5.07,7.33,2.05,1.77,4.1,2.73,5.52,3.26"/>
      <path class="cls-8" d="M1183.61,361.4c3.59,.12,9.14-.13,15.48-2.25,5.36-1.8,9.41-4.31,12.08-6.27"/>
    </g>
    <path class="cls-4" d="M1140.43,311.32c17.22-3.49,34.44-6.98,51.66-10.47,.04-.07,.63-1.19,1.83-1.27,.89-.06,1.96,.46,2.09,1.31,.14,.9-.87,1.68-1.69,1.91-1.09,.3-2-.33-2.14-.43-17.18,3.66-34.36,7.31-51.54,10.97-.73,.17-1.37-.3-1.46-.79-.09-.53,.44-1.21,1.25-1.21Z"/>
    <path class="cls-4" d="M1164.01,280.9c11.95,3.06,23.91,6.12,35.86,9.18,.04-.03,.76-.56,1.54-.25,.58,.23,1.1,.89,.92,1.47-.19,.61-1.06,.8-1.65,.69-.78-.14-1.16-.82-1.22-.93-11.98-2.94-23.96-5.89-35.94-8.83-.51-.12-.78-.61-.68-.95,.11-.36,.65-.63,1.16-.38Z"/>
  </g>
</svg>