<?xml version="1.0" encoding="UTF-8"?>
<svg id="Layer_1" data-name="Layer 1" xmlns="http://www.w3.org/2000/svg" viewBox="0 0 1296 432">
  <defs>
    <style>
      .cls-1 {
        fill: #05fcfb;
      }

      .cls-1, .cls-2, .cls-3, .cls-4, .cls-5, .cls-6 {
        opacity: .8;
      }

      .cls-7, .cls-8, .cls-9, .cls-10 {
        opacity: .5;
      }

      .cls-2 {
        fill: #2ff2fd;
      }

      .cls-11, .cls-8, .cls-9, .cls-12, .cls-13, .cls-14, .cls-15, .cls-16, .cls-17, .cls-18, .cls-10 {
        fill: none;
        stroke: #39ffe8;
        stroke-miterlimit: 10;
      }

      .cls-11, .cls-8, .cls-12 {
        stroke-width: 3px;
      }

      .cls-11, .cls-13, .cls-16 {
        opacity: .75;
      }

      .cls-19 {
        fill: #05fbf9;
      }

      .cls-13, .cls-14, .cls-18, .cls-10 {
        stroke-width: 2px;
      }

      .cls-3 {
        fill: #03594e;
      }

      .cls-20 {
        fill: #f5f6f6;
      }

      .cls-4 {
        fill: #01fdfe;
      }

      .cls-5 {
        fill: #06aed3;
      }

      .cls-21 {
        fill: #4ff6f5;
      }

      .cls-14, .cls-15 {
        opacity: .25;
      }

      .cls-6 {
        fill: #01c0fe;
      }
    </style>
  </defs>
  <circle class="cls-15" cx="215.99" cy="72.01" r="27.9"/>
  <circle class="cls-8" cx="215.99" cy="72.01" r="19.67"/>
  <circle class="cls-9" cx="359.99" cy="72.01" r="18.57"/>
  <circle class="cls-11" cx="359.99" cy="72.01" r="13.1"/>
  <circle class="cls-16" cx="503.99" cy="72.01" r="13.9"/>
  <circle class="cls-12" cx="503.99" cy="72.01" r="9.8"/>
  <g class="cls-7">
    <path class="cls-3" d="M69.55,79.43c-3.12-.49-5.68-2.79-5.56-6.63,.03-1.11,.34-2.16,.67-3.21,.49-1.54,.43-3.06,.01-4.59-.33-1.2-.58-2.41-.54-3.67,.03-.96,.35-1.81,.83-2.68,.16,.35,.2,.69,.38,.98,.31,.51,.67,.74,1.05,.63,.36-.11,.52-.53,.44-1.13-.06-.41-.23-.78-.4-1.15-.7-1.58-1.34-3.19-1.69-4.9-.17-.83-.27-1.68-.02-2.52,.09-.29,.26-.51,.45-.79,.22,1.71,1.86,2.06,3.08,1.55,.42-.18,.65-.5,.66-.99,.04-1.32-.44-2.46-1.11-3.56-.69-1.13-1.18-2.33-1.3-3.66-.1-1.16,.3-2.16,1.13-2.99,1.01-1,2.24-1.55,3.58-1.92,.44-.12,.87-.29,1.27-.49,.9-.45,1.1-1.06,.69-1.98-.04-.09-.08-.18-.12-.27h0c.28-.06,.4,.18,.55,.33,1.23,1.23,1.42,2.69,.85,4.27-.26,.72-.6,1.41-.9,2.11-.08,.04-.09,.09-.04,.16-.02,.07-.04,.14-.06,.22-.08,.04-.1,.09-.02,.15-.01,.21-.02,.42-.03,.63,0,0-.03,.03-.03,.03l.03,.02c.03,.24,.05,.47,.08,.71,.01,.03,.02,.06,.03,.09,.18,.7,.42,1.37,.94,1.91,.4,.42,.9,.57,1.32,.38,.5-.23,.7-.64,.72-1.18,.02-.51-.18-.96-.42-1.39-.07-.14-.23-.24-.15-.46,1.53,1.24,2.03,2.85,1.8,4.73-.22,1.75-.99,3.27-1.97,4.7-.44,.65-.87,1.31-1.19,2.02-.35,.78-.41,1.57,0,2.36,.24,.45,.62,.75,1.13,.73,.51-.02,.73-.44,.89-.86,.23-.6,.15-1.2,0-1.83,.97,.56,1.21,1.77,1.02,2.57-.11,.46-.24,.91-.32,1.38-.17,1.08,.05,2.08,.75,2.95,.41,.51,.8,1.03,.97,1.68,.22,.82,.17,1.64-.13,2.41-.47,1.2-.4,2.37,.02,3.54,.57,1.59,.54,3.18,.02,4.76-.87,2.62-2.63,4.31-5.35,4.92-.24,.05-.48,.11-.73,.05,.03-.13,.13-.13,.23-.14,.06,0,.13,.02,.19,0,1.89-.57,3.23-1.78,4-3.6,.13-.14,.16-.32,.19-.5v-.29c.16-.3,.17-.62,.2-.94,.11-1.46-.22-2.85-.64-4.23-.13-.43-.19-.92-.12-1.35,.12-.69,.36-1.37,.6-2.03,.31-.87,.34-1.77,.12-2.62-.35-1.31-.98-2.53-1.59-3.74-.06-.12-.12-.3-.3-.29-.19,0-.19,.17-.24,.31-.17,.46-.66,1.08-1.27,.94-.17-.28-.34-.57-.53-.84-.19-.27-.47-.48-.56-.82-.15-.93-.13-1.85,.1-2.76,0-.06,0-.13,0-.19,.08-.04,.1-.12,.1-.2-.03-.29,.13-.52,.24-.77,.18-.39,.38-.77,.45-1.19,.08-.02,.19,0,.23-.05,.38-.48,.68-1.01,1.08-1.48,.25-.3,.54-.65,.71-.98,.44-.86,.39-1.84,.33-2.78-.03-.47-.32-.63-.77-.5-.71,.19-1.42,.21-2.09-.15-.17-.09-.34-.19-.54-.02-.22,.18-.36,0-.38-.18-.03-.27-.22-.38-.4-.51-.27-.19-.66-.32-.78-.58-.3-.65-.64-1.28-.93-1.94-.43-1-.52-1.93,.05-2.88,.09-.15,.1-.3-.03-.49-.6,.66-.95,1.38-.98,2.24-.02,.54,0,1.08,0,1.62,0,.2,0,.4,.09,.57,.26,.51,.29,1.09,.46,1.63,.1,.33,.14,.72-.16,1.01-.15,.14-.08,.3,0,.45,.36,.71,.49,1.42,.44,2.25-.06,1.03-.37,1.88-1.22,2.42-.51,.32-1.12,.54-1.79,.24-.45-.2-.71-.55-1.03-.87-.08-.08-.16-.18-.29-.15-.15,.04-.13,.17-.12,.28,.03,.66-.02,1.3,.19,1.96,.36,1.12,1,2.09,1.5,3.13,.35,.73,.71,1.44,.92,2.22,.19,.71,.04,1.4-.47,1.98-.21,.24-1.14,.35-1.34,.11-.41-.48-1.02-.76-1.36-1.31-.07-.11-.15-.17-.28-.14-.12,.03-.11,.14-.14,.23-.47,1.24-.08,2.44,.27,3.61,.35,1.17,.61,2.34,.72,3.55,.06,.63-.08,1.23-.19,1.83-.11,.57-.2,1.14-.33,1.7-.31,1.32-.27,2.6,.33,3.84,.53,1.11,1.3,1.99,2.39,2.6,.47,.26,1,.37,1.44,.69Z"/>
    <path class="cls-19" d="M69.55,79.43c-.43-.32-.97-.43-1.44-.69-1.09-.61-1.86-1.49-2.39-2.6-.59-1.24-.64-2.52-.33-3.84,.13-.56,.22-1.13,.33-1.7,.41-.17,.59-.56,.77-.91,.23-.46,.34-.97,.56-1.43,.45-.94,1.1-1.75,1.73-2.57,.95-1.22,1.14-2.6,.6-4.07-.36-.98-.77-1.95-1.05-2.97-.04-.14-.05-.29-.06-.43,0-.1,.04-.21,.14-.23,.14-.03,.13,.11,.17,.19,.16,.32,.3,.64,.48,.95,.28,.5,.86,.56,1.31,.2,.46-.36,.22-.74,.05-1.08-.3-.59-.6-1.19-.76-1.82-.23-.88,.6-1.97,1.52-2.13,.14-.02,.28-.05,.3-.2,.09-.7,.76-1.19,.71-1.94,0-.08,.02-.17,.11-.19,.09-.02,.18,.01,.21,.08,.19,.41,.46,.81,.44,1.28-.05,1-.07,1,.9,.97,.07,0,.13,0,.2,0-.07,.43-.27,.81-.45,1.19-.11,.25-.27,.47-.24,.77-.12,.02-.25,.04-.1,.2,0,.06,0,.13,0,.19-.14,0-.23,.04-.31,.18-.15,.26-.19,.55-.3,.82-.31,.73-.15,1.28,.51,1.76,.09,.34,.37,.55,.56,.82,.19,.27,.35,.56,.53,.84,.1,.3,.13,.61,.09,.92-.11,.92-.54,1.75-.71,2.65-.19,.97-.27,1.89,.25,2.79,.16,.27,.35,.51,.69,.41,.33-.09,.66-.24,.75-.62,.13-.57,.18-1.16,.06-1.74-.03-.14-.11-.34,.02-.4,.2-.1,.28,.15,.35,.26,.67,.98,.97,2.09,.73,3.25-.21,1.02-.09,1.94,.22,2.91,.29,.92,.54,1.88,.34,2.87-.02,.1-.04,.22,.08,.24,.25,.04,.23,.29,.37,.41,0,.1,0,.19,0,.29-.24,.1-.29,.27-.19,.5-.77,1.82-2.1,3.02-4,3.6-.06,.02-.13,0-.19,0,.11-.16,.29-.2,.45-.28,.55-.28,1.08-.58,1.5-1.04,.26-.06,.4-.27,.55-.46,.85-1.08,1.19-2.32,1.2-3.67,0-.87-.09-1.73-.33-2.55-.18-.61-.3-1.27-.7-1.91-.03,.2-.03,.32-.07,.42-.09,.27-.22,.55-.53,.58-.32,.04-.49-.24-.61-.48-.1-.18-.18-.4-.19-.6-.02-.76-.49-1.28-.93-1.83-.19-.24-.32-.56-.6-.08-.03,.05-.15,.05-.23,.06-.44,.06-.59,.35-.33,.71,.16,.22,.26,.46,.34,.7,.15,.42-.01,.79-.28,1.13-.21,.26-.52,.29-.76,.19-.51-.21-.77-.66-.88-1.2-.18-.87-.09-1.76-.1-2.64-.01-.75-.29-.94-1-.66-.25,.1-.44,.27-.6,.48-1.14,1.44-2.06,2.99-2.47,4.82-.34,1.51-.42,3.02,.05,4.51,.17,.55,.47,1.08,.82,1.54,.23,.31,.39,.73,.84,.85h0c0,.18,.11,.27,.28,.3,.04,.04,.07,.07,.11,.11,.12,.33,.4,.47,.71,.56,.12,.06,.24,.12,.36,.18,.17,.19,.37,.29,.63,.3,.11,.03,.25-.02,.29,.14-.36-.06-.74,.06-1.08-.12Z"/>
    <path class="cls-20" d="M75.06,78.07c-.42,.47-.95,.77-1.5,1.04-.16,.08-.34,.12-.45,.28-.1,.01-.21,.01-.23,.14-.75,.24-1.5,.3-2.25,.02-.04-.16-.18-.12-.29-.14-.13-.25-.38-.28-.63-.3-.12-.06-.24-.12-.36-.18-.16-.29-.39-.48-.71-.56-.04-.04-.07-.07-.11-.11,.02-.2-.09-.28-.28-.3,0,0,0,0,0,0-.12-.44-.45-.74-.69-1.11-.54-.86-1.01-1.74-.95-2.8,.12,0,.01,.22,.19,.17,0-.19,.03-.39,0-.58-.07-.38,.21-.73,.41-.8,.75-.26,1.22-.92,1.98-1.2,.54-.2,.81-.15,1.23,.16,1.08,.84,2.22,.83,3.03-.35,.05-.07,.07-.15,.16-.16,.26-.04,1.03,.57,1.03,.83,0,.62,.07,1.24-.07,1.86-.08,.37,.07,.69,.4,.88,.31,.18,.6-.04,.79-.22,.24-.24,.43-.55,.45-.93,.01-.19,.06-.36,.22-.57,.32,1.26-.03,2.36-.46,3.45-.22,.55-.68,.94-.92,1.48Z"/>
    <path class="cls-3" d="M72.87,27.49c.2,1.02,0,1.98-.33,2.93-.19,.54-.41,1.06-.64,1.59-.28,.66-.27,1.32-.07,2.03-1.02-.52-1.41-1.77-.87-2.69,.27-.46,.58-.9,.89-1.34,.64-.9,.84-1.38,1.02-2.51Z"/>
    <path class="cls-2" d="M73.46,42.69c-.08-.06-.07-.11,.02-.15,.04,.06,.05,.11-.02,.15Z"/>
    <path class="cls-2" d="M73.53,42.32c-.04-.07-.04-.13,.04-.16-.01,.05-.03,.11-.04,.16Z"/>
    <path class="cls-2" d="M73.54,44.17s-.02-.06-.03-.09c.01,.03,.02,.06,.03,.09Z"/>
    <polygon class="cls-2" points="73.43 43.38 73.4 43.35 73.43 43.32 73.44 43.35 73.43 43.38"/>
    <polygon class="cls-1" points="73.07 35.46 73.07 35.44 73.07 35.47 73.07 35.46"/>
    <path class="cls-5" d="M74.06,54.3c-.07,0-.13,0-.2,0-.97,.03-.95,.03-.9-.97,.02-.47-.25-.87-.44-1.28-.03-.07-.12-.11-.21-.08-.09,.03-.12,.11-.11,.19,.05,.75-.63,1.24-.71,1.94-.02,.15-.16,.18-.3,.2-.92,.16-1.75,1.25-1.52,2.13,.16,.63,.47,1.23,.76,1.82,.17,.34,.41,.72-.05,1.08-.45,.35-1.03,.3-1.31-.2-.18-.31-.32-.63-.48-.95-.04-.08-.03-.22-.17-.19-.1,.02-.15,.13-.14,.23,0,.14,.02,.29,.06,.43,.28,1.01,.69,1.98,1.05,2.97,.54,1.47,.35,2.85-.6,4.07-.64,.82-1.29,1.63-1.73,2.57-.22,.46-.33,.98-.56,1.43-.18,.35-.36,.74-.77,.91,.12-.6,.25-1.2,.19-1.83-.11-1.21-.38-2.38-.72-3.55-.34-1.16-.74-2.36-.27-3.61,.03-.09,.02-.2,.14-.23,.13-.03,.22,.03,.28,.14,.34,.55,.95,.82,1.36,1.31,.2,.24,1.13,.14,1.34-.11,.51-.58,.66-1.27,.47-1.98-.21-.77-.57-1.49-.92-2.22-.5-1.04-1.14-2.01-1.5-3.13-.21-.66-.16-1.31-.19-1.96,0-.11-.02-.25,.12-.28,.13-.03,.21,.07,.29,.15,.31,.32,.58,.67,1.03,.87,.67,.3,1.28,.08,1.79-.24,.86-.54,1.16-1.39,1.22-2.42,.05-.82-.08-1.54-.44-2.25-.08-.15-.14-.31,0-.45,.3-.3,.27-.69,.16-1.01-.17-.54-.2-1.11-.46-1.63-.09-.18-.1-.38-.09-.57,0-.54-.01-1.08,0-1.62,.03-.86,.38-1.58,.98-2.24,.14,.2,.12,.35,.03,.49-.56,.95-.48,1.88-.05,2.88,.28,.66,.63,1.29,.93,1.94,.12,.26,.51,.4,.78,.58,.19,.13,.37,.24,.4,.51,.02,.19,.16,.36,.38,.18,.2-.17,.36-.07,.54,.02,.68,.36,1.38,.34,2.09,.15,.45-.12,.74,.03,.77,.5,.06,.95,.1,1.93-.33,2.78-.17,.33-.45,.68-.71,.98-.4,.47-.7,1.01-1.08,1.48-.04,.05-.15,.04-.23,.05Z"/>
    <path class="cls-5" d="M77.5,75.01c-.14-.12-.12-.38-.37-.41-.12-.02-.11-.14-.08-.24,.2-.99-.05-1.95-.34-2.87-.31-.97-.43-1.89-.22-2.91,.24-1.16-.06-2.26-.73-3.25-.07-.11-.15-.36-.35-.26-.14,.07-.06,.26-.02,.4,.13,.58,.07,1.17-.06,1.74-.09,.38-.42,.52-.75,.62-.35,.1-.53-.13-.69-.41-.52-.89-.43-1.82-.25-2.79,.17-.91,.6-1.74,.71-2.65,.04-.31,0-.62-.09-.92,.61,.13,1.1-.48,1.27-.94,.05-.14,.06-.31,.24-.31,.18,0,.24,.17,.3,.29,.61,1.21,1.24,2.43,1.59,3.74,.22,.85,.19,1.75-.12,2.62-.24,.66-.47,1.34-.6,2.03-.08,.43-.01,.92,.12,1.35,.41,1.38,.75,2.77,.64,4.23-.02,.32-.04,.64-.19,.94Z"/>
    <path class="cls-4" d="M73.17,59.41c-.66-.48-.81-1.03-.51-1.76,.11-.27,.15-.56,.3-.82,.08-.14,.17-.18,.31-.18-.23,.91-.25,1.83-.1,2.76Z"/>
    <path class="cls-4" d="M73.27,56.46c-.14-.16-.02-.18,.1-.2,0,.08-.02,.16-.1,.2Z"/>
    <path class="cls-21" d="M75.06,78.07c.23-.54,.7-.93,.92-1.48,.43-1.09,.78-2.19,.46-3.45-.15,.2-.21,.38-.22,.57-.02,.37-.21,.69-.45,.93-.19,.18-.48,.41-.79,.22-.32-.19-.48-.51-.4-.88,.14-.62,.07-1.24,.07-1.86,0-.26-.77-.87-1.03-.83-.1,.02-.12,.1-.16,.16-.81,1.18-1.95,1.19-3.03,.35-.41-.32-.68-.37-1.23-.16-.76,.28-1.23,.94-1.98,1.2-.2,.07-.48,.41-.41,.8,.03,.19,0,.39,0,.58-.18,.05-.07-.17-.19-.17-.06,1.06,.41,1.94,.95,2.8,.23,.37,.57,.67,.69,1.11-.44-.11-.61-.54-.84-.85-.35-.46-.65-.99-.82-1.54-.47-1.49-.39-3-.05-4.51,.4-1.82,1.33-3.37,2.47-4.82,.16-.21,.35-.38,.6-.48,.72-.27,.99-.09,1,.66,.02,.88-.08,1.76,.1,2.64,.11,.54,.37,.99,.88,1.2,.24,.1,.55,.08,.76-.19,.27-.34,.43-.71,.28-1.13-.09-.24-.18-.48-.34-.7-.26-.36-.11-.65,.33-.71,.08-.01,.2-.01,.23-.06,.27-.48,.41-.16,.6,.08,.43,.55,.9,1.07,.93,1.83,0,.2,.09,.42,.19,.6,.13,.24,.3,.51,.61,.48,.31-.03,.44-.31,.53-.58,.03-.1,.04-.22,.07-.42,.4,.64,.51,1.29,.7,1.91,.25,.82,.34,1.68,.33,2.55-.01,1.35-.35,2.6-1.2,3.67-.15,.19-.28,.4-.55,.46Z"/>
  </g>
  <path class="cls-6" d="M988.29,61.87c.1-.23,.05-.4-.19-.5,.03,.18,.06,.36,.19,.5Z"/>
  <path class="cls-6" d="M221.3,68.91c-.1-.23-.05-.4,.19-.5-.03,.18-.06,.36-.19,.5Z"/>
  <g>
    <path class="cls-3" d="M217.79,76.43c3.12-.49,5.68-2.79,5.56-6.63-.03-1.11-.34-2.16-.67-3.21-.49-1.54-.43-3.06-.01-4.59,.33-1.2,.58-2.41,.54-3.67-.03-.96-.35-1.81-.83-2.68-.16,.35-.2,.69-.38,.98-.31,.51-.67,.74-1.05,.63-.36-.11-.52-.53-.44-1.13,.06-.41,.23-.78,.4-1.15,.7-1.58,1.34-3.19,1.69-4.9,.17-.83,.27-1.68,.02-2.52-.09-.29-.26-.51-.45-.79-.22,1.71-1.86,2.06-3.08,1.55-.42-.18-.65-.5-.66-.99-.04-1.32,.44-2.46,1.11-3.56,.69-1.13,1.18-2.33,1.3-3.66,.1-1.16-.3-2.16-1.13-2.99-1.01-1-2.24-1.55-3.58-1.92-.44-.12-.87-.29-1.27-.49-.9-.45-1.1-1.06-.69-1.98,.04-.09,.08-.18,.12-.27h0c-.28-.06-.4,.18-.55,.33-1.23,1.23-1.42,2.69-.85,4.27,.26,.72,.6,1.41,.9,2.11,.08,.04,.09,.09,.04,.16,.02,.07,.04,.14,.06,.22,.08,.04,.1,.09,.02,.15,.01,.21,.02,.42,.03,.63,0,0,.03,.03,.03,.03l-.03,.02c-.03,.24-.05,.47-.08,.71-.01,.03-.02,.06-.03,.09-.18,.7-.42,1.37-.94,1.91-.4,.42-.9,.57-1.32,.38-.5-.23-.7-.64-.72-1.18-.02-.51,.18-.96,.42-1.39,.07-.14,.23-.24,.15-.46-1.53,1.24-2.03,2.85-1.8,4.73,.22,1.75,.99,3.27,1.97,4.7,.44,.65,.87,1.31,1.19,2.02,.35,.78,.41,1.57,0,2.36-.24,.45-.62,.75-1.13,.73-.51-.02-.73-.44-.89-.86-.23-.6-.15-1.2,0-1.83-.97,.56-1.21,1.77-1.02,2.57,.11,.46,.24,.91,.32,1.38,.17,1.08-.05,2.08-.75,2.95-.41,.51-.8,1.03-.97,1.68-.22,.82-.17,1.64,.13,2.41,.47,1.2,.4,2.37-.02,3.54-.57,1.59-.54,3.18-.02,4.76,.87,2.62,2.63,4.31,5.35,4.92,.24,.05,.48,.11,.73,.05-.03-.13-.13-.13-.23-.14-.06,0-.13,.02-.19,0-1.89-.57-3.23-1.78-4-3.6-.13-.14-.16-.32-.19-.5v-.29c-.16-.3-.17-.62-.2-.94-.11-1.46,.22-2.85,.64-4.23,.13-.43,.19-.92,.12-1.35-.12-.69-.36-1.37-.6-2.03-.31-.87-.34-1.77-.12-2.62,.35-1.31,.98-2.53,1.59-3.74,.06-.12,.12-.3,.3-.29,.19,0,.19,.17,.24,.31,.17,.46,.66,1.08,1.27,.94,.17-.28,.34-.57,.53-.84,.19-.27,.47-.48,.56-.82,.15-.93,.13-1.85-.1-2.76,0-.06,0-.13,0-.19-.08-.04-.1-.12-.1-.2,.03-.29-.13-.52-.24-.77-.18-.39-.38-.77-.45-1.19-.08-.02-.19,0-.23-.05-.38-.48-.68-1.01-1.08-1.48-.25-.3-.54-.65-.71-.98-.44-.86-.39-1.84-.33-2.78,.03-.47,.32-.63,.77-.5,.71,.19,1.42,.21,2.09-.15,.17-.09,.34-.19,.54-.02,.22,.18,.36,0,.38-.18,.03-.27,.22-.38,.4-.51,.27-.19,.66-.32,.78-.58,.3-.65,.64-1.28,.93-1.94,.43-1,.52-1.93-.05-2.88-.09-.15-.1-.3,.03-.49,.6,.66,.95,1.38,.98,2.24,.02,.54,0,1.08,0,1.62,0,.2,0,.4-.09,.57-.26,.51-.29,1.09-.46,1.63-.1,.33-.14,.72,.16,1.01,.15,.14,.08,.3,0,.45-.36,.71-.49,1.42-.44,2.25,.06,1.03,.37,1.88,1.22,2.42,.51,.32,1.12,.54,1.79,.24,.45-.2,.71-.55,1.03-.87,.08-.08,.16-.18,.29-.15,.15,.04,.13,.17,.12,.28-.03,.66,.02,1.3-.19,1.96-.36,1.12-1,2.09-1.5,3.13-.35,.73-.71,1.44-.92,2.22-.19,.71-.04,1.4,.47,1.98,.21,.24,1.14,.35,1.34,.11,.41-.48,1.02-.76,1.36-1.31,.07-.11,.15-.17,.28-.14,.12,.03,.11,.14,.14,.23,.47,1.24,.08,2.44-.27,3.61-.35,1.17-.61,2.34-.72,3.55-.06,.63,.08,1.23,.19,1.83,.11,.57,.2,1.14,.33,1.7,.31,1.32,.27,2.6-.33,3.84-.53,1.11-1.3,1.99-2.39,2.6-.47,.26-1,.37-1.44,.69Z"/>
    <path class="cls-19" d="M217.79,76.43c.43-.32,.97-.43,1.44-.69,1.09-.61,1.86-1.49,2.39-2.6,.59-1.24,.64-2.52,.33-3.84-.13-.56-.22-1.13-.33-1.7-.41-.17-.59-.56-.77-.91-.23-.46-.34-.97-.56-1.43-.45-.94-1.1-1.75-1.73-2.57-.95-1.22-1.14-2.6-.6-4.07,.36-.98,.77-1.95,1.05-2.97,.04-.14,.05-.29,.06-.43,0-.1-.04-.21-.14-.23-.14-.03-.13,.11-.17,.19-.16,.32-.3,.64-.48,.95-.28,.5-.86,.56-1.31,.2-.46-.36-.22-.74-.05-1.08,.3-.59,.6-1.19,.76-1.82,.23-.88-.6-1.97-1.52-2.13-.14-.02-.28-.05-.3-.2-.09-.7-.76-1.19-.71-1.94,0-.08-.02-.17-.11-.19-.09-.02-.18,.01-.21,.08-.19,.41-.46,.81-.44,1.28,.05,1,.07,1-.9,.97-.07,0-.13,0-.2,0,.07,.43,.27,.81,.45,1.19,.11,.25,.27,.47,.24,.77,.12,.02,.25,.04,.1,.2,0,.06,0,.13,0,.19,.14,0,.23,.04,.31,.18,.15,.26,.19,.55,.3,.82,.31,.73,.15,1.28-.51,1.76-.09,.34-.37,.55-.56,.82-.19,.27-.35,.56-.53,.84-.1,.3-.13,.61-.09,.92,.11,.92,.54,1.75,.71,2.65,.19,.97,.27,1.89-.25,2.79-.16,.27-.35,.51-.69,.41-.33-.09-.66-.24-.75-.62-.13-.57-.18-1.16-.06-1.74,.03-.14,.11-.34-.02-.4-.2-.1-.28,.15-.35,.26-.67,.98-.97,2.09-.73,3.25,.21,1.02,.09,1.94-.22,2.91-.29,.92-.54,1.88-.34,2.87,.02,.1,.04,.22-.08,.24-.25,.04-.23,.29-.37,.41,0,.1,0,.19,0,.29,.24,.1,.29,.27,.19,.5,.77,1.82,2.1,3.02,4,3.6,.06,.02,.13,0,.19,0-.11-.16-.29-.2-.45-.28-.55-.28-1.08-.58-1.5-1.04-.26-.06-.4-.27-.55-.46-.85-1.08-1.19-2.32-1.2-3.67,0-.87,.09-1.73,.33-2.55,.18-.61,.3-1.27,.7-1.91,.03,.2,.03,.32,.07,.42,.09,.27,.22,.55,.53,.58,.32,.04,.49-.24,.61-.48,.1-.18,.18-.4,.19-.6,.02-.76,.49-1.28,.93-1.83,.19-.24,.32-.56,.6-.08,.03,.05,.15,.05,.23,.06,.44,.06,.59,.35,.33,.71-.16,.22-.26,.46-.34,.7-.15,.42,.01,.79,.28,1.13,.21,.26,.52,.29,.76,.19,.51-.21,.77-.66,.88-1.2,.18-.87,.09-1.76,.1-2.64,.01-.75,.29-.94,1-.66,.25,.1,.44,.27,.6,.48,1.14,1.44,2.06,2.99,2.47,4.82,.34,1.51,.42,3.02-.05,4.51-.17,.55-.47,1.08-.82,1.54-.23,.31-.39,.73-.84,.85h0c0,.18-.11,.27-.28,.3-.04,.04-.07,.07-.11,.11-.12,.33-.4,.47-.71,.56-.12,.06-.24,.12-.36,.18-.17,.19-.37,.29-.63,.3-.11,.03-.25-.02-.29,.14,.36-.06,.74,.06,1.08-.12Z"/>
    <path class="cls-20" d="M212.28,75.07c.42,.47,.95,.77,1.5,1.04,.16,.08,.34,.12,.45,.28,.1,.01,.21,.01,.23,.14,.75,.24,1.5,.3,2.25,.02,.04-.16,.18-.12,.29-.14,.13-.25,.38-.28,.63-.3,.12-.06,.24-.12,.36-.18,.16-.29,.39-.48,.71-.56,.04-.04,.07-.07,.11-.11-.02-.2,.09-.28,.28-.3,0,0,0,0,0,0,.12-.44,.45-.74,.69-1.11,.54-.86,1.01-1.74,.95-2.8-.12,0-.01,.22-.19,.17,0-.19-.03-.39,0-.58,.07-.38-.21-.73-.41-.8-.75-.26-1.22-.92-1.98-1.2-.54-.2-.81-.15-1.23,.16-1.08,.84-2.22,.83-3.03-.35-.05-.07-.07-.15-.16-.16-.26-.04-1.03,.57-1.03,.83,0,.62-.07,1.24,.07,1.86,.08,.37-.07,.69-.4,.88-.31,.18-.6-.04-.79-.22-.24-.24-.43-.55-.45-.93-.01-.19-.06-.36-.22-.57-.32,1.26,.03,2.36,.46,3.45,.22,.55,.68,.94,.92,1.48Z"/>
    <path class="cls-3" d="M214.47,24.49c-.2,1.02,0,1.98,.33,2.93,.19,.54,.41,1.06,.64,1.59,.28,.66,.27,1.32,.07,2.03,1.02-.52,1.41-1.77,.87-2.69-.27-.46-.58-.9-.89-1.34-.64-.9-.84-1.38-1.02-2.51Z"/>
    <path class="cls-2" d="M213.88,39.69c.08-.06,.07-.11-.02-.15-.04,.06-.05,.11,.02,.15Z"/>
    <path class="cls-2" d="M213.81,39.32c.04-.07,.04-.13-.04-.16,.01,.05,.03,.11,.04,.16Z"/>
    <path class="cls-2" d="M213.8,41.17s.02-.06,.03-.09c-.01,.03-.02,.06-.03,.09Z"/>
    <polygon class="cls-2" points="213.91 40.38 213.94 40.35 213.92 40.32 213.9 40.35 213.91 40.38"/>
    <polygon class="cls-1" points="214.27 32.46 214.27 32.44 214.27 32.47 214.27 32.46"/>
    <path class="cls-5" d="M213.28,51.3c.07,0,.13,0,.2,0,.97,.03,.95,.03,.9-.97-.02-.47,.25-.87,.44-1.28,.03-.07,.12-.11,.21-.08,.09,.03,.12,.11,.11,.19-.05,.75,.63,1.24,.71,1.94,.02,.15,.16,.18,.3,.2,.92,.16,1.75,1.25,1.52,2.13-.16,.63-.47,1.23-.76,1.82-.17,.34-.41,.72,.05,1.08,.45,.35,1.03,.3,1.31-.2,.18-.31,.32-.63,.48-.95,.04-.08,.03-.22,.17-.19,.1,.02,.15,.13,.14,.23,0,.14-.02,.29-.06,.43-.28,1.01-.69,1.98-1.05,2.97-.54,1.47-.35,2.85,.6,4.07,.64,.82,1.29,1.63,1.73,2.57,.22,.46,.33,.98,.56,1.43,.18,.35,.36,.74,.77,.91-.12-.6-.25-1.2-.19-1.83,.11-1.21,.38-2.38,.72-3.55,.34-1.16,.74-2.36,.27-3.61-.03-.09-.02-.2-.14-.23-.13-.03-.22,.03-.28,.14-.34,.55-.95,.82-1.36,1.31-.2,.24-1.13,.14-1.34-.11-.51-.58-.66-1.27-.47-1.98,.21-.77,.57-1.49,.92-2.22,.5-1.04,1.14-2.01,1.5-3.13,.21-.66,.16-1.31,.19-1.96,0-.11,.02-.25-.12-.28-.13-.03-.21,.07-.29,.15-.31,.32-.58,.67-1.03,.87-.67,.3-1.28,.08-1.79-.24-.86-.54-1.16-1.39-1.22-2.42-.05-.82,.08-1.54,.44-2.25,.08-.15,.14-.31,0-.45-.3-.3-.27-.69-.16-1.01,.17-.54,.2-1.11,.46-1.63,.09-.18,.1-.38,.09-.57,0-.54,.01-1.08,0-1.62-.03-.86-.38-1.58-.98-2.24-.14,.2-.12,.35-.03,.49,.56,.95,.48,1.88,.05,2.88-.28,.66-.63,1.29-.93,1.94-.12,.26-.51,.4-.78,.58-.19,.13-.37,.24-.4,.51-.02,.19-.16,.36-.38,.18-.2-.17-.36-.07-.54,.02-.68,.36-1.38,.34-2.09,.15-.45-.12-.74,.03-.77,.5-.06,.95-.1,1.93,.33,2.78,.17,.33,.45,.68,.71,.98,.4,.47,.7,1.01,1.08,1.48,.04,.05,.15,.04,.23,.05Z"/>
    <path class="cls-5" d="M209.84,72.01c.14-.12,.12-.38,.37-.41,.12-.02,.11-.14,.08-.24-.2-.99,.05-1.95,.34-2.87,.31-.97,.43-1.89,.22-2.91-.24-1.16,.06-2.26,.73-3.25,.07-.11,.15-.36,.35-.26,.14,.07,.06,.26,.02,.4-.13,.58-.07,1.17,.06,1.74,.09,.38,.42,.52,.75,.62,.35,.1,.53-.13,.69-.41,.52-.89,.43-1.82,.25-2.79-.17-.91-.6-1.74-.71-2.65-.04-.31,0-.62,.09-.92-.61,.13-1.1-.48-1.27-.94-.05-.14-.06-.31-.24-.31-.18,0-.24,.17-.3,.29-.61,1.21-1.24,2.43-1.59,3.74-.22,.85-.19,1.75,.12,2.62,.24,.66,.47,1.34,.6,2.03,.08,.43,.01,.92-.12,1.35-.41,1.38-.75,2.77-.64,4.23,.02,.32,.04,.64,.19,.94Z"/>
    <path class="cls-4" d="M214.17,56.41c.66-.48,.81-1.03,.51-1.76-.11-.27-.15-.56-.3-.82-.08-.14-.17-.18-.31-.18,.23,.91,.25,1.83,.1,2.76Z"/>
    <path class="cls-4" d="M214.07,53.46c.14-.16,.02-.18-.1-.2,0,.08,.02,.16,.1,.2Z"/>
    <path class="cls-21" d="M212.28,75.07c-.23-.54-.7-.93-.92-1.48-.43-1.09-.78-2.19-.46-3.45,.15,.2,.21,.38,.22,.57,.02,.37,.21,.69,.45,.93,.19,.18,.48,.41,.79,.22,.32-.19,.48-.51,.4-.88-.14-.62-.07-1.24-.07-1.86,0-.26,.77-.87,1.03-.83,.1,.02,.12,.1,.16,.16,.81,1.18,1.95,1.19,3.03,.35,.41-.32,.68-.37,1.23-.16,.76,.28,1.23,.94,1.98,1.2,.2,.07,.48,.41,.41,.8-.03,.19,0,.39,0,.58,.18,.05,.07-.17,.19-.17,.06,1.06-.41,1.94-.95,2.8-.23,.37-.57,.67-.69,1.11,.44-.11,.61-.54,.84-.85,.35-.46,.65-.99,.82-1.54,.47-1.49,.39-3,.05-4.51-.4-1.82-1.33-3.37-2.47-4.82-.16-.21-.35-.38-.6-.48-.72-.27-.99-.09-1,.66-.02,.88,.08,1.76-.1,2.64-.11,.54-.37,.99-.88,1.2-.24,.1-.55,.08-.76-.19-.27-.34-.43-.71-.28-1.13,.09-.24,.18-.48,.34-.7,.26-.36,.11-.65-.33-.71-.08-.01-.2-.01-.23-.06-.27-.48-.41-.16-.6,.08-.43,.55-.9,1.07-.93,1.83,0,.2-.09,.42-.19,.6-.13,.24-.3,.51-.61,.48-.31-.03-.44-.31-.53-.58-.03-.1-.04-.22-.07-.42-.4,.64-.51,1.29-.7,1.91-.25,.82-.34,1.68-.33,2.55,.01,1.35,.35,2.6,1.2,3.67,.15,.19,.28,.4,.55,.46Z"/>
  </g>
  <path class="cls-6" d="M365.3,68.91c-.1-.23-.05-.4,.19-.5-.03,.18-.06,.36-.19,.5Z"/>
  <g>
    <path class="cls-3" d="M357.55,76.43c-3.12-.49-5.68-2.79-5.56-6.63,.03-1.11,.34-2.16,.67-3.21,.49-1.54,.43-3.06,.01-4.59-.33-1.2-.58-2.41-.54-3.67,.03-.96,.35-1.81,.83-2.68,.16,.35,.2,.69,.38,.98,.31,.51,.67,.74,1.05,.63,.36-.11,.52-.53,.44-1.13-.06-.41-.23-.78-.4-1.15-.7-1.58-1.34-3.19-1.69-4.9-.17-.83-.27-1.68-.02-2.52,.09-.29,.26-.51,.45-.79,.22,1.71,1.86,2.06,3.08,1.55,.42-.18,.65-.5,.66-.99,.04-1.32-.44-2.46-1.11-3.56-.69-1.13-1.18-2.33-1.3-3.66-.1-1.16,.3-2.16,1.13-2.99,1.01-1,2.24-1.55,3.58-1.92,.44-.12,.87-.29,1.27-.49,.9-.45,1.1-1.06,.69-1.98-.04-.09-.08-.18-.12-.27h0c.28-.06,.4,.18,.55,.33,1.23,1.23,1.42,2.69,.85,4.27-.26,.72-.6,1.41-.9,2.11-.08,.04-.09,.09-.04,.16-.02,.07-.04,.14-.06,.22-.08,.04-.1,.09-.02,.15-.01,.21-.02,.42-.03,.63,0,0-.03,.03-.03,.03l.03,.02c.03,.24,.05,.47,.08,.71,.01,.03,.02,.06,.03,.09,.18,.7,.42,1.37,.94,1.91,.4,.42,.9,.57,1.32,.38,.5-.23,.7-.64,.72-1.18,.02-.51-.18-.96-.42-1.39-.07-.14-.23-.24-.15-.46,1.53,1.24,2.03,2.85,1.8,4.73-.22,1.75-.99,3.27-1.97,4.7-.44,.65-.87,1.31-1.19,2.02-.35,.78-.41,1.57,0,2.36,.24,.45,.62,.75,1.13,.73,.51-.02,.73-.44,.89-.86,.23-.6,.15-1.2,0-1.83,.97,.56,1.21,1.77,1.02,2.57-.11,.46-.24,.91-.32,1.38-.17,1.08,.05,2.08,.75,2.95,.41,.51,.8,1.03,.97,1.68,.22,.82,.17,1.64-.13,2.41-.47,1.2-.4,2.37,.02,3.54,.57,1.59,.54,3.18,.02,4.76-.87,2.62-2.63,4.31-5.35,4.92-.24,.05-.48,.11-.73,.05,.03-.13,.13-.13,.23-.14,.06,0,.13,.02,.19,0,1.89-.57,3.23-1.78,4-3.6,.13-.14,.16-.32,.19-.5v-.29c.16-.3,.17-.62,.2-.94,.11-1.46-.22-2.85-.64-4.23-.13-.43-.19-.92-.12-1.35,.12-.69,.36-1.37,.6-2.03,.31-.87,.34-1.77,.12-2.62-.35-1.31-.98-2.53-1.59-3.74-.06-.12-.12-.3-.3-.29-.19,0-.19,.17-.24,.31-.17,.46-.66,1.08-1.27,.94-.17-.28-.34-.57-.53-.84-.19-.27-.47-.48-.56-.82-.15-.93-.13-1.85,.1-2.76,0-.06,0-.13,0-.19,.08-.04,.1-.12,.1-.2-.03-.29,.13-.52,.24-.77,.18-.39,.38-.77,.45-1.19,.08-.02,.19,0,.23-.05,.38-.48,.68-1.01,1.08-1.48,.25-.3,.54-.65,.71-.98,.44-.86,.39-1.84,.33-2.78-.03-.47-.32-.63-.77-.5-.71,.19-1.42,.21-2.09-.15-.17-.09-.34-.19-.54-.02-.22,.18-.36,0-.38-.18-.03-.27-.22-.38-.4-.51-.27-.19-.66-.32-.78-.58-.3-.65-.64-1.28-.93-1.94-.43-1-.52-1.93,.05-2.88,.09-.15,.1-.3-.03-.49-.6,.66-.95,1.38-.98,2.24-.02,.54,0,1.08,0,1.62,0,.2,0,.4,.09,.57,.26,.51,.29,1.09,.46,1.63,.1,.33,.14,.72-.16,1.01-.15,.14-.08,.3,0,.45,.36,.71,.49,1.42,.44,2.25-.06,1.03-.37,1.88-1.22,2.42-.51,.32-1.12,.54-1.79,.24-.45-.2-.71-.55-1.03-.87-.08-.08-.16-.18-.29-.15-.15,.04-.13,.17-.12,.28,.03,.66-.02,1.3,.19,1.96,.36,1.12,1,2.09,1.5,3.13,.35,.73,.71,1.44,.92,2.22,.19,.71,.04,1.4-.47,1.98-.21,.24-1.14,.35-1.34,.11-.41-.48-1.02-.76-1.36-1.31-.07-.11-.15-.17-.28-.14-.12,.03-.11,.14-.14,.23-.47,1.24-.08,2.44,.27,3.61,.35,1.17,.61,2.34,.72,3.55,.06,.63-.08,1.23-.19,1.83-.11,.57-.2,1.14-.33,1.7-.31,1.32-.27,2.6,.33,3.84,.53,1.11,1.3,1.99,2.39,2.6,.47,.26,1,.37,1.44,.69Z"/>
    <path class="cls-19" d="M357.55,76.43c-.43-.32-.97-.43-1.44-.69-1.09-.61-1.86-1.49-2.39-2.6-.59-1.24-.64-2.52-.33-3.84,.13-.56,.22-1.13,.33-1.7,.41-.17,.59-.56,.77-.91,.23-.46,.34-.97,.56-1.43,.45-.94,1.1-1.75,1.73-2.57,.95-1.22,1.14-2.6,.6-4.07-.36-.98-.77-1.95-1.05-2.97-.04-.14-.05-.29-.06-.43,0-.1,.04-.21,.14-.23,.14-.03,.13,.11,.17,.19,.16,.32,.3,.64,.48,.95,.28,.5,.86,.56,1.31,.2,.46-.36,.22-.74,.05-1.08-.3-.59-.6-1.19-.76-1.82-.23-.88,.6-1.97,1.52-2.13,.14-.02,.28-.05,.3-.2,.09-.7,.76-1.19,.71-1.94,0-.08,.02-.17,.11-.19,.09-.02,.18,.01,.21,.08,.19,.41,.46,.81,.44,1.28-.05,1-.07,1,.9,.97,.07,0,.13,0,.2,0-.07,.43-.27,.81-.45,1.19-.11,.25-.27,.47-.24,.77-.12,.02-.25,.04-.1,.2,0,.06,0,.13,0,.19-.14,0-.23,.04-.31,.18-.15,.26-.19,.55-.3,.82-.31,.73-.15,1.28,.51,1.76,.09,.34,.37,.55,.56,.82,.19,.27,.35,.56,.53,.84,.1,.3,.13,.61,.09,.92-.11,.92-.54,1.75-.71,2.65-.19,.97-.27,1.89,.25,2.79,.16,.27,.35,.51,.69,.41,.33-.09,.66-.24,.75-.62,.13-.57,.18-1.16,.06-1.74-.03-.14-.11-.34,.02-.4,.2-.1,.28,.15,.35,.26,.67,.98,.97,2.09,.73,3.25-.21,1.02-.09,1.94,.22,2.91,.29,.92,.54,1.88,.34,2.87-.02,.1-.04,.22,.08,.24,.25,.04,.23,.29,.37,.41,0,.1,0,.19,0,.29-.24,.1-.29,.27-.19,.5-.77,1.82-2.1,3.02-4,3.6-.06,.02-.13,0-.19,0,.11-.16,.29-.2,.45-.28,.55-.28,1.08-.58,1.5-1.04,.26-.06,.4-.27,.55-.46,.85-1.08,1.19-2.32,1.2-3.67,0-.87-.09-1.73-.33-2.55-.18-.61-.3-1.27-.7-1.91-.03,.2-.03,.32-.07,.42-.09,.27-.22,.55-.53,.58-.32,.04-.49-.24-.61-.48-.1-.18-.18-.4-.19-.6-.02-.76-.49-1.28-.93-1.83-.19-.24-.32-.56-.6-.08-.03,.05-.15,.05-.23,.06-.44,.06-.59,.35-.33,.71,.16,.22,.26,.46,.34,.7,.15,.42-.01,.79-.28,1.13-.21,.26-.52,.29-.76,.19-.51-.21-.77-.66-.88-1.2-.18-.87-.09-1.76-.1-2.64-.01-.75-.29-.94-1-.66-.25,.1-.44,.27-.6,.48-1.14,1.44-2.06,2.99-2.47,4.82-.34,1.51-.42,3.02,.05,4.51,.17,.55,.47,1.08,.82,1.54,.23,.31,.39,.73,.84,.85h0c0,.18,.11,.27,.28,.3,.04,.04,.07,.07,.11,.11,.12,.33,.4,.47,.71,.56,.12,.06,.24,.12,.36,.18,.17,.19,.37,.29,.63,.3,.11,.03,.25-.02,.29,.14-.36-.06-.74,.06-1.08-.12Z"/>
    <path class="cls-20" d="M363.06,75.07c-.42,.47-.95,.77-1.5,1.04-.16,.08-.34,.12-.45,.28-.1,.01-.21,.01-.23,.14-.75,.24-1.5,.3-2.25,.02-.04-.16-.18-.12-.29-.14-.13-.25-.38-.28-.63-.3-.12-.06-.24-.12-.36-.18-.16-.29-.39-.48-.71-.56-.04-.04-.07-.07-.11-.11,.02-.2-.09-.28-.28-.3,0,0,0,0,0,0-.12-.44-.45-.74-.69-1.11-.54-.86-1.01-1.74-.95-2.8,.12,0,.01,.22,.19,.17,0-.19,.03-.39,0-.58-.07-.38,.21-.73,.41-.8,.75-.26,1.22-.92,1.98-1.2,.54-.2,.81-.15,1.23,.16,1.08,.84,2.22,.83,3.03-.35,.05-.07,.07-.15,.16-.16,.26-.04,1.03,.57,1.03,.83,0,.62,.07,1.24-.07,1.86-.08,.37,.07,.69,.4,.88,.31,.18,.6-.04,.79-.22,.24-.24,.43-.55,.45-.93,.01-.19,.06-.36,.22-.57,.32,1.26-.03,2.36-.46,3.45-.22,.55-.68,.94-.92,1.48Z"/>
    <path class="cls-3" d="M360.87,24.49c.2,1.02,0,1.98-.33,2.93-.19,.54-.41,1.06-.64,1.59-.28,.66-.27,1.32-.07,2.03-1.02-.52-1.41-1.77-.87-2.69,.27-.46,.58-.9,.89-1.34,.64-.9,.84-1.38,1.02-2.51Z"/>
    <path class="cls-2" d="M361.46,39.69c-.08-.06-.07-.11,.02-.15,.04,.06,.05,.11-.02,.15Z"/>
    <path class="cls-2" d="M361.53,39.32c-.04-.07-.04-.13,.04-.16-.01,.05-.03,.11-.04,.16Z"/>
    <path class="cls-2" d="M361.54,41.17s-.02-.06-.03-.09c.01,.03,.02,.06,.03,.09Z"/>
    <polygon class="cls-2" points="361.43 40.38 361.4 40.35 361.43 40.32 361.44 40.35 361.43 40.38"/>
    <polygon class="cls-1" points="361.07 32.46 361.07 32.44 361.07 32.47 361.07 32.46"/>
    <path class="cls-5" d="M362.06,51.3c-.07,0-.13,0-.2,0-.97,.03-.95,.03-.9-.97,.02-.47-.25-.87-.44-1.28-.03-.07-.12-.11-.21-.08-.09,.03-.12,.11-.11,.19,.05,.75-.63,1.24-.71,1.94-.02,.15-.16,.18-.3,.2-.92,.16-1.75,1.25-1.52,2.13,.16,.63,.47,1.23,.76,1.82,.17,.34,.41,.72-.05,1.08-.45,.35-1.03,.3-1.31-.2-.18-.31-.32-.63-.48-.95-.04-.08-.03-.22-.17-.19-.1,.02-.15,.13-.14,.23,0,.14,.02,.29,.06,.43,.28,1.01,.69,1.98,1.05,2.97,.54,1.47,.35,2.85-.6,4.07-.64,.82-1.29,1.63-1.73,2.57-.22,.46-.33,.98-.56,1.43-.18,.35-.36,.74-.77,.91,.12-.6,.25-1.2,.19-1.83-.11-1.21-.38-2.38-.72-3.55-.34-1.16-.74-2.36-.27-3.61,.03-.09,.02-.2,.14-.23,.13-.03,.22,.03,.28,.14,.34,.55,.95,.82,1.36,1.31,.2,.24,1.13,.14,1.34-.11,.51-.58,.66-1.27,.47-1.98-.21-.77-.57-1.49-.92-2.22-.5-1.04-1.14-2.01-1.5-3.13-.21-.66-.16-1.31-.19-1.96,0-.11-.02-.25,.12-.28,.13-.03,.21,.07,.29,.15,.31,.32,.58,.67,1.03,.87,.67,.3,1.28,.08,1.79-.24,.86-.54,1.16-1.39,1.22-2.42,.05-.82-.08-1.54-.44-2.25-.08-.15-.14-.31,0-.45,.3-.3,.27-.69,.16-1.01-.17-.54-.2-1.11-.46-1.63-.09-.18-.1-.38-.09-.57,0-.54-.01-1.08,0-1.62,.03-.86,.38-1.58,.98-2.24,.14,.2,.12,.35,.03,.49-.56,.95-.48,1.88-.05,2.88,.28,.66,.63,1.29,.93,1.94,.12,.26,.51,.4,.78,.58,.19,.13,.37,.24,.4,.51,.02,.19,.16,.36,.38,.18,.2-.17,.36-.07,.54,.02,.68,.36,1.38,.34,2.09,.15,.45-.12,.74,.03,.77,.5,.06,.95,.1,1.93-.33,2.78-.17,.33-.45,.68-.71,.98-.4,.47-.7,1.01-1.08,1.48-.04,.05-.15,.04-.23,.05Z"/>
    <path class="cls-5" d="M365.5,72.01c-.14-.12-.12-.38-.37-.41-.12-.02-.11-.14-.08-.24,.2-.99-.05-1.95-.34-2.87-.31-.97-.43-1.89-.22-2.91,.24-1.16-.06-2.26-.73-3.25-.07-.11-.15-.36-.35-.26-.14,.07-.06,.26-.02,.4,.13,.58,.07,1.17-.06,1.74-.09,.38-.42,.52-.75,.62-.35,.1-.53-.13-.69-.41-.52-.89-.43-1.82-.25-2.79,.17-.91,.6-1.74,.71-2.65,.04-.31,0-.62-.09-.92,.61,.13,1.1-.48,1.27-.94,.05-.14,.06-.31,.24-.31,.18,0,.24,.17,.3,.29,.61,1.21,1.24,2.43,1.59,3.74,.22,.85,.19,1.75-.12,2.62-.24,.66-.47,1.34-.6,2.03-.08,.43-.01,.92,.12,1.35,.41,1.38,.75,2.77,.64,4.23-.02,.32-.04,.64-.19,.94Z"/>
    <path class="cls-4" d="M361.17,56.41c-.66-.48-.81-1.03-.51-1.76,.11-.27,.15-.56,.3-.82,.08-.14,.17-.18,.31-.18-.23,.91-.25,1.83-.1,2.76Z"/>
    <path class="cls-4" d="M361.27,53.46c-.14-.16-.02-.18,.1-.2,0,.08-.02,.16-.1,.2Z"/>
    <path class="cls-21" d="M363.06,75.07c.23-.54,.7-.93,.92-1.48,.43-1.09,.78-2.19,.46-3.45-.15,.2-.21,.38-.22,.57-.02,.37-.21,.69-.45,.93-.19,.18-.48,.41-.79,.22-.32-.19-.48-.51-.4-.88,.14-.62,.07-1.24,.07-1.86,0-.26-.77-.87-1.03-.83-.1,.02-.12,.1-.16,.16-.81,1.18-1.95,1.19-3.03,.35-.41-.32-.68-.37-1.23-.16-.76,.28-1.23,.94-1.98,1.2-.2,.07-.48,.41-.41,.8,.03,.19,0,.39,0,.58-.18,.05-.07-.17-.19-.17-.06,1.06,.41,1.94,.95,2.8,.23,.37,.57,.67,.69,1.11-.44-.11-.61-.54-.84-.85-.35-.46-.65-.99-.82-1.54-.47-1.49-.39-3-.05-4.51,.4-1.82,1.33-3.37,2.47-4.82,.16-.21,.35-.38,.6-.48,.72-.27,.99-.09,1,.66,.02,.88-.08,1.76,.1,2.64,.11,.54,.37,.99,.88,1.2,.24,.1,.55,.08,.76-.19,.27-.34,.43-.71,.28-1.13-.09-.24-.18-.48-.34-.7-.26-.36-.11-.65,.33-.71,.08-.01,.2-.01,.23-.06,.27-.48,.41-.16,.6,.08,.43,.55,.9,1.07,.93,1.83,0,.2,.09,.42,.19,.6,.13,.24,.3,.51,.61,.48,.31-.03,.44-.31,.53-.58,.03-.1,.04-.22,.07-.42,.4,.64,.51,1.29,.7,1.91,.25,.82,.34,1.68,.33,2.55-.01,1.35-.35,2.6-1.2,3.67-.15,.19-.28,.4-.55,.46Z"/>
  </g>
  <path class="cls-6" d="M509.3,68.91c-.1-.23-.05-.4,.19-.5-.03,.18-.06,.36-.19,.5Z"/>
  <g>
    <path class="cls-19" d="M505.45,76.43c.43-.32,.97-.43,1.44-.69,1.09-.61,1.86-1.49,2.39-2.6,.59-1.24,.64-2.52,.33-3.84-.13-.56-.22-1.13-.33-1.7-.41-.17-.59-.56-.77-.91-.23-.46-.34-.97-.56-1.43-.45-.94-1.1-1.75-1.73-2.57-.95-1.22-1.14-2.6-.6-4.07,.36-.98,.77-1.95,1.05-2.97,.04-.14,.05-.29,.06-.43,0-.1-.04-.21-.14-.23-.14-.03-.13,.11-.17,.19-.16,.32-.3,.64-.48,.95-.28,.5-.86,.56-1.31,.2-.46-.36-.22-.74-.05-1.08,.3-.59,.6-1.19,.76-1.82,.23-.88-.6-1.97-1.52-2.13-.14-.02-.28-.05-.3-.2-.09-.7-.76-1.19-.71-1.94,0-.08-.02-.17-.11-.19-.09-.02-.18,.01-.21,.08-.19,.41-.46,.81-.44,1.28,.05,1,.07,1-.9,.97-.07,0-.13,0-.2,0,.07,.43,.27,.81,.45,1.19,.11,.25,.27,.47,.24,.77,.12,.02,.25,.04,.1,.2,0,.06,0,.13,0,.19,.14,0,.23,.04,.31,.18,.15,.26,.19,.55,.3,.82,.31,.73,.15,1.28-.51,1.76-.09,.34-.37,.55-.56,.82-.19,.27-.35,.56-.53,.84-.1,.3-.13,.61-.09,.92,.11,.92,.54,1.75,.71,2.65,.19,.97,.27,1.89-.25,2.79-.16,.27-.35,.51-.69,.41-.33-.09-.66-.24-.75-.62-.13-.57-.18-1.16-.06-1.74,.03-.14,.11-.34-.02-.4-.2-.1-.28,.15-.35,.26-.67,.98-.97,2.09-.73,3.25,.21,1.02,.09,1.94-.22,2.91-.29,.92-.54,1.88-.34,2.87,.02,.1,.04,.22-.08,.24-.25,.04-.23,.29-.37,.41,0,.1,0,.19,0,.29,.24,.1,.29,.27,.19,.5,.77,1.82,2.1,3.02,4,3.6,.06,.02,.13,0,.19,0-.11-.16-.29-.2-.45-.28-.55-.28-1.08-.58-1.5-1.04-.26-.06-.4-.27-.55-.46-.85-1.08-1.19-2.32-1.2-3.67,0-.87,.09-1.73,.33-2.55,.18-.61,.3-1.27,.7-1.91,.03,.2,.03,.32,.07,.42,.09,.27,.22,.55,.53,.58,.32,.04,.49-.24,.61-.48,.1-.18,.18-.4,.19-.6,.02-.76,.49-1.28,.93-1.83,.19-.24,.32-.56,.6-.08,.03,.05,.15,.05,.23,.06,.44,.06,.59,.35,.33,.71-.16,.22-.26,.46-.34,.7-.15,.42,.01,.79,.28,1.13,.21,.26,.52,.29,.76,.19,.51-.21,.77-.66,.88-1.2,.18-.87,.09-1.76,.1-2.64,.01-.75,.29-.94,1-.66,.25,.1,.44,.27,.6,.48,1.14,1.44,2.06,2.99,2.47,4.82,.34,1.51,.42,3.02-.05,4.51-.17,.55-.47,1.08-.82,1.54-.23,.31-.39,.73-.84,.85h0c0,.18-.11,.27-.28,.3-.04,.04-.07,.07-.11,.11-.12,.33-.4,.47-.71,.56-.12,.06-.24,.12-.36,.18-.17,.19-.37,.29-.63,.3-.11,.03-.25-.02-.29,.14,.36-.06,.74,.06,1.08-.12Z"/>
    <path class="cls-20" d="M499.94,75.07c.42,.47,.95,.77,1.5,1.04,.16,.08,.34,.12,.45,.28,.1,.01,.21,.01,.23,.14,.75,.24,1.5,.3,2.25,.02,.04-.16,.18-.12,.29-.14,.13-.25,.38-.28,.63-.3,.12-.06,.24-.12,.36-.18,.16-.29,.39-.48,.71-.56,.04-.04,.07-.07,.11-.11-.02-.2,.09-.28,.28-.3,0,0,0,0,0,0,.12-.44,.45-.74,.69-1.11,.54-.86,1.01-1.74,.95-2.8-.12,0-.01,.22-.19,.17,0-.19-.03-.39,0-.58,.07-.38-.21-.73-.41-.8-.75-.26-1.22-.92-1.98-1.2-.54-.2-.81-.15-1.23,.16-1.08,.84-2.22,.83-3.03-.35-.05-.07-.07-.15-.16-.16-.26-.04-1.03,.57-1.03,.83,0,.62-.07,1.24,.07,1.86,.08,.37-.07,.69-.4,.88-.31,.18-.6-.04-.79-.22-.24-.24-.43-.55-.45-.93-.01-.19-.06-.36-.22-.57-.32,1.26,.03,2.36,.46,3.45,.22,.55,.68,.94,.92,1.48Z"/>
    <polygon class="cls-1" points="501.93 32.46 501.93 32.44 501.93 32.47 501.93 32.46"/>
    <path class="cls-4" d="M501.83,56.41c.66-.48,.81-1.03,.51-1.76-.11-.27-.15-.56-.3-.82-.08-.14-.17-.18-.31-.18,.23,.91,.25,1.83,.1,2.76Z"/>
    <path class="cls-4" d="M501.73,53.46c.14-.16,.02-.18-.1-.2,0,.08,.02,.16,.1,.2Z"/>
    <path class="cls-21" d="M499.94,75.07c-.23-.54-.7-.93-.92-1.48-.43-1.09-.78-2.19-.46-3.45,.15,.2,.21,.38,.22,.57,.02,.37,.21,.69,.45,.93,.19,.18,.48,.41,.79,.22,.32-.19,.48-.51,.4-.88-.14-.62-.07-1.24-.07-1.86,0-.26,.77-.87,1.03-.83,.1,.02,.12,.1,.16,.16,.81,1.18,1.95,1.19,3.03,.35,.41-.32,.68-.37,1.23-.16,.76,.28,1.23,.94,1.98,1.2,.2,.07,.48,.41,.41,.8-.03,.19,0,.39,0,.58,.18,.05,.07-.17,.19-.17,.06,1.06-.41,1.94-.95,2.8-.23,.37-.57,.67-.69,1.11,.44-.11,.61-.54,.84-.85,.35-.46,.65-.99,.82-1.54,.47-1.49,.39-3,.05-4.51-.4-1.82-1.33-3.37-2.47-4.82-.16-.21-.35-.38-.6-.48-.72-.27-.99-.09-1,.66-.02,.88,.08,1.76-.1,2.64-.11,.54-.37,.99-.88,1.2-.24,.1-.55,.08-.76-.19-.27-.34-.43-.71-.28-1.13,.09-.24,.18-.48,.34-.7,.26-.36,.11-.65-.33-.71-.08-.01-.2-.01-.23-.06-.27-.48-.41-.16-.6,.08-.43,.55-.9,1.07-.93,1.83,0,.2-.09,.42-.19,.6-.13,.24-.3,.51-.61,.48-.31-.03-.44-.31-.53-.58-.03-.1-.04-.22-.07-.42-.4,.64-.51,1.29-.7,1.91-.25,.82-.34,1.68-.33,2.55,.01,1.35,.35,2.6,1.2,3.67,.15,.19,.28,.4,.55,.46Z"/>
  </g>
  <path class="cls-6" d="M653.3,68.91c-.1-.23-.05-.4,.19-.5-.03,.18-.06,.36-.19,.5Z"/>
  <g>
    <path class="cls-19" d="M649.45,76.43c.43-.32,.97-.43,1.44-.69,1.09-.61,1.86-1.49,2.39-2.6,.59-1.24,.64-2.52,.33-3.84-.13-.56-.22-1.13-.33-1.7-.41-.17-.59-.56-.77-.91-.23-.46-.34-.97-.56-1.43-.45-.94-1.1-1.75-1.73-2.57-.95-1.22-1.14-2.6-.6-4.07,.36-.98,.77-1.95,1.05-2.97,.04-.14,.05-.29,.06-.43,0-.1-.04-.21-.14-.23-.14-.03-.13,.11-.17,.19-.16,.32-.3,.64-.48,.95-.28,.5-.86,.56-1.31,.2-.46-.36-.22-.74-.05-1.08,.3-.59,.6-1.19,.76-1.82,.23-.88-.6-1.97-1.52-2.13-.14-.02-.28-.05-.3-.2-.09-.7-.76-1.19-.71-1.94,0-.08-.02-.17-.11-.19-.09-.02-.18,.01-.21,.08-.19,.41-.46,.81-.44,1.28,.05,1,.07,1-.9,.97-.07,0-.13,0-.2,0,.07,.43,.27,.81,.45,1.19,.11,.25,.27,.47,.24,.77,.12,.02,.25,.04,.1,.2,0,.06,0,.13,0,.19,.14,0,.23,.04,.31,.18,.15,.26,.19,.55,.3,.82,.31,.73,.15,1.28-.51,1.76-.09,.34-.37,.55-.56,.82-.19,.27-.35,.56-.53,.84-.1,.3-.13,.61-.09,.92,.11,.92,.54,1.75,.71,2.65,.19,.97,.27,1.89-.25,2.79-.16,.27-.35,.51-.69,.41-.33-.09-.66-.24-.75-.62-.13-.57-.18-1.16-.06-1.74,.03-.14,.11-.34-.02-.4-.2-.1-.28,.15-.35,.26-.67,.98-.97,2.09-.73,3.25,.21,1.02,.09,1.94-.22,2.91-.29,.92-.54,1.88-.34,2.87,.02,.1,.04,.22-.08,.24-.25,.04-.23,.29-.37,.41,0,.1,0,.19,0,.29,.24,.1,.29,.27,.19,.5,.77,1.82,2.1,3.02,4,3.6,.06,.02,.13,0,.19,0-.11-.16-.29-.2-.45-.28-.55-.28-1.08-.58-1.5-1.04-.26-.06-.4-.27-.55-.46-.85-1.08-1.19-2.32-1.2-3.67,0-.87,.09-1.73,.33-2.55,.18-.61,.3-1.27,.7-1.91,.03,.2,.03,.32,.07,.42,.09,.27,.22,.55,.53,.58,.32,.04,.49-.24,.61-.48,.1-.18,.18-.4,.19-.6,.02-.76,.49-1.28,.93-1.83,.19-.24,.32-.56,.6-.08,.03,.05,.15,.05,.23,.06,.44,.06,.59,.35,.33,.71-.16,.22-.26,.46-.34,.7-.15,.42,.01,.79,.28,1.13,.21,.26,.52,.29,.76,.19,.51-.21,.77-.66,.88-1.2,.18-.87,.09-1.76,.1-2.64,.01-.75,.29-.94,1-.66,.25,.1,.44,.27,.6,.48,1.14,1.44,2.06,2.99,2.47,4.82,.34,1.51,.42,3.02-.05,4.51-.17,.55-.47,1.08-.82,1.54-.23,.31-.39,.73-.84,.85h0c0,.18-.11,.27-.28,.3-.04,.04-.07,.07-.11,.11-.12,.33-.4,.47-.71,.56-.12,.06-.24,.12-.36,.18-.17,.19-.37,.29-.63,.3-.11,.03-.25-.02-.29,.14,.36-.06,.74,.06,1.08-.12Z"/>
    <path class="cls-20" d="M643.94,75.07c.42,.47,.95,.77,1.5,1.04,.16,.08,.34,.12,.45,.28,.1,.01,.21,.01,.23,.14,.75,.24,1.5,.3,2.25,.02,.04-.16,.18-.12,.29-.14,.13-.25,.38-.28,.63-.3,.12-.06,.24-.12,.36-.18,.16-.29,.39-.48,.71-.56,.04-.04,.07-.07,.11-.11-.02-.2,.09-.28,.28-.3,0,0,0,0,0,0,.12-.44,.45-.74,.69-1.11,.54-.86,1.01-1.74,.95-2.8-.12,0-.01,.22-.19,.17,0-.19-.03-.39,0-.58,.07-.38-.21-.73-.41-.8-.75-.26-1.22-.92-1.98-1.2-.54-.2-.81-.15-1.23,.16-1.08,.84-2.22,.83-3.03-.35-.05-.07-.07-.15-.16-.16-.26-.04-1.03,.57-1.03,.83,0,.62-.07,1.24,.07,1.86,.08,.37-.07,.69-.4,.88-.31,.18-.6-.04-.79-.22-.24-.24-.43-.55-.45-.93-.01-.19-.06-.36-.22-.57-.32,1.26,.03,2.36,.46,3.45,.22,.55,.68,.94,.92,1.48Z"/>
    <polygon class="cls-1" points="645.93 32.46 645.93 32.44 645.93 32.47 645.93 32.46"/>
    <path class="cls-4" d="M645.83,56.41c.66-.48,.81-1.03,.51-1.76-.11-.27-.15-.56-.3-.82-.08-.14-.17-.18-.31-.18,.23,.91,.25,1.83,.1,2.76Z"/>
    <path class="cls-4" d="M645.73,53.46c.14-.16,.02-.18-.1-.2,0,.08,.02,.16,.1,.2Z"/>
    <path class="cls-21" d="M643.94,75.07c-.23-.54-.7-.93-.92-1.48-.43-1.09-.78-2.19-.46-3.45,.15,.2,.21,.38,.22,.57,.02,.37,.21,.69,.45,.93,.19,.18,.48,.41,.79,.22,.32-.19,.48-.51,.4-.88-.14-.62-.07-1.24-.07-1.86,0-.26,.77-.87,1.03-.83,.1,.02,.12,.1,.16,.16,.81,1.18,1.95,1.19,3.03,.35,.41-.32,.68-.37,1.23-.16,.76,.28,1.23,.94,1.98,1.2,.2,.07,.48,.41,.41,.8-.03,.19,0,.39,0,.58,.18,.05,.07-.17,.19-.17,.06,1.06-.41,1.94-.95,2.8-.23,.37-.57,.67-.69,1.11,.44-.11,.61-.54,.84-.85,.35-.46,.65-.99,.82-1.54,.47-1.49,.39-3,.05-4.51-.4-1.82-1.33-3.37-2.47-4.82-.16-.21-.35-.38-.6-.48-.72-.27-.99-.09-1,.66-.02,.88,.08,1.76-.1,2.64-.11,.54-.37,.99-.88,1.2-.24,.1-.55,.08-.76-.19-.27-.34-.43-.71-.28-1.13,.09-.24,.18-.48,.34-.7,.26-.36,.11-.65-.33-.71-.08-.01-.2-.01-.23-.06-.27-.48-.41-.16-.6,.08-.43,.55-.9,1.07-.93,1.83,0,.2-.09,.42-.19,.6-.13,.24-.3,.51-.61,.48-.31-.03-.44-.31-.53-.58-.03-.1-.04-.22-.07-.42-.4,.64-.51,1.29-.7,1.91-.25,.82-.34,1.68-.33,2.55,.01,1.35,.35,2.6,1.2,3.67,.15,.19,.28,.4,.55,.46Z"/>
  </g>
  <g class="cls-7">
    <path class="cls-19" d="M793.45,76.43c.43-.32,.97-.43,1.44-.69,1.09-.61,1.86-1.49,2.39-2.6,.59-1.24,.64-2.52,.33-3.84-.13-.56-.22-1.13-.33-1.7-.41-.17-.59-.56-.77-.91-.23-.46-.34-.97-.56-1.43-.45-.94-1.1-1.75-1.73-2.57-.95-1.22-1.14-2.6-.6-4.07,.36-.98,.77-1.95,1.05-2.97,.04-.14,.05-.29,.06-.43,0-.1-.04-.21-.14-.23-.14-.03-.13,.11-.17,.19-.16,.32-.3,.64-.48,.95-.28,.5-.86,.56-1.31,.2-.46-.36-.22-.74-.05-1.08,.3-.59,.6-1.19,.76-1.82,.23-.88-.6-1.97-1.52-2.13-.14-.02-.28-.05-.3-.2-.09-.7-.76-1.19-.71-1.94,0-.08-.02-.17-.11-.19-.09-.02-.18,.01-.21,.08-.19,.41-.46,.81-.44,1.28,.05,1,.07,1-.9,.97-.07,0-.13,0-.2,0,.07,.43,.27,.81,.45,1.19,.11,.25,.27,.47,.24,.77,.12,.02,.25,.04,.1,.2,0,.06,0,.13,0,.19,.14,0,.23,.04,.31,.18,.15,.26,.19,.55,.3,.82,.31,.73,.15,1.28-.51,1.76-.09,.34-.37,.55-.56,.82-.19,.27-.35,.56-.53,.84-.1,.3-.13,.61-.09,.92,.11,.92,.54,1.75,.71,2.65,.19,.97,.27,1.89-.25,2.79-.16,.27-.35,.51-.69,.41-.33-.09-.66-.24-.75-.62-.13-.57-.18-1.16-.06-1.74,.03-.14,.11-.34-.02-.4-.2-.1-.28,.15-.35,.26-.67,.98-.97,2.09-.73,3.25,.21,1.02,.09,1.94-.22,2.91-.29,.92-.54,1.88-.34,2.87,.02,.1,.04,.22-.08,.24-.25,.04-.23,.29-.37,.41,0,.1,0,.19,0,.29,.24,.1,.29,.27,.19,.5,.77,1.82,2.1,3.02,4,3.6,.06,.02,.13,0,.19,0-.11-.16-.29-.2-.45-.28-.55-.28-1.08-.58-1.5-1.04-.26-.06-.4-.27-.55-.46-.85-1.08-1.19-2.32-1.2-3.67,0-.87,.09-1.73,.33-2.55,.18-.61,.3-1.27,.7-1.91,.03,.2,.03,.32,.07,.42,.09,.27,.22,.55,.53,.58,.32,.04,.49-.24,.61-.48,.1-.18,.18-.4,.19-.6,.02-.76,.49-1.28,.93-1.83,.19-.24,.32-.56,.6-.08,.03,.05,.15,.05,.23,.06,.44,.06,.59,.35,.33,.71-.16,.22-.26,.46-.34,.7-.15,.42,.01,.79,.28,1.13,.21,.26,.52,.29,.76,.19,.51-.21,.77-.66,.88-1.2,.18-.87,.09-1.76,.1-2.64,.01-.75,.29-.94,1-.66,.25,.1,.44,.27,.6,.48,1.14,1.44,2.06,2.99,2.47,4.82,.34,1.51,.42,3.02-.05,4.51-.17,.55-.47,1.08-.82,1.54-.23,.31-.39,.73-.84,.85h0c0,.18-.11,.27-.28,.3-.04,.04-.07,.07-.11,.11-.12,.33-.4,.47-.71,.56-.12,.06-.24,.12-.36,.18-.17,.19-.37,.29-.63,.3-.11,.03-.25-.02-.29,.14,.36-.06,.74,.06,1.08-.12Z"/>
    <path class="cls-20" d="M787.94,75.07c.42,.47,.95,.77,1.5,1.04,.16,.08,.34,.12,.45,.28,.1,.01,.21,.01,.23,.14,.75,.24,1.5,.3,2.25,.02,.04-.16,.18-.12,.29-.14,.13-.25,.38-.28,.63-.3,.12-.06,.24-.12,.36-.18,.16-.29,.39-.48,.71-.56,.04-.04,.07-.07,.11-.11-.02-.2,.09-.28,.28-.3,0,0,0,0,0,0,.12-.44,.45-.74,.69-1.11,.54-.86,1.01-1.74,.95-2.8-.12,0-.01,.22-.19,.17,0-.19-.03-.39,0-.58,.07-.38-.21-.73-.41-.8-.75-.26-1.22-.92-1.98-1.2-.54-.2-.81-.15-1.23,.16-1.08,.84-2.22,.83-3.03-.35-.05-.07-.07-.15-.16-.16-.26-.04-1.03,.57-1.03,.83,0,.62-.07,1.24,.07,1.86,.08,.37-.07,.69-.4,.88-.31,.18-.6-.04-.79-.22-.24-.24-.43-.55-.45-.93-.01-.19-.06-.36-.22-.57-.32,1.26,.03,2.36,.46,3.45,.22,.55,.68,.94,.92,1.48Z"/>
    <polygon class="cls-1" points="789.93 32.46 789.93 32.44 789.93 32.47 789.93 32.46"/>
    <path class="cls-4" d="M789.83,56.41c.66-.48,.81-1.03,.51-1.76-.11-.27-.15-.56-.3-.82-.08-.14-.17-.18-.31-.18,.23,.91,.25,1.83,.1,2.76Z"/>
    <path class="cls-4" d="M789.73,53.46c.14-.16,.02-.18-.1-.2,0,.08,.02,.16,.1,.2Z"/>
    <path class="cls-21" d="M787.94,75.07c-.23-.54-.7-.93-.92-1.48-.43-1.09-.78-2.19-.46-3.45,.15,.2,.21,.38,.22,.57,.02,.37,.21,.69,.45,.93,.19,.18,.48,.41,.79,.22,.32-.19,.48-.51,.4-.88-.14-.62-.07-1.24-.07-1.86,0-.26,.77-.87,1.03-.83,.1,.02,.12,.1,.16,.16,.81,1.18,1.95,1.19,3.03,.35,.41-.32,.68-.37,1.23-.16,.76,.28,1.23,.94,1.98,1.2,.2,.07,.48,.41,.41,.8-.03,.19,0,.39,0,.58,.18,.05,.07-.17,.19-.17,.06,1.06-.41,1.94-.95,2.8-.23,.37-.57,.67-.69,1.11,.44-.11,.61-.54,.84-.85,.35-.46,.65-.99,.82-1.54,.47-1.49,.39-3,.05-4.51-.4-1.82-1.33-3.37-2.47-4.82-.16-.21-.35-.38-.6-.48-.72-.27-.99-.09-1,.66-.02,.88,.08,1.76-.1,2.64-.11,.54-.37,.99-.88,1.2-.24,.1-.55,.08-.76-.19-.27-.34-.43-.71-.28-1.13,.09-.24,.18-.48,.34-.7,.26-.36,.11-.65-.33-.71-.08-.01-.2-.01-.23-.06-.27-.48-.41-.16-.6,.08-.43,.55-.9,1.07-.93,1.83,0,.2-.09,.42-.19,.6-.13,.24-.3,.51-.61,.48-.31-.03-.44-.31-.53-.58-.03-.1-.04-.22-.07-.42-.4,.64-.51,1.29-.7,1.91-.25,.82-.34,1.68-.33,2.55,.01,1.35,.35,2.6,1.2,3.67,.15,.19,.28,.4,.55,.46Z"/>
  </g>
  <circle class="cls-9" cx="647.99" cy="72.01" r="39.06"/>
  <circle class="cls-12" cx="647.99" cy="72.01" r="6.08"/>
  <path class="cls-18" d="M632.79,71.87c0,.59,4.15,1.83,8.21,2.24,.84,.08,1.35,.1,1.7,.51,1.61,1.9-3.58,8.38-2.92,8.92,.68,.54,5.47-6.55,8.92-5.58,3.21,.9,3.75,8.37,4.5,8.25,.73-.11-1.01-7.62,1.58-9.17,2.75-1.64,9.11,4.17,9.5,3.67,.36-.46-6.11-4.06-6.17-8.75-.06-4.86,6.77-8.67,6.33-9.25-.46-.61-6.49,5.37-11,3.75-4.14-1.49-5.22-8.73-6.42-8.42-.96,.25,.05,4.19-2,5.67-2.21,1.6-6.36-.87-6.67-.25-.34,.69,4.98,3.04,4.67,4.92-.41,2.46-10.26,2.52-10.25,3.5Z"/>
  <path class="cls-12" d="M631.48,91.2c-.36,.03-.63,.42-.56,.62,.11,.33,1.12,.4,1.25,.12,.1-.21-.22-.79-.69-.75Z"/>
  <path class="cls-12" d="M630.19,117.72c-.36,.03-.63,.42-.56,.62,.11,.33,1.12,.4,1.25,.12,.1-.21-.22-.79-.69-.75Z"/>
  <path class="cls-12" d="M643.49,43.13c-.13,.11,.03,.35-.09,1.03-.04,.23-.07,.29-.03,.35,.2,.29,1.56-.02,1.62-.5,.07-.49-1.22-1.12-1.5-.88Z"/>
  <path class="cls-12" d="M652.05,15.38c-.13,.11,.03,.35-.09,1.03-.04,.23-.07,.29-.03,.35,.2,.29,1.56-.02,1.62-.5,.07-.49-1.22-1.12-1.5-.88Z"/>
  <path class="cls-12" d="M684.31,28.71c-.13,.11,.03,.35-.09,1.03-.04,.23-.07,.29-.03,.35,.2,.29,1.56-.02,1.62-.5,.07-.49-1.22-1.12-1.5-.88Z"/>
  <path class="cls-12" d="M672.04,57.18c-.58,.26-.64,1.32-.25,1.62,.44,.35,1.6-.18,1.62-.75,.02-.49-.8-1.13-1.38-.88Z"/>
  <path class="cls-12" d="M696,69.98c-.58,.26-.64,1.32-.25,1.62,.44,.35,1.6-.18,1.62-.75,.02-.49-.8-1.13-1.38-.88Z"/>
  <path class="cls-12" d="M627.5,58.26c-.36,.39-.12,1.33,.38,1.5,.56,.19,1.38-.62,1.25-1.12-.13-.5-1.22-.81-1.62-.38Z"/>
  <path class="cls-12" d="M655.16,99.62c-.2,.08-.29,.63,0,1,.32,.4,.93,.39,1.04,.21,.18-.29-.72-1.34-1.04-1.21Z"/>
  <path class="cls-12" d="M660.55,40.16c-.2,.08-.29,.63,0,1,.32,.4,.93,.39,1.04,.21,.18-.29-.72-1.34-1.04-1.21Z"/>
  <path class="cls-12" d="M626.47,25.4c-.2,.08-.29,.63,0,1,.32,.4,.93,.39,1.04,.21,.18-.29-.72-1.34-1.04-1.21Z"/>
  <path class="cls-12" d="M600.98,48.3c-.2,.08-.29,.63,0,1,.32,.4,.93,.39,1.04,.21,.18-.29-.72-1.34-1.04-1.21Z"/>
  <path class="cls-12" d="M615.54,87.17c-.2,.08-.29,.63,0,1,.32,.4,.93,.39,1.04,.21,.18-.29-.72-1.34-1.04-1.21Z"/>
  <path class="cls-12" d="M673.43,108.31c-.2,.08-.29,.63,0,1,.32,.4,.93,.39,1.04,.21,.18-.29-.72-1.34-1.04-1.21Z"/>
  <path class="cls-12" d="M672.04,83.63c-.2,.08-.29,.63,0,1,.32,.4,.93,.39,1.04,.21,.18-.29-.72-1.34-1.04-1.21Z"/>
  <path class="cls-12" d="M618.48,72.45c-.15,.45,.42,.94,.69,.88,.33-.08,.51-1.03,.19-1.25-.23-.15-.75,.01-.87,.38Z"/>
  <path class="cls-17" d="M765.74,102.04c-.47,.04-.82,.54-.73,.81,.14,.42,1.45,.52,1.62,.16,.13-.27-.28-1.03-.89-.97Z"/>
  <path class="cls-17" d="M732.96,48.37c-.47,.04-.82,.54-.73,.81,.14,.42,1.45,.52,1.62,.16,.13-.27-.28-1.03-.89-.97Z"/>
  <path class="cls-17" d="M830.44,94.46c-.37,.32-.35,1.39,.32,1.78,.75,.43,1.76-.31,1.78-.81,.02-.64-1.58-1.42-2.1-.97Z"/>
  <path class="cls-17" d="M784.52,28.28c-.17,.15,.04,.46-.12,1.33-.05,.3-.1,.37-.04,.45,.25,.37,2.02-.02,2.1-.65,.09-.64-1.58-1.45-1.94-1.13Z"/>
  <path class="cls-17" d="M798.67,8.44c-.17,.15,.04,.46-.12,1.33-.05,.3-.1,.37-.04,.45,.25,.37,2.02-.02,2.1-.65,.09-.64-1.58-1.45-1.94-1.13Z"/>
  <path class="cls-17" d="M828.42,46.03c-.75,.34-.82,1.71-.32,2.1,.58,.46,2.08-.23,2.1-.97,.02-.64-1.04-1.47-1.78-1.13Z"/>
  <path class="cls-17" d="M842.15,15.01c-.75,.34-.82,1.71-.32,2.1,.58,.46,2.08-.23,2.1-.97,.02-.64-1.04-1.47-1.78-1.13Z"/>
  <path class="cls-17" d="M818.04,24.3c-.75,.34-.82,1.71-.32,2.1,.58,.46,2.08-.23,2.1-.97,.02-.64-1.04-1.47-1.78-1.13Z"/>
  <path class="cls-17" d="M759.93,50.37c-.47,.51-.15,1.72,.49,1.94,.72,.25,1.79-.8,1.62-1.46-.17-.65-1.58-1.05-2.1-.49Z"/>
  <path class="cls-17" d="M763.22,17.4c-.47,.51-.15,1.72,.49,1.94,.72,.25,1.79-.8,1.62-1.46-.17-.65-1.58-1.05-2.1-.49Z"/>
  <path class="cls-17" d="M801.51,112.67c-.25,.1-.37,.82,0,1.29,.41,.52,1.2,.51,1.35,.27,.23-.38-.93-1.73-1.35-1.56Z"/>
  <path class="cls-17" d="M769.06,127.28c-.25,.1-.37,.82,0,1.29,.41,.52,1.2,.51,1.35,.27,.23-.38-.93-1.73-1.35-1.56Z"/>
  <path class="cls-17" d="M828.96,121.89c-.25,.1-.37,.82,0,1.29,.41,.52,1.2,.51,1.35,.27,.23-.38-.93-1.73-1.35-1.56Z"/>
  <path class="cls-17" d="M750.82,70.69c-.2,.58,.54,1.22,.89,1.13,.42-.1,.66-1.33,.24-1.62-.29-.2-.98,.01-1.13,.49Z"/>
  <circle class="cls-13" cx="647.99" cy="72.01" r="21.24"/>
  <path class="cls-6" d="M797.3,68.91c-.1-.23-.05-.4,.19-.5-.03,.18-.06,.36-.19,.5Z"/>
  <circle class="cls-15" cx="791.99" cy="72.01" r="50.73"/>
  <circle class="cls-10" cx="791.99" cy="72.01" r="27.59"/>
  <g>
    <path class="cls-9" d="M894.67,113.07c-.47,.04-.82,.54-.73,.81,.14,.42,1.45,.52,1.62,.16,.13-.27-.28-1.03-.89-.97Z"/>
    <path class="cls-9" d="M861.32,39.56c-.47,.04-.82,.54-.73,.81,.14,.42,1.45,.52,1.62,.16,.13-.27-.28-1.03-.89-.97Z"/>
    <path class="cls-9" d="M983.48,97.62c-.37,.32-.35,1.39,.32,1.78,.75,.43,1.76-.31,1.78-.81,.02-.64-1.58-1.42-2.1-.97Z"/>
    <path class="cls-9" d="M932.25,18.36c-.17,.15,.04,.46-.12,1.33-.05,.3-.1,.37-.04,.45,.25,.37,2.02-.02,2.1-.65,.09-.64-1.58-1.45-1.94-1.13Z"/>
    <path class="cls-9" d="M972.42,46.03c-.75,.34-.82,1.71-.32,2.1,.58,.46,2.08-.23,2.1-.97,.02-.64-1.04-1.47-1.78-1.13Z"/>
    <path class="cls-9" d="M968.81,15.01c-.75,.34-.82,1.71-.32,2.1,.58,.46,2.08-.23,2.1-.97,.02-.64-1.04-1.47-1.78-1.13Z"/>
    <path class="cls-9" d="M890.3,39.89c-.47,.51-.15,1.72,.49,1.94,.72,.25,1.79-.8,1.62-1.46-.17-.65-1.58-1.05-2.1-.49Z"/>
    <path class="cls-9" d="M897.2,10.77c-.47,.51-.15,1.72,.49,1.94,.72,.25,1.79-.8,1.62-1.46-.17-.65-1.58-1.05-2.1-.49Z"/>
    <path class="cls-9" d="M950.36,121.89c-.25,.1-.37,.82,0,1.29,.41,.52,1.2,.51,1.35,.27,.23-.38-.93-1.73-1.35-1.56Z"/>
    <path class="cls-9" d="M906.33,138.82c-.25,.1-.37,.82,0,1.29,.41,.52,1.2,.51,1.35,.27,.23-.38-.93-1.73-1.35-1.56Z"/>
    <path class="cls-9" d="M979.94,130.45c-.25,.1-.37,.82,0,1.29,.41,.52,1.2,.51,1.35,.27,.23-.38-.93-1.73-1.35-1.56Z"/>
    <path class="cls-9" d="M873.86,73.97c-.2,.58,.54,1.22,.89,1.13,.42-.1,.66-1.33,.24-1.62-.29-.2-.98,.01-1.13,.49Z"/>
    <circle class="cls-14" cx="935.99" cy="72.01" r="43.54"/>
  </g>
</svg>