<?xml version="1.0" encoding="UTF-8"?>
<svg id="Layer_1" data-name="Layer 1" xmlns="http://www.w3.org/2000/svg" xmlns:xlink="http://www.w3.org/1999/xlink" viewBox="0 0 1296 432">
  <defs>
    <style>
      .cls-1, .cls-2, .cls-3, .cls-4, .cls-5, .cls-6, .cls-7, .cls-8, .cls-9, .cls-10, .cls-11, .cls-12, .cls-13, .cls-14, .cls-15, .cls-16, .cls-17, .cls-18, .cls-19, .cls-20, .cls-21, .cls-22, .cls-23, .cls-24, .cls-25, .cls-26, .cls-27, .cls-28, .cls-29, .cls-30, .cls-31, .cls-32, .cls-33, .cls-34, .cls-35, .cls-36, .cls-37, .cls-38, .cls-39, .cls-40, .cls-41, .cls-42, .cls-43, .cls-44, .cls-45, .cls-46, .cls-47, .cls-48, .cls-49, .cls-50, .cls-51, .cls-52 {
        stroke-linecap: round;
        stroke-linejoin: round;
      }

      .cls-1, .cls-4, .cls-5, .cls-53, .cls-6, .cls-7, .cls-9, .cls-10, .cls-12, .cls-14, .cls-17, .cls-18, .cls-19, .cls-22, .cls-25, .cls-27, .cls-28, .cls-33, .cls-34, .cls-36, .cls-37, .cls-39, .cls-41, .cls-42, .cls-45, .cls-51, .cls-52 {
        fill: #fff143;
      }

      .cls-1, .cls-4, .cls-5, .cls-6, .cls-7, .cls-9, .cls-10, .cls-12, .cls-14, .cls-17, .cls-18, .cls-19, .cls-22, .cls-25, .cls-27, .cls-28, .cls-33, .cls-34, .cls-36, .cls-37, .cls-39, .cls-41, .cls-42, .cls-45, .cls-51, .cls-52 {
        stroke: #4a3c00;
      }

      .cls-1, .cls-50 {
        stroke-width: 1.69px;
      }

      .cls-2 {
        stroke-width: 5.71px;
      }

      .cls-2, .cls-3, .cls-8, .cls-11, .cls-13, .cls-15, .cls-16, .cls-20, .cls-21, .cls-23, .cls-24, .cls-26, .cls-29, .cls-30, .cls-31, .cls-54, .cls-32, .cls-35, .cls-38, .cls-40, .cls-43, .cls-44, .cls-46, .cls-47, .cls-48, .cls-49, .cls-50 {
        fill: none;
      }

      .cls-2, .cls-3, .cls-8, .cls-11, .cls-13, .cls-15, .cls-16, .cls-20, .cls-21, .cls-23, .cls-24, .cls-26, .cls-29, .cls-30, .cls-31, .cls-32, .cls-35, .cls-38, .cls-40, .cls-43, .cls-44, .cls-46, .cls-47, .cls-48, .cls-49, .cls-50 {
        opacity: .8;
        stroke: #fff;
      }

      .cls-3, .cls-36 {
        stroke-width: 3.49px;
      }

      .cls-55 {
        fill: url(#radial-gradient-7);
      }

      .cls-4 {
        stroke-width: 1.68px;
      }

      .cls-56 {
        fill: url(#radial-gradient-10);
      }

      .cls-57 {
        opacity: .7;
      }

      .cls-5, .cls-26 {
        stroke-width: 1.59px;
      }

      .cls-58 {
        clip-path: url(#clippath-11);
      }

      .cls-59 {
        clip-path: url(#clippath-16);
      }

      .cls-60 {
        fill: #fff;
      }

      .cls-6, .cls-49 {
        stroke-width: 2.16px;
      }

      .cls-7 {
        stroke-width: 3.84px;
      }

      .cls-61 {
        opacity: .5;
      }

      .cls-62 {
        fill: url(#radial-gradient-28);
      }

      .cls-8 {
        stroke-width: 3.72px;
      }

      .cls-9, .cls-23 {
        stroke-width: 2.96px;
      }

      .cls-63 {
        fill: url(#radial-gradient-16);
      }

      .cls-64 {
        fill: url(#radial-gradient-20);
      }

      .cls-65 {
        fill: url(#radial-gradient-21);
      }

      .cls-66 {
        fill: url(#radial-gradient-8);
      }

      .cls-10, .cls-40 {
        stroke-width: 2.66px;
      }

      .cls-11 {
        stroke-width: 5.99px;
      }

      .cls-67 {
        mask: url(#mask-2);
      }

      .cls-12, .cls-24 {
        stroke-width: 2.1px;
      }

      .cls-68 {
        fill: url(#radial-gradient-5);
      }

      .cls-69 {
        clip-path: url(#clippath-2);
      }

      .cls-70 {
        clip-path: url(#clippath-13);
      }

      .cls-71 {
        fill: url(#radial-gradient-4);
      }

      .cls-13, .cls-25 {
        stroke-width: 2.25px;
      }

      .cls-14 {
        stroke-width: 5.67px;
      }

      .cls-15 {
        stroke-width: 4.05px;
      }

      .cls-72 {
        clip-path: url(#clippath-15);
      }

      .cls-73 {
        clip-path: url(#clippath-6);
      }

      .cls-74 {
        mask: url(#mask-3);
      }

      .cls-16, .cls-51 {
        stroke-width: 1.94px;
      }

      .cls-75 {
        fill: url(#radial-gradient-25);
      }

      .cls-76 {
        fill: url(#radial-gradient-26);
      }

      .cls-17 {
        stroke-width: 5.4px;
      }

      .cls-77 {
        fill: url(#radial-gradient-22);
      }

      .cls-18 {
        stroke-width: 5.83px;
      }

      .cls-78 {
        clip-path: url(#clippath-7);
      }

      .cls-79 {
        fill: url(#radial-gradient-6);
      }

      .cls-80 {
        mask: url(#mask-9);
      }

      .cls-19, .cls-29 {
        stroke-width: 1.99px;
      }

      .cls-81 {
        fill: url(#radial-gradient-19);
      }

      .cls-20, .cls-37 {
        stroke-width: 2.04px;
      }

      .cls-82 {
        fill: url(#radial-gradient-12);
      }

      .cls-83 {
        clip-path: url(#clippath-1);
      }

      .cls-84 {
        clip-path: url(#clippath-4);
      }

      .cls-21, .cls-28 {
        stroke-width: 1.99px;
      }

      .cls-85 {
        fill: url(#radial-gradient);
      }

      .cls-86 {
        mask: url(#mask-5);
      }

      .cls-22, .cls-35 {
        stroke-width: 3.18px;
      }

      .cls-87 {
        fill: url(#radial-gradient-27);
      }

      .cls-88 {
        fill: url(#radial-gradient-13);
      }

      .cls-89 {
        clip-path: url(#clippath-12);
      }

      .cls-90 {
        opacity: .75;
      }

      .cls-91 {
        mask: url(#mask-8);
      }

      .cls-92 {
        mask: url(#mask-4);
      }

      .cls-93 {
        fill: url(#radial-gradient-24);
      }

      .cls-94 {
        clip-path: url(#clippath-9);
      }

      .cls-95 {
        fill: url(#radial-gradient-15);
      }

      .cls-27 {
        stroke-width: 1.87px;
      }

      .cls-96 {
        clip-path: url(#clippath);
      }

      .cls-97 {
        fill: url(#radial-gradient-2);
      }

      .cls-30 {
        stroke-width: 3.9px;
      }

      .cls-31, .cls-42 {
        stroke-width: 3.14px;
      }

      .cls-98 {
        clip-path: url(#clippath-19);
      }

      .cls-99 {
        fill: url(#radial-gradient-3);
      }

      .cls-100 {
        mask: url(#mask-6);
      }

      .cls-32 {
        stroke-width: 6.16px;
      }

      .cls-101 {
        clip-path: url(#clippath-3);
      }

      .cls-33 {
        stroke-width: 3.7px;
      }

      .cls-34, .cls-43 {
        stroke-width: 2.01px;
      }

      .cls-102 {
        clip-path: url(#clippath-8);
      }

      .cls-38 {
        stroke-width: 1.77px;
      }

      .cls-39 {
        stroke-width: 8.08px;
      }

      .cls-103 {
        fill: url(#radial-gradient-17);
      }

      .cls-41, .cls-44 {
        stroke-width: 1.53px;
      }

      .cls-104 {
        mask: url(#mask-1);
      }

      .cls-105 {
        mask: url(#mask);
      }

      .cls-106 {
        fill: url(#radial-gradient-14);
      }

      .cls-107 {
        clip-path: url(#clippath-18);
      }

      .cls-108 {
        clip-path: url(#clippath-14);
      }

      .cls-109 {
        clip-path: url(#clippath-17);
      }

      .cls-110 {
        clip-path: url(#clippath-5);
      }

      .cls-111 {
        mask: url(#mask-7);
      }

      .cls-45, .cls-48 {
        stroke-width: 2.5px;
      }

      .cls-112 {
        clip-path: url(#clippath-10);
      }

      .cls-46 {
        stroke-width: 8.54px;
      }

      .cls-47 {
        stroke-width: 1.98px;
      }

      .cls-113 {
        fill: url(#radial-gradient-23);
      }

      .cls-114 {
        opacity: .25;
      }

      .cls-115 {
        fill: url(#radial-gradient-11);
      }

      .cls-116 {
        fill: url(#radial-gradient-18);
      }

      .cls-117 {
        fill: url(#radial-gradient-9);
      }

      .cls-52 {
        stroke-width: 3.52px;
      }
    </style>
    <radialGradient id="radial-gradient" cx="108" cy="108" fx="108" fy="108" r="99.03" gradientUnits="userSpaceOnUse">
      <stop offset="0" stop-color="#fff"/>
      <stop offset=".16" stop-color="#fff" stop-opacity=".99"/>
      <stop offset=".3" stop-color="#fff" stop-opacity=".95"/>
      <stop offset=".41" stop-color="#fff" stop-opacity=".88"/>
      <stop offset=".53" stop-color="#fff" stop-opacity=".79"/>
      <stop offset=".63" stop-color="#fff" stop-opacity=".67"/>
      <stop offset=".74" stop-color="#fff" stop-opacity=".52"/>
      <stop offset=".84" stop-color="#fff" stop-opacity=".35"/>
      <stop offset=".93" stop-color="#fff" stop-opacity=".15"/>
      <stop offset="1" stop-color="#fff" stop-opacity="0"/>
    </radialGradient>
    <mask id="mask" x="8.97" y="8.97" width="198.05" height="198.05" maskUnits="userSpaceOnUse">
      <circle id="SVGID" class="cls-85" cx="108" cy="108" r="99"/>
    </mask>
    <clipPath id="clippath">
      <circle class="cls-85" cx="108" cy="108" r="99"/>
    </clipPath>
    <clipPath id="clippath-1">
      <circle class="cls-54" cx="108" cy="108" r="99"/>
    </clipPath>
    <radialGradient id="radial-gradient-2" cx="324" fx="324" xlink:href="#radial-gradient"/>
    <mask id="mask-1" x="224.97" y="8.97" width="198.05" height="198.05" maskUnits="userSpaceOnUse">
      <circle id="SVGID-2" data-name="SVGID" class="cls-97" cx="324" cy="108" r="99"/>
    </mask>
    <radialGradient id="radial-gradient-3" cx="324" fx="324" xlink:href="#radial-gradient"/>
    <radialGradient id="radial-gradient-4" cx="324" fx="324" xlink:href="#radial-gradient"/>
    <clipPath id="clippath-2">
      <circle class="cls-71" cx="324" cy="108" r="99"/>
    </clipPath>
    <clipPath id="clippath-3">
      <circle class="cls-54" cx="324" cy="108" r="99"/>
    </clipPath>
    <radialGradient id="radial-gradient-5" cx="540" fx="540" xlink:href="#radial-gradient"/>
    <mask id="mask-2" x="440.97" y="8.97" width="198.05" height="198.05" maskUnits="userSpaceOnUse">
      <circle id="SVGID-3" data-name="SVGID" class="cls-68" cx="540" cy="108" r="99"/>
    </mask>
    <radialGradient id="radial-gradient-6" cx="540" fx="540" xlink:href="#radial-gradient"/>
    <radialGradient id="radial-gradient-7" cx="540" fx="540" xlink:href="#radial-gradient"/>
    <clipPath id="clippath-4">
      <circle class="cls-55" cx="540" cy="108" r="99"/>
    </clipPath>
    <clipPath id="clippath-5">
      <circle class="cls-54" cx="540" cy="108" r="99"/>
    </clipPath>
    <radialGradient id="radial-gradient-8" cx="1188" fx="1188" r="99.03" xlink:href="#radial-gradient"/>
    <mask id="mask-3" x="1088.97" y="8.97" width="198.05" height="198.05" maskUnits="userSpaceOnUse">
      <circle id="SVGID-4" data-name="SVGID" class="cls-66" cx="1188" cy="108" r="99"/>
    </mask>
    <radialGradient id="radial-gradient-9" cx="1188" fx="1188" r="99.03" xlink:href="#radial-gradient"/>
    <radialGradient id="radial-gradient-10" cx="1188" fx="1188" r="99.03" xlink:href="#radial-gradient"/>
    <clipPath id="clippath-6">
      <circle class="cls-56" cx="1188" cy="108" r="99"/>
    </clipPath>
    <clipPath id="clippath-7">
      <ellipse class="cls-54" cx="1188" cy="108" rx="98.97" ry="99"/>
    </clipPath>
    <radialGradient id="radial-gradient-11" cx="972" fx="972" r="99.03" xlink:href="#radial-gradient"/>
    <mask id="mask-4" x="872.97" y="8.97" width="198.05" height="198.05" maskUnits="userSpaceOnUse">
      <circle id="SVGID-5" data-name="SVGID" class="cls-115" cx="972" cy="108" r="99"/>
    </mask>
    <radialGradient id="radial-gradient-12" cx="972" fx="972" r="99.03" xlink:href="#radial-gradient"/>
    <radialGradient id="radial-gradient-13" cx="972" fx="972" r="99.03" xlink:href="#radial-gradient"/>
    <clipPath id="clippath-8">
      <circle class="cls-88" cx="972" cy="108" r="99"/>
    </clipPath>
    <clipPath id="clippath-9">
      <circle class="cls-54" cx="972" cy="108" r="99"/>
    </clipPath>
    <radialGradient id="radial-gradient-14" cx="756" fx="756" r="99.03" xlink:href="#radial-gradient"/>
    <mask id="mask-5" x="656.97" y="8.97" width="198.05" height="198.05" maskUnits="userSpaceOnUse">
      <circle id="SVGID-6" data-name="SVGID" class="cls-106" cx="756" cy="108" r="99"/>
    </mask>
    <radialGradient id="radial-gradient-15" cx="756" fx="756" r="99.03" xlink:href="#radial-gradient"/>
    <radialGradient id="radial-gradient-16" cx="756" fx="756" r="99.03" xlink:href="#radial-gradient"/>
    <clipPath id="clippath-10">
      <circle class="cls-63" cx="756" cy="108" r="99"/>
    </clipPath>
    <clipPath id="clippath-11">
      <circle class="cls-54" cx="756" cy="108" r="99"/>
    </clipPath>
    <radialGradient id="radial-gradient-17" cx="108" cy="324" fx="108" fy="324" r="99.03" gradientTransform="translate(.03 .08)" xlink:href="#radial-gradient"/>
    <mask id="mask-6" x="9" y="225" width="198.04" height="198" maskUnits="userSpaceOnUse">
      <ellipse id="SVGID-7" data-name="SVGID" class="cls-103" cx="108.02" cy="324" rx="98.99" ry="98.97"/>
    </mask>
    <radialGradient id="radial-gradient-18" cx="108" cy="324" fx="108" fy="324" r="99.03" gradientTransform="translate(.03 .08)" xlink:href="#radial-gradient"/>
    <radialGradient id="radial-gradient-19" cx="108" cy="324" fx="108" fy="324" r="99.03" gradientTransform="translate(.03 .08)" xlink:href="#radial-gradient"/>
    <clipPath id="clippath-12">
      <ellipse class="cls-81" cx="108.02" cy="324" rx="98.99" ry="98.97"/>
    </clipPath>
    <clipPath id="clippath-13">
      <ellipse class="cls-54" cx="108.02" cy="324" rx="98.99" ry="98.97"/>
    </clipPath>
    <radialGradient id="radial-gradient-20" cx="756" cy="324" fx="756" fy="324" r="99.03" gradientTransform="translate(.03 .08)" xlink:href="#radial-gradient"/>
    <mask id="mask-7" x="656.96" y="225" width="198.04" height="198" maskUnits="userSpaceOnUse">
      <ellipse id="SVGID-8" data-name="SVGID" class="cls-64" cx="755.98" cy="324" rx="98.99" ry="98.97"/>
    </mask>
    <radialGradient id="radial-gradient-21" cx="756" cy="324" fx="756" fy="324" r="99.03" gradientTransform="translate(.03 .08)" xlink:href="#radial-gradient"/>
    <radialGradient id="radial-gradient-22" cx="756" cy="324" fx="756" fy="324" r="99.03" gradientTransform="translate(.03 .08)" xlink:href="#radial-gradient"/>
    <clipPath id="clippath-14">
      <ellipse class="cls-77" cx="755.98" cy="324" rx="98.99" ry="98.97"/>
    </clipPath>
    <clipPath id="clippath-15">
      <ellipse class="cls-54" cx="755.98" cy="324" rx="98.97" ry="98.97"/>
    </clipPath>
    <radialGradient id="radial-gradient-23" cx="540" cy="324" fx="540" fy="324" r="99.03" gradientTransform="translate(.03 .08)" xlink:href="#radial-gradient"/>
    <mask id="mask-8" x="440.97" y="225" width="198.04" height="198" maskUnits="userSpaceOnUse">
      <ellipse id="SVGID-9" data-name="SVGID" class="cls-113" cx="539.99" cy="324" rx="98.99" ry="98.97"/>
    </mask>
    <radialGradient id="radial-gradient-24" cx="540" cy="324" fx="540" fy="324" r="99.03" gradientTransform="translate(.03 .08)" xlink:href="#radial-gradient"/>
    <radialGradient id="radial-gradient-25" cx="540" cy="324" fx="540" fy="324" r="99.03" gradientTransform="translate(.03 .08)" xlink:href="#radial-gradient"/>
    <clipPath id="clippath-16">
      <ellipse class="cls-75" cx="539.99" cy="324" rx="98.99" ry="98.97"/>
    </clipPath>
    <clipPath id="clippath-17">
      <ellipse class="cls-54" cx="539.99" cy="324" rx="98.99" ry="98.97"/>
    </clipPath>
    <radialGradient id="radial-gradient-26" cx="324" cy="324" fx="324" fy="324" r="99.03" gradientTransform="translate(.03 .08)" xlink:href="#radial-gradient"/>
    <mask id="mask-9" x="224.99" y="225" width="198.04" height="198" maskUnits="userSpaceOnUse">
      <ellipse id="SVGID-10" data-name="SVGID" class="cls-76" cx="324.01" cy="324" rx="98.99" ry="98.97"/>
    </mask>
    <radialGradient id="radial-gradient-27" cx="324" cy="324" fx="324" fy="324" r="99.03" gradientTransform="translate(.03 .08)" xlink:href="#radial-gradient"/>
    <radialGradient id="radial-gradient-28" cx="324" cy="324" fx="324" fy="324" r="99.03" gradientTransform="translate(.03 .08)" xlink:href="#radial-gradient"/>
    <clipPath id="clippath-18">
      <ellipse class="cls-62" cx="324.01" cy="324" rx="98.99" ry="98.97"/>
    </clipPath>
    <clipPath id="clippath-19">
      <ellipse class="cls-54" cx="324.01" cy="324" rx="98.99" ry="98.97"/>
    </clipPath>
  </defs>
  <g class="cls-105">
    <g class="cls-90">
      <circle class="cls-85" cx="108" cy="108" r="99"/>
      <g class="cls-96">
        <g class="cls-114">
          <g class="cls-83">
            <g class="cls-57">
              <path class="cls-60" d="M108,107.47c34.95-27.18,69.9-54.36,104.84-81.55,3.88,19.42,7.77,38.83,11.65,58.25-38.83,7.77-77.66,15.53-116.49,23.3Z"/>
              <path class="cls-53" d="M108,107.47c-7.77-38.83-15.53-77.66-23.3-116.49,19.42-3.88,38.83-7.77,58.25-11.65-11.65,42.71-23.3,85.43-34.95,128.14Z"/>
              <path class="cls-60" d="M142.95-20.67c11.65,7.77,23.3,15.53,34.95,23.3-23.3,34.95-46.6,69.9-69.9,104.84,11.65-42.71,23.3-85.43,34.95-128.14Z"/>
              <path class="cls-53" d="M177.9,2.63c-23.3,34.95-46.6,69.9-69.9,104.84,34.95-27.18,69.9-54.36,104.84-81.55-11.65-7.77-23.3-15.53-34.95-23.3Z"/>
            </g>
            <g class="cls-57">
              <path class="cls-60" d="M108,107.47c27.18,34.95,54.36,69.9,81.55,104.84-19.42,3.88-38.83,7.77-58.25,11.65-7.77-38.83-15.53-77.66-23.3-116.49Z"/>
              <path class="cls-53" d="M108,107.47c38.83-7.77,77.66-15.53,116.49-23.3,3.88,19.42,7.77,38.83,11.65,58.25-42.71-11.65-85.43-23.3-128.14-34.95Z"/>
              <path class="cls-60" d="M236.14,142.42c-7.77,11.65-15.53,23.3-23.3,34.95-34.95-23.3-69.9-46.6-104.84-69.9,42.71,11.65,85.43,23.3,128.14,34.95Z"/>
              <path class="cls-53" d="M212.84,177.37c-34.95-23.3-69.9-46.6-104.84-69.9,27.18,34.95,54.36,69.9,81.55,104.84,7.77-11.65,15.53-23.3,23.3-34.95Z"/>
            </g>
            <g class="cls-57">
              <path class="cls-60" d="M108,107.47c-34.95,27.18-69.9,54.36-104.84,81.55-3.88-19.42-7.77-38.83-11.65-58.25,38.83-7.77,77.66-15.53,116.49-23.3Z"/>
              <path class="cls-53" d="M108,107.47c7.77,38.83,15.53,77.66,23.3,116.49-19.42,3.88-38.83,7.77-58.25,11.65,11.65-42.71,23.3-85.43,34.95-128.14Z"/>
              <path class="cls-60" d="M73.05,235.61c-11.65-7.77-23.3-15.53-34.95-23.3,23.3-34.95,46.6-69.9,69.9-104.84-11.65,42.71-23.3,85.43-34.95,128.14Z"/>
              <path class="cls-53" d="M38.1,212.31c23.3-34.95,46.6-69.9,69.9-104.84-34.95,27.18-69.9,54.36-104.84,81.55,11.65,7.77,23.3,15.53,34.95,23.3Z"/>
            </g>
            <g class="cls-57">
              <path class="cls-60" d="M108,107.47C80.82,72.52,53.64,37.57,26.45,2.63c19.42-3.88,38.83-7.77,58.25-11.65,7.77,38.83,15.53,77.66,23.3,116.49Z"/>
              <path class="cls-53" d="M108,107.47c-38.83,7.77-77.66,15.53-116.49,23.3-3.88-19.42-7.77-38.83-11.65-58.25,42.71,11.65,85.43,23.3,128.14,34.95Z"/>
              <path class="cls-60" d="M-20.14,72.52C-12.38,60.87-4.61,49.22,3.16,37.57c34.95,23.3,69.9,46.6,104.84,69.9-42.71-11.65-85.43-23.3-128.14-34.95Z"/>
              <path class="cls-53" d="M3.16,37.57c34.95,23.3,69.9,46.6,104.84,69.9C80.82,72.52,53.64,37.57,26.45,2.63,18.69,14.28,10.92,25.92,3.16,37.57Z"/>
            </g>
          </g>
        </g>
      </g>
    </g>
  </g>
  <g class="cls-104">
    <g class="cls-90">
      <circle class="cls-99" cx="324" cy="108" r="99"/>
      <g class="cls-69">
        <g class="cls-61">
          <g class="cls-101">
            <g class="cls-57">
              <path class="cls-60" d="M323.8,107.51c21.89-38.49,43.77-76.97,65.66-115.46,11.02,16.45,22.04,32.9,33.05,49.35-32.9,22.04-65.81,44.07-98.71,66.11Z"/>
              <path class="cls-53" d="M323.8,107.51c-22.04-32.9-44.07-65.81-66.11-98.71,16.45-11.02,32.9-22.04,49.35-33.05,5.58,43.92,11.17,87.84,16.75,131.76Z"/>
              <path class="cls-60" d="M307.05-24.25c13.73,2.72,27.47,5.43,41.2,8.15-8.15,41.2-16.3,82.41-24.45,123.61-5.58-43.92-11.17-87.84-16.75-131.76Z"/>
              <path class="cls-53" d="M348.25-16.1c-8.15,41.2-16.3,82.41-24.45,123.61,21.89-38.49,43.77-76.97,65.66-115.46-13.73-2.72-27.47-5.43-41.2-8.15Z"/>
            </g>
            <g class="cls-57">
              <path class="cls-60" d="M323.8,107.51c38.49,21.89,76.97,43.77,115.46,65.66-16.45,11.02-32.9,22.04-49.35,33.05-22.04-32.9-44.07-65.81-66.11-98.71Z"/>
              <path class="cls-53" d="M323.8,107.51c32.9-22.04,65.81-44.07,98.71-66.11,11.02,16.45,22.04,32.9,33.05,49.35-43.92,5.58-87.84,11.17-131.76,16.75Z"/>
              <path class="cls-60" d="M455.56,90.76c-2.72,13.73-5.43,27.47-8.15,41.2-41.2-8.15-82.41-16.3-123.61-24.45,43.92-5.58,87.84-11.17,131.76-16.75Z"/>
              <path class="cls-53" d="M447.41,131.96c-41.2-8.15-82.41-16.3-123.61-24.45,38.49,21.89,76.97,43.77,115.46,65.66,2.72-13.73,5.43-27.47,8.15-41.2Z"/>
            </g>
            <g class="cls-57">
              <path class="cls-60" d="M323.8,107.51c-21.89,38.49-43.77,76.97-65.66,115.46-11.02-16.45-22.04-32.9-33.05-49.35,32.9-22.04,65.81-44.07,98.71-66.11Z"/>
              <path class="cls-53" d="M323.8,107.51c22.04,32.9,44.07,65.81,66.11,98.71-16.45,11.02-32.9,22.04-49.35,33.05-5.58-43.92-11.17-87.84-16.75-131.76Z"/>
              <path class="cls-60" d="M340.55,239.27c-13.73-2.72-27.47-5.43-41.2-8.15,8.15-41.2,16.3-82.41,24.45-123.61,5.58,43.92,11.17,87.84,16.75,131.76Z"/>
              <path class="cls-53" d="M299.34,231.12c8.15-41.2,16.3-82.41,24.45-123.61-21.89,38.49-43.77,76.97-65.66,115.46,13.73,2.72,27.47,5.43,41.2,8.15Z"/>
            </g>
            <g class="cls-57">
              <path class="cls-60" d="M323.8,107.51c-38.49-21.89-76.97-43.77-115.46-65.66,16.45-11.02,32.9-22.04,49.35-33.05,22.04,32.9,44.07,65.81,66.11,98.71Z"/>
              <path class="cls-53" d="M323.8,107.51c-32.9,22.04-65.81,44.07-98.71,66.11-11.02-16.45-22.04-32.9-33.05-49.35,43.92-5.58,87.84-11.17,131.76-16.75Z"/>
              <path class="cls-60" d="M192.04,124.26c2.72-13.73,5.43-27.47,8.15-41.2,41.2,8.15,82.41,16.3,123.61,24.45-43.92,5.58-87.84,11.17-131.76,16.75Z"/>
              <path class="cls-53" d="M200.19,83.06c41.2,8.15,82.41,16.3,123.61,24.45-38.49-21.89-76.97-43.77-115.46-65.66-2.72,13.73-5.43,27.47-8.15,41.2Z"/>
            </g>
          </g>
        </g>
      </g>
    </g>
  </g>
  <g class="cls-67">
    <g class="cls-90">
      <circle class="cls-79" cx="540" cy="108" r="99"/>
      <g class="cls-84">
        <g class="cls-90">
          <g class="cls-110">
            <g class="cls-57">
              <path class="cls-60" d="M539.63,107.63c5.49-43.93,10.98-87.86,16.47-131.8,16.47,10.98,32.95,21.97,49.42,32.95-21.97,32.95-43.93,65.9-65.9,98.85Z"/>
              <path class="cls-53" d="M539.63,107.63c-32.95-21.97-65.9-43.93-98.85-65.9,10.98-16.47,21.97-32.95,32.95-49.42,21.97,38.44,43.93,76.88,65.9,115.32Z"/>
              <path class="cls-60" d="M473.73-7.7c13.73-2.75,27.46-5.49,41.19-8.24,8.24,41.19,16.47,82.37,24.71,123.56-21.97-38.44-43.93-76.88-65.9-115.32Z"/>
              <path class="cls-53" d="M514.91-15.93c8.24,41.19,16.47,82.37,24.71,123.56,5.49-43.93,10.98-87.86,16.47-131.8-13.73,2.75-27.46,5.49-41.19,8.24Z"/>
            </g>
            <g class="cls-57">
              <path class="cls-60" d="M539.63,107.63c43.93,5.49,87.86,10.98,131.8,16.47-10.98,16.47-21.97,32.95-32.95,49.42-32.95-21.97-65.9-43.93-98.85-65.9Z"/>
              <path class="cls-53" d="M539.63,107.63c21.97-32.95,43.93-65.9,65.9-98.85,16.47,10.98,32.95,21.97,49.42,32.95-38.44,21.97-76.88,43.93-115.32,65.9Z"/>
              <path class="cls-60" d="M654.95,41.73c2.75,13.73,5.49,27.46,8.24,41.19-41.19,8.24-82.37,16.47-123.56,24.71,38.44-21.97,76.88-43.93,115.32-65.9Z"/>
              <path class="cls-53" d="M663.18,82.91c-41.19,8.24-82.37,16.47-123.56,24.71,43.93,5.49,87.86,10.98,131.8,16.47-2.75-13.73-5.49-27.46-8.24-41.19Z"/>
            </g>
            <g class="cls-57">
              <path class="cls-60" d="M539.63,107.63c-5.49,43.93-10.98,87.86-16.47,131.8-16.47-10.98-32.95-21.97-49.42-32.95,21.97-32.95,43.93-65.9,65.9-98.85Z"/>
              <path class="cls-53" d="M539.63,107.63c32.95,21.97,65.9,43.93,98.85,65.9-10.98,16.47-21.97,32.95-32.95,49.42-21.97-38.44-43.93-76.88-65.9-115.32Z"/>
              <path class="cls-60" d="M605.52,222.95c-13.73,2.75-27.46,5.49-41.19,8.24-8.24-41.19-16.47-82.37-24.71-123.56,21.97,38.44,43.93,76.88,65.9,115.32Z"/>
              <path class="cls-53" d="M564.34,231.18c-8.24-41.19-16.47-82.37-24.71-123.56-5.49,43.93-10.98,87.86-16.47,131.8,13.73-2.75,27.46-5.49,41.19-8.24Z"/>
            </g>
            <g class="cls-57">
              <path class="cls-60" d="M539.63,107.63c-43.93-5.49-87.86-10.98-131.8-16.47,10.98-16.47,21.97-32.95,32.95-49.42,32.95,21.97,65.9,43.93,98.85,65.9Z"/>
              <path class="cls-53" d="M539.63,107.63c-21.97,32.95-43.93,65.9-65.9,98.85-16.47-10.98-32.95-21.97-49.42-32.95,38.44-21.97,76.88-43.93,115.32-65.9Z"/>
              <path class="cls-60" d="M424.3,173.52c-2.75-13.73-5.49-27.46-8.24-41.19,41.19-8.24,82.37-16.47,123.56-24.71-38.44,21.97-76.88,43.93-115.32,65.9Z"/>
              <path class="cls-53" d="M416.07,132.34c41.19-8.24,82.37-16.47,123.56-24.71-43.93-5.49-87.86-10.98-131.8-16.47,2.75,13.73,5.49,27.46,8.24,41.19Z"/>
            </g>
          </g>
        </g>
      </g>
    </g>
  </g>
  <g class="cls-74">
    <g class="cls-90">
      <circle class="cls-117" cx="1188" cy="108" r="99"/>
      <g class="cls-73">
        <g class="cls-90">
          <g class="cls-78">
            <g class="cls-57">
              <path class="cls-60" d="M1187.8,107.51c21.88-38.49,43.76-76.97,65.64-115.46,11.01,16.45,22.03,32.9,33.04,49.35-32.89,22.04-65.79,44.07-98.68,66.11Z"/>
              <path class="cls-53" d="M1187.8,107.51c-22.03-32.9-44.06-65.81-66.09-98.71,16.45-11.02,32.89-22.04,49.34-33.05,5.58,43.92,11.16,87.84,16.75,131.76Z"/>
              <path class="cls-60" d="M1171.05-24.25c13.73,2.72,27.46,5.43,41.19,8.15-8.15,41.2-16.3,82.41-24.45,123.61-5.58-43.92-11.16-87.84-16.75-131.76Z"/>
              <path class="cls-53" d="M1212.24-16.1c-8.15,41.2-16.3,82.41-24.45,123.61,21.88-38.49,43.76-76.97,65.64-115.46-13.73-2.72-27.46-5.43-41.19-8.15Z"/>
            </g>
            <g class="cls-57">
              <path class="cls-60" d="M1187.8,107.51c38.48,21.89,76.95,43.77,115.43,65.66-16.45,11.02-32.89,22.04-49.34,33.05-22.03-32.9-44.06-65.81-66.09-98.71Z"/>
              <path class="cls-53" d="M1187.8,107.51c32.89-22.04,65.79-44.07,98.68-66.11,11.01,16.45,22.03,32.9,33.04,49.35-43.91,5.58-87.82,11.17-131.73,16.75Z"/>
              <path class="cls-60" d="M1319.52,90.76c-2.72,13.73-5.43,27.47-8.15,41.2-41.19-8.15-82.39-16.3-123.58-24.45,43.91-5.58,87.82-11.17,131.73-16.75Z"/>
              <path class="cls-53" d="M1311.38,131.96c-41.19-8.15-82.39-16.3-123.58-24.45,38.48,21.89,76.95,43.77,115.43,65.66,2.72-13.73,5.43-27.47,8.15-41.2Z"/>
            </g>
            <g class="cls-57">
              <path class="cls-60" d="M1187.8,107.51c-21.88,38.49-43.76,76.97-65.64,115.46-11.01-16.45-22.03-32.9-33.04-49.35,32.89-22.04,65.79-44.07,98.68-66.11Z"/>
              <path class="cls-53" d="M1187.8,107.51c22.03,32.9,44.06,65.81,66.09,98.71-16.45,11.02-32.89,22.04-49.34,33.05-5.58-43.92-11.16-87.84-16.75-131.76Z"/>
              <path class="cls-60" d="M1204.54,239.27c-13.73-2.72-27.46-5.43-41.19-8.15,8.15-41.2,16.3-82.41,24.45-123.61,5.58,43.92,11.16,87.84,16.75,131.76Z"/>
              <path class="cls-53" d="M1163.35,231.12c8.15-41.2,16.3-82.41,24.45-123.61-21.88,38.49-43.76,76.97-65.64,115.46,13.73,2.72,27.46,5.43,41.19,8.15Z"/>
            </g>
            <g class="cls-57">
              <path class="cls-60" d="M1187.8,107.51c-38.48-21.89-76.95-43.77-115.43-65.66,16.45-11.02,32.89-22.04,49.34-33.05,22.03,32.9,44.06,65.81,66.09,98.71Z"/>
              <path class="cls-53" d="M1187.8,107.51c-32.89,22.04-65.79,44.07-98.68,66.11-11.01-16.45-22.03-32.9-33.04-49.35,43.91-5.58,87.82-11.17,131.73-16.75Z"/>
              <path class="cls-60" d="M1056.07,124.26c2.72-13.73,5.43-27.47,8.15-41.2,41.19,8.15,82.39,16.3,123.58,24.45-43.91,5.58-87.82,11.17-131.73,16.75Z"/>
              <path class="cls-53" d="M1064.22,83.06c41.19,8.15,82.39,16.3,123.58,24.45-38.48-21.89-76.95-43.77-115.43-65.66-2.72,13.73-5.43,27.47-8.15,41.2Z"/>
            </g>
          </g>
        </g>
      </g>
    </g>
  </g>
  <g class="cls-92">
    <g class="cls-90">
      <circle class="cls-82" cx="972" cy="108" r="99"/>
      <g class="cls-102">
        <g class="cls-90">
          <g class="cls-94">
            <g class="cls-57">
              <path class="cls-60" d="M972,107.47c34.95-27.18,69.9-54.36,104.84-81.55,3.88,19.42,7.77,38.83,11.65,58.25-38.83,7.77-77.66,15.53-116.49,23.3Z"/>
              <path class="cls-53" d="M972,107.47c-7.77-38.83-15.53-77.66-23.3-116.49,19.42-3.88,38.83-7.77,58.25-11.65-11.65,42.71-23.3,85.43-34.95,128.14Z"/>
              <path class="cls-60" d="M1006.95-20.67c11.65,7.77,23.3,15.53,34.95,23.3-23.3,34.95-46.6,69.9-69.9,104.84,11.65-42.71,23.3-85.43,34.95-128.14Z"/>
              <path class="cls-53" d="M1041.9,2.63c-23.3,34.95-46.6,69.9-69.9,104.84,34.95-27.18,69.9-54.36,104.84-81.55-11.65-7.77-23.3-15.53-34.95-23.3Z"/>
            </g>
            <g class="cls-57">
              <path class="cls-60" d="M972,107.47c27.18,34.95,54.36,69.9,81.55,104.84-19.42,3.88-38.83,7.77-58.25,11.65-7.77-38.83-15.53-77.66-23.3-116.49Z"/>
              <path class="cls-53" d="M972,107.47c38.83-7.77,77.66-15.53,116.49-23.3,3.88,19.42,7.77,38.83,11.65,58.25-42.71-11.65-85.43-23.3-128.14-34.95Z"/>
              <path class="cls-60" d="M1100.14,142.42c-7.77,11.65-15.53,23.3-23.3,34.95-34.95-23.3-69.9-46.6-104.84-69.9,42.71,11.65,85.43,23.3,128.14,34.95Z"/>
              <path class="cls-53" d="M1076.84,177.37c-34.95-23.3-69.9-46.6-104.84-69.9,27.18,34.95,54.36,69.9,81.55,104.84,7.77-11.65,15.53-23.3,23.3-34.95Z"/>
            </g>
            <g class="cls-57">
              <path class="cls-60" d="M972,107.47c-34.95,27.18-69.9,54.36-104.84,81.55-3.88-19.42-7.77-38.83-11.65-58.25,38.83-7.77,77.66-15.53,116.49-23.3Z"/>
              <path class="cls-53" d="M972,107.47c7.77,38.83,15.53,77.66,23.3,116.49-19.42,3.88-38.83,7.77-58.25,11.65,11.65-42.71,23.3-85.43,34.95-128.14Z"/>
              <path class="cls-60" d="M937.05,235.61c-11.65-7.77-23.3-15.53-34.95-23.3,23.3-34.95,46.6-69.9,69.9-104.84-11.65,42.71-23.3,85.43-34.95,128.14Z"/>
              <path class="cls-53" d="M902.1,212.31c23.3-34.95,46.6-69.9,69.9-104.84-34.95,27.18-69.9,54.36-104.84,81.55,11.65,7.77,23.3,15.53,34.95,23.3Z"/>
            </g>
            <g class="cls-57">
              <path class="cls-60" d="M972,107.47c-27.18-34.95-54.36-69.9-81.55-104.84,19.42-3.88,38.83-7.77,58.25-11.65,7.77,38.83,15.53,77.66,23.3,116.49Z"/>
              <path class="cls-53" d="M972,107.47c-38.83,7.77-77.66,15.53-116.49,23.3-3.88-19.42-7.77-38.83-11.65-58.25,42.71,11.65,85.43,23.3,128.14,34.95Z"/>
              <path class="cls-60" d="M843.86,72.52c7.77-11.65,15.53-23.3,23.3-34.95,34.95,23.3,69.9,46.6,104.84,69.9-42.71-11.65-85.43-23.3-128.14-34.95Z"/>
              <path class="cls-53" d="M867.16,37.57c34.95,23.3,69.9,46.6,104.84,69.9-27.18-34.95-54.36-69.9-81.55-104.84-7.77,11.65-15.53,23.3-23.3,34.95Z"/>
            </g>
          </g>
        </g>
      </g>
    </g>
  </g>
  <g class="cls-86">
    <g class="cls-90">
      <circle class="cls-95" cx="756" cy="108" r="99"/>
      <g class="cls-112">
        <g class="cls-90">
          <g class="cls-58">
            <g class="cls-57">
              <path class="cls-60" d="M755.51,107.8c-11.74-42.69-23.48-85.38-35.22-128.07,19.42,3.84,38.85,7.68,58.27,11.53-7.68,38.85-15.37,77.69-23.05,116.54Z"/>
              <path class="cls-53" d="M755.51,107.8c-38.85-7.68-77.69-15.37-116.54-23.05,3.84-19.42,7.68-38.85,11.53-58.27,35,27.11,70.01,54.22,105.01,81.33Z"/>
              <path class="cls-60" d="M650.5,26.47c11.63-7.79,23.27-15.58,34.9-23.37,23.37,34.9,46.74,69.8,70.11,104.7-35-27.11-70.01-54.22-105.01-81.33Z"/>
              <path class="cls-53" d="M685.4,3.1c23.37,34.9,46.74,69.8,70.11,104.7-11.74-42.69-23.48-85.38-35.22-128.07-11.63,7.79-23.27,15.58-34.9,23.37Z"/>
            </g>
            <g class="cls-57">
              <path class="cls-60" d="M755.51,107.8c42.69-11.74,85.38-23.48,128.07-35.22-3.84,19.42-7.68,38.85-11.53,58.27-38.85-7.68-77.69-15.37-116.54-23.05Z"/>
              <path class="cls-53" d="M755.51,107.8c7.68-38.85,15.37-77.69,23.05-116.54,19.42,3.84,38.85,7.68,58.27,11.53-27.11,35-54.22,70.01-81.33,105.01Z"/>
              <path class="cls-60" d="M836.84,2.78c7.79,11.63,15.58,23.27,23.37,34.9-34.9,23.37-69.8,46.74-104.7,70.11,27.11-35,54.22-70.01,81.33-105.01Z"/>
              <path class="cls-53" d="M860.21,37.68c-34.9,23.37-69.8,46.74-104.7,70.11,42.69-11.74,85.38-23.48,128.07-35.22-7.79-11.63-15.58-23.27-23.37-34.9Z"/>
            </g>
            <g class="cls-57">
              <path class="cls-60" d="M755.51,107.8c11.74,42.69,23.48,85.38,35.22,128.07-19.42-3.84-38.85-7.68-58.27-11.53,7.68-38.85,15.37-77.69,23.05-116.54Z"/>
              <path class="cls-53" d="M755.51,107.8c38.85,7.68,77.69,15.37,116.54,23.05-3.84,19.42-7.68,38.85-11.53,58.27-35-27.11-70.01-54.22-105.01-81.33Z"/>
              <path class="cls-60" d="M860.52,189.12c-11.63,7.79-23.27,15.58-34.9,23.37-23.37-34.9-46.74-69.8-70.11-104.7,35,27.11,70.01,54.22,105.01,81.33Z"/>
              <path class="cls-53" d="M825.63,212.49c-23.37-34.9-46.74-69.8-70.11-104.7,11.74,42.69,23.48,85.38,35.22,128.07,11.63-7.79,23.27-15.58,34.9-23.37Z"/>
            </g>
            <g class="cls-57">
              <path class="cls-60" d="M755.51,107.8c-42.69,11.74-85.38,23.48-128.07,35.22,3.84-19.42,7.68-38.85,11.53-58.27,38.85,7.68,77.69,15.37,116.54,23.05Z"/>
              <path class="cls-53" d="M755.51,107.8c-7.68,38.85-15.37,77.69-23.05,116.54-19.42-3.84-38.85-7.68-58.27-11.53,27.11-35,54.22-70.01,81.33-105.01Z"/>
              <path class="cls-60" d="M674.18,212.81c-7.79-11.63-15.58-23.27-23.37-34.9,34.9-23.37,69.8-46.74,104.7-70.11-27.11,35-54.22,70.01-81.33,105.01Z"/>
              <path class="cls-53" d="M650.81,177.91c34.9-23.37,69.8-46.74,104.7-70.11-42.69,11.74-85.38,23.48-128.07,35.22,7.79,11.63,15.58,23.27,23.37,34.9Z"/>
            </g>
          </g>
        </g>
      </g>
    </g>
  </g>
  <g class="cls-100">
    <g class="cls-90">
      <ellipse class="cls-116" cx="108.02" cy="324" rx="98.99" ry="98.97"/>
      <g class="cls-89">
        <g class="cls-90">
          <g class="cls-70">
            <g class="cls-57">
              <path class="cls-60" d="M107.65,323.63c5.49-43.92,10.98-87.84,16.47-131.76,16.47,10.98,32.95,21.96,49.42,32.94-21.96,32.94-43.93,65.88-65.89,98.82Z"/>
              <path class="cls-53" d="M107.65,323.63c-32.95-21.96-65.89-43.92-98.84-65.88,10.98-16.47,21.96-32.94,32.95-49.41,21.96,38.43,43.93,76.86,65.89,115.29Z"/>
              <path class="cls-60" d="M41.75,208.33c13.73-2.75,27.46-5.49,41.18-8.24,8.24,41.18,16.47,82.35,24.71,123.53-21.96-38.43-43.93-76.86-65.89-115.29Z"/>
              <path class="cls-53" d="M82.93,200.1c8.24,41.18,16.47,82.35,24.71,123.53,5.49-43.92,10.98-87.84,16.47-131.76-13.73,2.75-27.46,5.49-41.18,8.24Z"/>
            </g>
            <g class="cls-57">
              <path class="cls-60" d="M107.65,323.63c43.93,5.49,87.86,10.98,131.79,16.47-10.98,16.47-21.96,32.94-32.95,49.41-32.95-21.96-65.89-43.92-98.84-65.88Z"/>
              <path class="cls-53" d="M107.65,323.63c21.96-32.94,43.93-65.88,65.89-98.82,16.47,10.98,32.95,21.96,49.42,32.94-38.44,21.96-76.88,43.92-115.32,65.88Z"/>
              <path class="cls-60" d="M222.96,257.74c2.75,13.73,5.49,27.45,8.24,41.18-41.18,8.24-82.37,16.47-123.55,24.71,38.44-21.96,76.88-43.92,115.32-65.88Z"/>
              <path class="cls-53" d="M231.2,298.92c-41.18,8.24-82.37,16.47-123.55,24.71,43.93,5.49,87.86,10.98,131.79,16.47-2.75-13.73-5.49-27.45-8.24-41.18Z"/>
            </g>
            <g class="cls-57">
              <path class="cls-60" d="M107.65,323.63c-5.49,43.92-10.98,87.84-16.47,131.76-16.47-10.98-32.95-21.96-49.42-32.94,21.96-32.94,43.93-65.88,65.89-98.82Z"/>
              <path class="cls-53" d="M107.65,323.63c32.95,21.96,65.89,43.92,98.84,65.88-10.98,16.47-21.96,32.94-32.95,49.41-21.96-38.43-43.93-76.86-65.89-115.29Z"/>
              <path class="cls-60" d="M173.54,438.92c-13.73,2.75-27.46,5.49-41.18,8.24-8.24-41.18-16.47-82.35-24.71-123.53,21.96,38.43,43.93,76.86,65.89,115.29Z"/>
              <path class="cls-53" d="M132.36,447.15c-8.24-41.18-16.47-82.35-24.71-123.53-5.49,43.92-10.98,87.84-16.47,131.76,13.73-2.75,27.46-5.49,41.18-8.24Z"/>
            </g>
            <g class="cls-57">
              <path class="cls-60" d="M107.65,323.63c-43.93-5.49-87.86-10.98-131.79-16.47,10.98-16.47,21.96-32.94,32.95-49.41,32.95,21.96,65.89,43.92,98.84,65.88Z"/>
              <path class="cls-53" d="M107.65,323.63c-21.96,32.94-43.93,65.88-65.89,98.82-16.47-10.98-32.95-21.96-49.42-32.94,38.44-21.96,76.88-43.92,115.32-65.88Z"/>
              <path class="cls-60" d="M-7.67,389.51c-2.75-13.73-5.49-27.45-8.24-41.18,41.18-8.24,82.37-16.47,123.55-24.71-38.44,21.96-76.88,43.92-115.32,65.88Z"/>
              <path class="cls-53" d="M-15.91,348.33c41.18-8.24,82.37-16.47,123.55-24.71-43.93-5.49-87.86-10.98-131.79-16.47,2.75,13.73,5.49,27.45,8.24,41.18Z"/>
            </g>
          </g>
        </g>
      </g>
    </g>
  </g>
  <g class="cls-111">
    <g class="cls-114">
      <ellipse class="cls-65" cx="755.98" cy="324" rx="98.99" ry="98.97"/>
      <g class="cls-108">
        <g class="cls-90">
          <g class="cls-72">
            <g class="cls-57">
              <path class="cls-60" d="M755.78,323.51c21.88-38.48,43.76-76.95,65.64-115.43,11.01,16.45,22.03,32.89,33.04,49.34-32.89,22.03-65.79,44.06-98.68,66.09Z"/>
              <path class="cls-53" d="M755.78,323.51c-22.03-32.89-44.06-65.79-66.08-98.68,16.45-11.01,32.89-22.03,49.34-33.04,5.58,43.91,11.16,87.82,16.74,131.73Z"/>
              <path class="cls-60" d="M739.03,191.78c13.73,2.72,27.46,5.43,41.19,8.15-8.15,41.19-16.3,82.39-24.45,123.58-5.58-43.91-11.16-87.82-16.74-131.73Z"/>
              <path class="cls-53" d="M780.22,199.93c-8.15,41.19-16.3,82.39-24.45,123.58,21.88-38.48,43.76-76.95,65.64-115.43-13.73-2.72-27.46-5.43-41.19-8.15Z"/>
            </g>
            <g class="cls-57">
              <path class="cls-60" d="M755.78,323.51c38.47,21.88,76.95,43.76,115.42,65.64-16.45,11.01-32.89,22.03-49.34,33.04-22.03-32.89-44.06-65.79-66.08-98.68Z"/>
              <path class="cls-53" d="M755.78,323.51c32.89-22.03,65.79-44.06,98.68-66.09,11.01,16.45,22.03,32.89,33.04,49.34-43.91,5.58-87.81,11.16-131.72,16.75Z"/>
              <path class="cls-60" d="M887.5,306.76c-2.72,13.73-5.43,27.46-8.15,41.19-41.19-8.15-82.38-16.3-123.57-24.45,43.91-5.58,87.81-11.16,131.72-16.75Z"/>
              <path class="cls-53" d="M879.35,347.96c-41.19-8.15-82.38-16.3-123.57-24.45,38.47,21.88,76.95,43.76,115.42,65.64,2.72-13.73,5.43-27.46,8.15-41.19Z"/>
            </g>
            <g class="cls-57">
              <path class="cls-60" d="M755.78,323.51c-21.88,38.48-43.76,76.95-65.64,115.43-11.01-16.45-22.03-32.89-33.04-49.34,32.89-22.03,65.79-44.06,98.68-66.09Z"/>
              <path class="cls-53" d="M755.78,323.51c22.03,32.89,44.06,65.79,66.08,98.68-16.45,11.01-32.89,22.03-49.34,33.04-5.58-43.91-11.16-87.82-16.74-131.73Z"/>
              <path class="cls-60" d="M772.52,455.24c-13.73-2.72-27.46-5.43-41.19-8.15,8.15-41.19,16.3-82.39,24.45-123.58,5.58,43.91,11.16,87.82,16.74,131.73Z"/>
              <path class="cls-53" d="M731.33,447.09c8.15-41.19,16.3-82.39,24.45-123.58-21.88,38.48-43.76,76.95-65.64,115.43,13.73,2.72,27.46,5.43,41.19,8.15Z"/>
            </g>
            <g class="cls-57">
              <path class="cls-60" d="M755.78,323.51c-38.47-21.88-76.95-43.76-115.42-65.64,16.45-11.01,32.89-22.03,49.34-33.04,22.03,32.89,44.06,65.79,66.08,98.68Z"/>
              <path class="cls-53" d="M755.78,323.51c-32.89,22.03-65.79,44.06-98.68,66.09-11.01-16.45-22.03-32.89-33.04-49.34,43.91-5.58,87.81-11.16,131.72-16.75Z"/>
              <path class="cls-60" d="M624.06,340.26c2.72-13.73,5.43-27.46,8.15-41.19,41.19,8.15,82.38,16.3,123.57,24.45-43.91,5.58-87.81,11.16-131.72,16.75Z"/>
              <path class="cls-53" d="M632.21,299.06c41.19,8.15,82.38,16.3,123.57,24.45-38.47-21.88-76.95-43.76-115.42-65.64-2.72,13.73-5.43,27.46-8.15,41.19Z"/>
            </g>
          </g>
        </g>
      </g>
    </g>
  </g>
  <g class="cls-91">
    <g class="cls-61">
      <ellipse class="cls-93" cx="539.99" cy="324" rx="98.99" ry="98.97"/>
      <g class="cls-59">
        <g class="cls-90">
          <g class="cls-109">
            <g class="cls-57">
              <path class="cls-60" d="M539.99,323.47c34.95-27.17,69.89-54.35,104.84-81.52,3.88,19.41,7.77,38.82,11.65,58.23-38.83,7.76-77.66,15.53-116.49,23.29Z"/>
              <path class="cls-53" d="M539.99,323.47c-7.77-38.82-15.53-77.64-23.3-116.46,19.41-3.88,38.83-7.76,58.24-11.65-11.65,42.7-23.3,85.41-34.95,128.11Z"/>
              <path class="cls-60" d="M574.94,195.36c11.65,7.76,23.3,15.53,34.95,23.29-23.3,34.94-46.59,69.88-69.89,104.82,11.65-42.7,23.3-85.41,34.95-128.11Z"/>
              <path class="cls-53" d="M609.88,218.65c-23.3,34.94-46.59,69.88-69.89,104.82,34.95-27.17,69.89-54.35,104.84-81.52-11.65-7.76-23.3-15.53-34.95-23.29Z"/>
            </g>
            <g class="cls-57">
              <path class="cls-60" d="M539.99,323.47c27.18,34.94,54.36,69.88,81.54,104.82-19.41,3.88-38.83,7.76-58.24,11.65-7.77-38.82-15.53-77.64-23.3-116.46Z"/>
              <path class="cls-53" d="M539.99,323.47c38.83-7.76,77.66-15.53,116.49-23.29,3.88,19.41,7.77,38.82,11.65,58.23-42.71-11.65-85.42-23.29-128.13-34.94Z"/>
              <path class="cls-60" d="M668.13,358.41c-7.77,11.65-15.53,23.29-23.3,34.94-34.95-23.29-69.89-46.59-104.84-69.88,42.71,11.65,85.42,23.29,128.13,34.94Z"/>
              <path class="cls-53" d="M644.83,393.35c-34.95-23.29-69.89-46.59-104.84-69.88,27.18,34.94,54.36,69.88,81.54,104.82,7.77-11.65,15.53-23.29,23.3-34.94Z"/>
            </g>
            <g class="cls-57">
              <path class="cls-60" d="M539.99,323.47c-34.95,27.17-69.89,54.35-104.84,81.52-3.88-19.41-7.77-38.82-11.65-58.23,38.83-7.76,77.66-15.53,116.49-23.29Z"/>
              <path class="cls-53" d="M539.99,323.47c7.77,38.82,15.53,77.64,23.3,116.46-19.41,3.88-38.83,7.76-58.24,11.65,11.65-42.7,23.3-85.41,34.95-128.11Z"/>
              <path class="cls-60" d="M505.05,451.58c-11.65-7.76-23.3-15.53-34.95-23.29,23.3-34.94,46.59-69.88,69.89-104.82-11.65,42.7-23.3,85.41-34.95,128.11Z"/>
              <path class="cls-53" d="M470.1,428.29c23.3-34.94,46.59-69.88,69.89-104.82-34.95,27.17-69.89,54.35-104.84,81.52,11.65,7.76,23.3,15.53,34.95,23.29Z"/>
            </g>
            <g class="cls-57">
              <path class="cls-60" d="M539.99,323.47c-27.18-34.94-54.36-69.88-81.54-104.82,19.41-3.88,38.83-7.76,58.24-11.65,7.77,38.82,15.53,77.64,23.3,116.46Z"/>
              <path class="cls-53" d="M539.99,323.47c-38.83,7.76-77.66,15.53-116.49,23.29-3.88-19.41-7.77-38.82-11.65-58.23,42.71,11.65,85.42,23.29,128.13,34.94Z"/>
              <path class="cls-60" d="M411.86,288.53c7.77-11.65,15.53-23.29,23.3-34.94,34.95,23.29,69.89,46.59,104.84,69.88-42.71-11.65-85.42-23.29-128.13-34.94Z"/>
              <path class="cls-53" d="M435.16,253.59c34.95,23.29,69.89,46.59,104.84,69.88-27.18-34.94-54.36-69.88-81.54-104.82-7.77,11.65-15.53,23.29-23.3,34.94Z"/>
            </g>
          </g>
        </g>
      </g>
    </g>
  </g>
  <g class="cls-80">
    <g class="cls-90">
      <ellipse class="cls-87" cx="324.01" cy="324" rx="98.99" ry="98.97"/>
      <g class="cls-107">
        <g class="cls-90">
          <g class="cls-98">
            <g class="cls-57">
              <path class="cls-60" d="M323.52,323.8c-11.74-42.68-23.48-85.36-35.21-128.04,19.42,3.84,38.84,7.68,58.27,11.52-7.68,38.84-15.37,77.67-23.05,116.51Z"/>
              <path class="cls-53" d="M323.52,323.8c-38.84-7.68-77.69-15.37-116.53-23.05,3.84-19.42,7.68-38.84,11.53-58.26,35,27.1,70.01,54.2,105.01,81.3Z"/>
              <path class="cls-60" d="M218.51,242.49c11.63-7.79,23.26-15.58,34.9-23.37,23.37,34.89,46.74,69.78,70.11,104.67-35-27.1-70.01-54.2-105.01-81.3Z"/>
              <path class="cls-53" d="M253.41,219.13c23.37,34.89,46.74,69.78,70.11,104.67-11.74-42.68-23.48-85.36-35.21-128.04-11.63,7.79-23.26,15.58-34.9,23.37Z"/>
            </g>
            <g class="cls-57">
              <path class="cls-60" d="M323.52,323.8c42.69-11.74,85.37-23.47,128.06-35.21-3.84,19.42-7.68,38.84-11.53,58.26-38.84-7.68-77.69-15.37-116.53-23.05Z"/>
              <path class="cls-53" d="M323.52,323.8c7.68-38.84,15.37-77.67,23.05-116.51,19.42,3.84,38.84,7.68,58.27,11.52-27.11,35-54.21,69.99-81.32,104.99Z"/>
              <path class="cls-60" d="M404.84,218.81c7.79,11.63,15.58,23.26,23.37,34.89-34.9,23.37-69.79,46.73-104.69,70.1,27.11-35,54.21-69.99,81.32-104.99Z"/>
              <path class="cls-53" d="M428.21,253.7c-34.9,23.37-69.79,46.73-104.69,70.1,42.69-11.74,85.37-23.47,128.06-35.21-7.79-11.63-15.58-23.26-23.37-34.89Z"/>
            </g>
            <g class="cls-57">
              <path class="cls-60" d="M323.52,323.8c11.74,42.68,23.48,85.36,35.21,128.04-19.42-3.84-38.84-7.68-58.27-11.52,7.68-38.84,15.37-77.67,23.05-116.51Z"/>
              <path class="cls-53" d="M323.52,323.8c38.84,7.68,77.69,15.37,116.53,23.05-3.84,19.42-7.68,38.84-11.53,58.26-35-27.1-70.01-54.2-105.01-81.3Z"/>
              <path class="cls-60" d="M428.52,405.1c-11.63,7.79-23.26,15.58-34.9,23.37-23.37-34.89-46.74-69.78-70.11-104.67,35,27.1,70.01,54.2,105.01,81.3Z"/>
              <path class="cls-53" d="M393.63,428.47c-23.37-34.89-46.74-69.78-70.11-104.67,11.74,42.68,23.48,85.36,35.21,128.04,11.63-7.79,23.26-15.58,34.9-23.37Z"/>
            </g>
            <g class="cls-57">
              <path class="cls-60" d="M323.52,323.8c-42.69,11.74-85.37,23.47-128.06,35.21,3.84-19.42,7.68-38.84,11.53-58.26,38.84,7.68,77.69,15.37,116.53,23.05Z"/>
              <path class="cls-53" d="M323.52,323.8c-7.68,38.84-15.37,77.67-23.05,116.51-19.42-3.84-38.84-7.68-58.27-11.52,27.11-35,54.21-69.99,81.32-104.99Z"/>
              <path class="cls-60" d="M242.2,428.78c-7.79-11.63-15.58-23.26-23.37-34.89,34.9-23.37,69.79-46.73,104.69-70.1-27.11,35-54.21,69.99-81.32,104.99Z"/>
              <path class="cls-53" d="M218.83,393.89c34.9-23.37,69.79-46.73,104.69-70.1-42.69,11.74-85.37,23.47-128.06,35.21,7.79,11.63,15.58,23.26,23.37,34.89Z"/>
            </g>
          </g>
        </g>
      </g>
    </g>
  </g>
  <g class="cls-90">
    <path class="cls-33" d="M336.01,103.79c4.68,3.62,9.36,7.24,14.04,10.86-5.54,1.98-11.08,3.96-16.62,5.94-1.96,5.44-3.92,10.87-5.89,16.31-3.61-4.49-7.23-8.98-10.84-13.48-5.81-.12-11.61-.24-17.42-.36,3.18-4.77,6.37-9.55,9.55-14.32-1.63-5.74-3.26-11.49-4.88-17.23,5.48,1.65,10.97,3.3,16.45,4.94,4.9-3.31,9.8-6.63,14.7-9.94,.31,5.76,.61,11.52,.92,17.27Z"/>
    <path class="cls-30" d="M336.93,112.88c-2.75,.85-5.5,1.71-8.25,2.56"/>
  </g>
  <g class="cls-90">
    <path class="cls-14" d="M562.92,114c2.49,8.73,4.98,17.47,7.47,26.2-8.65-2.6-17.3-5.19-25.95-7.79-7.37,4.93-14.75,9.87-22.12,14.8-.38-8.84-.76-17.68-1.14-26.53-7.07-5.43-14.14-10.86-21.21-16.29,8.28-3,16.56-6.01,24.84-9.01,3.21-8.58,6.43-17.16,9.64-25.74,5.28,7.03,10.56,14.05,15.84,21.08,9.07,.36,18.14,.72,27.21,1.08-4.86,7.4-9.72,14.79-14.58,22.19Z"/>
    <path class="cls-11" d="M555.79,126.07c-4.18-1.45-8.35-2.9-12.53-4.35"/>
  </g>
  <g class="cls-90">
    <path class="cls-39" d="M772.67,134.76c-8.52,9.74-17.04,19.48-25.57,29.22-3.59-12.36-7.18-24.72-10.77-37.08-11.61-5-23.22-10.01-34.83-15.01,10.29-7.3,20.57-14.6,30.86-21.9,1.03-12.66,2.05-25.32,3.08-37.98,10,7.58,20,15.16,30.01,22.74,12.75-2.8,25.51-5.59,38.26-8.39-4.32,11.75-8.64,23.51-12.96,35.26,6.59,11.13,13.18,22.26,19.77,33.4-12.61-.09-25.22-.18-37.83-.27Z"/>
    <path class="cls-46" d="M752.71,135.57c-1.5-6.12-3-12.24-4.5-18.36"/>
  </g>
  <g class="cls-90">
    <path class="cls-17" d="M970.98,131.56c-8.06,3.13-16.13,6.25-24.19,9.38,1.7-8.43,3.41-16.86,5.11-25.29-5.32-6.56-10.65-13.12-15.97-19.68,8.35-1.13,16.7-2.27,25.05-3.4,4.53-7.18,9.06-14.35,13.59-21.53,3.57,7.59,7.14,15.17,10.72,22.76,8.42,2.3,16.83,4.59,25.25,6.89-6.2,5.62-12.4,11.24-18.6,16.86,.45,8.63,.9,17.26,1.36,25.89-7.44-3.96-14.87-7.92-22.31-11.88Z"/>
    <path class="cls-2" d="M958.92,125.86c1.01-4.09,2.02-8.17,3.03-12.26"/>
  </g>
  <g class="cls-90">
    <path class="cls-52" d="M1180.12,117.39c-5.57-.91-11.14-1.82-16.7-2.73,3.75-4.18,7.49-8.35,11.24-12.53-.82-5.45-1.65-10.9-2.47-16.35,5.07,2.13,10.14,4.25,15.21,6.38,4.92-2.54,9.84-5.07,14.77-7.61-.5,5.45-1,10.9-1.51,16.34,3.97,4.08,7.94,8.15,11.92,12.23-5.35,1.11-10.69,2.22-16.04,3.32-2.6,5-5.2,10.01-7.81,15.01-2.87-4.69-5.74-9.38-8.61-14.06Z"/>
    <path class="cls-8" d="M1175.23,110.19c1.92-1.96,3.84-3.93,5.76-5.89"/>
  </g>
  <g class="cls-61">
    <path class="cls-4" d="M112.06,104.13c2.64,.5,5.28,1,7.92,1.49-1.83,1.94-3.66,3.89-5.5,5.83,.33,2.6,.66,5.21,.98,7.81-2.39-1.07-4.78-2.14-7.17-3.21-2.37,1.15-4.74,2.3-7.12,3.45,.3-2.59,.61-5.17,.91-7.76-1.84-1.99-3.69-3.97-5.53-5.96,2.56-.46,5.11-.93,7.67-1.39,1.3-2.35,2.59-4.7,3.89-7.05,1.31,2.26,2.62,4.53,3.94,6.79Z"/>
    <path class="cls-38" d="M114.31,107.61c-.94,.91-1.87,1.82-2.81,2.74"/>
  </g>
  <g class="cls-114">
    <path class="cls-41" d="M1005.64,81.09c1.59-.24,3.18-.47,4.77-.71-.65,1.46-1.31,2.92-1.96,4.38,.7,1.41,1.39,2.82,2.09,4.22-1.56-.14-3.12-.27-4.68-.41-1.12,1.12-2.23,2.23-3.35,3.35-.34-1.52-.67-3.05-1.01-4.57-1.43-.76-2.86-1.52-4.3-2.29,1.36-.76,2.71-1.53,4.07-2.29,.27-1.58,.54-3.17,.82-4.75,1.19,1.02,2.37,2.05,3.56,3.07Z"/>
    <path class="cls-44" d="M1007.42,82.7c-.33,.66-.66,1.32-1,1.99"/>
  </g>
  <g class="cls-114">
    <path class="cls-41" d="M1179.49,71.17c1.61,.01,3.22,.03,4.82,.04-.87,1.34-1.75,2.68-2.62,4.02,.47,1.5,.94,3,1.41,4.5-1.52-.38-3.04-.76-4.56-1.13-1.28,.93-2.55,1.86-3.83,2.79-.1-1.56-.19-3.11-.29-4.67-1.3-.98-2.59-1.95-3.89-2.93,1.46-.55,2.92-1.09,4.37-1.64l1.55-4.57c1.01,1.2,2.03,2.39,3.04,3.59Z"/>
    <path class="cls-44" d="M1181,73.04c-.43,.6-.86,1.21-1.29,1.81"/>
  </g>
  <g class="cls-114">
    <path class="cls-12" d="M990.81,156.33c2.13,.56,4.26,1.12,6.39,1.69-1.61,1.48-3.23,2.96-4.84,4.45,.12,2.15,.23,4.3,.35,6.45-1.89-1.02-3.78-2.03-5.67-3.05-2.01,.8-4.02,1.6-6.02,2.4,.4-2.1,.8-4.2,1.2-6.3-1.39-1.73-2.78-3.47-4.17-5.2,2.12-.23,4.24-.46,6.36-.69,1.2-1.85,2.4-3.69,3.6-5.54,.94,1.93,1.88,3.86,2.82,5.79Z"/>
    <path class="cls-24" d="M992.18,159.33c-.78,.65-1.55,1.31-2.33,1.96"/>
  </g>
  <g class="cls-114">
    <path class="cls-12" d="M1225.23,127.32c.98,1.97,1.95,3.95,2.93,5.92-2.18-.24-4.35-.48-6.53-.72-1.54,1.5-3.09,3-4.63,4.5-.48-2.09-.95-4.19-1.43-6.28-1.92-.99-3.85-1.97-5.77-2.96,1.84-1.08,3.69-2.16,5.53-3.23,.39-2.19,.78-4.37,1.18-6.56,1.57,1.45,3.13,2.89,4.7,4.34,2.18-.31,4.36-.62,6.54-.93-.84,1.98-1.67,3.95-2.51,5.93Z"/>
    <path class="cls-24" d="M1223.87,130.32c-1-.15-2.01-.31-3.01-.46"/>
  </g>
  <g class="cls-114">
    <path class="cls-5" d="M939.74,123.77c1.05,1.3,2.1,2.59,3.15,3.89-1.65,.18-3.3,.37-4.95,.55-.89,1.37-1.78,2.73-2.67,4.1-.7-1.47-1.4-2.93-2.1-4.4-1.59-.41-3.17-.82-4.76-1.23,1.18-1.1,2.37-2.21,3.55-3.31-.08-1.68-.15-3.36-.23-5.05,1.4,.81,2.8,1.61,4.2,2.42l4.68-1.78c-.29,1.6-.58,3.2-.87,4.8Z"/>
    <path class="cls-26" d="M939.24,126.21c-.77,.05-1.53,.11-2.3,.16"/>
  </g>
  <g class="cls-61">
    <path class="cls-51" d="M1231.26,69.82c2.01-.3,4.03-.6,6.04-.9-.83,1.85-1.66,3.69-2.49,5.54,.88,1.78,1.76,3.57,2.65,5.35-1.98-.17-3.95-.35-5.93-.52-1.41,1.41-2.83,2.83-4.24,4.24-.43-1.93-.85-3.86-1.28-5.78-1.81-.96-3.63-1.93-5.44-2.89,1.72-.97,3.43-1.94,5.15-2.9l1.03-6.02c1.5,1.3,3,2.59,4.51,3.89Z"/>
    <path class="cls-16" d="M1233.51,71.86c-.42,.84-.84,1.68-1.26,2.52"/>
  </g>
  <g class="cls-61">
    <path class="cls-10" d="M1212.48,165.07c2.7,.71,5.39,1.42,8.09,2.14-2.04,1.88-4.08,3.75-6.13,5.63,.15,2.72,.29,5.44,.44,8.16-2.39-1.29-4.79-2.57-7.18-3.86-2.54,1.01-5.08,2.03-7.63,3.04,.51-2.66,1.01-5.31,1.52-7.97-1.76-2.19-3.52-4.39-5.28-6.58,2.68-.29,5.37-.58,8.05-.87,1.52-2.34,3.04-4.68,4.55-7.01,1.19,2.44,2.38,4.89,3.57,7.33Z"/>
    <path class="cls-40" d="M1214.21,168.87c-.98,.83-1.96,1.66-2.95,2.49"/>
  </g>
  <g class="cls-61">
    <path class="cls-34" d="M1147.84,123.85c1.33,1.64,2.66,3.28,3.99,4.93-2.09,.23-4.18,.47-6.26,.7-1.13,1.73-2.26,3.46-3.38,5.19-.89-1.86-1.78-3.71-2.66-5.57-2.01-.52-4.02-1.03-6.02-1.55,1.5-1.4,3-2.8,4.49-4.19-.1-2.13-.19-4.26-.29-6.39,1.77,1.02,3.54,2.04,5.31,3.07,1.97-.75,3.95-1.5,5.92-2.25-.37,2.03-.73,4.05-1.1,6.08Z"/>
    <path class="cls-43" d="M1147.2,126.94c-.97,.07-1.94,.13-2.91,.2"/>
  </g>
  <g class="cls-90">
    <path class="cls-18" d="M82.41,327.06c-4.66-8.09-9.32-16.18-13.98-24.26,9.27,.43,18.55,.86,27.82,1.29,6.12-6.76,12.24-13.52,18.37-20.28,2.58,8.72,5.17,17.44,7.75,26.17,8.4,3.65,16.8,7.3,25.21,10.96-7.51,5.06-15.01,10.12-22.52,15.18-1.07,9.36-2.13,18.71-3.2,28.07-7.02-5.69-14.03-11.38-21.05-17.07-9.13,1.9-18.27,3.8-27.4,5.71,3-8.59,6-17.17,9.01-25.76Z"/>
    <path class="cls-32" d="M86.51,313.25c4.53,.4,9.05,.81,13.58,1.21"/>
  </g>
  <g class="cls-90">
    <path class="cls-9" d="M95.82,263.28c3.11,.03,6.21,.05,9.32,.08-1.69,2.59-3.37,5.17-5.06,7.76,.91,2.9,1.81,5.79,2.72,8.69-2.94-.73-5.87-1.46-8.81-2.19-2.46,1.79-4.93,3.59-7.39,5.38-.19-3.01-.37-6.01-.56-9.02-2.5-1.88-5.01-3.77-7.51-5.65,2.81-1.05,5.63-2.11,8.44-3.16,.99-2.94,1.99-5.88,2.98-8.82,1.96,2.31,3.91,4.62,5.87,6.93Z"/>
    <path class="cls-23" d="M98.73,266.9c-.83,1.16-1.66,2.33-2.5,3.49"/>
  </g>
  <g class="cls-114">
    <path class="cls-25" d="M306.67,244.37c2.36,.02,4.72,.04,7.07,.06-1.28,1.96-2.56,3.93-3.84,5.89,.69,2.2,1.38,4.4,2.06,6.59-2.23-.55-4.46-1.11-6.69-1.66-1.87,1.36-3.74,2.72-5.61,4.09-.14-2.28-.28-4.56-.42-6.85-1.9-1.43-3.8-2.86-5.7-4.29,2.14-.8,4.27-1.6,6.41-2.4,.76-2.23,1.51-4.47,2.27-6.7,1.49,1.75,2.97,3.51,4.46,5.26Z"/>
    <path class="cls-13" d="M308.88,247.12c-.63,.88-1.26,1.77-1.89,2.65"/>
  </g>
  <g class="cls-90">
    <path class="cls-22" d="M169.49,348.86c1.48,2.99,2.95,5.98,4.43,8.97-3.3-.37-6.59-.73-9.89-1.1-2.34,2.27-4.67,4.54-7.01,6.81-.72-3.17-1.44-6.34-2.17-9.51-2.91-1.49-5.83-2.99-8.74-4.48,2.79-1.63,5.58-3.27,8.38-4.9,.59-3.31,1.19-6.62,1.78-9.94,2.37,2.19,4.74,4.38,7.11,6.57,3.3-.47,6.6-.94,9.9-1.41-1.27,2.99-2.53,5.99-3.8,8.98Z"/>
    <path class="cls-35" d="M167.43,353.4c-1.52-.23-3.04-.47-4.56-.7"/>
  </g>
  <g class="cls-114">
    <path class="cls-45" d="M401.42,360.24c1.16,2.35,2.32,4.7,3.48,7.05-2.59-.29-5.18-.57-7.77-.86-1.84,1.78-3.67,3.57-5.51,5.35-.57-2.49-1.13-4.98-1.7-7.47-2.29-1.17-4.58-2.35-6.86-3.52,2.19-1.28,4.39-2.56,6.58-3.85,.47-2.6,.93-5.2,1.4-7.8,1.86,1.72,3.73,3.44,5.59,5.16,2.59-.37,5.18-.74,7.78-1.11-.99,2.35-1.99,4.7-2.98,7.05Z"/>
    <path class="cls-48" d="M399.8,363.81c-1.19-.18-2.39-.37-3.58-.55"/>
  </g>
  <g class="cls-114">
    <path class="cls-28" d="M168.2,269.75c2.07-.31,4.13-.61,6.2-.92-.85,1.9-1.7,3.79-2.55,5.69,.9,1.83,1.81,3.66,2.71,5.49-2.03-.18-4.06-.36-6.08-.53-1.45,1.45-2.9,2.9-4.35,4.35-.44-1.98-.87-3.96-1.31-5.93-1.86-.99-3.72-1.98-5.58-2.97,1.76-.99,3.52-1.99,5.28-2.98,.35-2.06,.71-4.12,1.06-6.17,1.54,1.33,3.08,2.66,4.62,3.99Z"/>
    <path class="cls-21" d="M170.52,271.85c-.43,.86-.86,1.72-1.29,2.58"/>
  </g>
  <g class="cls-114">
    <path class="cls-6" d="M135.5,393.68c2.19,.58,4.39,1.16,6.58,1.74-1.66,1.53-3.32,3.06-4.99,4.58,.12,2.21,.24,4.43,.36,6.64-1.95-1.05-3.9-2.09-5.85-3.14-2.07,.83-4.14,1.65-6.21,2.48,.41-2.16,.82-4.33,1.23-6.49-1.43-1.79-2.87-3.57-4.3-5.36,2.18-.24,4.37-.47,6.55-.71,1.24-1.9,2.47-3.81,3.71-5.71,.97,1.99,1.94,3.98,2.91,5.97Z"/>
    <path class="cls-49" d="M136.91,396.77c-.8,.67-1.6,1.35-2.4,2.02"/>
  </g>
  <g class="cls-114">
    <path class="cls-6" d="M89.8,364.29c2.23-.45,4.45-.9,6.68-1.35-.82,2.1-1.63,4.21-2.45,6.31,1.08,1.93,2.17,3.87,3.25,5.8-2.21-.08-4.42-.16-6.63-.24-1.49,1.65-2.98,3.31-4.48,4.96-.59-2.12-1.17-4.24-1.76-6.37-2.07-.97-4.15-1.94-6.22-2.91,1.85-1.18,3.71-2.35,5.56-3.53,.27-2.25,.54-4.51,.81-6.76,1.75,1.36,3.49,2.71,5.24,4.07Z"/>
    <path class="cls-49" d="M92.43,366.45c-.42,.96-.84,1.92-1.26,2.87"/>
  </g>
  <g class="cls-114">
    <path class="cls-6" d="M163.47,304.27c2.27,.13,4.53,.26,6.8,.4-1.33,1.83-2.65,3.66-3.98,5.48,.56,2.15,1.11,4.29,1.67,6.44-2.12-.64-4.24-1.28-6.35-1.92-1.86,1.22-3.73,2.44-5.59,3.66-.03-2.2-.05-4.4-.08-6.6-1.76-1.47-3.52-2.93-5.28-4.4,2.09-.67,4.19-1.33,6.28-2,.83-2.11,1.66-4.22,2.5-6.33,1.34,1.76,2.69,3.51,4.03,5.27Z"/>
    <path class="cls-49" d="M165.47,307.02c-.65,.82-1.3,1.64-1.95,2.46"/>
  </g>
  <g class="cls-90">
    <path class="cls-7" d="M310.67,313.52c1.59-5.93,3.19-11.87,4.78-17.8,4.12,4.52,8.23,9.03,12.35,13.55,6-.3,11.99-.59,17.99-.89-2.86,5.26-5.71,10.52-8.57,15.79,2.21,5.61,4.42,11.22,6.63,16.83-5.85-1.14-11.7-2.28-17.55-3.42-4.85,3.86-9.7,7.72-14.55,11.58-.62-5.91-1.23-11.83-1.85-17.74-5.14-3.37-10.27-6.73-15.41-10.1,5.39-2.6,10.79-5.2,16.18-7.8Z"/>
    <path class="cls-15" d="M319,309c1.92,2.29,3.84,4.59,5.76,6.88"/>
  </g>
  <g class="cls-61">
    <path class="cls-27" d="M536.6,317.27c2.28-1.95,4.56-3.89,6.83-5.84,.41,2.95,.82,5.9,1.23,8.85,2.49,1.53,4.98,3.07,7.48,4.6-2.6,1.33-5.2,2.66-7.8,3.98-.66,2.87-1.32,5.73-1.98,8.6-2.04-2.07-4.07-4.14-6.11-6.21-3.01,.21-6.03,.43-9.04,.64,1.38-2.55,2.77-5.1,4.15-7.64-1.14-2.77-2.27-5.54-3.41-8.31,2.89,.44,5.77,.89,8.66,1.33Z"/>
    <path class="cls-47" d="M541.2,317.75c.14,1.45,.28,2.9,.42,4.36"/>
  </g>
  <g class="cls-90">
    <path class="cls-36" d="M302.61,378.49c3.59-.72,7.18-1.45,10.77-2.17-1.32,3.4-2.64,6.79-3.96,10.19,1.75,3.12,3.5,6.24,5.25,9.37-3.57-.13-7.14-.26-10.7-.39-2.41,2.67-4.82,5.34-7.23,8.01-.94-3.42-1.89-6.85-2.83-10.27-3.35-1.57-6.7-3.13-10.04-4.7,2.99-1.9,5.99-3.8,8.98-5.7,.43-3.64,.87-7.27,1.3-10.91,2.82,2.19,5.64,4.38,8.46,6.57Z"/>
    <path class="cls-3" d="M306.85,381.96c-.68,1.55-1.35,3.09-2.03,4.64"/>
  </g>
  <g class="cls-114">
    <path class="cls-37" d="M509.19,392.84c2.1-.42,4.2-.85,6.3-1.27-.77,1.98-1.54,3.97-2.31,5.95,1.02,1.82,2.04,3.65,3.07,5.47-2.08-.07-4.17-.15-6.25-.22-1.41,1.56-2.81,3.12-4.22,4.68-.55-2-1.1-4-1.66-6-1.96-.91-3.91-1.83-5.87-2.74,1.75-1.11,3.5-2.22,5.25-3.33,.25-2.12,.51-4.25,.76-6.37,1.65,1.28,3.29,2.56,4.94,3.84Z"/>
    <path class="cls-20" d="M511.66,394.87c-.4,.9-.79,1.81-1.19,2.71"/>
  </g>
  <g class="cls-90">
    <path class="cls-42" d="M403.43,295.31c3.29,.19,6.58,.38,9.86,.57-1.92,2.65-3.84,5.3-5.77,7.95,.81,3.11,1.62,6.23,2.42,9.34-3.07-.93-6.15-1.85-9.22-2.78-2.7,1.77-5.41,3.54-8.11,5.31-.04-3.19-.08-6.39-.12-9.58-2.55-2.13-5.11-4.25-7.66-6.38,3.04-.97,6.07-1.93,9.11-2.9,1.21-3.06,2.41-6.12,3.62-9.19,1.95,2.55,3.9,5.1,5.85,7.64Z"/>
    <path class="cls-31" d="M406.32,299.3c-.94,1.19-1.88,2.38-2.83,3.57"/>
  </g>
  <g class="cls-114">
    <path class="cls-19" d="M614.76,283.84c2.08,.12,4.16,.24,6.24,.36-1.22,1.68-2.43,3.36-3.65,5.03,.51,1.97,1.02,3.94,1.53,5.91-1.94-.59-3.89-1.17-5.83-1.76-1.71,1.12-3.42,2.24-5.13,3.36-.02-2.02-.05-4.04-.07-6.06-1.62-1.34-3.23-2.69-4.85-4.03,1.92-.61,3.84-1.22,5.76-1.84,.76-1.94,1.53-3.88,2.29-5.81,1.23,1.61,2.47,3.22,3.7,4.84Z"/>
    <path class="cls-29" d="M616.59,286.36c-.6,.75-1.19,1.51-1.79,2.26"/>
  </g>
  <g class="cls-114">
    <path class="cls-1" d="M41.16,353.01c1.12,1.38,2.24,2.76,3.35,4.14-1.76,.2-3.51,.39-5.27,.59-.95,1.45-1.9,2.91-2.84,4.36-.75-1.56-1.49-3.12-2.24-4.69-1.69-.43-3.38-.87-5.07-1.3,1.26-1.18,2.52-2.35,3.78-3.53-.08-1.79-.16-3.58-.24-5.37,1.49,.86,2.98,1.72,4.47,2.58,1.66-.63,3.32-1.26,4.98-1.89-.31,1.7-.61,3.41-.92,5.11Z"/>
    <path class="cls-50" d="M40.62,355.61c-.82,.06-1.63,.11-2.45,.17"/>
  </g>
</svg>