<?xml version="1.0" encoding="UTF-8"?>
<svg id="Layer_1" data-name="Layer 1" xmlns="http://www.w3.org/2000/svg" viewBox="0 0 1296 432">
  <defs>
    <style>
      .cls-1 {
        opacity: .5;
      }

      .cls-2, .cls-3 {
        stroke-width: 3.13px;
      }

      .cls-2, .cls-3, .cls-4, .cls-5, .cls-6, .cls-7 {
        fill: none;
        stroke: #fff;
        stroke-linecap: round;
        stroke-linejoin: round;
      }

      .cls-2, .cls-8 {
        opacity: .3;
      }

      .cls-9 {
        opacity: .75;
      }

      .cls-4 {
        stroke-width: 3.13px;
      }

      .cls-5 {
        stroke-width: 3.08px;
      }

      .cls-6 {
        stroke-width: 3.13px;
      }

      .cls-7 {
        stroke-width: 3.13px;
      }

      .cls-10 {
        opacity: .25;
      }
    </style>
  </defs>
  <g class="cls-1">
    <g>
      <path class="cls-5" d="M318.2,158.49l4.33,.26-.43,7.02-4.33-.26v-.15s4.19,.25,4.19,.25l.19-3.12-2.54-.15v-.15s2.55,.15,2.55,.15l.21-3.45-4.18-.25v-.15Z"/>
      <path class="cls-5" d="M306.13,159.57c.33-1.39,1.1-2.45,2.32-3.2,1.21-.75,2.51-.95,3.9-.62,1.39,.33,2.45,1.11,3.2,2.32,.75,1.22,.96,2.52,.62,3.9-.33,1.38-1.11,2.45-2.32,3.19-1.22,.74-2.52,.95-3.9,.62-1.39-.33-2.45-1.1-3.19-2.32-.74-1.21-.95-2.51-.62-3.89Zm.15,.04c-.32,1.34-.12,2.61,.6,3.78,.72,1.18,1.75,1.93,3.1,2.25,1.35,.32,2.61,.12,3.79-.6,1.18-.72,1.93-1.75,2.25-3.1,.32-1.34,.12-2.6-.61-3.79s-1.76-1.93-3.1-2.26-2.6-.12-3.78,.6c-1.18,.72-1.93,1.76-2.25,3.1Zm4.1-1.97l3.26,.78-1.32,5.5-.15-.04,1.28-5.35-3.11-.75,.04-.15Z"/>
      <path class="cls-5" d="M295.14,154.33c.64-1.28,1.63-2.14,2.97-2.59,1.35-.46,2.66-.37,3.94,.27,1.28,.63,2.14,1.63,2.59,2.98,.46,1.35,.37,2.67-.27,3.94-.63,1.28-1.63,2.14-2.98,2.59-1.35,.45-2.66,.36-3.94-.28-1.28-.63-2.14-1.63-2.59-2.97-.45-1.35-.36-2.66,.27-3.93Zm.14,.07c-.62,1.24-.71,2.51-.27,3.82,.44,1.31,1.28,2.27,2.51,2.89,1.24,.62,2.52,.71,3.83,.27,1.31-.44,2.28-1.28,2.89-2.51,.62-1.24,.7-2.51,.26-3.83-.44-1.31-1.28-2.28-2.52-2.89-1.24-.62-2.51-.7-3.82-.26-1.31,.44-2.27,1.28-2.89,2.52Z"/>
      <path class="cls-5" d="M285.67,146.86c.9-1.1,2.06-1.73,3.47-1.87s2.68,.23,3.78,1.13c1.1,.9,1.73,2.06,1.87,3.48,.15,1.42-.23,2.68-1.13,3.78-.9,1.1-2.06,1.73-3.48,1.87s-2.68-.24-3.78-1.14c-1.1-.9-1.73-2.06-1.87-3.47-.14-1.41,.23-2.67,1.13-3.78Zm.12,.1c-.87,1.07-1.24,2.29-1.1,3.67,.14,1.37,.75,2.5,1.82,3.37,1.07,.87,2.3,1.24,3.67,1.1,1.38-.14,2.5-.74,3.37-1.81,.87-1.07,1.24-2.29,1.1-3.67s-.75-2.51-1.82-3.38c-1.07-.87-2.29-1.24-3.67-1.1-1.37,.14-2.5,.75-3.37,1.82Zm3.93-.39l.12,.1-3.27,4.01,4.99-2.87-1.8,5.47,3.27-4.01,.12,.1-3.77,4.63,1.93-5.87-5.35,3.08,3.78-4.63Z"/>
      <path class="cls-5" d="M278,137.39c1.12-.88,2.39-1.23,3.8-1.06,1.41,.17,2.56,.82,3.43,1.94,.88,1.12,1.23,2.39,1.06,3.81s-.82,2.56-1.94,3.44c-1.12,.88-2.39,1.23-3.8,1.05-1.41-.18-2.56-.83-3.44-1.95-.88-1.12-1.23-2.39-1.06-3.8,.17-1.41,.82-2.56,1.94-3.43Zm.09,.12c-1.09,.85-1.72,1.96-1.89,3.33-.17,1.37,.17,2.6,1.03,3.69,.85,1.09,1.96,1.72,3.34,1.89,1.37,.17,2.6-.17,3.69-1.02s1.72-1.96,1.88-3.34c.17-1.38-.17-2.61-1.02-3.7-.85-1.09-1.96-1.72-3.33-1.88-1.37-.17-2.6,.18-3.69,1.03Z"/>
      <path class="cls-5" d="M274.09,129.77c.86-.44,1.76-.52,2.69-.22,.93,.3,1.61,.88,2.06,1.74,.28,.54,.41,1.12,.39,1.72l2.35,.12v.15s-2.37-.12-2.37-.12c-.04,.6-.23,1.16-.56,1.66-.34,.52-.79,.93-1.34,1.21-.87,.44-1.76,.52-2.68,.22-.92-.29-1.61-.88-2.05-1.74-.28-.54-.41-1.11-.39-1.71l-2.35-.12v-.15s2.37,.12,2.37,.12c.05-.6,.23-1.16,.55-1.66,.33-.52,.78-.93,1.33-1.22Zm-1.75,3.03c-.02,.58,.11,1.13,.37,1.64,.42,.83,1.08,1.38,1.96,1.67,.88,.28,1.74,.21,2.57-.21,.53-.27,.96-.66,1.29-1.16,.31-.49,.49-1.01,.54-1.59l-6.72-.35Zm1.82-2.9c-.53,.27-.96,.66-1.28,1.16-.31,.48-.49,1.01-.53,1.59l6.72,.35c.02-.58-.11-1.13-.37-1.65-.43-.83-1.08-1.38-1.97-1.67-.89-.28-1.74-.21-2.57,.21Z"/>
      <path class="cls-5" d="M263.99,112.37l5.93,1.2-1.11,1.73,7.51,4.69,1.63,7.35-7.61-4.73-1.17,1.81-3.58-4.84,5.93,1.2-1.1,1.71,7.31,4.54-1.54-6.96-7.46-4.65-1.15,1.79-3.58-4.84Zm.36,.23l3.21,4.35,2.11-3.26-5.32-1.09Zm1.59,7.2l3.22,4.34,2.11-3.26-5.32-1.08Z"/>
      <path class="cls-5" d="M267.91,98.76l4.98,10.65,.76-10.18h.15s-.8,10.77-.8,10.77l-5.23-11.17,.14-.07Z"/>
      <path class="cls-5" d="M273.75,87.24c1.36,.43,2.37,1.27,3.03,2.53,.66,1.26,.78,2.57,.35,3.93s-1.27,2.37-2.54,3.03c-1.26,.66-2.57,.78-3.93,.35-1.36-.43-2.37-1.27-3.03-2.54-.66-1.26-.77-2.57-.35-3.93s1.27-2.37,2.53-3.03c1.26-.66,2.57-.78,3.93-.35Zm-.04,.14c-1.32-.41-2.59-.3-3.81,.34-1.22,.64-2.04,1.62-2.45,2.94-.41,1.32-.3,2.6,.34,3.82,.64,1.23,1.62,2.05,2.93,2.46s2.59,.3,3.82-.35c1.23-.64,2.05-1.62,2.46-2.94,.41-1.32,.3-2.59-.34-3.81-.64-1.22-1.62-2.04-2.94-2.46Zm1.68,4.23l-1,3.2-5.39-1.69,.05-.14,5.25,1.64,.96-3.06,.14,.05Z"/>
      <path class="cls-5" d="M280.48,82.04l-.07,.13-5.71-3.07,4.54,5.25-.07,.14-6.88-.9,5.71,3.07-.07,.13-6.07-3.26,.07-.14,7.09,.93-4.68-5.4,.07-.13,6.07,3.26Z"/>
      <path class="cls-5" d="M283.44,68.53l-2.03,11.58,6.46-7.9,.12,.1-6.83,8.35,2.13-12.15,.15,.02Z"/>
      <path class="cls-5" d="M288.27,61.1l1.81,11.9-.15,.02-1.81-11.91,.15-.02Zm3.1-2.42l1.81,11.9-.14,.02-1.81-11.9,.14-.02Z"/>
      <path class="cls-5" d="M305.27,57.38l-9.18,4.36-.06-.14,9.18-4.36,.06,.14Zm-4.14-1.85l-3.85,1.83-.06-.14,3.85-1.83,.07,.14Zm2.95,6.22l-3.85,1.83-.07-.14,3.85-1.83,.07,.14Z"/>
      <path class="cls-5" d="M320.55,50.42l-2.71,7.64-10.18,1.84,2.7-7.64,10.18-1.84Zm-.23,.2l-9.83,1.78-2.6,7.31,9.83-1.78,2.59-7.31Z"/>
      <path class="cls-5" d="M333.35,54.9c-.12,1.42-.72,2.59-1.8,3.51-1.08,.92-2.34,1.32-3.76,1.21s-2.59-.72-3.51-1.81c-.92-1.09-1.33-2.34-1.21-3.76,.12-1.42,.72-2.59,1.81-3.51,1.09-.92,2.34-1.32,3.76-1.2,1.42,.12,2.59,.72,3.51,1.8,.92,1.08,1.32,2.34,1.2,3.76Zm-.15-.01c.11-1.38-.27-2.59-1.17-3.65-.89-1.05-2.03-1.64-3.41-1.75-1.38-.11-2.6,.27-3.65,1.17-1.06,.89-1.64,2.03-1.75,3.4-.11,1.38,.28,2.59,1.17,3.65s2.03,1.64,3.41,1.76,2.59-.28,3.65-1.17c1.05-.89,1.64-2.03,1.75-3.41Zm-3.43,1.57l-.59,.51-.82,.2-1.05-.09-.77-.33-.48-.56,.11-.11,.47,.55,.71,.3,1.01,.08,.75-.18,.52-.44,.06-.72-.2-.5-.22-.26-.48-.29-1.49-.64-.5-.3-.26-.29-.22-.56,.05-.56,.59-.49,.82-.21,1.05,.09,.78,.34,.48,.56-.12,.1-.45-.53-.73-.32-1-.08-.75,.19-.52,.44-.04,.46,.2,.51,.22,.26,.47,.28,1.5,.64,.5,.3,.25,.29,.23,.56-.07,.81Z"/>
      <path class="cls-5" d="M345,58.39c-.43,1.36-1.28,2.36-2.54,3.02s-2.57,.77-3.93,.34-2.36-1.28-3.02-2.55c-.66-1.27-.77-2.58-.34-3.94,.43-1.36,1.28-2.36,2.55-3.01,1.27-.65,2.58-.76,3.94-.33,1.36,.43,2.36,1.28,3.02,2.54,.65,1.26,.76,2.57,.33,3.93Zm-.14-.05c.42-1.32,.31-2.59-.32-3.82-.64-1.23-1.61-2.05-2.93-2.47-1.32-.42-2.59-.31-3.82,.32-1.23,.63-2.05,1.61-2.47,2.92-.42,1.32-.31,2.59,.33,3.82,.64,1.23,1.61,2.06,2.93,2.48,1.32,.42,2.59,.31,3.82-.33,1.23-.64,2.05-1.61,2.47-2.93Zm-3.52,1.81l-.14-.05,1.57-4.93-3.58,4.5-.34-5.75-1.57,4.93-.14-.05,1.81-5.69,.36,6.17,3.85-4.83-1.82,5.7Z"/>
      <path class="cls-5" d="M355.52,64.36c-.72,1.23-1.77,2.02-3.15,2.38-1.38,.36-2.68,.17-3.91-.55-1.23-.72-2.02-1.78-2.38-3.16-.36-1.38-.17-2.69,.55-3.91,.72-1.23,1.77-2.02,3.16-2.37,1.38-.35,2.68-.17,3.91,.56,1.23,.72,2.02,1.77,2.37,3.15s.17,2.68-.55,3.9Zm-.13-.08c.7-1.19,.88-2.46,.54-3.79s-1.11-2.35-2.3-3.06c-1.19-.7-2.46-.88-3.8-.54s-2.36,1.11-3.06,2.3c-.7,1.19-.88,2.46-.53,3.8,.35,1.34,1.12,2.36,2.31,3.07,1.19,.7,2.45,.88,3.79,.53,1.34-.35,2.36-1.12,3.06-2.31Z"/>
      <path class="cls-5" d="M364.47,72.53c-.98,1.04-2.18,1.58-3.6,1.62-1.42,.04-2.65-.42-3.69-1.4-1.04-.98-1.58-2.18-1.62-3.6-.04-1.43,.42-2.66,1.4-3.69,.98-1.04,2.18-1.58,3.6-1.61,1.42-.04,2.65,.43,3.69,1.41,1.04,.98,1.58,2.18,1.62,3.6,.04,1.42-.43,2.65-1.4,3.69Zm-.11-.1c.95-1.01,1.4-2.2,1.36-3.58-.04-1.38-.57-2.54-1.57-3.49-1.01-.95-2.2-1.4-3.58-1.36-1.38,.04-2.55,.56-3.49,1.57-.95,1.01-1.4,2.2-1.36,3.59,.04,1.38,.57,2.55,1.57,3.5,1.01,.95,2.2,1.4,3.58,1.36,1.38-.04,2.55-.57,3.5-1.58Zm-1.08-1.02c-.67,.71-1.49,1.08-2.46,1.11-.97,.03-1.81-.29-2.52-.95-.71-.67-1.08-1.49-1.11-2.46-.03-.97,.29-1.81,.96-2.52,.67-.71,1.48-1.07,2.46-1.1,.97-.03,1.81,.29,2.52,.96,.71,.67,1.08,1.48,1.1,2.45,.03,.97-.29,1.81-.96,2.51Zm-.11-.1c.64-.68,.94-1.48,.92-2.41-.03-.93-.38-1.71-1.06-2.35-.68-.64-1.48-.95-2.41-.92-.93,.03-1.71,.38-2.35,1.05-.64,.68-.94,1.48-.92,2.41,.03,.93,.38,1.72,1.06,2.35,.68,.64,1.48,.94,2.41,.91,.93-.03,1.71-.38,2.35-1.06Z"/>
      <path class="cls-5" d="M371.41,82.45c-1.18,.8-2.47,1.06-3.87,.79-1.4-.27-2.5-1-3.29-2.18s-1.06-2.47-.79-3.87c.27-1.4,1-2.5,2.18-3.29s2.47-1.06,3.87-.78c1.4,.27,2.5,1,3.29,2.19,.8,1.18,1.06,2.47,.79,3.86-.27,1.39-1,2.49-2.18,3.29Zm-.08-.13c1.15-.77,1.85-1.84,2.12-3.19s0-2.6-.76-3.75c-.77-1.15-1.84-1.86-3.2-2.12-1.36-.26-2.61-.01-3.75,.76-1.14,.77-1.85,1.84-2.11,3.2-.26,1.36-.01,2.61,.76,3.76,.77,1.14,1.84,1.85,3.19,2.11,1.36,.26,2.61,0,3.76-.77Zm-4.35-1.33l-1.87-2.78,4.68-3.16,.09,.13-4.56,3.07,1.79,2.66-.13,.08Z"/>
      <path class="cls-5" d="M371.59,92.14l-1.54-3.98,.14-.06,1.54,3.98-.14,.05Zm4.27,1.51l-3.66-9.48,.14-.06,3.66,9.48-.14,.05Zm2.15-3.99l-1.54-3.98,.14-.06,1.54,3.98-.14,.05Z"/>
      <path class="cls-5" d="M377.49,102.2c-.96,.17-1.84-.02-2.63-.58-.8-.55-1.28-1.31-1.45-2.27-.11-.6-.06-1.19,.13-1.76l-2.22-.8,.05-.14,2.22,.81c.22-.56,.56-1.04,1.02-1.42,.48-.4,1.02-.65,1.64-.76,.96-.17,1.83,.02,2.63,.57s1.28,1.31,1.45,2.27c.11,.6,.06,1.18-.13,1.75l2.22,.8-.05,.14-2.22-.81c-.22,.56-.56,1.04-1.02,1.43-.47,.4-1.02,.66-1.63,.77Zm-.03-.15c.59-.11,1.11-.35,1.57-.74,.44-.37,.76-.82,.97-1.36l-6.33-2.31c-.19,.55-.23,1.11-.13,1.68,.16,.92,.63,1.64,1.39,2.17,.76,.53,1.6,.72,2.52,.55Zm2.59-2.24c.19-.55,.23-1.11,.13-1.68-.16-.92-.63-1.64-1.39-2.17-.76-.53-1.6-.71-2.52-.55-.59,.11-1.11,.35-1.57,.73-.44,.37-.77,.83-.98,1.36l6.32,2.3Z"/>
      <path class="cls-5" d="M380.01,114.31l-5.59-10.34-.17,10.21h-.15s.18-10.79,.18-10.79l5.87,10.85-.13,.08Z"/>
      <path class="cls-5" d="M377.45,134.72l-4.52-4.02,1.83-.94-4.14-7.83,2.29-7.18,4.2,7.92,1.92-.97,.66,5.99-4.52-4.02,1.81-.93-4.04-7.6-2.16,6.79,4.12,7.77,1.9-.97,.66,5.98Zm-.2-.38l-.59-5.37-3.46,1.76,4.06,3.61Zm2.24-7.02l-.6-5.37-3.46,1.76,4.06,3.61Z"/>
      <path class="cls-5" d="M364.42,138.29l3.78-5.93,5.93,3.78-3.78,5.93-5.93-3.78Zm.21-.05l5.68,3.62,3.62-5.68-5.68-3.62-3.62,5.68Z"/>
      <path class="cls-5" d="M361.82,146.65c-.73-.64-1.12-1.45-1.18-2.42-.06-.97,.23-1.82,.88-2.55,.4-.46,.89-.79,1.46-.99l-.75-2.24,.14-.05,.74,2.25c.58-.18,1.16-.21,1.75-.08,.61,.13,1.15,.4,1.61,.81,.73,.65,1.12,1.45,1.18,2.42s-.23,1.82-.88,2.54c-.4,.45-.89,.78-1.46,.98l.75,2.24-.14,.05-.74-2.25c-.58,.18-1.16,.2-1.75,.09-.61-.12-1.15-.39-1.62-.8Zm.1-.11c.45,.4,.96,.65,1.55,.77,.56,.11,1.12,.09,1.67-.08l-2.11-6.39c-.55,.2-1.02,.51-1.4,.94-.62,.7-.9,1.51-.84,2.44,.06,.93,.43,1.7,1.13,2.32Zm3.36,.64c.55-.19,1.01-.51,1.39-.94,.62-.7,.9-1.51,.84-2.43-.06-.93-.43-1.7-1.13-2.31-.45-.4-.96-.66-1.55-.78-.56-.12-1.12-.09-1.67,.08l2.12,6.39Z"/>
      <path class="cls-5" d="M346.62,151.93l11.17-8.05,.09,.12-5.53,3.98,6.09,8.45-.12,.09-6.09-8.45-5.52,3.98-.09-.12Z"/>
      <path class="cls-5" d="M338.08,160.58c-.51-1.33-.47-2.65,.11-3.95,.58-1.3,1.54-2.2,2.87-2.71,1.33-.51,2.65-.47,3.95,.11,1.3,.58,2.21,1.54,2.72,2.87,.51,1.33,.47,2.64-.12,3.94-.59,1.3-1.55,2.2-2.88,2.71-1.33,.51-2.64,.47-3.94-.11-1.3-.58-2.2-1.54-2.71-2.87Zm.14-.05c.49,1.29,1.37,2.22,2.63,2.79,1.26,.56,2.53,.6,3.83,.11,1.29-.49,2.22-1.37,2.79-2.63,.57-1.26,.61-2.54,.11-3.83-.49-1.29-1.37-2.22-2.63-2.79-1.27-.57-2.54-.6-3.83-.11-1.29,.49-2.22,1.37-2.78,2.63-.56,1.26-.6,2.54-.11,3.83Zm2.41-2.89l.31-.71,.66-.53,.98-.38,.84-.04,.67,.3-.05,.14-.66-.3-.77,.04-.94,.36-.6,.49-.28,.62,.26,.68,.4,.37,.31,.14,.56,.05,1.62-.07,.58,.06,.36,.15,.44,.41,.2,.53-.32,.7-.65,.54-.98,.37-.85,.03-.67-.3,.07-.14,.64,.28,.79-.03,.94-.36,.6-.5,.28-.62-.16-.43-.4-.37-.31-.14-.55-.05-1.63,.07-.58-.06-.35-.16-.45-.41-.29-.76Z"/>
      <path class="cls-5" d="M326.16,162.45c-.2-1.41,.13-2.68,.99-3.82,.86-1.14,1.99-1.81,3.4-2,1.41-.2,2.69,.13,3.83,.99s1.81,1.99,2.01,3.4c.2,1.41-.13,2.68-.99,3.82-.86,1.13-2,1.8-3.41,2-1.41,.2-2.68-.13-3.82-.99-1.13-.85-1.8-1.99-2-3.4Zm.15-.02c.19,1.37,.84,2.47,1.94,3.3,1.1,.83,2.34,1.15,3.71,.96,1.37-.19,2.47-.84,3.31-1.94,.83-1.1,1.16-2.34,.96-3.71-.19-1.37-.84-2.47-1.95-3.3-1.11-.83-2.34-1.15-3.71-.96-1.37,.19-2.47,.84-3.3,1.94-.83,1.1-1.15,2.34-.96,3.71Z"/>
    </g>
    <path class="cls-5" d="M324,171c-34.74,0-63-28.26-63-63s28.26-63,63-63,63,28.26,63,63-28.26,63-63,63Z"/>
    <path class="cls-5" d="M324,153.84c-25.28,0-45.84-20.56-45.84-45.84s20.56-45.84,45.84-45.84,45.84,20.56,45.84,45.84-20.56,45.84-45.84,45.84Z"/>
    <g>
      <line class="cls-5" x1="291.59" y1="140.41" x2="291.59" y2="75.59"/>
      <line class="cls-5" x1="356.41" y1="75.59" x2="356.41" y2="140.41"/>
      <line class="cls-5" x1="292.63" y1="141.4" x2="356.41" y2="140.41"/>
      <line class="cls-5" x1="291.59" y1="75.59" x2="356.41" y2="75.59"/>
      <line class="cls-5" x1="278.16" y1="108" x2="324" y2="62.16"/>
      <line class="cls-5" x1="369.84" y1="108" x2="324" y2="153.84"/>
      <line class="cls-5" x1="278.2" y1="109.44" x2="324" y2="153.84"/>
      <line class="cls-5" x1="324" y1="62.16" x2="369.84" y2="108"/>
    </g>
  </g>
  <g class="cls-9">
    <circle class="cls-6" cx="540" cy="108" r="99"/>
    <path class="cls-6" d="M540,200.02c-50.74,0-92.02-41.28-92.02-92.02S489.26,15.98,540,15.98s92.02,41.28,92.02,92.02-41.28,92.02-92.02,92.02Z"/>
    <g>
      <path class="cls-6" d="M548.44,32.78l-6.55-.41,.66-10.63,6.55,.41-.02,.23-6.32-.39-.29,4.73,3.85,.24v.23s-3.86-.24-3.86-.24l-.32,5.22,6.32,.39-.02,.23Z"/>
      <path class="cls-6" d="M566.46,31.11c-.5,2.1-1.67,3.71-3.51,4.84-1.83,1.13-3.8,1.44-5.9,.94-2.1-.5-3.71-1.67-4.84-3.51-1.13-1.84-1.44-3.81-.94-5.91,.5-2.1,1.67-3.71,3.51-4.83,1.84-1.12,3.81-1.43,5.91-.93,2.1,.5,3.71,1.67,4.83,3.5,1.13,1.83,1.44,3.8,.93,5.9Zm-.22-.05c.49-2.04,.19-3.94-.91-5.72-1.09-1.78-2.65-2.91-4.69-3.4-2.04-.49-3.95-.19-5.74,.91-1.79,1.09-2.92,2.65-3.41,4.69-.49,2.03-.18,3.94,.92,5.73s2.66,2.93,4.7,3.41c2.03,.49,3.94,.18,5.72-.91,1.78-1.09,2.92-2.66,3.4-4.7Zm-6.21,2.98l-4.94-1.18,1.99-8.32,.22,.05-1.94,8.09,4.71,1.13-.05,.22Z"/>
      <path class="cls-6" d="M582.94,38.98c-.96,1.93-2.46,3.24-4.5,3.93-2.04,.69-4.03,.55-5.96-.41-1.93-.96-3.24-2.46-3.93-4.51s-.55-4.04,.41-5.97c.96-1.93,2.46-3.24,4.51-3.92,2.05-.68,4.03-.54,5.96,.42,1.93,.96,3.24,2.46,3.92,4.5,.68,2.04,.55,4.03-.41,5.95Zm-.2-.1c.93-1.88,1.07-3.8,.4-5.78-.66-1.98-1.93-3.44-3.81-4.37-1.88-.93-3.81-1.07-5.79-.41-1.99,.66-3.44,1.93-4.37,3.8-.93,1.87-1.06,3.8-.4,5.79,.67,1.99,1.94,3.45,3.81,4.38,1.87,.93,3.8,1.06,5.78,.4,1.98-.67,3.44-1.94,4.37-3.81Z"/>
      <path class="cls-6" d="M597.22,50.29c-1.37,1.67-3.12,2.61-5.26,2.83-2.14,.22-4.05-.35-5.72-1.72-1.67-1.37-2.61-3.12-2.83-5.27-.22-2.15,.36-4.06,1.72-5.73s3.12-2.61,5.27-2.82c2.14-.21,4.05,.37,5.72,1.73,1.67,1.37,2.61,3.12,2.82,5.26,.21,2.14-.36,4.05-1.73,5.71Zm-.18-.14c1.33-1.62,1.89-3.47,1.68-5.55-.21-2.08-1.12-3.78-2.74-5.1-1.62-1.33-3.47-1.89-5.56-1.68s-3.79,1.12-5.11,2.73-1.88,3.47-1.67,5.56c.21,2.09,1.13,3.79,2.74,5.12,1.62,1.32,3.47,1.88,5.55,1.67,2.08-.21,3.78-1.13,5.11-2.75Zm-5.95,.58l-.18-.14,4.96-6.06-7.55,4.33,2.73-8.28-4.95,6.06-.18-.14,5.72-7-2.93,8.88,8.11-4.65-5.73,7Z"/>
      <path class="cls-6" d="M608.61,64.4c-1.7,1.33-3.62,1.86-5.76,1.6-2.14-.26-3.87-1.24-5.2-2.94-1.33-1.7-1.86-3.62-1.6-5.76,.26-2.14,1.24-3.88,2.94-5.21,1.7-1.33,3.62-1.86,5.76-1.59,2.14,.27,3.87,1.25,5.2,2.95,1.33,1.7,1.86,3.62,1.6,5.75-.26,2.14-1.24,3.87-2.94,5.19Zm-.14-.18c1.65-1.29,2.6-2.97,2.86-5.04,.25-2.07-.26-3.93-1.55-5.58-1.29-1.65-2.97-2.6-5.05-2.86s-3.94,.26-5.59,1.54c-1.65,1.29-2.6,2.97-2.85,5.05s.26,3.95,1.55,5.6c1.29,1.65,2.97,2.6,5.05,2.85,2.08,.25,3.94-.27,5.59-1.55Z"/>
      <path class="cls-6" d="M614.5,75.93c-1.31,.67-2.67,.78-4.07,.33-1.4-.45-2.44-1.33-3.11-2.64-.42-.82-.62-1.69-.59-2.6l-3.56-.18v-.23s3.58,.19,3.58,.19c.07-.91,.35-1.75,.85-2.51,.51-.79,1.19-1.4,2.04-1.83,1.31-.67,2.66-.78,4.06-.33,1.4,.45,2.43,1.33,3.1,2.64,.42,.82,.61,1.68,.58,2.6l3.56,.18v.23s-3.58-.19-3.58-.19c-.07,.91-.35,1.75-.84,2.52-.51,.79-1.18,1.41-2.02,1.84Zm-.11-.2c.8-.41,1.45-1,1.94-1.76,.47-.73,.74-1.53,.81-2.4l-10.18-.55c-.03,.88,.16,1.71,.56,2.49,.64,1.25,1.63,2.1,2.98,2.53,1.34,.43,2.64,.33,3.89-.32Zm2.76-4.38c.03-.88-.16-1.71-.56-2.48-.64-1.25-1.63-2.09-2.97-2.52-1.34-.43-2.63-.33-3.89,.32-.8,.41-1.45,1-1.95,1.75-.48,.73-.75,1.53-.81,2.4l10.17,.54Z"/>
      <path class="cls-6" d="M629.69,102.11l-8.97-1.83,1.69-2.61-11.36-7.11-2.45-11.13,11.51,7.18,1.78-2.73,5.41,7.34-8.97-1.83,1.67-2.59-11.05-6.89,2.32,10.53,11.28,7.06,1.75-2.71,5.41,7.33Zm-2.94-11.25l-4.86-6.58-3.2,4.93,8.05,1.65Zm2.39,10.9l-4.86-6.59-3.2,4.93,8.05,1.66Z"/>
      <path class="cls-6" d="M623.7,122.49l-7.51-16.13-1.18,15.41-.23-.02,1.24-16.29,7.88,16.92-.21,.1Z"/>
      <path class="cls-6" d="M614.87,139.74c-2.06-.65-3.58-1.93-4.58-3.84-1-1.91-1.17-3.89-.53-5.95,.65-2.06,1.93-3.59,3.84-4.58,1.91-1,3.9-1.17,5.96-.53,2.06,.65,3.58,1.93,4.57,3.84,.99,1.91,1.16,3.9,.51,5.96-.65,2.06-1.93,3.58-3.83,4.57-1.91,.99-3.89,1.17-5.95,.52Zm.07-.22c2,.63,3.92,.46,5.77-.5,1.85-.96,3.09-2.45,3.72-4.44,.63-2,.46-3.93-.5-5.78-.96-1.86-2.44-3.1-4.44-3.73-1.99-.63-3.92-.46-5.78,.51-1.86,.97-3.1,2.45-3.73,4.45-.63,1.99-.46,3.92,.51,5.77,.97,1.85,2.45,3.1,4.45,3.73Zm-2.54-6.41l1.53-4.84,8.16,2.57-.07,.22-7.94-2.5-1.46,4.62-.22-.07Z"/>
      <path class="cls-6" d="M604.74,147.46l.11-.2,8.64,4.67-6.87-7.95,.11-.21,10.42,1.38-8.64-4.67,.11-.2,9.18,4.96-.11,.21-10.73-1.42,7.08,8.19-.11,.2-9.18-4.96Z"/>
      <path class="cls-6" d="M600.3,167.77l3.09-17.52-9.8,11.94-.18-.14,10.36-12.63-3.25,18.38-.23-.03Z"/>
      <path class="cls-6" d="M588.4,182.55l-2.72-18.02,.22-.03,2.72,18.02-.22,.03Zm4.7-3.66l-2.72-18.02,.23-.04,2.71,18.03-.22,.03Z"/>
      <path class="cls-6" d="M567.39,184.44l13.92-6.56,.1,.21-13.92,6.56-.1-.21Zm1.82-6.61l5.84-2.75,.1,.21-5.84,2.75-.1-.21Zm4.44,9.43l5.84-2.75,.1,.21-5.84,2.75-.1-.21Z"/>
      <path class="cls-6" d="M544.54,194.84l4.11-11.56,15.41-2.76-4.11,11.56-15.41,2.76Zm.35-.3l14.88-2.66,3.94-11.06-14.89,2.67-3.94,11.06Z"/>
      <path class="cls-6" d="M525.37,188.01c.18-2.15,1.09-3.92,2.74-5.31,1.64-1.39,3.54-2,5.69-1.82,2.15,.18,3.92,1.1,5.31,2.74,1.39,1.65,2,3.55,1.82,5.7-.18,2.15-1.1,3.92-2.75,5.3-1.65,1.39-3.55,1.99-5.7,1.81-2.15-.18-3.92-1.09-5.3-2.74s-1.99-3.54-1.81-5.69Zm.23,.02c-.18,2.09,.41,3.93,1.76,5.52,1.35,1.6,3.06,2.48,5.15,2.66,2.09,.18,3.93-.41,5.53-1.76,1.6-1.35,2.49-3.07,2.66-5.15s-.41-3.92-1.77-5.53c-1.36-1.6-3.07-2.49-5.16-2.67-2.09-.18-3.92,.41-5.52,1.76-1.6,1.35-2.48,3.07-2.66,5.16Zm5.19-2.36l.89-.77,1.25-.3,1.59,.13,1.17,.5,.72,.85-.17,.16-.71-.84-1.07-.45-1.52-.13-1.14,.27-.79,.66-.09,1.09,.3,.76,.33,.4,.73,.44,2.25,.97,.76,.46,.39,.45,.33,.86-.07,.85-.89,.75-1.24,.31-1.59-.13-1.18-.52-.72-.85,.18-.14,.68,.81,1.09,.48,1.51,.13,1.14-.29,.78-.66,.06-.69-.31-.77-.33-.4-.71-.43-2.27-.98-.76-.46-.37-.44-.34-.86,.1-1.23Z"/>
      <path class="cls-6" d="M507.93,182.74c.66-2.05,1.94-3.58,3.86-4.56,1.91-.99,3.9-1.15,5.95-.5,2.05,.66,3.58,1.95,4.57,3.86,.99,1.92,1.16,3.91,.5,5.96-.66,2.05-1.95,3.57-3.87,4.55-1.92,.98-3.91,1.15-5.96,.49-2.05-.66-3.57-1.94-4.56-3.85-.99-1.91-1.15-3.9-.49-5.95Zm.22,.07c-.64,1.99-.48,3.92,.48,5.78,.96,1.86,2.43,3.1,4.42,3.74,2,.64,3.92,.48,5.79-.48,1.86-.96,3.11-2.43,3.75-4.42,.64-1.99,.48-3.92-.49-5.78-.96-1.87-2.44-3.12-4.43-3.75-1.99-.64-3.92-.48-5.77,.48-1.86,.96-3.11,2.44-3.75,4.43Zm5.33-2.73l.22,.07-2.39,7.45,5.44-6.8,.49,8.7,2.39-7.45,.22,.07-2.76,8.61-.53-9.34-5.84,7.31,2.76-8.62Z"/>
      <path class="cls-6" d="M492.17,173.74c1.1-1.85,2.69-3.05,4.78-3.59,2.09-.54,4.06-.26,5.91,.84,1.86,1.1,3.05,2.69,3.59,4.78s.26,4.07-.84,5.92c-1.1,1.85-2.69,3.05-4.78,3.58-2.09,.53-4.06,.25-5.92-.85-1.85-1.1-3.05-2.69-3.58-4.77-.54-2.08-.25-4.05,.85-5.91Zm.2,.12c-1.07,1.8-1.34,3.71-.82,5.74,.52,2.02,1.68,3.57,3.48,4.63,1.8,1.07,3.72,1.34,5.75,.83,2.03-.52,3.57-1.68,4.64-3.47,1.06-1.8,1.33-3.71,.81-5.75-.52-2.03-1.68-3.58-3.48-4.65-1.8-1.07-3.71-1.34-5.74-.81-2.03,.52-3.57,1.68-4.64,3.48Z"/>
      <path class="cls-6" d="M478.69,161.38c1.48-1.57,3.3-2.38,5.46-2.44,2.15-.06,4.01,.65,5.58,2.13s2.38,3.3,2.44,5.46-.65,4.02-2.14,5.59-3.3,2.37-5.46,2.43c-2.16,.05-4.02-.66-5.58-2.15s-2.38-3.3-2.43-5.45c-.06-2.15,.65-4.01,2.14-5.57Zm.17,.16c-1.44,1.52-2.13,3.32-2.07,5.41,.06,2.09,.84,3.85,2.36,5.29,1.52,1.44,3.33,2.14,5.42,2.08,2.09-.05,3.86-.84,5.3-2.35,1.44-1.52,2.13-3.32,2.07-5.42-.06-2.1-.85-3.86-2.36-5.3-1.52-1.44-3.32-2.13-5.41-2.07-2.09,.06-3.86,.85-5.3,2.37Zm1.63,1.55c1.01-1.07,2.26-1.62,3.73-1.66,1.47-.04,2.74,.44,3.81,1.45,1.07,1.01,1.62,2.26,1.66,3.73,.04,1.47-.45,2.74-1.46,3.81-1.01,1.07-2.25,1.62-3.72,1.66-1.47,.04-2.74-.45-3.81-1.46-1.07-1.01-1.62-2.25-1.66-3.72-.04-1.47,.45-2.73,1.46-3.8Zm.17,.16c-.97,1.02-1.44,2.24-1.4,3.64,.04,1.4,.57,2.59,1.59,3.56,1.02,.97,2.24,1.44,3.64,1.4,1.41-.03,2.59-.56,3.56-1.58,.97-1.02,1.43-2.24,1.4-3.65-.04-1.41-.57-2.6-1.59-3.57-1.02-.97-2.24-1.43-3.64-1.39-1.41,.04-2.59,.57-3.56,1.59Z"/>
      <path class="cls-6" d="M468.36,146.45c1.79-1.2,3.74-1.59,5.86-1.18,2.12,.41,3.77,1.52,4.97,3.31,1.2,1.79,1.59,3.75,1.17,5.87-.42,2.12-1.52,3.78-3.31,4.98-1.79,1.2-3.75,1.59-5.86,1.16-2.11-.42-3.77-1.53-4.97-3.32-1.2-1.79-1.59-3.74-1.17-5.85s1.52-3.77,3.31-4.97Zm.13,.19c-1.74,1.16-2.81,2.77-3.22,4.82-.41,2.05-.03,3.94,1.14,5.68,1.17,1.74,2.78,2.82,4.83,3.23,2.05,.41,3.95,.03,5.68-1.13,1.74-1.16,2.81-2.77,3.21-4.83,.41-2.06,.03-3.96-1.14-5.69-1.16-1.74-2.77-2.81-4.82-3.21-2.05-.4-3.95-.02-5.69,1.14Zm6.58,2.03l2.82,4.22-7.11,4.76-.13-.19,6.92-4.63-2.7-4.03,.19-.13Z"/>
      <path class="cls-6" d="M458.46,135.67l2.31,6.03-.21,.08-2.31-6.03,.21-.08Zm3.27-6.04l5.5,14.37-.21,.08-5.5-14.37,.21-.08Zm6.46,2.31l2.31,6.03-.21,.08-2.31-6.03,.21-.08Z"/>
      <path class="cls-6" d="M459.35,116.81c1.45-.26,2.78,.04,3.98,.88,1.21,.85,1.93,1.99,2.19,3.44,.16,.91,.09,1.8-.21,2.66l3.35,1.23-.07,.22-3.36-1.24c-.33,.85-.85,1.57-1.55,2.15-.72,.6-1.55,.98-2.48,1.15-1.45,.26-2.78-.04-3.98-.88-1.2-.84-1.93-1.99-2.18-3.44-.16-.91-.09-1.79,.21-2.65l-3.35-1.22,.08-.22,3.36,1.24c.34-.85,.85-1.57,1.55-2.16,.72-.61,1.54-1,2.48-1.16Zm-3.89,3.6c-.28,.83-.35,1.68-.2,2.54,.24,1.39,.94,2.48,2.09,3.29,1.15,.81,2.42,1.09,3.81,.84,.89-.16,1.68-.52,2.38-1.1,.67-.56,1.17-1.25,1.49-2.05l-9.56-3.52Zm3.93-3.37c-.89,.16-1.68,.53-2.37,1.1-.66,.56-1.16,1.24-1.48,2.06l9.56,3.53c.28-.83,.35-1.68,.2-2.55-.24-1.39-.94-2.49-2.1-3.3-1.15-.81-2.42-1.09-3.81-.85Z"/>
      <path class="cls-6" d="M455.59,98.5l8.45,15.66,.27-15.45h.23s-.29,16.34-.29,16.34l-8.87-16.43,.2-.12Z"/>
      <path class="cls-6" d="M459.53,67.96l6.83,6.1-2.77,1.41,6.23,11.87-3.49,10.85-6.32-12-2.92,1.46-.98-9.06,6.83,6.1-2.74,1.4,6.08,11.52,3.31-10.26-6.19-11.78-2.88,1.46-.98-9.06Zm-3.12,11.2l.88,8.13,5.24-2.65-6.12-5.48Zm3.42-10.62l.88,8.14,5.25-2.65-6.12-5.49Z"/>
      <path class="cls-6" d="M479.26,62.72l-5.77,8.96-8.96-5.77,5.77-8.96,8.95,5.77Zm-.32,.07l-8.57-5.52-5.52,8.57,8.57,5.52,5.52-8.57Z"/>
      <path class="cls-6" d="M483.18,50.18c1.1,.98,1.69,2.21,1.77,3.68,.08,1.47-.36,2.75-1.35,3.85-.61,.69-1.35,1.18-2.21,1.48l1.11,3.39-.21,.08-1.11-3.4c-.87,.27-1.76,.3-2.65,.11-.92-.2-1.73-.61-2.44-1.24-1.1-.98-1.69-2.2-1.77-3.67-.08-1.46,.37-2.74,1.35-3.84,.61-.69,1.35-1.18,2.21-1.48l-1.11-3.39,.22-.08,1.11,3.4c.88-.26,1.76-.3,2.65-.12,.92,.19,1.74,.59,2.44,1.23Zm-5.23-.83c-.83,.29-1.53,.76-2.12,1.41-.94,1.05-1.37,2.28-1.29,3.68,.08,1.4,.64,2.57,1.69,3.51,.68,.6,1.45,1,2.34,1.19,.86,.18,1.7,.14,2.53-.1l-3.16-9.69Zm5.08,1c-.68-.6-1.45-1-2.34-1.18-.85-.18-1.69-.14-2.53,.11l3.15,9.69c.83-.29,1.54-.77,2.12-1.42,.94-1.05,1.37-2.28,1.29-3.69-.08-1.41-.64-2.58-1.69-3.52Z"/>
      <path class="cls-6" d="M506.09,42.4l-16.96,12.11-.13-.19,8.39-5.99-9.16-12.83,.19-.13,9.16,12.83,8.39-5.99,.13,.19Z"/>
      <path class="cls-6" d="M518.8,29.49c.76,2.02,.7,4.01-.18,5.97-.88,1.96-2.34,3.33-4.35,4.09-2.02,.76-4.01,.7-5.98-.19-1.97-.89-3.33-2.34-4.1-4.36-.76-2.02-.7-4.01,.2-5.97,.89-1.96,2.35-3.32,4.36-4.09,2.02-.76,4.01-.7,5.97,.19,1.96,.89,3.32,2.34,4.08,4.36Zm-.21,.08c-.74-1.96-2.06-3.37-3.96-4.23-1.9-.86-3.83-.92-5.79-.18-1.96,.74-3.37,2.06-4.24,3.97-.86,1.91-.93,3.84-.19,5.79,.74,1.96,2.06,3.36,3.98,4.23,1.91,.86,3.85,.93,5.8,.19,1.96-.74,3.37-2.06,4.22-3.97,.86-1.91,.92-3.84,.18-5.8Zm-3.67,4.37l-.48,1.07-1,.81-1.49,.56-1.27,.05-1.02-.46,.08-.21,1,.45,1.16-.05,1.43-.54,.92-.74,.42-.94-.39-1.02-.6-.56-.47-.22-.85-.08-2.45,.1-.88-.09-.55-.24-.67-.63-.3-.8,.48-1.06,.98-.81,1.49-.56,1.29-.04,1.02,.46-.1,.21-.96-.44-1.2,.04-1.42,.54-.91,.75-.42,.94,.24,.65,.61,.56,.47,.22,.83,.08,2.47-.09,.88,.09,.53,.24,.68,.62,.43,1.15Z"/>
      <path class="cls-6" d="M536.81,26.76c.29,2.14-.22,4.06-1.52,5.78-1.3,1.72-3.02,2.72-5.16,3.01-2.14,.29-4.06-.22-5.78-1.53-1.72-1.31-2.72-3.03-3.01-5.17-.29-2.14,.22-4.06,1.53-5.77,1.31-1.71,3.03-2.71,5.17-3,2.14-.29,4.06,.22,5.77,1.52,1.71,1.3,2.71,3.02,3,5.16Zm-.23,.03c-.28-2.08-1.25-3.75-2.92-5.01-1.66-1.26-3.53-1.76-5.6-1.47-2.08,.28-3.75,1.25-5.02,2.92-1.27,1.66-1.76,3.53-1.48,5.6,.28,2.07,1.26,3.74,2.93,5.01,1.67,1.27,3.54,1.77,5.61,1.48,2.07-.28,3.74-1.25,5.01-2.92,1.26-1.67,1.76-3.54,1.48-5.61Z"/>
    </g>
    <g>
      <path class="cls-6" d="M534.1,159.36l4.41,.27-.43,7.14-4.4-.27v-.15s4.26,.26,4.26,.26l.19-3.18-2.59-.16v-.15s2.6,.16,2.6,.16l.21-3.51-4.25-.26v-.15Z"/>
      <path class="cls-6" d="M521.82,160.46c.34-1.41,1.12-2.49,2.36-3.25,1.23-.76,2.56-.97,3.96-.63,1.41,.34,2.49,1.13,3.25,2.36,.76,1.24,.97,2.56,.63,3.97-.34,1.41-1.13,2.49-2.36,3.25-1.24,.75-2.56,.96-3.97,.63-1.41-.34-2.49-1.12-3.25-2.36-.76-1.23-.96-2.55-.63-3.96Zm.15,.04c-.33,1.37-.13,2.65,.61,3.85,.73,1.2,1.78,1.96,3.15,2.29,1.37,.33,2.65,.13,3.85-.61,1.2-.73,1.96-1.78,2.29-3.15,.33-1.37,.12-2.65-.62-3.85s-1.79-1.97-3.16-2.29-2.65-.12-3.85,.61c-1.2,.74-1.96,1.79-2.29,3.16Zm4.17-2l3.32,.8-1.34,5.59-.15-.04,1.3-5.44-3.17-.76,.04-.15Z"/>
      <path class="cls-6" d="M510.64,155.13c.65-1.3,1.66-2.18,3.03-2.64,1.37-.46,2.71-.37,4,.27,1.3,.64,2.18,1.66,2.64,3.03,.46,1.38,.37,2.71-.27,4.01-.64,1.3-1.66,2.17-3.03,2.63-1.37,.46-2.71,.36-4.01-.28-1.3-.64-2.18-1.65-2.64-3.02-.46-1.37-.37-2.7,.28-4Zm.14,.07c-.63,1.26-.72,2.56-.27,3.89,.45,1.33,1.3,2.31,2.56,2.94,1.26,.63,2.56,.72,3.89,.27,1.33-.44,2.32-1.3,2.94-2.55,.63-1.26,.71-2.55,.26-3.89-.45-1.34-1.3-2.32-2.56-2.94-1.26-.63-2.55-.71-3.89-.27-1.33,.45-2.31,1.3-2.94,2.56Z"/>
      <path class="cls-6" d="M501,147.53c.92-1.12,2.09-1.76,3.53-1.91s2.72,.24,3.84,1.15c1.12,.92,1.76,2.1,1.91,3.54,.15,1.44-.24,2.73-1.15,3.85-.92,1.12-2.09,1.76-3.54,1.9s-2.72-.24-3.85-1.16c-1.12-.92-1.76-2.09-1.9-3.53-.15-1.44,.24-2.72,1.15-3.84Zm.12,.1c-.89,1.09-1.26,2.33-1.12,3.73,.14,1.4,.76,2.54,1.85,3.43,1.09,.89,2.34,1.26,3.74,1.12,1.4-.14,2.54-.75,3.43-1.84,.89-1.09,1.26-2.33,1.12-3.74s-.76-2.55-1.85-3.44c-1.09-.89-2.33-1.26-3.73-1.12-1.4,.14-2.54,.76-3.43,1.85Zm4-.4l.12,.1-3.32,4.07,5.07-2.92-1.83,5.56,3.32-4.08,.12,.1-3.84,4.71,1.96-5.97-5.45,3.14,3.84-4.71Z"/>
      <path class="cls-6" d="M493.21,137.9c1.14-.89,2.43-1.25,3.87-1.08,1.44,.17,2.6,.83,3.49,1.97,.89,1.14,1.25,2.43,1.08,3.87s-.84,2.61-1.98,3.5c-1.14,.89-2.43,1.25-3.87,1.07-1.44-.18-2.6-.84-3.49-1.98-.89-1.14-1.25-2.43-1.07-3.86,.18-1.44,.83-2.6,1.98-3.49Zm.1,.12c-1.11,.87-1.75,2-1.92,3.39-.17,1.39,.18,2.64,1.04,3.75,.87,1.11,2,1.75,3.39,1.92,1.4,.17,2.65-.17,3.75-1.04s1.75-2,1.92-3.4c.17-1.4-.18-2.65-1.04-3.76-.86-1.11-1.99-1.75-3.39-1.92-1.39-.17-2.65,.18-3.76,1.05Z"/>
      <path class="cls-6" d="M489.23,130.14c.88-.45,1.79-.53,2.73-.23,.94,.3,1.64,.89,2.09,1.77,.28,.55,.42,1.14,.4,1.75l2.4,.12v.15s-2.41-.12-2.41-.12c-.04,.61-.24,1.18-.57,1.69-.35,.53-.8,.94-1.37,1.23-.88,.45-1.79,.53-2.73,.23-.94-.3-1.63-.89-2.09-1.77-.28-.55-.41-1.13-.4-1.74l-2.4-.12v-.15s2.41,.12,2.41,.12c.05-.61,.23-1.18,.56-1.69,.34-.53,.79-.95,1.36-1.24Zm-1.78,3.08c-.02,.59,.11,1.15,.38,1.67,.43,.84,1.1,1.4,2,1.69,.9,.29,1.77,.22,2.61-.22,.54-.28,.98-.67,1.31-1.18,.32-.49,.5-1.03,.55-1.61l-6.84-.35Zm1.85-2.95c-.54,.28-.98,.67-1.3,1.18-.32,.49-.5,1.03-.54,1.62l6.84,.36c.02-.59-.11-1.15-.38-1.67-.43-.84-1.1-1.41-2-1.7-.9-.29-1.77-.22-2.62,.21Z"/>
      <path class="cls-6" d="M478.95,112.45l6.03,1.22-1.13,1.76,7.64,4.77,1.66,7.48-7.74-4.82-1.2,1.84-3.64-4.93,6.03,1.22-1.12,1.74,7.44,4.62-1.57-7.08-7.59-4.73-1.17,1.82-3.64-4.92Zm.37,.23l3.27,4.42,2.15-3.32-5.42-1.1Zm1.62,7.32l3.27,4.42,2.14-3.32-5.41-1.1Z"/>
      <path class="cls-6" d="M482.95,98.6l5.07,10.83,.77-10.36h.15s-.82,10.96-.82,10.96l-5.32-11.36,.14-.07Z"/>
      <path class="cls-6" d="M488.88,86.88c1.38,.43,2.41,1.29,3.08,2.57,.67,1.28,.79,2.62,.36,4s-1.29,2.41-2.58,3.08c-1.29,.67-2.62,.79-4,.36-1.38-.43-2.41-1.29-3.08-2.58-.67-1.29-.79-2.62-.35-4,.43-1.38,1.29-2.41,2.57-3.08,1.28-.67,2.61-.79,3.99-.36Zm-.04,.15c-1.34-.42-2.64-.31-3.88,.35-1.24,.65-2.08,1.65-2.5,2.99-.42,1.35-.31,2.64,.34,3.89,.65,1.25,1.65,2.08,2.99,2.5s2.64,.3,3.89-.35c1.25-.65,2.08-1.65,2.5-2.99,.42-1.34,.3-2.63-.35-3.88-.65-1.24-1.65-2.08-2.99-2.5Zm1.71,4.3l-1.02,3.26-5.48-1.72,.05-.15,5.34,1.67,.98-3.11,.15,.05Z"/>
      <path class="cls-6" d="M495.73,81.59l-.07,.13-5.81-3.13,4.62,5.34-.08,.14-7-.91,5.81,3.13-.07,.13-6.17-3.32,.07-.14,7.21,.95-4.76-5.5,.08-.14,6.17,3.32Z"/>
      <path class="cls-6" d="M498.74,67.85l-2.06,11.78,6.58-8.04,.12,.1-6.95,8.5,2.17-12.36,.16,.02Z"/>
      <path class="cls-6" d="M503.65,60.3l1.84,12.11-.15,.02-1.84-12.11,.15-.02Zm3.15-2.47l1.84,12.11-.15,.02-1.84-12.11,.15-.02Z"/>
      <path class="cls-6" d="M520.94,56.5l-9.34,4.44-.06-.14,9.34-4.44,.06,.14Zm-4.21-1.88l-3.92,1.86-.06-.14,3.92-1.86,.07,.14Zm3.01,6.33l-3.92,1.86-.07-.14,3.92-1.86,.07,.14Z"/>
      <path class="cls-6" d="M536.49,49.42l-2.75,7.77-10.36,1.87,2.75-7.77,10.36-1.87Zm-.24,.2l-10,1.81-2.64,7.44,10-1.81,2.64-7.44Z"/>
      <path class="cls-6" d="M549.52,53.99c-.12,1.44-.73,2.64-1.83,3.57-1.1,.94-2.38,1.35-3.82,1.23s-2.64-.73-3.58-1.84c-.94-1.11-1.35-2.38-1.23-3.83,.12-1.44,.73-2.63,1.84-3.57,1.11-.93,2.38-1.34,3.83-1.22,1.44,.12,2.63,.73,3.57,1.83,.93,1.1,1.34,2.38,1.22,3.82Zm-.15-.01c.12-1.4-.28-2.64-1.19-3.71-.91-1.07-2.06-1.66-3.46-1.78-1.4-.12-2.64,.28-3.72,1.19-1.07,.91-1.67,2.06-1.78,3.46-.12,1.4,.28,2.64,1.19,3.71s2.07,1.67,3.47,1.79,2.64-.28,3.71-1.19c1.07-.91,1.67-2.06,1.78-3.47Zm-3.48,1.59l-.6,.51-.84,.2-1.07-.09-.78-.34-.49-.57,.11-.11,.48,.56,.72,.3,1.02,.09,.77-.18,.53-.45,.06-.73-.2-.51-.22-.27-.49-.29-1.52-.65-.51-.31-.26-.3-.22-.57,.05-.57,.6-.5,.83-.21,1.07,.09,.79,.34,.48,.57-.12,.1-.46-.54-.74-.32-1.02-.08-.77,.19-.53,.45-.04,.47,.21,.52,.22,.27,.48,.29,1.52,.65,.51,.31,.25,.3,.23,.57-.07,.83Z"/>
      <path class="cls-6" d="M561.36,57.53c-.44,1.38-1.3,2.41-2.59,3.07s-2.62,.78-4,.34-2.41-1.3-3.07-2.59c-.67-1.29-.78-2.62-.34-4,.44-1.38,1.3-2.4,2.59-3.07,1.29-.66,2.62-.77,4-.33,1.38,.44,2.4,1.3,3.07,2.59,.66,1.29,.78,2.62,.34,4Zm-.14-.05c.43-1.34,.32-2.64-.33-3.88-.65-1.25-1.64-2.08-2.98-2.51-1.34-.43-2.64-.32-3.89,.33-1.25,.64-2.09,1.64-2.52,2.97-.43,1.34-.31,2.63,.33,3.89,.65,1.25,1.64,2.09,2.98,2.52,1.34,.43,2.63,.32,3.88-.33,1.25-.65,2.09-1.64,2.51-2.98Zm-3.58,1.84l-.15-.05,1.6-5.01-3.65,4.58-.34-5.85-1.6,5.01-.15-.05,1.84-5.79,.37,6.27,3.92-4.92-1.85,5.79Z"/>
      <path class="cls-6" d="M572.06,63.61c-.74,1.25-1.81,2.05-3.21,2.42-1.4,.36-2.73,.18-3.98-.56-1.25-.74-2.05-1.81-2.42-3.21-.36-1.4-.18-2.73,.56-3.98,.74-1.25,1.81-2.05,3.21-2.41,1.4-.36,2.73-.17,3.98,.57,1.25,.74,2.05,1.81,2.41,3.21s.17,2.72-.56,3.97Zm-.13-.08c.71-1.21,.9-2.5,.55-3.86s-1.13-2.4-2.34-3.11c-1.21-.72-2.5-.9-3.86-.55s-2.4,1.13-3.11,2.34c-.71,1.21-.9,2.5-.54,3.86,.35,1.36,1.14,2.4,2.35,3.12,1.21,.71,2.5,.9,3.86,.54,1.36-.35,2.4-1.14,3.11-2.35Z"/>
      <path class="cls-6" d="M581.17,71.92c-.99,1.06-2.21,1.6-3.66,1.65-1.45,.04-2.7-.43-3.75-1.42-1.05-.99-1.6-2.21-1.65-3.67-.04-1.45,.43-2.7,1.43-3.76,.99-1.06,2.21-1.6,3.66-1.64,1.45-.04,2.7,.44,3.75,1.43,1.06,.99,1.6,2.21,1.65,3.66,.04,1.44-.43,2.69-1.43,3.75Zm-.11-.11c.96-1.02,1.43-2.24,1.38-3.64-.04-1.4-.58-2.59-1.6-3.55-1.02-.96-2.24-1.43-3.65-1.39-1.41,.04-2.59,.57-3.55,1.59-.96,1.02-1.42,2.24-1.38,3.65,.04,1.41,.58,2.59,1.6,3.56,1.02,.96,2.24,1.42,3.64,1.38,1.41-.04,2.59-.58,3.56-1.6Zm-1.1-1.04c-.68,.72-1.51,1.1-2.5,1.13-.99,.03-1.84-.29-2.56-.97-.72-.68-1.1-1.51-1.13-2.5-.03-.99,.29-1.84,.97-2.56,.68-.72,1.51-1.09,2.5-1.12,.99-.03,1.84,.3,2.56,.98,.72,.68,1.09,1.51,1.12,2.5,.03,.98-.29,1.84-.97,2.56Zm-.11-.11c.65-.69,.96-1.5,.93-2.45-.03-.94-.39-1.74-1.08-2.39-.69-.65-1.51-.96-2.45-.93-.94,.03-1.74,.38-2.39,1.07-.65,.69-.96,1.51-.93,2.45,.03,.95,.39,1.75,1.08,2.4,.69,.65,1.51,.96,2.45,.93,.94-.03,1.74-.39,2.39-1.08Z"/>
      <path class="cls-6" d="M588.22,82.01c-1.2,.81-2.51,1.08-3.93,.8-1.42-.27-2.54-1.01-3.35-2.21s-1.08-2.51-.8-3.94c.28-1.42,1.01-2.54,2.22-3.35s2.51-1.07,3.93-.79c1.42,.28,2.54,1.02,3.35,2.22,.81,1.2,1.08,2.51,.8,3.93-.28,1.42-1.01,2.53-2.22,3.34Zm-.09-.13c1.17-.79,1.88-1.87,2.15-3.25s0-2.65-.78-3.82c-.79-1.17-1.87-1.89-3.25-2.16-1.38-.27-2.65-.01-3.82,.77-1.16,.78-1.88,1.87-2.15,3.25-.27,1.38-.01,2.66,.78,3.83,.79,1.16,1.87,1.88,3.25,2.15,1.38,.27,2.65,0,3.82-.78Zm-4.43-1.35l-1.91-2.83,4.76-3.21,.09,.13-4.64,3.13,1.82,2.7-.13,.09Z"/>
      <path class="cls-6" d="M588.41,91.86l-1.56-4.05,.14-.06,1.56,4.05-.14,.05Zm4.35,1.54l-3.73-9.65,.14-.06,3.73,9.65-.14,.05Zm2.19-4.06l-1.56-4.05,.14-.06,1.56,4.05-.14,.05Z"/>
      <path class="cls-6" d="M594.41,102.1c-.98,.18-1.87-.02-2.68-.59-.81-.56-1.31-1.33-1.48-2.31-.11-.61-.06-1.21,.13-1.79l-2.25-.82,.05-.14,2.26,.82c.22-.57,.57-1.06,1.04-1.45,.48-.4,1.04-.66,1.67-.78,.97-.17,1.87,.02,2.67,.58s1.3,1.33,1.47,2.3c.11,.61,.06,1.2-.13,1.78l2.26,.82-.05,.14-2.26-.82c-.23,.57-.57,1.06-1.03,1.45-.48,.41-1.03,.67-1.66,.78Zm-.03-.15c.6-.11,1.13-.36,1.59-.75,.45-.38,.78-.84,.99-1.39l-6.43-2.35c-.19,.56-.23,1.13-.13,1.71,.17,.93,.64,1.67,1.42,2.21,.78,.54,1.63,.73,2.56,.56Zm2.63-2.27c.19-.56,.23-1.13,.13-1.7-.17-.93-.64-1.67-1.41-2.21-.78-.54-1.63-.73-2.56-.56-.6,.11-1.13,.35-1.6,.74-.45,.38-.78,.84-1,1.38l6.43,2.34Z"/>
      <path class="cls-6" d="M596.97,114.42l-5.69-10.52-.17,10.38h-.15s.18-10.98,.18-10.98l5.97,11.04-.14,.08Z"/>
      <path class="cls-6" d="M594.37,135.18l-4.6-4.08,1.86-.95-4.21-7.96,2.33-7.3,4.27,8.05,1.96-.99,.68,6.09-4.6-4.09,1.84-.94-4.11-7.73-2.2,6.9,4.19,7.9,1.93-.99,.68,6.09Zm-.2-.39l-.61-5.47-3.52,1.79,4.13,3.68Zm2.28-7.14l-.61-5.46-3.52,1.79,4.13,3.67Z"/>
      <path class="cls-6" d="M581.12,138.81l3.85-6.04,6.04,3.85-3.85,6.04-6.04-3.85Zm.21-.05l5.78,3.68,3.68-5.78-5.78-3.68-3.68,5.78Z"/>
      <path class="cls-6" d="M578.47,147.31c-.74-.65-1.14-1.48-1.2-2.47-.06-.99,.24-1.85,.9-2.59,.41-.46,.91-.8,1.48-1l-.76-2.27,.14-.05,.76,2.29c.59-.18,1.18-.21,1.78-.08,.62,.13,1.17,.41,1.64,.83,.74,.66,1.14,1.47,1.2,2.46s-.24,1.85-.89,2.59c-.41,.46-.9,.79-1.48,1l.76,2.28-.14,.05-.76-2.28c-.59,.18-1.18,.21-1.78,.09-.62-.12-1.17-.4-1.65-.82Zm.1-.11c.46,.4,.98,.66,1.57,.78,.57,.12,1.14,.09,1.7-.08l-2.15-6.5c-.56,.2-1.03,.52-1.42,.96-.63,.71-.91,1.54-.85,2.48,.06,.95,.44,1.73,1.15,2.36Zm3.42,.65c.56-.2,1.03-.52,1.42-.95,.63-.71,.91-1.53,.85-2.48-.06-.94-.44-1.73-1.15-2.35-.46-.4-.98-.67-1.57-.79-.57-.12-1.14-.09-1.7,.08l2.15,6.5Z"/>
      <path class="cls-6" d="M563.01,152.69l11.37-8.19,.09,.12-5.62,4.05,6.2,8.6-.12,.09-6.2-8.6-5.62,4.05-.09-.12Z"/>
      <path class="cls-6" d="M554.32,161.48c-.52-1.35-.48-2.69,.11-4.01,.59-1.32,1.56-2.24,2.92-2.76,1.36-.52,2.69-.48,4.02,.12,1.33,.59,2.25,1.57,2.76,2.92,.51,1.35,.48,2.69-.12,4.01-.6,1.32-1.57,2.24-2.93,2.76-1.35,.52-2.69,.48-4.01-.11-1.32-.59-2.24-1.57-2.75-2.92Zm.14-.05c.5,1.31,1.39,2.26,2.67,2.83,1.28,.57,2.58,.61,3.89,.11,1.32-.5,2.26-1.39,2.84-2.68,.58-1.28,.62-2.58,.12-3.89-.5-1.31-1.39-2.26-2.68-2.83-1.29-.58-2.59-.61-3.9-.11-1.31,.5-2.26,1.39-2.83,2.68-.57,1.28-.61,2.58-.11,3.9Zm2.45-2.94l.32-.72,.67-.54,1-.38,.85-.04,.69,.31-.05,.14-.67-.3-.78,.04-.96,.36-.61,.5-.28,.63,.26,.69,.41,.37,.31,.14,.57,.05,1.65-.07,.59,.06,.37,.16,.45,.42,.2,.54-.32,.71-.66,.55-1,.38-.86,.03-.69-.31,.07-.14,.65,.29,.8-.03,.95-.36,.61-.51,.28-.63-.16-.43-.41-.38-.31-.14-.56-.05-1.66,.07-.59-.06-.35-.16-.46-.42-.29-.77Z"/>
      <path class="cls-6" d="M542.2,163.38c-.2-1.44,.13-2.73,1-3.89,.87-1.16,2.02-1.84,3.46-2.04,1.44-.2,2.73,.13,3.89,1.01s1.84,2.03,2.04,3.46c.2,1.43-.13,2.73-1.01,3.89-.88,1.15-2.03,1.83-3.47,2.03-1.43,.2-2.73-.13-3.88-1-1.15-.87-1.83-2.02-2.03-3.46Zm.15-.02c.2,1.39,.85,2.51,1.98,3.36,1.12,.84,2.38,1.17,3.77,.97,1.39-.2,2.52-.86,3.36-1.98,.85-1.12,1.18-2.38,.98-3.77-.19-1.39-.86-2.51-1.98-3.36-1.13-.85-2.39-1.17-3.78-.98-1.39,.19-2.51,.85-3.36,1.98-.85,1.12-1.17,2.38-.98,3.78Z"/>
    </g>
    <path class="cls-6" d="M540,179.07c-39.19,0-71.07-31.88-71.07-71.07s31.88-71.07,71.07-71.07,71.07,31.88,71.07,71.07-31.88,71.07-71.07,71.07Z"/>
    <path class="cls-6" d="M540,172.09c-35.34,0-64.09-28.75-64.09-64.09s28.75-64.08,64.09-64.08,64.08,28.75,64.08,64.08-28.75,64.09-64.08,64.09Z"/>
    <path class="cls-6" d="M540,154.63c-25.71,0-46.63-20.92-46.63-46.63s20.92-46.63,46.63-46.63,46.63,20.92,46.63,46.63-20.92,46.63-46.63,46.63Z"/>
    <g>
      <line class="cls-6" x1="507.03" y1="140.97" x2="507.03" y2="75.03"/>
      <line class="cls-6" x1="572.97" y1="75.03" x2="572.97" y2="140.97"/>
      <line class="cls-6" x1="508.09" y1="141.98" x2="572.97" y2="140.97"/>
      <line class="cls-6" x1="507.03" y1="75.03" x2="572.97" y2="75.03"/>
      <line class="cls-6" x1="493.37" y1="108" x2="540" y2="61.37"/>
      <line class="cls-6" x1="586.63" y1="108" x2="540" y2="154.63"/>
      <line class="cls-6" x1="493.41" y1="109.46" x2="540" y2="154.63"/>
      <line class="cls-6" x1="540" y1="61.37" x2="586.63" y2="108"/>
    </g>
  </g>
  <g>
    <circle class="cls-7" cx="756" cy="108" r="99"/>
    <path class="cls-7" d="M756,200.02c-50.74,0-92.02-41.28-92.02-92.02s41.28-92.02,92.02-92.02,92.02,41.28,92.02,92.02-41.28,92.02-92.02,92.02Z"/>
    <g>
      <path class="cls-7" d="M764.44,32.78l-6.55-.41,.66-10.63,6.55,.41-.02,.23-6.32-.39-.29,4.73,3.85,.24v.23s-3.86-.24-3.86-.24l-.32,5.22,6.32,.39-.02,.23Z"/>
      <path class="cls-7" d="M782.46,31.11c-.5,2.1-1.67,3.71-3.51,4.84-1.83,1.13-3.8,1.44-5.9,.94-2.1-.5-3.71-1.67-4.84-3.51-1.13-1.84-1.44-3.81-.94-5.91,.5-2.1,1.67-3.71,3.51-4.83,1.84-1.12,3.81-1.43,5.91-.93,2.1,.5,3.71,1.67,4.83,3.5,1.13,1.83,1.44,3.8,.93,5.9Zm-.22-.05c.49-2.04,.19-3.94-.91-5.72-1.09-1.78-2.65-2.91-4.69-3.4-2.04-.49-3.95-.19-5.74,.91-1.79,1.09-2.92,2.65-3.41,4.69-.49,2.03-.18,3.94,.92,5.73s2.66,2.93,4.7,3.41c2.03,.49,3.94,.18,5.72-.91,1.78-1.09,2.92-2.66,3.4-4.7Zm-6.21,2.98l-4.94-1.18,1.99-8.32,.22,.05-1.94,8.09,4.71,1.13-.05,.22Z"/>
      <path class="cls-7" d="M798.94,38.98c-.96,1.93-2.46,3.24-4.5,3.93s-4.03,.55-5.96-.41c-1.93-.96-3.24-2.46-3.93-4.51s-.55-4.04,.41-5.97c.96-1.93,2.46-3.24,4.51-3.92,2.05-.68,4.03-.54,5.96,.42,1.93,.96,3.24,2.46,3.92,4.5,.68,2.04,.55,4.03-.41,5.95Zm-.2-.1c.93-1.88,1.07-3.8,.4-5.78-.66-1.98-1.93-3.44-3.81-4.37-1.88-.93-3.81-1.07-5.79-.41-1.99,.66-3.44,1.93-4.37,3.8-.93,1.87-1.06,3.8-.4,5.79,.67,1.99,1.94,3.45,3.81,4.38,1.87,.93,3.8,1.06,5.78,.4,1.98-.67,3.44-1.94,4.37-3.81Z"/>
      <path class="cls-7" d="M813.22,50.29c-1.37,1.67-3.12,2.61-5.26,2.83-2.14,.22-4.05-.35-5.72-1.72-1.67-1.37-2.61-3.12-2.83-5.27-.22-2.15,.36-4.06,1.72-5.73s3.12-2.61,5.27-2.82c2.14-.21,4.05,.37,5.72,1.73,1.67,1.37,2.61,3.12,2.82,5.26,.21,2.14-.36,4.05-1.73,5.71Zm-.18-.14c1.33-1.62,1.89-3.47,1.68-5.55-.21-2.08-1.12-3.78-2.74-5.1-1.62-1.33-3.47-1.89-5.56-1.68s-3.79,1.12-5.11,2.73-1.88,3.47-1.67,5.56c.21,2.09,1.13,3.79,2.74,5.12,1.62,1.32,3.47,1.88,5.55,1.67,2.08-.21,3.78-1.13,5.11-2.75Zm-5.95,.58l-.18-.14,4.96-6.06-7.55,4.33,2.73-8.28-4.95,6.06-.18-.14,5.72-7-2.93,8.88,8.11-4.65-5.73,7Z"/>
      <path class="cls-7" d="M824.61,64.4c-1.7,1.33-3.62,1.86-5.76,1.6-2.14-.26-3.87-1.24-5.2-2.94-1.33-1.7-1.86-3.62-1.6-5.76,.26-2.14,1.24-3.88,2.94-5.21,1.7-1.33,3.62-1.86,5.76-1.59,2.14,.27,3.87,1.25,5.2,2.95,1.33,1.7,1.86,3.62,1.6,5.75-.26,2.14-1.24,3.87-2.94,5.19Zm-.14-.18c1.65-1.29,2.6-2.97,2.86-5.04,.25-2.07-.26-3.93-1.55-5.58-1.29-1.65-2.97-2.6-5.05-2.86s-3.94,.26-5.59,1.54c-1.65,1.29-2.6,2.97-2.85,5.05s.26,3.95,1.55,5.6c1.29,1.65,2.97,2.6,5.05,2.85,2.08,.25,3.94-.27,5.59-1.55Z"/>
      <path class="cls-7" d="M830.5,75.93c-1.31,.67-2.67,.78-4.07,.33-1.4-.45-2.44-1.33-3.11-2.64-.42-.82-.62-1.69-.59-2.6l-3.56-.18v-.23s3.58,.19,3.58,.19c.07-.91,.35-1.75,.85-2.51,.51-.79,1.19-1.4,2.04-1.83,1.31-.67,2.66-.78,4.06-.33,1.4,.45,2.43,1.33,3.1,2.64,.42,.82,.61,1.68,.58,2.6l3.56,.18v.23s-3.58-.19-3.58-.19c-.07,.91-.35,1.75-.84,2.52-.51,.79-1.18,1.41-2.02,1.84Zm-.11-.2c.8-.41,1.45-1,1.94-1.76,.47-.73,.74-1.53,.81-2.4l-10.18-.55c-.03,.88,.16,1.71,.56,2.49,.64,1.25,1.63,2.1,2.98,2.53,1.34,.43,2.64,.33,3.89-.32Zm2.76-4.38c.03-.88-.16-1.71-.56-2.48-.64-1.25-1.63-2.09-2.97-2.52-1.34-.43-2.63-.33-3.89,.32-.8,.41-1.45,1-1.95,1.75-.48,.73-.75,1.53-.81,2.4l10.17,.54Z"/>
      <path class="cls-7" d="M845.69,102.11l-8.97-1.83,1.69-2.61-11.36-7.11-2.45-11.13,11.51,7.18,1.78-2.73,5.41,7.34-8.97-1.83,1.67-2.59-11.05-6.89,2.32,10.53,11.28,7.06,1.75-2.71,5.41,7.33Zm-2.94-11.25l-4.86-6.58-3.2,4.93,8.05,1.65Zm2.39,10.9l-4.86-6.59-3.2,4.93,8.05,1.66Z"/>
      <path class="cls-7" d="M839.7,122.49l-7.51-16.13-1.18,15.41-.23-.02,1.24-16.29,7.88,16.92-.21,.1Z"/>
      <path class="cls-7" d="M830.87,139.74c-2.06-.65-3.58-1.93-4.58-3.84-1-1.91-1.17-3.89-.53-5.95,.65-2.06,1.93-3.59,3.84-4.58,1.91-1,3.9-1.17,5.96-.53,2.06,.65,3.58,1.93,4.57,3.84,.99,1.91,1.16,3.9,.51,5.96-.65,2.06-1.93,3.58-3.83,4.57-1.91,.99-3.89,1.17-5.95,.52Zm.07-.22c2,.63,3.92,.46,5.77-.5,1.85-.96,3.09-2.45,3.72-4.44,.63-2,.46-3.93-.5-5.78-.96-1.86-2.44-3.1-4.44-3.73-1.99-.63-3.92-.46-5.78,.51-1.86,.97-3.1,2.45-3.73,4.45-.63,1.99-.46,3.92,.51,5.77,.97,1.85,2.45,3.1,4.45,3.73Zm-2.54-6.41l1.53-4.84,8.16,2.57-.07,.22-7.94-2.5-1.46,4.62-.22-.07Z"/>
      <path class="cls-7" d="M820.74,147.46l.11-.2,8.64,4.67-6.87-7.95,.11-.21,10.42,1.38-8.64-4.67,.11-.2,9.18,4.96-.11,.21-10.73-1.42,7.08,8.19-.11,.2-9.18-4.96Z"/>
      <path class="cls-7" d="M816.3,167.77l3.09-17.52-9.8,11.94-.18-.14,10.36-12.63-3.25,18.38-.23-.03Z"/>
      <path class="cls-7" d="M804.4,182.55l-2.72-18.02,.22-.03,2.72,18.02-.22,.03Zm4.7-3.66l-2.72-18.02,.23-.04,2.71,18.03-.22,.03Z"/>
      <path class="cls-7" d="M783.39,184.44l13.92-6.56,.1,.21-13.92,6.56-.1-.21Zm1.82-6.61l5.84-2.75,.1,.21-5.84,2.75-.1-.21Zm4.44,9.43l5.84-2.75,.1,.21-5.84,2.75-.1-.21Z"/>
      <path class="cls-7" d="M760.54,194.84l4.11-11.56,15.41-2.76-4.11,11.56-15.41,2.76Zm.35-.3l14.88-2.66,3.94-11.06-14.89,2.67-3.94,11.06Z"/>
      <path class="cls-7" d="M741.37,188.01c.18-2.15,1.09-3.92,2.74-5.31,1.64-1.39,3.54-2,5.69-1.82,2.15,.18,3.92,1.1,5.31,2.74,1.39,1.65,2,3.55,1.82,5.7-.18,2.15-1.1,3.92-2.75,5.3-1.65,1.39-3.55,1.99-5.7,1.81-2.15-.18-3.92-1.09-5.3-2.74s-1.99-3.54-1.81-5.69Zm.23,.02c-.18,2.09,.41,3.93,1.76,5.52,1.35,1.6,3.06,2.48,5.15,2.66,2.09,.18,3.93-.41,5.53-1.76,1.6-1.35,2.49-3.07,2.66-5.15s-.41-3.92-1.77-5.53c-1.36-1.6-3.07-2.49-5.16-2.67-2.09-.18-3.92,.41-5.52,1.76-1.6,1.35-2.48,3.07-2.66,5.16Zm5.19-2.36l.89-.77,1.25-.3,1.59,.13,1.17,.5,.72,.85-.17,.16-.71-.84-1.07-.45-1.52-.13-1.14,.27-.79,.66-.09,1.09,.3,.76,.33,.4,.73,.44,2.25,.97,.76,.46,.39,.45,.33,.86-.07,.85-.89,.75-1.24,.31-1.59-.13-1.18-.52-.72-.85,.18-.14,.68,.81,1.09,.48,1.51,.13,1.14-.29,.78-.66,.06-.69-.31-.77-.33-.4-.71-.43-2.27-.98-.76-.46-.37-.44-.34-.86,.1-1.23Z"/>
      <path class="cls-7" d="M723.93,182.74c.66-2.05,1.94-3.58,3.86-4.56,1.91-.99,3.9-1.15,5.95-.5,2.05,.66,3.58,1.95,4.57,3.86,.99,1.92,1.16,3.91,.5,5.96-.66,2.05-1.95,3.57-3.87,4.55-1.92,.98-3.91,1.15-5.96,.49-2.05-.66-3.57-1.94-4.56-3.85-.99-1.91-1.15-3.9-.49-5.95Zm.22,.07c-.64,1.99-.48,3.92,.48,5.78,.96,1.86,2.43,3.1,4.42,3.74,2,.64,3.92,.48,5.79-.48,1.86-.96,3.11-2.43,3.75-4.42,.64-1.99,.48-3.92-.49-5.78-.96-1.87-2.44-3.12-4.43-3.75-1.99-.64-3.92-.48-5.77,.48-1.86,.96-3.11,2.44-3.75,4.43Zm5.33-2.73l.22,.07-2.39,7.45,5.44-6.8,.49,8.7,2.39-7.45,.22,.07-2.76,8.61-.53-9.34-5.84,7.31,2.76-8.62Z"/>
      <path class="cls-7" d="M708.17,173.74c1.1-1.85,2.69-3.05,4.78-3.59s4.06-.26,5.91,.84c1.86,1.1,3.05,2.69,3.59,4.78s.26,4.07-.84,5.92c-1.1,1.85-2.69,3.05-4.78,3.58-2.09,.53-4.06,.25-5.92-.85-1.85-1.1-3.05-2.69-3.58-4.77-.54-2.08-.25-4.05,.85-5.91Zm.2,.12c-1.07,1.8-1.34,3.71-.82,5.74,.52,2.02,1.68,3.57,3.48,4.63,1.8,1.07,3.72,1.34,5.75,.83,2.03-.52,3.57-1.68,4.64-3.47,1.06-1.8,1.33-3.71,.81-5.75-.52-2.03-1.68-3.58-3.48-4.65-1.8-1.07-3.71-1.34-5.74-.81-2.03,.52-3.57,1.68-4.64,3.48Z"/>
      <path class="cls-7" d="M694.69,161.38c1.48-1.57,3.3-2.38,5.46-2.44,2.15-.06,4.01,.65,5.58,2.13,1.57,1.48,2.38,3.3,2.44,5.46s-.65,4.02-2.14,5.59-3.3,2.37-5.46,2.43c-2.16,.05-4.02-.66-5.58-2.15s-2.38-3.3-2.43-5.45c-.06-2.15,.65-4.01,2.14-5.57Zm.17,.16c-1.44,1.52-2.13,3.32-2.07,5.41,.06,2.09,.84,3.85,2.36,5.29,1.52,1.44,3.33,2.14,5.42,2.08,2.09-.05,3.86-.84,5.3-2.35,1.44-1.52,2.13-3.32,2.07-5.42-.06-2.1-.85-3.86-2.36-5.3-1.52-1.44-3.32-2.13-5.41-2.07-2.09,.06-3.86,.85-5.3,2.37Zm1.63,1.55c1.01-1.07,2.26-1.62,3.73-1.66,1.47-.04,2.74,.44,3.81,1.45,1.07,1.01,1.62,2.26,1.66,3.73,.04,1.47-.45,2.74-1.46,3.81-1.01,1.07-2.25,1.62-3.72,1.66-1.47,.04-2.74-.45-3.81-1.46-1.07-1.01-1.62-2.25-1.66-3.72-.04-1.47,.45-2.73,1.46-3.8Zm.17,.16c-.97,1.02-1.44,2.24-1.4,3.64,.04,1.4,.57,2.59,1.59,3.56,1.02,.97,2.24,1.44,3.64,1.4,1.41-.03,2.59-.56,3.56-1.58,.97-1.02,1.43-2.24,1.4-3.65-.04-1.41-.57-2.6-1.59-3.57-1.02-.97-2.24-1.43-3.64-1.39-1.41,.04-2.59,.57-3.56,1.59Z"/>
      <path class="cls-7" d="M684.36,146.45c1.79-1.2,3.74-1.59,5.86-1.18,2.12,.41,3.77,1.52,4.97,3.31,1.2,1.79,1.59,3.75,1.17,5.87-.42,2.12-1.52,3.78-3.31,4.98-1.79,1.2-3.75,1.59-5.86,1.16-2.11-.42-3.77-1.53-4.97-3.32-1.2-1.79-1.59-3.74-1.17-5.85s1.52-3.77,3.31-4.97Zm.13,.19c-1.74,1.16-2.81,2.77-3.22,4.82-.41,2.05-.03,3.94,1.14,5.68,1.17,1.74,2.78,2.82,4.83,3.23,2.05,.41,3.95,.03,5.68-1.13,1.74-1.16,2.81-2.77,3.21-4.83,.41-2.06,.03-3.96-1.14-5.69-1.16-1.74-2.77-2.81-4.82-3.21-2.05-.4-3.95-.02-5.69,1.14Zm6.58,2.03l2.82,4.22-7.11,4.76-.13-.19,6.92-4.63-2.7-4.03,.19-.13Z"/>
      <path class="cls-7" d="M674.46,135.67l2.31,6.03-.21,.08-2.31-6.03,.21-.08Zm3.27-6.04l5.5,14.37-.21,.08-5.5-14.37,.21-.08Zm6.46,2.31l2.31,6.03-.21,.08-2.31-6.03,.21-.08Z"/>
      <path class="cls-7" d="M675.35,116.81c1.45-.26,2.78,.04,3.98,.88,1.21,.85,1.93,1.99,2.19,3.44,.16,.91,.09,1.8-.21,2.66l3.35,1.23-.07,.22-3.36-1.24c-.33,.85-.85,1.57-1.55,2.15-.72,.6-1.55,.98-2.48,1.15-1.45,.26-2.78-.04-3.98-.88-1.2-.84-1.93-1.99-2.18-3.44-.16-.91-.09-1.79,.21-2.65l-3.35-1.22,.08-.22,3.36,1.24c.34-.85,.85-1.57,1.55-2.16,.72-.61,1.54-1,2.48-1.16Zm-3.89,3.6c-.28,.83-.35,1.68-.2,2.54,.24,1.39,.94,2.48,2.09,3.29,1.15,.81,2.42,1.09,3.81,.84,.89-.16,1.68-.52,2.38-1.1,.67-.56,1.17-1.25,1.49-2.05l-9.56-3.52Zm3.93-3.37c-.89,.16-1.68,.53-2.37,1.1-.66,.56-1.16,1.24-1.48,2.06l9.56,3.53c.28-.83,.35-1.68,.2-2.55-.24-1.39-.94-2.49-2.1-3.3-1.15-.81-2.42-1.09-3.81-.85Z"/>
      <path class="cls-7" d="M671.59,98.5l8.45,15.66,.27-15.45h.23s-.29,16.34-.29,16.34l-8.87-16.43,.2-.12Z"/>
      <path class="cls-7" d="M675.53,67.96l6.83,6.1-2.77,1.41,6.23,11.87-3.49,10.85-6.32-12-2.92,1.46-.98-9.06,6.83,6.1-2.74,1.4,6.08,11.52,3.31-10.26-6.19-11.78-2.88,1.46-.98-9.06Zm-3.12,11.2l.88,8.13,5.24-2.65-6.12-5.48Zm3.42-10.62l.88,8.14,5.25-2.65-6.12-5.49Z"/>
      <path class="cls-7" d="M695.26,62.72l-5.77,8.96-8.96-5.77,5.77-8.96,8.95,5.77Zm-.32,.07l-8.57-5.52-5.52,8.57,8.57,5.52,5.52-8.57Z"/>
      <path class="cls-7" d="M699.18,50.18c1.1,.98,1.69,2.21,1.77,3.68,.08,1.47-.36,2.75-1.35,3.85-.61,.69-1.35,1.18-2.21,1.48l1.11,3.39-.21,.08-1.11-3.4c-.87,.27-1.76,.3-2.65,.11-.92-.2-1.73-.61-2.44-1.24-1.1-.98-1.69-2.2-1.77-3.67-.08-1.46,.37-2.74,1.35-3.84,.61-.69,1.35-1.18,2.21-1.48l-1.11-3.39,.22-.08,1.11,3.4c.88-.26,1.76-.3,2.65-.12,.92,.19,1.74,.59,2.44,1.23Zm-5.23-.83c-.83,.29-1.53,.76-2.12,1.41-.94,1.05-1.37,2.28-1.29,3.68,.08,1.4,.64,2.57,1.69,3.51,.68,.6,1.45,1,2.34,1.19,.86,.18,1.7,.14,2.53-.1l-3.16-9.69Zm5.08,1c-.68-.6-1.45-1-2.34-1.18-.85-.18-1.69-.14-2.53,.11l3.15,9.69c.83-.29,1.54-.77,2.12-1.42,.94-1.05,1.37-2.28,1.29-3.69-.08-1.41-.64-2.58-1.69-3.52Z"/>
      <path class="cls-7" d="M722.09,42.4l-16.96,12.11-.13-.19,8.39-5.99-9.16-12.83,.19-.13,9.16,12.83,8.39-5.99,.13,.19Z"/>
      <path class="cls-7" d="M734.8,29.49c.76,2.02,.7,4.01-.18,5.97-.88,1.96-2.34,3.33-4.35,4.09-2.02,.76-4.01,.7-5.98-.19-1.97-.89-3.33-2.34-4.1-4.36-.76-2.02-.7-4.01,.2-5.97,.89-1.96,2.35-3.32,4.36-4.09,2.02-.76,4.01-.7,5.97,.19,1.96,.89,3.32,2.34,4.08,4.36Zm-.21,.08c-.74-1.96-2.06-3.37-3.96-4.23-1.9-.86-3.83-.92-5.79-.18-1.96,.74-3.37,2.06-4.24,3.97-.86,1.91-.93,3.84-.19,5.79,.74,1.96,2.06,3.36,3.98,4.23,1.91,.86,3.85,.93,5.8,.19,1.96-.74,3.37-2.06,4.22-3.97,.86-1.91,.92-3.84,.18-5.8Zm-3.67,4.37l-.48,1.07-1,.81-1.49,.56-1.27,.05-1.02-.46,.08-.21,1,.45,1.16-.05,1.43-.54,.92-.74,.42-.94-.39-1.02-.6-.56-.47-.22-.85-.08-2.45,.1-.88-.09-.55-.24-.67-.63-.3-.8,.48-1.06,.98-.81,1.49-.56,1.29-.04,1.02,.46-.1,.21-.96-.44-1.2,.04-1.42,.54-.91,.75-.42,.94,.24,.65,.61,.56,.47,.22,.83,.08,2.47-.09,.88,.09,.53,.24,.68,.62,.43,1.15Z"/>
      <path class="cls-7" d="M752.81,26.76c.29,2.14-.22,4.06-1.52,5.78-1.3,1.72-3.02,2.72-5.16,3.01-2.14,.29-4.06-.22-5.78-1.53-1.72-1.31-2.72-3.03-3.01-5.17-.29-2.14,.22-4.06,1.53-5.77,1.31-1.71,3.03-2.71,5.17-3,2.14-.29,4.06,.22,5.77,1.52,1.71,1.3,2.71,3.02,3,5.16Zm-.23,.03c-.28-2.08-1.25-3.75-2.92-5.01-1.66-1.26-3.53-1.76-5.6-1.47-2.08,.28-3.75,1.25-5.02,2.92-1.27,1.66-1.76,3.53-1.48,5.6,.28,2.07,1.26,3.74,2.93,5.01,1.67,1.27,3.54,1.77,5.61,1.48,2.07-.28,3.74-1.25,5.01-2.92,1.26-1.67,1.76-3.54,1.48-5.61Z"/>
    </g>
    <g>
      <path class="cls-7" d="M750.1,159.36l4.41,.27-.43,7.14-4.4-.27v-.15s4.26,.26,4.26,.26l.19-3.18-2.59-.16v-.15s2.6,.16,2.6,.16l.21-3.51-4.25-.26v-.15Z"/>
      <path class="cls-7" d="M737.82,160.46c.34-1.41,1.12-2.49,2.36-3.25,1.23-.76,2.56-.97,3.96-.63,1.41,.34,2.49,1.13,3.25,2.36,.76,1.24,.97,2.56,.63,3.97-.34,1.41-1.13,2.49-2.36,3.25-1.24,.75-2.56,.96-3.97,.63-1.41-.34-2.49-1.12-3.25-2.36-.76-1.23-.96-2.55-.63-3.96Zm.15,.04c-.33,1.37-.13,2.65,.61,3.85,.73,1.2,1.78,1.96,3.15,2.29,1.37,.33,2.65,.13,3.85-.61,1.2-.73,1.96-1.78,2.29-3.15,.33-1.37,.12-2.65-.62-3.85s-1.79-1.97-3.16-2.29-2.65-.12-3.85,.61c-1.2,.74-1.96,1.79-2.29,3.16Zm4.17-2l3.32,.8-1.34,5.59-.15-.04,1.3-5.44-3.17-.76,.04-.15Z"/>
      <path class="cls-7" d="M726.64,155.13c.65-1.3,1.66-2.18,3.03-2.64,1.37-.46,2.71-.37,4,.27,1.3,.64,2.18,1.66,2.64,3.03,.46,1.38,.37,2.71-.27,4.01-.64,1.3-1.66,2.17-3.03,2.63-1.37,.46-2.71,.36-4.01-.28-1.3-.64-2.18-1.65-2.64-3.02-.46-1.37-.37-2.7,.28-4Zm.14,.07c-.63,1.26-.72,2.56-.27,3.89,.45,1.33,1.3,2.31,2.56,2.94,1.26,.63,2.56,.72,3.89,.27,1.33-.44,2.32-1.3,2.94-2.55,.63-1.26,.71-2.55,.26-3.89-.45-1.34-1.3-2.32-2.56-2.94-1.26-.63-2.55-.71-3.89-.27-1.33,.45-2.31,1.3-2.94,2.56Z"/>
      <path class="cls-7" d="M717,147.53c.92-1.12,2.09-1.76,3.53-1.91s2.72,.24,3.84,1.15c1.12,.92,1.76,2.1,1.91,3.54,.15,1.44-.24,2.73-1.15,3.85-.92,1.12-2.09,1.76-3.54,1.9s-2.72-.24-3.85-1.16c-1.12-.92-1.76-2.09-1.9-3.53-.15-1.44,.24-2.72,1.15-3.84Zm.12,.1c-.89,1.09-1.26,2.33-1.12,3.73,.14,1.4,.76,2.54,1.85,3.43,1.09,.89,2.34,1.26,3.74,1.12,1.4-.14,2.54-.75,3.43-1.84,.89-1.09,1.26-2.33,1.12-3.74s-.76-2.55-1.85-3.44c-1.09-.89-2.33-1.26-3.73-1.12-1.4,.14-2.54,.76-3.43,1.85Zm4-.4l.12,.1-3.32,4.07,5.07-2.92-1.83,5.56,3.32-4.08,.12,.1-3.84,4.71,1.96-5.97-5.45,3.14,3.84-4.71Z"/>
      <path class="cls-7" d="M709.21,137.9c1.14-.89,2.43-1.25,3.87-1.08,1.44,.17,2.6,.83,3.49,1.97,.89,1.14,1.25,2.43,1.08,3.87s-.84,2.61-1.98,3.5c-1.14,.89-2.43,1.25-3.87,1.07-1.44-.18-2.6-.84-3.49-1.98-.89-1.14-1.25-2.43-1.07-3.86,.18-1.44,.83-2.6,1.98-3.49Zm.1,.12c-1.11,.87-1.75,2-1.92,3.39-.17,1.39,.18,2.64,1.04,3.75,.87,1.11,2,1.75,3.39,1.92,1.4,.17,2.65-.17,3.75-1.04s1.75-2,1.92-3.4c.17-1.4-.18-2.65-1.04-3.76-.86-1.11-1.99-1.75-3.39-1.92-1.39-.17-2.65,.18-3.76,1.05Z"/>
      <path class="cls-7" d="M705.23,130.14c.88-.45,1.79-.53,2.73-.23,.94,.3,1.64,.89,2.09,1.77,.28,.55,.42,1.14,.4,1.75l2.4,.12v.15s-2.41-.12-2.41-.12c-.04,.61-.24,1.18-.57,1.69-.35,.53-.8,.94-1.37,1.23-.88,.45-1.79,.53-2.73,.23-.94-.3-1.63-.89-2.09-1.77-.28-.55-.41-1.13-.4-1.74l-2.4-.12v-.15s2.41,.12,2.41,.12c.05-.61,.23-1.18,.56-1.69,.34-.53,.79-.95,1.36-1.24Zm-1.78,3.08c-.02,.59,.11,1.15,.38,1.67,.43,.84,1.1,1.4,2,1.69,.9,.29,1.77,.22,2.61-.22,.54-.28,.98-.67,1.31-1.18,.32-.49,.5-1.03,.55-1.61l-6.84-.35Zm1.85-2.95c-.54,.28-.98,.67-1.3,1.18-.32,.49-.5,1.03-.54,1.62l6.84,.36c.02-.59-.11-1.15-.38-1.67-.43-.84-1.1-1.41-2-1.7-.9-.29-1.77-.22-2.62,.21Z"/>
      <path class="cls-7" d="M694.95,112.45l6.03,1.22-1.13,1.76,7.64,4.77,1.66,7.48-7.74-4.82-1.2,1.84-3.64-4.93,6.03,1.22-1.12,1.74,7.44,4.62-1.57-7.08-7.59-4.73-1.17,1.82-3.64-4.92Zm.37,.23l3.27,4.42,2.15-3.32-5.42-1.1Zm1.62,7.32l3.27,4.42,2.14-3.32-5.41-1.1Z"/>
      <path class="cls-7" d="M698.95,98.6l5.07,10.83,.77-10.36h.15s-.82,10.96-.82,10.96l-5.32-11.36,.14-.07Z"/>
      <path class="cls-7" d="M704.88,86.88c1.38,.43,2.41,1.29,3.08,2.57s.79,2.62,.36,4-1.29,2.41-2.58,3.08c-1.29,.67-2.62,.79-4,.36-1.38-.43-2.41-1.29-3.08-2.58-.67-1.29-.79-2.62-.35-4,.43-1.38,1.29-2.41,2.57-3.08,1.28-.67,2.61-.79,3.99-.36Zm-.04,.15c-1.34-.42-2.64-.31-3.88,.35-1.24,.65-2.08,1.65-2.5,2.99-.42,1.35-.31,2.64,.34,3.89,.65,1.25,1.65,2.08,2.99,2.5s2.64,.3,3.89-.35c1.25-.65,2.08-1.65,2.5-2.99,.42-1.34,.3-2.63-.35-3.88-.65-1.24-1.65-2.08-2.99-2.5Zm1.71,4.3l-1.02,3.26-5.48-1.72,.05-.15,5.34,1.67,.98-3.11,.15,.05Z"/>
      <path class="cls-7" d="M711.73,81.59l-.07,.13-5.81-3.13,4.62,5.34-.08,.14-7-.91,5.81,3.13-.07,.13-6.17-3.32,.07-.14,7.21,.95-4.76-5.5,.08-.14,6.17,3.32Z"/>
      <path class="cls-7" d="M714.74,67.85l-2.06,11.78,6.58-8.04,.12,.1-6.95,8.5,2.17-12.36,.16,.02Z"/>
      <path class="cls-7" d="M719.65,60.3l1.84,12.11-.15,.02-1.84-12.11,.15-.02Zm3.15-2.47l1.84,12.11-.15,.02-1.84-12.11,.15-.02Z"/>
      <path class="cls-7" d="M736.94,56.5l-9.34,4.44-.06-.14,9.34-4.44,.06,.14Zm-4.21-1.88l-3.92,1.86-.06-.14,3.92-1.86,.07,.14Zm3.01,6.33l-3.92,1.86-.07-.14,3.92-1.86,.07,.14Z"/>
      <path class="cls-7" d="M752.49,49.42l-2.75,7.77-10.36,1.87,2.75-7.77,10.36-1.87Zm-.24,.2l-10,1.81-2.64,7.44,10-1.81,2.64-7.44Z"/>
      <path class="cls-7" d="M765.52,53.99c-.12,1.44-.73,2.64-1.83,3.57-1.1,.94-2.38,1.35-3.82,1.23s-2.64-.73-3.58-1.84c-.94-1.11-1.35-2.38-1.23-3.83,.12-1.44,.73-2.63,1.84-3.57,1.11-.93,2.38-1.34,3.83-1.22,1.44,.12,2.63,.73,3.57,1.83,.93,1.1,1.34,2.38,1.22,3.82Zm-.15-.01c.12-1.4-.28-2.64-1.19-3.71-.91-1.07-2.06-1.66-3.46-1.78-1.4-.12-2.64,.28-3.72,1.19-1.07,.91-1.67,2.06-1.78,3.46-.12,1.4,.28,2.64,1.19,3.71s2.07,1.67,3.47,1.79,2.64-.28,3.71-1.19c1.07-.91,1.67-2.06,1.78-3.47Zm-3.48,1.59l-.6,.51-.84,.2-1.07-.09-.78-.34-.49-.57,.11-.11,.48,.56,.72,.3,1.02,.09,.77-.18,.53-.45,.06-.73-.2-.51-.22-.27-.49-.29-1.52-.65-.51-.31-.26-.3-.22-.57,.05-.57,.6-.5,.83-.21,1.07,.09,.79,.34,.48,.57-.12,.1-.46-.54-.74-.32-1.02-.08-.77,.19-.53,.45-.04,.47,.21,.52,.22,.27,.48,.29,1.52,.65,.51,.31,.25,.3,.23,.57-.07,.83Z"/>
      <path class="cls-7" d="M777.36,57.53c-.44,1.38-1.3,2.41-2.59,3.07s-2.62,.78-4,.34-2.41-1.3-3.07-2.59c-.67-1.29-.78-2.62-.34-4,.44-1.38,1.3-2.4,2.59-3.07,1.29-.66,2.62-.77,4-.33,1.38,.44,2.4,1.3,3.07,2.59,.66,1.29,.78,2.62,.34,4Zm-.14-.05c.43-1.34,.32-2.64-.33-3.88-.65-1.25-1.64-2.08-2.98-2.51-1.34-.43-2.64-.32-3.89,.33-1.25,.64-2.09,1.64-2.52,2.97-.43,1.34-.31,2.63,.33,3.89,.65,1.25,1.64,2.09,2.98,2.52,1.34,.43,2.63,.32,3.88-.33,1.25-.65,2.09-1.64,2.51-2.98Zm-3.58,1.84l-.15-.05,1.6-5.01-3.65,4.58-.34-5.85-1.6,5.01-.15-.05,1.84-5.79,.37,6.27,3.92-4.92-1.85,5.79Z"/>
      <path class="cls-7" d="M788.06,63.61c-.74,1.25-1.81,2.05-3.21,2.42-1.4,.36-2.73,.18-3.98-.56-1.25-.74-2.05-1.81-2.42-3.21-.36-1.4-.18-2.73,.56-3.98,.74-1.25,1.81-2.05,3.21-2.41,1.4-.36,2.73-.17,3.98,.57,1.25,.74,2.05,1.81,2.41,3.21s.17,2.72-.56,3.97Zm-.13-.08c.71-1.21,.9-2.5,.55-3.86s-1.13-2.4-2.34-3.11c-1.21-.72-2.5-.9-3.86-.55s-2.4,1.13-3.11,2.34c-.71,1.21-.9,2.5-.54,3.86,.35,1.36,1.14,2.4,2.35,3.12,1.21,.71,2.5,.9,3.86,.54,1.36-.35,2.4-1.14,3.11-2.35Z"/>
      <path class="cls-7" d="M797.17,71.92c-.99,1.06-2.21,1.6-3.66,1.65-1.45,.04-2.7-.43-3.75-1.42-1.05-.99-1.6-2.21-1.65-3.67-.04-1.45,.43-2.7,1.43-3.76,.99-1.06,2.21-1.6,3.66-1.64,1.45-.04,2.7,.44,3.75,1.43,1.06,.99,1.6,2.21,1.65,3.66,.04,1.44-.43,2.69-1.43,3.75Zm-.11-.11c.96-1.02,1.43-2.24,1.38-3.64-.04-1.4-.58-2.59-1.6-3.55-1.02-.96-2.24-1.43-3.65-1.39-1.41,.04-2.59,.57-3.55,1.59-.96,1.02-1.42,2.24-1.38,3.65,.04,1.41,.58,2.59,1.6,3.56,1.02,.96,2.24,1.42,3.64,1.38,1.41-.04,2.59-.58,3.56-1.6Zm-1.1-1.04c-.68,.72-1.51,1.1-2.5,1.13-.99,.03-1.84-.29-2.56-.97-.72-.68-1.1-1.51-1.13-2.5-.03-.99,.29-1.84,.97-2.56,.68-.72,1.51-1.09,2.5-1.12,.99-.03,1.84,.3,2.56,.98,.72,.68,1.09,1.51,1.12,2.5,.03,.98-.29,1.84-.97,2.56Zm-.11-.11c.65-.69,.96-1.5,.93-2.45-.03-.94-.39-1.74-1.08-2.39-.69-.65-1.51-.96-2.45-.93-.94,.03-1.74,.38-2.39,1.07-.65,.69-.96,1.51-.93,2.45,.03,.95,.39,1.75,1.08,2.4,.69,.65,1.51,.96,2.45,.93,.94-.03,1.74-.39,2.39-1.08Z"/>
      <path class="cls-7" d="M804.22,82.01c-1.2,.81-2.51,1.08-3.93,.8-1.42-.27-2.54-1.01-3.35-2.21s-1.08-2.51-.8-3.94c.28-1.42,1.01-2.54,2.22-3.35s2.51-1.07,3.93-.79c1.42,.28,2.54,1.02,3.35,2.22,.81,1.2,1.08,2.51,.8,3.93-.28,1.42-1.01,2.53-2.22,3.34Zm-.09-.13c1.17-.79,1.88-1.87,2.15-3.25s0-2.65-.78-3.82c-.79-1.17-1.87-1.89-3.25-2.16-1.38-.27-2.65-.01-3.82,.77-1.16,.78-1.88,1.87-2.15,3.25-.27,1.38-.01,2.66,.78,3.83,.79,1.16,1.87,1.88,3.25,2.15,1.38,.27,2.65,0,3.82-.78Zm-4.43-1.35l-1.91-2.83,4.76-3.21,.09,.13-4.64,3.13,1.82,2.7-.13,.09Z"/>
      <path class="cls-7" d="M804.41,91.86l-1.56-4.05,.14-.06,1.56,4.05-.14,.05Zm4.35,1.54l-3.73-9.65,.14-.06,3.73,9.65-.14,.05Zm2.19-4.06l-1.56-4.05,.14-.06,1.56,4.05-.14,.05Z"/>
      <path class="cls-7" d="M810.41,102.1c-.98,.18-1.87-.02-2.68-.59-.81-.56-1.31-1.33-1.48-2.31-.11-.61-.06-1.21,.13-1.79l-2.25-.82,.05-.14,2.26,.82c.22-.57,.57-1.06,1.04-1.45,.48-.4,1.04-.66,1.67-.78,.97-.17,1.87,.02,2.67,.58s1.3,1.33,1.47,2.3c.11,.61,.06,1.2-.13,1.78l2.26,.82-.05,.14-2.26-.82c-.23,.57-.57,1.06-1.03,1.45-.48,.41-1.03,.67-1.66,.78Zm-.03-.15c.6-.11,1.13-.36,1.59-.75,.45-.38,.78-.84,.99-1.39l-6.43-2.35c-.19,.56-.23,1.13-.13,1.71,.17,.93,.64,1.67,1.42,2.21,.78,.54,1.63,.73,2.56,.56Zm2.63-2.27c.19-.56,.23-1.13,.13-1.7-.17-.93-.64-1.67-1.41-2.21-.78-.54-1.63-.73-2.56-.56-.6,.11-1.13,.35-1.6,.74-.45,.38-.78,.84-1,1.38l6.43,2.34Z"/>
      <path class="cls-7" d="M812.97,114.42l-5.69-10.52-.17,10.38h-.15s.18-10.98,.18-10.98l5.97,11.04-.14,.08Z"/>
      <path class="cls-7" d="M810.37,135.18l-4.6-4.08,1.86-.95-4.21-7.96,2.33-7.3,4.27,8.05,1.96-.99,.68,6.09-4.6-4.09,1.84-.94-4.11-7.73-2.2,6.9,4.19,7.9,1.93-.99,.68,6.09Zm-.2-.39l-.61-5.47-3.52,1.79,4.13,3.68Zm2.28-7.14l-.61-5.46-3.52,1.79,4.13,3.67Z"/>
      <path class="cls-7" d="M797.12,138.81l3.85-6.04,6.04,3.85-3.85,6.04-6.04-3.85Zm.21-.05l5.78,3.68,3.68-5.78-5.78-3.68-3.68,5.78Z"/>
      <path class="cls-7" d="M794.47,147.31c-.74-.65-1.14-1.48-1.2-2.47-.06-.99,.24-1.85,.9-2.59,.41-.46,.91-.8,1.48-1l-.76-2.27,.14-.05,.76,2.29c.59-.18,1.18-.21,1.78-.08,.62,.13,1.17,.41,1.64,.83,.74,.66,1.14,1.47,1.2,2.46s-.24,1.85-.89,2.59c-.41,.46-.9,.79-1.48,1l.76,2.28-.14,.05-.76-2.28c-.59,.18-1.18,.21-1.78,.09-.62-.12-1.17-.4-1.65-.82Zm.1-.11c.46,.4,.98,.66,1.57,.78,.57,.12,1.14,.09,1.7-.08l-2.15-6.5c-.56,.2-1.03,.52-1.42,.96-.63,.71-.91,1.54-.85,2.48,.06,.95,.44,1.73,1.15,2.36Zm3.42,.65c.56-.2,1.03-.52,1.42-.95,.63-.71,.91-1.53,.85-2.48-.06-.94-.44-1.73-1.15-2.35-.46-.4-.98-.67-1.57-.79-.57-.12-1.14-.09-1.7,.08l2.15,6.5Z"/>
      <path class="cls-7" d="M779.01,152.69l11.37-8.19,.09,.12-5.62,4.05,6.2,8.6-.12,.09-6.2-8.6-5.62,4.05-.09-.12Z"/>
      <path class="cls-7" d="M770.32,161.48c-.52-1.35-.48-2.69,.11-4.01,.59-1.32,1.56-2.24,2.92-2.76,1.36-.52,2.69-.48,4.02,.12,1.33,.59,2.25,1.57,2.76,2.92,.51,1.35,.48,2.69-.12,4.01-.6,1.32-1.57,2.24-2.93,2.76-1.35,.52-2.69,.48-4.01-.11-1.32-.59-2.24-1.57-2.75-2.92Zm.14-.05c.5,1.31,1.39,2.26,2.67,2.83,1.28,.57,2.58,.61,3.89,.11,1.32-.5,2.26-1.39,2.84-2.68,.58-1.28,.62-2.58,.12-3.89-.5-1.31-1.39-2.26-2.68-2.83-1.29-.58-2.59-.61-3.9-.11-1.31,.5-2.26,1.39-2.83,2.68-.57,1.28-.61,2.58-.11,3.9Zm2.45-2.94l.32-.72,.67-.54,1-.38,.85-.04,.69,.31-.05,.14-.67-.3-.78,.04-.96,.36-.61,.5-.28,.63,.26,.69,.41,.37,.31,.14,.57,.05,1.65-.07,.59,.06,.37,.16,.45,.42,.2,.54-.32,.71-.66,.55-1,.38-.86,.03-.69-.31,.07-.14,.65,.29,.8-.03,.95-.36,.61-.51,.28-.63-.16-.43-.41-.38-.31-.14-.56-.05-1.66,.07-.59-.06-.35-.16-.46-.42-.29-.77Z"/>
      <path class="cls-7" d="M758.2,163.38c-.2-1.44,.13-2.73,1-3.89,.87-1.16,2.02-1.84,3.46-2.04,1.44-.2,2.73,.13,3.89,1.01s1.84,2.03,2.04,3.46c.2,1.43-.13,2.73-1.01,3.89-.88,1.15-2.03,1.83-3.47,2.03-1.43,.2-2.73-.13-3.88-1-1.15-.87-1.83-2.02-2.03-3.46Zm.15-.02c.2,1.39,.85,2.51,1.98,3.36,1.12,.84,2.38,1.17,3.77,.97,1.39-.2,2.52-.86,3.36-1.98,.85-1.12,1.18-2.38,.98-3.77-.19-1.39-.86-2.51-1.98-3.36-1.13-.85-2.39-1.17-3.78-.98-1.39,.19-2.51,.85-3.36,1.98-.85,1.12-1.17,2.38-.98,3.78Z"/>
    </g>
    <path class="cls-7" d="M756,179.07c-39.19,0-71.07-31.88-71.07-71.07s31.88-71.07,71.07-71.07,71.07,31.88,71.07,71.07-31.88,71.07-71.07,71.07Z"/>
    <path class="cls-7" d="M756,172.09c-35.34,0-64.09-28.75-64.09-64.09s28.75-64.08,64.09-64.08,64.08,28.75,64.08,64.08-28.75,64.09-64.08,64.09Z"/>
    <path class="cls-7" d="M756,154.63c-25.71,0-46.63-20.92-46.63-46.63s20.92-46.63,46.63-46.63,46.63,20.92,46.63,46.63-20.92,46.63-46.63,46.63Z"/>
    <g class="cls-8">
      <line class="cls-7" x1="723.03" y1="140.97" x2="723.03" y2="75.03"/>
      <line class="cls-7" x1="788.97" y1="75.03" x2="788.97" y2="140.97"/>
      <line class="cls-7" x1="724.09" y1="141.98" x2="788.97" y2="140.97"/>
      <line class="cls-7" x1="723.03" y1="75.03" x2="788.97" y2="75.03"/>
      <line class="cls-7" x1="709.37" y1="108" x2="756" y2="61.37"/>
      <line class="cls-7" x1="802.63" y1="108" x2="756" y2="154.63"/>
      <line class="cls-7" x1="709.41" y1="109.46" x2="756" y2="154.63"/>
      <line class="cls-7" x1="756" y1="61.37" x2="802.63" y2="108"/>
    </g>
  </g>
  <g>
    <circle class="cls-3" cx="972" cy="108" r="99"/>
    <path class="cls-3" d="M972,200.02c-50.74,0-92.02-41.28-92.02-92.02s41.28-92.02,92.02-92.02,92.02,41.28,92.02,92.02-41.28,92.02-92.02,92.02Z"/>
    <g>
      <path class="cls-3" d="M980.44,32.78l-6.55-.41,.66-10.63,6.55,.41-.02,.23-6.32-.39-.29,4.73,3.85,.24v.23s-3.86-.24-3.86-.24l-.32,5.22,6.32,.39-.02,.23Z"/>
      <path class="cls-3" d="M998.46,31.11c-.5,2.1-1.67,3.71-3.51,4.84-1.83,1.13-3.8,1.44-5.9,.94-2.1-.5-3.71-1.67-4.84-3.51-1.13-1.84-1.44-3.81-.94-5.91,.5-2.1,1.67-3.71,3.51-4.83,1.84-1.12,3.81-1.43,5.91-.93,2.1,.5,3.71,1.67,4.83,3.5,1.13,1.83,1.44,3.8,.93,5.9Zm-.22-.05c.49-2.04,.19-3.94-.91-5.72-1.09-1.78-2.65-2.91-4.69-3.4-2.04-.49-3.95-.19-5.74,.91-1.79,1.09-2.92,2.65-3.41,4.69-.49,2.03-.18,3.94,.92,5.73s2.66,2.93,4.7,3.41c2.03,.49,3.94,.18,5.72-.91,1.78-1.09,2.92-2.66,3.4-4.7Zm-6.21,2.98l-4.94-1.18,1.99-8.32,.22,.05-1.94,8.09,4.71,1.13-.05,.22Z"/>
      <path class="cls-3" d="M1014.94,38.98c-.96,1.93-2.46,3.24-4.5,3.93-2.04,.69-4.03,.55-5.96-.41-1.93-.96-3.24-2.46-3.93-4.51s-.55-4.04,.41-5.97c.96-1.93,2.46-3.24,4.51-3.92,2.05-.68,4.03-.54,5.96,.42,1.93,.96,3.24,2.46,3.92,4.5,.68,2.04,.55,4.03-.41,5.95Zm-.2-.1c.93-1.88,1.07-3.8,.4-5.78-.66-1.98-1.93-3.44-3.81-4.37-1.88-.93-3.81-1.07-5.79-.41-1.99,.66-3.44,1.93-4.37,3.8-.93,1.87-1.06,3.8-.4,5.79,.67,1.99,1.94,3.45,3.81,4.38,1.87,.93,3.8,1.06,5.78,.4,1.98-.67,3.44-1.94,4.37-3.81Z"/>
      <path class="cls-3" d="M1029.22,50.29c-1.37,1.67-3.12,2.61-5.26,2.83-2.14,.22-4.05-.35-5.72-1.72-1.67-1.37-2.61-3.12-2.83-5.27-.22-2.15,.36-4.06,1.72-5.73s3.12-2.61,5.27-2.82c2.14-.21,4.05,.37,5.72,1.73,1.67,1.37,2.61,3.12,2.82,5.26,.21,2.14-.36,4.05-1.73,5.71Zm-.18-.14c1.33-1.62,1.89-3.47,1.68-5.55-.21-2.08-1.12-3.78-2.74-5.1-1.62-1.33-3.47-1.89-5.56-1.68s-3.79,1.12-5.11,2.73-1.88,3.47-1.67,5.56c.21,2.09,1.13,3.79,2.74,5.12,1.62,1.32,3.47,1.88,5.55,1.67,2.08-.21,3.78-1.13,5.11-2.75Zm-5.95,.58l-.18-.14,4.96-6.06-7.55,4.33,2.73-8.28-4.95,6.06-.18-.14,5.72-7-2.93,8.88,8.11-4.65-5.73,7Z"/>
      <path class="cls-3" d="M1040.61,64.4c-1.7,1.33-3.62,1.86-5.76,1.6-2.14-.26-3.87-1.24-5.2-2.94-1.33-1.7-1.86-3.62-1.6-5.76,.26-2.14,1.24-3.88,2.94-5.21,1.7-1.33,3.62-1.86,5.76-1.59,2.14,.27,3.87,1.25,5.2,2.95,1.33,1.7,1.86,3.62,1.6,5.75-.26,2.14-1.24,3.87-2.94,5.19Zm-.14-.18c1.65-1.29,2.6-2.97,2.86-5.04,.25-2.07-.26-3.93-1.55-5.58-1.29-1.65-2.97-2.6-5.05-2.86s-3.94,.26-5.59,1.54c-1.65,1.29-2.6,2.97-2.85,5.05s.26,3.95,1.55,5.6c1.29,1.65,2.97,2.6,5.05,2.85,2.08,.25,3.94-.27,5.59-1.55Z"/>
      <path class="cls-3" d="M1046.5,75.93c-1.31,.67-2.67,.78-4.07,.33-1.4-.45-2.44-1.33-3.11-2.64-.42-.82-.62-1.69-.59-2.6l-3.56-.18v-.23s3.58,.19,3.58,.19c.07-.91,.35-1.75,.85-2.51,.51-.79,1.19-1.4,2.04-1.83,1.31-.67,2.66-.78,4.06-.33,1.4,.45,2.43,1.33,3.1,2.64,.42,.82,.61,1.68,.58,2.6l3.56,.18v.23s-3.58-.19-3.58-.19c-.07,.91-.35,1.75-.84,2.52-.51,.79-1.18,1.41-2.02,1.84Zm-.11-.2c.8-.41,1.45-1,1.94-1.76,.47-.73,.74-1.53,.81-2.4l-10.18-.55c-.03,.88,.16,1.71,.56,2.49,.64,1.25,1.63,2.1,2.98,2.53,1.34,.43,2.64,.33,3.89-.32Zm2.76-4.38c.03-.88-.16-1.71-.56-2.48-.64-1.25-1.63-2.09-2.97-2.52-1.34-.43-2.63-.33-3.89,.32-.8,.41-1.45,1-1.95,1.75-.48,.73-.75,1.53-.81,2.4l10.17,.54Z"/>
      <path class="cls-3" d="M1061.69,102.11l-8.97-1.83,1.69-2.61-11.36-7.11-2.45-11.13,11.51,7.18,1.78-2.73,5.41,7.34-8.97-1.83,1.67-2.59-11.05-6.89,2.32,10.53,11.28,7.06,1.75-2.71,5.41,7.33Zm-2.94-11.25l-4.86-6.58-3.2,4.93,8.05,1.65Zm2.39,10.9l-4.86-6.59-3.2,4.93,8.05,1.66Z"/>
      <path class="cls-3" d="M1055.7,122.49l-7.51-16.13-1.18,15.41-.23-.02,1.24-16.29,7.88,16.92-.21,.1Z"/>
      <path class="cls-3" d="M1046.87,139.74c-2.06-.65-3.58-1.93-4.58-3.84-1-1.91-1.17-3.89-.53-5.95,.65-2.06,1.93-3.59,3.84-4.58,1.91-1,3.9-1.17,5.96-.53,2.06,.65,3.58,1.93,4.57,3.84,.99,1.91,1.16,3.9,.51,5.96-.65,2.06-1.93,3.58-3.83,4.57-1.91,.99-3.89,1.17-5.95,.52Zm.07-.22c2,.63,3.92,.46,5.77-.5,1.85-.96,3.09-2.45,3.72-4.44,.63-2,.46-3.93-.5-5.78-.96-1.86-2.44-3.1-4.44-3.73-1.99-.63-3.92-.46-5.78,.51-1.86,.97-3.1,2.45-3.73,4.45-.63,1.99-.46,3.92,.51,5.77,.97,1.85,2.45,3.1,4.45,3.73Zm-2.54-6.41l1.53-4.84,8.16,2.57-.07,.22-7.94-2.5-1.46,4.62-.22-.07Z"/>
      <path class="cls-3" d="M1036.74,147.46l.11-.2,8.64,4.67-6.87-7.95,.11-.21,10.42,1.38-8.64-4.67,.11-.2,9.18,4.96-.11,.21-10.73-1.42,7.08,8.19-.11,.2-9.18-4.96Z"/>
      <path class="cls-3" d="M1032.3,167.77l3.09-17.52-9.8,11.94-.18-.14,10.36-12.63-3.25,18.38-.23-.03Z"/>
      <path class="cls-3" d="M1020.4,182.55l-2.72-18.02,.22-.03,2.72,18.02-.22,.03Zm4.7-3.66l-2.72-18.02,.23-.04,2.71,18.03-.22,.03Z"/>
      <path class="cls-3" d="M999.39,184.44l13.92-6.56,.1,.21-13.92,6.56-.1-.21Zm1.82-6.61l5.84-2.75,.1,.21-5.84,2.75-.1-.21Zm4.44,9.43l5.84-2.75,.1,.21-5.84,2.75-.1-.21Z"/>
      <path class="cls-3" d="M976.54,194.84l4.11-11.56,15.41-2.76-4.11,11.56-15.41,2.76Zm.35-.3l14.88-2.66,3.94-11.06-14.89,2.67-3.94,11.06Z"/>
      <path class="cls-3" d="M957.37,188.01c.18-2.15,1.09-3.92,2.74-5.31,1.64-1.39,3.54-2,5.69-1.82,2.15,.18,3.92,1.1,5.31,2.74,1.39,1.65,2,3.55,1.82,5.7-.18,2.15-1.1,3.92-2.75,5.3-1.65,1.39-3.55,1.99-5.7,1.81-2.15-.18-3.92-1.09-5.3-2.74s-1.99-3.54-1.81-5.69Zm.23,.02c-.18,2.09,.41,3.93,1.76,5.52,1.35,1.6,3.06,2.48,5.15,2.66,2.09,.18,3.93-.41,5.53-1.76,1.6-1.35,2.49-3.07,2.66-5.15s-.41-3.92-1.77-5.53c-1.36-1.6-3.07-2.49-5.16-2.67-2.09-.18-3.92,.41-5.52,1.76-1.6,1.35-2.48,3.07-2.66,5.16Zm5.19-2.36l.89-.77,1.25-.3,1.59,.13,1.17,.5,.72,.85-.17,.16-.71-.84-1.07-.45-1.52-.13-1.14,.27-.79,.66-.09,1.09,.3,.76,.33,.4,.73,.44,2.25,.97,.76,.46,.39,.45,.33,.86-.07,.85-.89,.75-1.24,.31-1.59-.13-1.18-.52-.72-.85,.18-.14,.68,.81,1.09,.48,1.51,.13,1.14-.29,.78-.66,.06-.69-.31-.77-.33-.4-.71-.43-2.27-.98-.76-.46-.37-.44-.34-.86,.1-1.23Z"/>
      <path class="cls-3" d="M939.93,182.74c.66-2.05,1.94-3.58,3.86-4.56,1.91-.99,3.9-1.15,5.95-.5,2.05,.66,3.58,1.95,4.57,3.86,.99,1.92,1.16,3.91,.5,5.96-.66,2.05-1.95,3.57-3.87,4.55-1.92,.98-3.91,1.15-5.96,.49-2.05-.66-3.57-1.94-4.56-3.85-.99-1.91-1.15-3.9-.49-5.95Zm.22,.07c-.64,1.99-.48,3.92,.48,5.78,.96,1.86,2.43,3.1,4.42,3.74,2,.64,3.92,.48,5.79-.48,1.86-.96,3.11-2.43,3.75-4.42,.64-1.99,.48-3.92-.49-5.78-.96-1.87-2.44-3.12-4.43-3.75-1.99-.64-3.92-.48-5.77,.48-1.86,.96-3.11,2.44-3.75,4.43Zm5.33-2.73l.22,.07-2.39,7.45,5.44-6.8,.49,8.7,2.39-7.45,.22,.07-2.76,8.61-.53-9.34-5.84,7.31,2.76-8.62Z"/>
      <path class="cls-3" d="M924.17,173.74c1.1-1.85,2.69-3.05,4.78-3.59,2.09-.54,4.06-.26,5.91,.84,1.86,1.1,3.05,2.69,3.59,4.78s.26,4.07-.84,5.92c-1.1,1.85-2.69,3.05-4.78,3.58-2.09,.53-4.06,.25-5.92-.85-1.85-1.1-3.05-2.69-3.58-4.77-.54-2.08-.25-4.05,.85-5.91Zm.2,.12c-1.07,1.8-1.34,3.71-.82,5.74,.52,2.02,1.68,3.57,3.48,4.63,1.8,1.07,3.72,1.34,5.75,.83,2.03-.52,3.57-1.68,4.64-3.47,1.06-1.8,1.33-3.71,.81-5.75-.52-2.03-1.68-3.58-3.48-4.65-1.8-1.07-3.71-1.34-5.74-.81-2.03,.52-3.57,1.68-4.64,3.48Z"/>
      <path class="cls-3" d="M910.69,161.38c1.48-1.57,3.3-2.38,5.46-2.44,2.15-.06,4.01,.65,5.58,2.13,1.57,1.48,2.38,3.3,2.44,5.46s-.65,4.02-2.14,5.59-3.3,2.37-5.46,2.43c-2.16,.05-4.02-.66-5.58-2.15s-2.38-3.3-2.43-5.45c-.06-2.15,.65-4.01,2.14-5.57Zm.17,.16c-1.44,1.52-2.13,3.32-2.07,5.41,.06,2.09,.84,3.85,2.36,5.29,1.52,1.44,3.33,2.14,5.42,2.08,2.09-.05,3.86-.84,5.3-2.35,1.44-1.52,2.13-3.32,2.07-5.42-.06-2.1-.85-3.86-2.36-5.3-1.52-1.44-3.32-2.13-5.41-2.07-2.09,.06-3.86,.85-5.3,2.37Zm1.63,1.55c1.01-1.07,2.26-1.62,3.73-1.66,1.47-.04,2.74,.44,3.81,1.45,1.07,1.01,1.62,2.26,1.66,3.73,.04,1.47-.45,2.74-1.46,3.81-1.01,1.07-2.25,1.62-3.72,1.66-1.47,.04-2.74-.45-3.81-1.46-1.07-1.01-1.62-2.25-1.66-3.72-.04-1.47,.45-2.73,1.46-3.8Zm.17,.16c-.97,1.02-1.44,2.24-1.4,3.64,.04,1.4,.57,2.59,1.59,3.56,1.02,.97,2.24,1.44,3.64,1.4,1.41-.03,2.59-.56,3.56-1.58,.97-1.02,1.43-2.24,1.4-3.65-.04-1.41-.57-2.6-1.59-3.57-1.02-.97-2.24-1.43-3.64-1.39-1.41,.04-2.59,.57-3.56,1.59Z"/>
      <path class="cls-3" d="M900.36,146.45c1.79-1.2,3.74-1.59,5.86-1.18,2.12,.41,3.77,1.52,4.97,3.31,1.2,1.79,1.59,3.75,1.17,5.87-.42,2.12-1.52,3.78-3.31,4.98-1.79,1.2-3.75,1.59-5.86,1.16-2.11-.42-3.77-1.53-4.97-3.32-1.2-1.79-1.59-3.74-1.17-5.85s1.52-3.77,3.31-4.97Zm.13,.19c-1.74,1.16-2.81,2.77-3.22,4.82-.41,2.05-.03,3.94,1.14,5.68,1.17,1.74,2.78,2.82,4.83,3.23,2.05,.41,3.95,.03,5.68-1.13,1.74-1.16,2.81-2.77,3.21-4.83,.41-2.06,.03-3.96-1.14-5.69-1.16-1.74-2.77-2.81-4.82-3.21-2.05-.4-3.95-.02-5.69,1.14Zm6.58,2.03l2.82,4.22-7.11,4.76-.13-.19,6.92-4.63-2.7-4.03,.19-.13Z"/>
      <path class="cls-3" d="M890.46,135.67l2.31,6.03-.21,.08-2.31-6.03,.21-.08Zm3.27-6.04l5.5,14.37-.21,.08-5.5-14.37,.21-.08Zm6.46,2.31l2.31,6.03-.21,.08-2.31-6.03,.21-.08Z"/>
      <path class="cls-3" d="M891.35,116.81c1.45-.26,2.78,.04,3.98,.88,1.21,.85,1.93,1.99,2.19,3.44,.16,.91,.09,1.8-.21,2.66l3.35,1.23-.07,.22-3.36-1.24c-.33,.85-.85,1.57-1.55,2.15-.72,.6-1.55,.98-2.48,1.15-1.45,.26-2.78-.04-3.98-.88-1.2-.84-1.93-1.99-2.18-3.44-.16-.91-.09-1.79,.21-2.65l-3.35-1.22,.08-.22,3.36,1.24c.34-.85,.85-1.57,1.55-2.16,.72-.61,1.54-1,2.48-1.16Zm-3.89,3.6c-.28,.83-.35,1.68-.2,2.54,.24,1.39,.94,2.48,2.09,3.29,1.15,.81,2.42,1.09,3.81,.84,.89-.16,1.68-.52,2.38-1.1,.67-.56,1.17-1.25,1.49-2.05l-9.56-3.52Zm3.93-3.37c-.89,.16-1.68,.53-2.37,1.1-.66,.56-1.16,1.24-1.48,2.06l9.56,3.53c.28-.83,.35-1.68,.2-2.55-.24-1.39-.94-2.49-2.1-3.3-1.15-.81-2.42-1.09-3.81-.85Z"/>
      <path class="cls-3" d="M887.59,98.5l8.45,15.66,.27-15.45h.23s-.29,16.34-.29,16.34l-8.87-16.43,.2-.12Z"/>
      <path class="cls-3" d="M891.53,67.96l6.83,6.1-2.77,1.41,6.23,11.87-3.49,10.85-6.32-12-2.92,1.46-.98-9.06,6.83,6.1-2.74,1.4,6.08,11.52,3.31-10.26-6.19-11.78-2.88,1.46-.98-9.06Zm-3.12,11.2l.88,8.13,5.24-2.65-6.12-5.48Zm3.42-10.62l.88,8.14,5.25-2.65-6.12-5.49Z"/>
      <path class="cls-3" d="M911.26,62.72l-5.77,8.96-8.96-5.77,5.77-8.96,8.95,5.77Zm-.32,.07l-8.57-5.52-5.52,8.57,8.57,5.52,5.52-8.57Z"/>
      <path class="cls-3" d="M915.18,50.18c1.1,.98,1.69,2.21,1.77,3.68,.08,1.47-.36,2.75-1.35,3.85-.61,.69-1.35,1.18-2.21,1.48l1.11,3.39-.21,.08-1.11-3.4c-.87,.27-1.76,.3-2.65,.11-.92-.2-1.73-.61-2.44-1.24-1.1-.98-1.69-2.2-1.77-3.67-.08-1.46,.37-2.74,1.35-3.84,.61-.69,1.35-1.18,2.21-1.48l-1.11-3.39,.22-.08,1.11,3.4c.88-.26,1.76-.3,2.65-.12,.92,.19,1.74,.59,2.44,1.23Zm-5.23-.83c-.83,.29-1.53,.76-2.12,1.41-.94,1.05-1.37,2.28-1.29,3.68,.08,1.4,.64,2.57,1.69,3.51,.68,.6,1.45,1,2.34,1.19,.86,.18,1.7,.14,2.53-.1l-3.16-9.69Zm5.08,1c-.68-.6-1.45-1-2.34-1.18-.85-.18-1.69-.14-2.53,.11l3.15,9.69c.83-.29,1.54-.77,2.12-1.42,.94-1.05,1.37-2.28,1.29-3.69-.08-1.41-.64-2.58-1.69-3.52Z"/>
      <path class="cls-3" d="M938.09,42.4l-16.96,12.11-.13-.19,8.39-5.99-9.16-12.83,.19-.13,9.16,12.83,8.39-5.99,.13,.19Z"/>
      <path class="cls-3" d="M950.8,29.49c.76,2.02,.7,4.01-.18,5.97-.88,1.96-2.34,3.33-4.35,4.09-2.02,.76-4.01,.7-5.98-.19-1.97-.89-3.33-2.34-4.1-4.36-.76-2.02-.7-4.01,.2-5.97,.89-1.96,2.35-3.32,4.36-4.09,2.02-.76,4.01-.7,5.97,.19,1.96,.89,3.32,2.34,4.08,4.36Zm-.21,.08c-.74-1.96-2.06-3.37-3.96-4.23-1.9-.86-3.83-.92-5.79-.18-1.96,.74-3.37,2.06-4.24,3.97-.86,1.91-.93,3.84-.19,5.79,.74,1.96,2.06,3.36,3.98,4.23,1.91,.86,3.85,.93,5.8,.19,1.96-.74,3.37-2.06,4.22-3.97,.86-1.91,.92-3.84,.18-5.8Zm-3.67,4.37l-.48,1.07-1,.81-1.49,.56-1.27,.05-1.02-.46,.08-.21,1,.45,1.16-.05,1.43-.54,.92-.74,.42-.94-.39-1.02-.6-.56-.47-.22-.85-.08-2.45,.1-.88-.09-.55-.24-.67-.63-.3-.8,.48-1.06,.98-.81,1.49-.56,1.29-.04,1.02,.46-.1,.21-.96-.44-1.2,.04-1.42,.54-.91,.75-.42,.94,.24,.65,.61,.56,.47,.22,.83,.08,2.47-.09,.88,.09,.53,.24,.68,.62,.43,1.15Z"/>
      <path class="cls-3" d="M968.81,26.76c.29,2.14-.22,4.06-1.52,5.78-1.3,1.72-3.02,2.72-5.16,3.01-2.14,.29-4.06-.22-5.78-1.53-1.72-1.31-2.72-3.03-3.01-5.17-.29-2.14,.22-4.06,1.53-5.77,1.31-1.71,3.03-2.71,5.17-3,2.14-.29,4.06,.22,5.77,1.52,1.71,1.3,2.71,3.02,3,5.16Zm-.23,.03c-.28-2.08-1.25-3.75-2.92-5.01-1.66-1.26-3.53-1.76-5.6-1.47-2.08,.28-3.75,1.25-5.02,2.92-1.27,1.66-1.76,3.53-1.48,5.6,.28,2.07,1.26,3.74,2.93,5.01,1.67,1.27,3.54,1.77,5.61,1.48,2.07-.28,3.74-1.25,5.01-2.92,1.26-1.67,1.76-3.54,1.48-5.61Z"/>
    </g>
    <g class="cls-8">
      <path class="cls-3" d="M966.1,159.36l4.41,.27-.43,7.14-4.4-.27v-.15s4.26,.26,4.26,.26l.19-3.18-2.59-.16v-.15s2.6,.16,2.6,.16l.21-3.51-4.25-.26v-.15Z"/>
      <path class="cls-3" d="M953.82,160.46c.34-1.41,1.12-2.49,2.36-3.25,1.23-.76,2.56-.97,3.96-.63,1.41,.34,2.49,1.13,3.25,2.36,.76,1.24,.97,2.56,.63,3.97-.34,1.41-1.13,2.49-2.36,3.25-1.24,.75-2.56,.96-3.97,.63-1.41-.34-2.49-1.12-3.25-2.36-.76-1.23-.96-2.55-.63-3.96Zm.15,.04c-.33,1.37-.13,2.65,.61,3.85,.73,1.2,1.78,1.96,3.15,2.29,1.37,.33,2.65,.13,3.85-.61,1.2-.73,1.96-1.78,2.29-3.15,.33-1.37,.12-2.65-.62-3.85s-1.79-1.97-3.16-2.29-2.65-.12-3.85,.61c-1.2,.74-1.96,1.79-2.29,3.16Zm4.17-2l3.32,.8-1.34,5.59-.15-.04,1.3-5.44-3.17-.76,.04-.15Z"/>
      <path class="cls-3" d="M942.64,155.13c.65-1.3,1.66-2.18,3.03-2.64,1.37-.46,2.71-.37,4,.27,1.3,.64,2.18,1.66,2.64,3.03,.46,1.38,.37,2.71-.27,4.01-.64,1.3-1.66,2.17-3.03,2.63-1.37,.46-2.71,.36-4.01-.28-1.3-.64-2.18-1.65-2.64-3.02-.46-1.37-.37-2.7,.28-4Zm.14,.07c-.63,1.26-.72,2.56-.27,3.89,.45,1.33,1.3,2.31,2.56,2.94,1.26,.63,2.56,.72,3.89,.27,1.33-.44,2.32-1.3,2.94-2.55,.63-1.26,.71-2.55,.26-3.89-.45-1.34-1.3-2.32-2.56-2.94-1.26-.63-2.55-.71-3.89-.27-1.33,.45-2.31,1.3-2.94,2.56Z"/>
      <path class="cls-3" d="M933,147.53c.92-1.12,2.09-1.76,3.53-1.91s2.72,.24,3.84,1.15c1.12,.92,1.76,2.1,1.91,3.54,.15,1.44-.24,2.73-1.15,3.85-.92,1.12-2.09,1.76-3.54,1.9s-2.72-.24-3.85-1.16c-1.12-.92-1.76-2.09-1.9-3.53-.15-1.44,.24-2.72,1.15-3.84Zm.12,.1c-.89,1.09-1.26,2.33-1.12,3.73,.14,1.4,.76,2.54,1.85,3.43,1.09,.89,2.34,1.26,3.74,1.12,1.4-.14,2.54-.75,3.43-1.84,.89-1.09,1.26-2.33,1.12-3.74s-.76-2.55-1.85-3.44c-1.09-.89-2.33-1.26-3.73-1.12-1.4,.14-2.54,.76-3.43,1.85Zm4-.4l.12,.1-3.32,4.07,5.07-2.92-1.83,5.56,3.32-4.08,.12,.1-3.84,4.71,1.96-5.97-5.45,3.14,3.84-4.71Z"/>
      <path class="cls-3" d="M925.21,137.9c1.14-.89,2.43-1.25,3.87-1.08,1.44,.17,2.6,.83,3.49,1.97,.89,1.14,1.25,2.43,1.08,3.87s-.84,2.61-1.98,3.5c-1.14,.89-2.43,1.25-3.87,1.07-1.44-.18-2.6-.84-3.49-1.98-.89-1.14-1.25-2.43-1.07-3.86,.18-1.44,.83-2.6,1.98-3.49Zm.1,.12c-1.11,.87-1.75,2-1.92,3.39-.17,1.39,.18,2.64,1.04,3.75,.87,1.11,2,1.75,3.39,1.92,1.4,.17,2.65-.17,3.75-1.04s1.75-2,1.92-3.4c.17-1.4-.18-2.65-1.04-3.76-.86-1.11-1.99-1.75-3.39-1.92-1.39-.17-2.65,.18-3.76,1.05Z"/>
      <path class="cls-3" d="M921.23,130.14c.88-.45,1.79-.53,2.73-.23,.94,.3,1.64,.89,2.09,1.77,.28,.55,.42,1.14,.4,1.75l2.4,.12v.15s-2.41-.12-2.41-.12c-.04,.61-.24,1.18-.57,1.69-.35,.53-.8,.94-1.37,1.23-.88,.45-1.79,.53-2.73,.23-.94-.3-1.63-.89-2.09-1.77-.28-.55-.41-1.13-.4-1.74l-2.4-.12v-.15s2.41,.12,2.41,.12c.05-.61,.23-1.18,.56-1.69,.34-.53,.79-.95,1.36-1.24Zm-1.78,3.08c-.02,.59,.11,1.15,.38,1.67,.43,.84,1.1,1.4,2,1.69,.9,.29,1.77,.22,2.61-.22,.54-.28,.98-.67,1.31-1.18,.32-.49,.5-1.03,.55-1.61l-6.84-.35Zm1.85-2.95c-.54,.28-.98,.67-1.3,1.18-.32,.49-.5,1.03-.54,1.62l6.84,.36c.02-.59-.11-1.15-.38-1.67-.43-.84-1.1-1.41-2-1.7-.9-.29-1.77-.22-2.62,.21Z"/>
      <path class="cls-3" d="M910.95,112.45l6.03,1.22-1.13,1.76,7.64,4.77,1.66,7.48-7.74-4.82-1.2,1.84-3.64-4.93,6.03,1.22-1.12,1.74,7.44,4.62-1.57-7.08-7.59-4.73-1.17,1.82-3.64-4.92Zm.37,.23l3.27,4.42,2.15-3.32-5.42-1.1Zm1.62,7.32l3.27,4.42,2.14-3.32-5.41-1.1Z"/>
      <path class="cls-3" d="M914.95,98.6l5.07,10.83,.77-10.36h.15s-.82,10.96-.82,10.96l-5.32-11.36,.14-.07Z"/>
      <path class="cls-3" d="M920.88,86.88c1.38,.43,2.41,1.29,3.08,2.57,.67,1.28,.79,2.62,.36,4s-1.29,2.41-2.58,3.08c-1.29,.67-2.62,.79-4,.36-1.38-.43-2.41-1.29-3.08-2.58-.67-1.29-.79-2.62-.35-4,.43-1.38,1.29-2.41,2.57-3.08,1.28-.67,2.61-.79,3.99-.36Zm-.04,.15c-1.34-.42-2.64-.31-3.88,.35-1.24,.65-2.08,1.65-2.5,2.99-.42,1.35-.31,2.64,.34,3.89,.65,1.25,1.65,2.08,2.99,2.5s2.64,.3,3.89-.35c1.25-.65,2.08-1.65,2.5-2.99,.42-1.34,.3-2.63-.35-3.88-.65-1.24-1.65-2.08-2.99-2.5Zm1.71,4.3l-1.02,3.26-5.48-1.72,.05-.15,5.34,1.67,.98-3.11,.15,.05Z"/>
      <path class="cls-3" d="M927.73,81.59l-.07,.13-5.81-3.13,4.62,5.34-.08,.14-7-.91,5.81,3.13-.07,.13-6.17-3.32,.07-.14,7.21,.95-4.76-5.5,.08-.14,6.17,3.32Z"/>
      <path class="cls-3" d="M930.74,67.85l-2.06,11.78,6.58-8.04,.12,.1-6.95,8.5,2.17-12.36,.16,.02Z"/>
      <path class="cls-3" d="M935.65,60.3l1.84,12.11-.15,.02-1.84-12.11,.15-.02Zm3.15-2.47l1.84,12.11-.15,.02-1.84-12.11,.15-.02Z"/>
      <path class="cls-3" d="M952.94,56.5l-9.34,4.44-.06-.14,9.34-4.44,.06,.14Zm-4.21-1.88l-3.92,1.86-.06-.14,3.92-1.86,.07,.14Zm3.01,6.33l-3.92,1.86-.07-.14,3.92-1.86,.07,.14Z"/>
      <path class="cls-3" d="M968.49,49.42l-2.75,7.77-10.36,1.87,2.75-7.77,10.36-1.87Zm-.24,.2l-10,1.81-2.64,7.44,10-1.81,2.64-7.44Z"/>
      <path class="cls-3" d="M981.52,53.99c-.12,1.44-.73,2.64-1.83,3.57-1.1,.94-2.38,1.35-3.82,1.23s-2.64-.73-3.58-1.84c-.94-1.11-1.35-2.38-1.23-3.83,.12-1.44,.73-2.63,1.84-3.57,1.11-.93,2.38-1.34,3.83-1.22,1.44,.12,2.63,.73,3.57,1.83,.93,1.1,1.34,2.38,1.22,3.82Zm-.15-.01c.12-1.4-.28-2.64-1.19-3.71-.91-1.07-2.06-1.66-3.46-1.78-1.4-.12-2.64,.28-3.72,1.19-1.07,.91-1.67,2.06-1.78,3.46-.12,1.4,.28,2.64,1.19,3.71s2.07,1.67,3.47,1.79,2.64-.28,3.71-1.19c1.07-.91,1.67-2.06,1.78-3.47Zm-3.48,1.59l-.6,.51-.84,.2-1.07-.09-.78-.34-.49-.57,.11-.11,.48,.56,.72,.3,1.02,.09,.77-.18,.53-.45,.06-.73-.2-.51-.22-.27-.49-.29-1.52-.65-.51-.31-.26-.3-.22-.57,.05-.57,.6-.5,.83-.21,1.07,.09,.79,.34,.48,.57-.12,.1-.46-.54-.74-.32-1.02-.08-.77,.19-.53,.45-.04,.47,.21,.52,.22,.27,.48,.29,1.52,.65,.51,.31,.25,.3,.23,.57-.07,.83Z"/>
      <path class="cls-3" d="M993.36,57.53c-.44,1.38-1.3,2.41-2.59,3.07s-2.62,.78-4,.34-2.41-1.3-3.07-2.59c-.67-1.29-.78-2.62-.34-4,.44-1.38,1.3-2.4,2.59-3.07,1.29-.66,2.62-.77,4-.33,1.38,.44,2.4,1.3,3.07,2.59,.66,1.29,.78,2.62,.34,4Zm-.14-.05c.43-1.34,.32-2.64-.33-3.88-.65-1.25-1.64-2.08-2.98-2.51-1.34-.43-2.64-.32-3.89,.33-1.25,.64-2.09,1.64-2.52,2.97-.43,1.34-.31,2.63,.33,3.89,.65,1.25,1.64,2.09,2.98,2.52,1.34,.43,2.63,.32,3.88-.33,1.25-.65,2.09-1.64,2.51-2.98Zm-3.58,1.84l-.15-.05,1.6-5.01-3.65,4.58-.34-5.85-1.6,5.01-.15-.05,1.84-5.79,.37,6.27,3.92-4.92-1.85,5.79Z"/>
      <path class="cls-3" d="M1004.06,63.61c-.74,1.25-1.81,2.05-3.21,2.42-1.4,.36-2.73,.18-3.98-.56-1.25-.74-2.05-1.81-2.42-3.21-.36-1.4-.18-2.73,.56-3.98,.74-1.25,1.81-2.05,3.21-2.41,1.4-.36,2.73-.17,3.98,.57,1.25,.74,2.05,1.81,2.41,3.21,.36,1.4,.17,2.72-.56,3.97Zm-.13-.08c.71-1.21,.9-2.5,.55-3.86-.35-1.36-1.13-2.4-2.34-3.11-1.21-.72-2.5-.9-3.86-.55s-2.4,1.13-3.11,2.34c-.71,1.21-.9,2.5-.54,3.86,.35,1.36,1.14,2.4,2.35,3.12,1.21,.71,2.5,.9,3.86,.54,1.36-.35,2.4-1.14,3.11-2.35Z"/>
      <path class="cls-3" d="M1013.17,71.92c-.99,1.06-2.21,1.6-3.66,1.65-1.45,.04-2.7-.43-3.75-1.42-1.05-.99-1.6-2.21-1.65-3.67-.04-1.45,.43-2.7,1.43-3.76,.99-1.06,2.21-1.6,3.66-1.64,1.45-.04,2.7,.44,3.75,1.43,1.06,.99,1.6,2.21,1.65,3.66,.04,1.44-.43,2.69-1.43,3.75Zm-.11-.11c.96-1.02,1.43-2.24,1.38-3.64-.04-1.4-.58-2.59-1.6-3.55-1.02-.96-2.24-1.43-3.65-1.39-1.41,.04-2.59,.57-3.55,1.59-.96,1.02-1.42,2.24-1.38,3.65,.04,1.41,.58,2.59,1.6,3.56,1.02,.96,2.24,1.42,3.64,1.38,1.41-.04,2.59-.58,3.56-1.6Zm-1.1-1.04c-.68,.72-1.51,1.1-2.5,1.13-.99,.03-1.84-.29-2.56-.97-.72-.68-1.1-1.51-1.13-2.5-.03-.99,.29-1.84,.97-2.56,.68-.72,1.51-1.09,2.5-1.12,.99-.03,1.84,.3,2.56,.98,.72,.68,1.09,1.51,1.12,2.5,.03,.98-.29,1.84-.97,2.56Zm-.11-.11c.65-.69,.96-1.5,.93-2.45-.03-.94-.39-1.74-1.08-2.39-.69-.65-1.51-.96-2.45-.93-.94,.03-1.74,.38-2.39,1.07-.65,.69-.96,1.51-.93,2.45,.03,.95,.39,1.75,1.08,2.4,.69,.65,1.51,.96,2.45,.93,.94-.03,1.74-.39,2.39-1.08Z"/>
      <path class="cls-3" d="M1020.22,82.01c-1.2,.81-2.51,1.08-3.93,.8-1.42-.27-2.54-1.01-3.35-2.21-.81-1.2-1.08-2.51-.8-3.94,.28-1.42,1.01-2.54,2.22-3.35s2.51-1.07,3.93-.79c1.42,.28,2.54,1.02,3.35,2.22,.81,1.2,1.08,2.51,.8,3.93-.28,1.42-1.01,2.53-2.22,3.34Zm-.09-.13c1.17-.79,1.88-1.87,2.15-3.25s0-2.65-.78-3.82c-.79-1.17-1.87-1.89-3.25-2.16-1.38-.27-2.65-.01-3.82,.77-1.16,.78-1.88,1.87-2.15,3.25-.27,1.38-.01,2.66,.78,3.83,.79,1.16,1.87,1.88,3.25,2.15,1.38,.27,2.65,0,3.82-.78Zm-4.43-1.35l-1.91-2.83,4.76-3.21,.09,.13-4.64,3.13,1.82,2.7-.13,.09Z"/>
      <path class="cls-3" d="M1020.41,91.86l-1.56-4.05,.14-.06,1.56,4.05-.14,.05Zm4.35,1.54l-3.73-9.65,.14-.06,3.73,9.65-.14,.05Zm2.19-4.06l-1.56-4.05,.14-.06,1.56,4.05-.14,.05Z"/>
      <path class="cls-3" d="M1026.41,102.1c-.98,.18-1.87-.02-2.68-.59-.81-.56-1.31-1.33-1.48-2.31-.11-.61-.06-1.21,.13-1.79l-2.25-.82,.05-.14,2.26,.82c.22-.57,.57-1.06,1.04-1.45,.48-.4,1.04-.66,1.67-.78,.97-.17,1.87,.02,2.67,.58s1.3,1.33,1.47,2.3c.11,.61,.06,1.2-.13,1.78l2.26,.82-.05,.14-2.26-.82c-.23,.57-.57,1.06-1.03,1.45-.48,.41-1.03,.67-1.66,.78Zm-.03-.15c.6-.11,1.13-.36,1.59-.75,.45-.38,.78-.84,.99-1.39l-6.43-2.35c-.19,.56-.23,1.13-.13,1.71,.17,.93,.64,1.67,1.42,2.21,.78,.54,1.63,.73,2.56,.56Zm2.63-2.27c.19-.56,.23-1.13,.13-1.7-.17-.93-.64-1.67-1.41-2.21-.78-.54-1.63-.73-2.56-.56-.6,.11-1.13,.35-1.6,.74-.45,.38-.78,.84-1,1.38l6.43,2.34Z"/>
      <path class="cls-3" d="M1028.97,114.42l-5.69-10.52-.17,10.38h-.15s.18-10.98,.18-10.98l5.97,11.04-.14,.08Z"/>
      <path class="cls-3" d="M1026.37,135.18l-4.6-4.08,1.86-.95-4.21-7.96,2.33-7.3,4.27,8.05,1.96-.99,.68,6.09-4.6-4.09,1.84-.94-4.11-7.73-2.2,6.9,4.19,7.9,1.93-.99,.68,6.09Zm-.2-.39l-.61-5.47-3.52,1.79,4.13,3.68Zm2.28-7.14l-.61-5.46-3.52,1.79,4.13,3.67Z"/>
      <path class="cls-3" d="M1013.12,138.81l3.85-6.04,6.04,3.85-3.85,6.04-6.04-3.85Zm.21-.05l5.78,3.68,3.68-5.78-5.78-3.68-3.68,5.78Z"/>
      <path class="cls-3" d="M1010.47,147.31c-.74-.65-1.14-1.48-1.2-2.47-.06-.99,.24-1.85,.9-2.59,.41-.46,.91-.8,1.48-1l-.76-2.27,.14-.05,.76,2.29c.59-.18,1.18-.21,1.78-.08,.62,.13,1.17,.41,1.64,.83,.74,.66,1.14,1.47,1.2,2.46s-.24,1.85-.89,2.59c-.41,.46-.9,.79-1.48,1l.76,2.28-.14,.05-.76-2.28c-.59,.18-1.18,.21-1.78,.09-.62-.12-1.17-.4-1.65-.82Zm.1-.11c.46,.4,.98,.66,1.57,.78,.57,.12,1.14,.09,1.7-.08l-2.15-6.5c-.56,.2-1.03,.52-1.42,.96-.63,.71-.91,1.54-.85,2.48,.06,.95,.44,1.73,1.15,2.36Zm3.42,.65c.56-.2,1.03-.52,1.42-.95,.63-.71,.91-1.53,.85-2.48-.06-.94-.44-1.73-1.15-2.35-.46-.4-.98-.67-1.57-.79-.57-.12-1.14-.09-1.7,.08l2.15,6.5Z"/>
      <path class="cls-3" d="M995.01,152.69l11.37-8.19,.09,.12-5.62,4.05,6.2,8.6-.12,.09-6.2-8.6-5.62,4.05-.09-.12Z"/>
      <path class="cls-3" d="M986.32,161.48c-.52-1.35-.48-2.69,.11-4.01,.59-1.32,1.56-2.24,2.92-2.76,1.36-.52,2.69-.48,4.02,.12,1.33,.59,2.25,1.57,2.76,2.92,.51,1.35,.48,2.69-.12,4.01-.6,1.32-1.57,2.24-2.93,2.76-1.35,.52-2.69,.48-4.01-.11-1.32-.59-2.24-1.57-2.75-2.92Zm.14-.05c.5,1.31,1.39,2.26,2.67,2.83,1.28,.57,2.58,.61,3.89,.11,1.32-.5,2.26-1.39,2.84-2.68,.58-1.28,.62-2.58,.12-3.89-.5-1.31-1.39-2.26-2.68-2.83-1.29-.58-2.59-.61-3.9-.11-1.31,.5-2.26,1.39-2.83,2.68-.57,1.28-.61,2.58-.11,3.9Zm2.45-2.94l.32-.72,.67-.54,1-.38,.85-.04,.69,.31-.05,.14-.67-.3-.78,.04-.96,.36-.61,.5-.28,.63,.26,.69,.41,.37,.31,.14,.57,.05,1.65-.07,.59,.06,.37,.16,.45,.42,.2,.54-.32,.71-.66,.55-1,.38-.86,.03-.69-.31,.07-.14,.65,.29,.8-.03,.95-.36,.61-.51,.28-.63-.16-.43-.41-.38-.31-.14-.56-.05-1.66,.07-.59-.06-.35-.16-.46-.42-.29-.77Z"/>
      <path class="cls-3" d="M974.2,163.38c-.2-1.44,.13-2.73,1-3.89,.87-1.16,2.02-1.84,3.46-2.04,1.44-.2,2.73,.13,3.89,1.01s1.84,2.03,2.04,3.46c.2,1.43-.13,2.73-1.01,3.89-.88,1.15-2.03,1.83-3.47,2.03-1.43,.2-2.73-.13-3.88-1-1.15-.87-1.83-2.02-2.03-3.46Zm.15-.02c.2,1.39,.85,2.51,1.98,3.36,1.12,.84,2.38,1.17,3.77,.97,1.39-.2,2.52-.86,3.36-1.98,.85-1.12,1.18-2.38,.98-3.77-.19-1.39-.86-2.51-1.98-3.36-1.13-.85-2.39-1.17-3.78-.98-1.39,.19-2.51,.85-3.36,1.98-.85,1.12-1.17,2.38-.98,3.78Z"/>
    </g>
    <path class="cls-3" d="M972,179.07c-39.19,0-71.07-31.88-71.07-71.07s31.88-71.07,71.07-71.07,71.07,31.88,71.07,71.07-31.88,71.07-71.07,71.07Z"/>
    <path class="cls-3" d="M972,172.09c-35.34,0-64.09-28.75-64.09-64.09s28.75-64.08,64.09-64.08,64.08,28.75,64.08,64.08-28.75,64.09-64.08,64.09Z"/>
    <path class="cls-2" d="M972,154.63c-25.71,0-46.63-20.92-46.63-46.63s20.92-46.63,46.63-46.63,46.63,20.92,46.63,46.63-20.92,46.63-46.63,46.63Z"/>
  </g>
  <g>
    <circle class="cls-4" cx="1188" cy="108" r="99"/>
    <path class="cls-4" d="M1188,200.02c-50.74,0-92.02-41.28-92.02-92.02s41.28-92.02,92.02-92.02,92.02,41.28,92.02,92.02-41.28,92.02-92.02,92.02Z"/>
    <g>
      <path class="cls-4" d="M1196.44,32.78l-6.55-.41,.66-10.63,6.55,.41-.02,.23-6.32-.39-.29,4.73,3.85,.24v.23s-3.86-.24-3.86-.24l-.32,5.22,6.32,.39-.02,.23Z"/>
      <path class="cls-4" d="M1214.46,31.11c-.5,2.1-1.67,3.71-3.51,4.84-1.83,1.13-3.8,1.44-5.9,.94-2.1-.5-3.71-1.67-4.84-3.51-1.13-1.84-1.44-3.81-.94-5.91,.5-2.1,1.67-3.71,3.51-4.83,1.84-1.12,3.81-1.43,5.91-.93,2.1,.5,3.71,1.67,4.83,3.5,1.13,1.83,1.44,3.8,.93,5.9Zm-.22-.05c.49-2.04,.19-3.94-.91-5.72-1.09-1.78-2.65-2.91-4.69-3.4-2.04-.49-3.95-.19-5.74,.91-1.79,1.09-2.92,2.65-3.41,4.69-.49,2.03-.18,3.94,.92,5.73,1.1,1.79,2.66,2.93,4.7,3.41,2.03,.49,3.94,.18,5.72-.91,1.78-1.09,2.92-2.66,3.4-4.7Zm-6.21,2.98l-4.94-1.18,1.99-8.32,.22,.05-1.94,8.09,4.71,1.13-.05,.22Z"/>
      <path class="cls-4" d="M1230.94,38.98c-.96,1.93-2.46,3.24-4.5,3.93-2.04,.69-4.03,.55-5.96-.41-1.93-.96-3.24-2.46-3.93-4.51-.69-2.05-.55-4.04,.41-5.97,.96-1.93,2.46-3.24,4.51-3.92,2.05-.68,4.03-.54,5.96,.42,1.93,.96,3.24,2.46,3.92,4.5,.68,2.04,.55,4.03-.41,5.95Zm-.2-.1c.93-1.88,1.07-3.8,.4-5.78-.66-1.98-1.93-3.44-3.81-4.37-1.88-.93-3.81-1.07-5.79-.41-1.99,.66-3.44,1.93-4.37,3.8-.93,1.87-1.06,3.8-.4,5.79,.67,1.99,1.94,3.45,3.81,4.38,1.87,.93,3.8,1.06,5.78,.4,1.98-.67,3.44-1.94,4.37-3.81Z"/>
      <path class="cls-4" d="M1245.22,50.29c-1.37,1.67-3.12,2.61-5.26,2.83-2.14,.22-4.05-.35-5.72-1.72-1.67-1.37-2.61-3.12-2.83-5.27-.22-2.15,.36-4.06,1.72-5.73,1.37-1.67,3.12-2.61,5.27-2.82,2.14-.21,4.05,.37,5.72,1.73,1.67,1.37,2.61,3.12,2.82,5.26,.21,2.14-.36,4.05-1.73,5.71Zm-.18-.14c1.33-1.62,1.89-3.47,1.68-5.55-.21-2.08-1.12-3.78-2.74-5.1-1.62-1.33-3.47-1.89-5.56-1.68s-3.79,1.12-5.11,2.73c-1.32,1.62-1.88,3.47-1.67,5.56,.21,2.09,1.13,3.79,2.74,5.12,1.62,1.32,3.47,1.88,5.55,1.67,2.08-.21,3.78-1.13,5.11-2.75Zm-5.95,.58l-.18-.14,4.96-6.06-7.55,4.33,2.73-8.28-4.95,6.06-.18-.14,5.72-7-2.93,8.88,8.11-4.65-5.73,7Z"/>
      <path class="cls-4" d="M1256.61,64.4c-1.7,1.33-3.62,1.86-5.76,1.6-2.14-.26-3.87-1.24-5.2-2.94-1.33-1.7-1.86-3.62-1.6-5.76,.26-2.14,1.24-3.88,2.94-5.21,1.7-1.33,3.62-1.86,5.76-1.59,2.14,.27,3.87,1.25,5.2,2.95,1.33,1.7,1.86,3.62,1.6,5.75-.26,2.14-1.24,3.87-2.94,5.19Zm-.14-.18c1.65-1.29,2.6-2.97,2.86-5.04,.25-2.07-.26-3.93-1.55-5.58-1.29-1.65-2.97-2.6-5.05-2.86-2.08-.26-3.94,.26-5.59,1.54-1.65,1.29-2.6,2.97-2.85,5.05s.26,3.95,1.55,5.6c1.29,1.65,2.97,2.6,5.05,2.85,2.08,.25,3.94-.27,5.59-1.55Z"/>
      <path class="cls-4" d="M1262.5,75.93c-1.31,.67-2.67,.78-4.07,.33-1.4-.45-2.44-1.33-3.11-2.64-.42-.82-.62-1.69-.59-2.6l-3.56-.18v-.23s3.58,.19,3.58,.19c.07-.91,.35-1.75,.85-2.51,.51-.79,1.19-1.4,2.04-1.83,1.31-.67,2.66-.78,4.06-.33,1.4,.45,2.43,1.33,3.1,2.64,.42,.82,.61,1.68,.58,2.6l3.56,.18v.23s-3.58-.19-3.58-.19c-.07,.91-.35,1.75-.84,2.52-.51,.79-1.18,1.41-2.02,1.84Zm-.11-.2c.8-.41,1.45-1,1.94-1.76,.47-.73,.74-1.53,.81-2.4l-10.18-.55c-.03,.88,.16,1.71,.56,2.49,.64,1.25,1.63,2.1,2.98,2.53,1.34,.43,2.64,.33,3.89-.32Zm2.76-4.38c.03-.88-.16-1.71-.56-2.48-.64-1.25-1.63-2.09-2.97-2.52-1.34-.43-2.63-.33-3.89,.32-.8,.41-1.45,1-1.95,1.75-.48,.73-.75,1.53-.81,2.4l10.17,.54Z"/>
      <path class="cls-4" d="M1277.69,102.11l-8.97-1.83,1.69-2.61-11.36-7.11-2.45-11.13,11.51,7.18,1.78-2.73,5.41,7.34-8.97-1.83,1.67-2.59-11.05-6.89,2.32,10.53,11.28,7.06,1.75-2.71,5.41,7.33Zm-2.94-11.25l-4.86-6.58-3.2,4.93,8.05,1.65Zm2.39,10.9l-4.86-6.59-3.2,4.93,8.05,1.66Z"/>
      <path class="cls-4" d="M1271.7,122.49l-7.51-16.13-1.18,15.41-.23-.02,1.24-16.29,7.88,16.92-.21,.1Z"/>
      <path class="cls-4" d="M1262.87,139.74c-2.06-.65-3.58-1.93-4.58-3.84-1-1.91-1.17-3.89-.53-5.95,.65-2.06,1.93-3.59,3.84-4.58,1.91-1,3.9-1.17,5.96-.53,2.06,.65,3.58,1.93,4.57,3.84,.99,1.91,1.16,3.9,.51,5.96-.65,2.06-1.93,3.58-3.83,4.57-1.91,.99-3.89,1.17-5.95,.52Zm.07-.22c2,.63,3.92,.46,5.77-.5,1.85-.96,3.09-2.45,3.72-4.44,.63-2,.46-3.93-.5-5.78-.96-1.86-2.44-3.1-4.44-3.73-1.99-.63-3.92-.46-5.78,.51-1.86,.97-3.1,2.45-3.73,4.45-.63,1.99-.46,3.92,.51,5.77,.97,1.85,2.45,3.1,4.45,3.73Zm-2.54-6.41l1.53-4.84,8.16,2.57-.07,.22-7.94-2.5-1.46,4.62-.22-.07Z"/>
      <path class="cls-4" d="M1252.74,147.46l.11-.2,8.64,4.67-6.87-7.95,.11-.21,10.42,1.38-8.64-4.67,.11-.2,9.18,4.96-.11,.21-10.73-1.42,7.08,8.19-.11,.2-9.18-4.96Z"/>
      <path class="cls-4" d="M1248.3,167.77l3.09-17.52-9.8,11.94-.18-.14,10.36-12.63-3.25,18.38-.23-.03Z"/>
      <path class="cls-4" d="M1236.4,182.55l-2.72-18.02,.22-.03,2.72,18.02-.22,.03Zm4.7-3.66l-2.72-18.02,.23-.04,2.71,18.03-.22,.03Z"/>
      <path class="cls-4" d="M1215.39,184.44l13.92-6.56,.1,.21-13.92,6.56-.1-.21Zm1.82-6.61l5.84-2.75,.1,.21-5.84,2.75-.1-.21Zm4.44,9.43l5.84-2.75,.1,.21-5.84,2.75-.1-.21Z"/>
      <path class="cls-4" d="M1192.54,194.84l4.11-11.56,15.41-2.76-4.11,11.56-15.41,2.76Zm.35-.3l14.88-2.66,3.94-11.06-14.89,2.67-3.94,11.06Z"/>
      <path class="cls-4" d="M1173.37,188.01c.18-2.15,1.09-3.92,2.74-5.31,1.64-1.39,3.54-2,5.69-1.82,2.15,.18,3.92,1.1,5.31,2.74s2,3.55,1.82,5.7c-.18,2.15-1.1,3.92-2.75,5.3-1.65,1.39-3.55,1.99-5.7,1.81-2.15-.18-3.92-1.09-5.3-2.74s-1.99-3.54-1.81-5.69Zm.23,.02c-.18,2.09,.41,3.93,1.76,5.52,1.35,1.6,3.06,2.48,5.15,2.66,2.09,.18,3.93-.41,5.53-1.76s2.49-3.07,2.66-5.15c.18-2.08-.41-3.92-1.77-5.53-1.36-1.6-3.07-2.49-5.16-2.67-2.09-.18-3.92,.41-5.52,1.76-1.6,1.35-2.48,3.07-2.66,5.16Zm5.19-2.36l.89-.77,1.25-.3,1.59,.13,1.17,.5,.72,.85-.17,.16-.71-.84-1.07-.45-1.52-.13-1.14,.27-.79,.66-.09,1.09,.3,.76,.33,.4,.73,.44,2.25,.97,.76,.46,.39,.45,.33,.86-.07,.85-.89,.75-1.24,.31-1.59-.13-1.18-.52-.72-.85,.18-.14,.68,.81,1.09,.48,1.51,.13,1.14-.29,.78-.66,.06-.69-.31-.77-.33-.4-.71-.43-2.27-.98-.76-.46-.37-.44-.34-.86,.1-1.23Z"/>
      <path class="cls-4" d="M1155.93,182.74c.66-2.05,1.94-3.58,3.86-4.56,1.91-.99,3.9-1.15,5.95-.5,2.05,.66,3.58,1.95,4.57,3.86,.99,1.92,1.16,3.91,.5,5.96-.66,2.05-1.95,3.57-3.87,4.55-1.92,.98-3.91,1.15-5.96,.49-2.05-.66-3.57-1.94-4.56-3.85-.99-1.91-1.15-3.9-.49-5.95Zm.22,.07c-.64,1.99-.48,3.92,.48,5.78,.96,1.86,2.43,3.1,4.42,3.74,2,.64,3.92,.48,5.79-.48,1.86-.96,3.11-2.43,3.75-4.42,.64-1.99,.48-3.92-.49-5.78-.96-1.87-2.44-3.12-4.43-3.75-1.99-.64-3.92-.48-5.77,.48-1.86,.96-3.11,2.44-3.75,4.43Zm5.33-2.73l.22,.07-2.39,7.45,5.44-6.8,.49,8.7,2.39-7.45,.22,.07-2.76,8.61-.53-9.34-5.84,7.31,2.76-8.62Z"/>
      <path class="cls-4" d="M1140.17,173.74c1.1-1.85,2.69-3.05,4.78-3.59,2.09-.54,4.06-.26,5.91,.84,1.86,1.1,3.05,2.69,3.59,4.78,.54,2.09,.26,4.07-.84,5.92-1.1,1.85-2.69,3.05-4.78,3.58-2.09,.53-4.06,.25-5.92-.85-1.85-1.1-3.05-2.69-3.58-4.77-.54-2.08-.25-4.05,.85-5.91Zm.2,.12c-1.07,1.8-1.34,3.71-.82,5.74,.52,2.02,1.68,3.57,3.48,4.63,1.8,1.07,3.72,1.34,5.75,.83,2.03-.52,3.57-1.68,4.64-3.47,1.06-1.8,1.33-3.71,.81-5.75-.52-2.03-1.68-3.58-3.48-4.65-1.8-1.07-3.71-1.34-5.74-.81-2.03,.52-3.57,1.68-4.64,3.48Z"/>
      <path class="cls-4" d="M1126.69,161.38c1.48-1.57,3.3-2.38,5.46-2.44,2.15-.06,4.01,.65,5.58,2.13,1.57,1.48,2.38,3.3,2.44,5.46,.06,2.16-.65,4.02-2.14,5.59-1.48,1.57-3.3,2.37-5.46,2.43-2.16,.05-4.02-.66-5.58-2.15-1.57-1.48-2.38-3.3-2.43-5.45-.06-2.15,.65-4.01,2.14-5.57Zm.17,.16c-1.44,1.52-2.13,3.32-2.07,5.41,.06,2.09,.84,3.85,2.36,5.29,1.52,1.44,3.33,2.14,5.42,2.08,2.09-.05,3.86-.84,5.3-2.35,1.44-1.52,2.13-3.32,2.07-5.42-.06-2.1-.85-3.86-2.36-5.3-1.52-1.44-3.32-2.13-5.41-2.07-2.09,.06-3.86,.85-5.3,2.37Zm1.63,1.55c1.01-1.07,2.26-1.62,3.73-1.66,1.47-.04,2.74,.44,3.81,1.45,1.07,1.01,1.62,2.26,1.66,3.73,.04,1.47-.45,2.74-1.46,3.81-1.01,1.07-2.25,1.62-3.72,1.66-1.47,.04-2.74-.45-3.81-1.46-1.07-1.01-1.62-2.25-1.66-3.72-.04-1.47,.45-2.73,1.46-3.8Zm.17,.16c-.97,1.02-1.44,2.24-1.4,3.64,.04,1.4,.57,2.59,1.59,3.56,1.02,.97,2.24,1.44,3.64,1.4,1.41-.03,2.59-.56,3.56-1.58,.97-1.02,1.43-2.24,1.4-3.65-.04-1.41-.57-2.6-1.59-3.57-1.02-.97-2.24-1.43-3.64-1.39-1.41,.04-2.59,.57-3.56,1.59Z"/>
      <path class="cls-4" d="M1116.36,146.45c1.79-1.2,3.74-1.59,5.86-1.18,2.12,.41,3.77,1.52,4.97,3.31,1.2,1.79,1.59,3.75,1.17,5.87-.42,2.12-1.52,3.78-3.31,4.98-1.79,1.2-3.75,1.59-5.86,1.16-2.11-.42-3.77-1.53-4.97-3.32-1.2-1.79-1.59-3.74-1.17-5.85,.42-2.11,1.52-3.77,3.31-4.97Zm.13,.19c-1.74,1.16-2.81,2.77-3.22,4.82-.41,2.05-.03,3.94,1.14,5.68,1.17,1.74,2.78,2.82,4.83,3.23,2.05,.41,3.95,.03,5.68-1.13,1.74-1.16,2.81-2.77,3.21-4.83,.41-2.06,.03-3.96-1.14-5.69-1.16-1.74-2.77-2.81-4.82-3.21-2.05-.4-3.95-.02-5.69,1.14Zm6.58,2.03l2.82,4.22-7.11,4.76-.13-.19,6.92-4.63-2.7-4.03,.19-.13Z"/>
      <path class="cls-4" d="M1106.46,135.67l2.31,6.03-.21,.08-2.31-6.03,.21-.08Zm3.27-6.04l5.5,14.37-.21,.08-5.5-14.37,.21-.08Zm6.46,2.31l2.31,6.03-.21,.08-2.31-6.03,.21-.08Z"/>
      <path class="cls-4" d="M1107.35,116.81c1.45-.26,2.78,.04,3.98,.88,1.21,.85,1.93,1.99,2.19,3.44,.16,.91,.09,1.8-.21,2.66l3.35,1.23-.07,.22-3.36-1.24c-.33,.85-.85,1.57-1.55,2.15-.72,.6-1.55,.98-2.48,1.15-1.45,.26-2.78-.04-3.98-.88-1.2-.84-1.93-1.99-2.18-3.44-.16-.91-.09-1.79,.21-2.65l-3.35-1.22,.08-.22,3.36,1.24c.34-.85,.85-1.57,1.55-2.16,.72-.61,1.54-1,2.48-1.16Zm-3.89,3.6c-.28,.83-.35,1.68-.2,2.54,.24,1.39,.94,2.48,2.09,3.29,1.15,.81,2.42,1.09,3.81,.84,.89-.16,1.68-.52,2.38-1.1,.67-.56,1.17-1.25,1.49-2.05l-9.56-3.52Zm3.93-3.37c-.89,.16-1.68,.53-2.37,1.1-.66,.56-1.16,1.24-1.48,2.06l9.56,3.53c.28-.83,.35-1.68,.2-2.55-.24-1.39-.94-2.49-2.1-3.3-1.15-.81-2.42-1.09-3.81-.85Z"/>
      <path class="cls-4" d="M1103.59,98.5l8.45,15.66,.27-15.45h.23s-.29,16.34-.29,16.34l-8.87-16.43,.2-.12Z"/>
      <path class="cls-4" d="M1107.53,67.96l6.83,6.1-2.77,1.41,6.23,11.87-3.49,10.85-6.32-12-2.92,1.46-.98-9.06,6.83,6.1-2.74,1.4,6.08,11.52,3.31-10.26-6.19-11.78-2.88,1.46-.98-9.06Zm-3.12,11.2l.88,8.13,5.24-2.65-6.12-5.48Zm3.42-10.62l.88,8.14,5.25-2.65-6.12-5.49Z"/>
      <path class="cls-4" d="M1127.26,62.72l-5.77,8.96-8.96-5.77,5.77-8.96,8.95,5.77Zm-.32,.07l-8.57-5.52-5.52,8.57,8.57,5.52,5.52-8.57Z"/>
      <path class="cls-4" d="M1131.18,50.18c1.1,.98,1.69,2.21,1.77,3.68,.08,1.47-.36,2.75-1.35,3.85-.61,.69-1.35,1.18-2.21,1.48l1.11,3.39-.21,.08-1.11-3.4c-.87,.27-1.76,.3-2.65,.11-.92-.2-1.73-.61-2.44-1.24-1.1-.98-1.69-2.2-1.77-3.67-.08-1.46,.37-2.74,1.35-3.84,.61-.69,1.35-1.18,2.21-1.48l-1.11-3.39,.22-.08,1.11,3.4c.88-.26,1.76-.3,2.65-.12,.92,.19,1.74,.59,2.44,1.23Zm-5.23-.83c-.83,.29-1.53,.76-2.12,1.41-.94,1.05-1.37,2.28-1.29,3.68,.08,1.4,.64,2.57,1.69,3.51,.68,.6,1.45,1,2.34,1.19,.86,.18,1.7,.14,2.53-.1l-3.16-9.69Zm5.08,1c-.68-.6-1.45-1-2.34-1.18-.85-.18-1.69-.14-2.53,.11l3.15,9.69c.83-.29,1.54-.77,2.12-1.42,.94-1.05,1.37-2.28,1.29-3.69-.08-1.41-.64-2.58-1.69-3.52Z"/>
      <path class="cls-4" d="M1154.09,42.4l-16.96,12.11-.13-.19,8.39-5.99-9.16-12.83,.19-.13,9.16,12.83,8.39-5.99,.13,.19Z"/>
      <path class="cls-4" d="M1166.8,29.49c.76,2.02,.7,4.01-.18,5.97-.88,1.96-2.34,3.33-4.35,4.09-2.02,.76-4.01,.7-5.98-.19-1.97-.89-3.33-2.34-4.1-4.36-.76-2.02-.7-4.01,.2-5.97,.89-1.96,2.35-3.32,4.36-4.09,2.02-.76,4.01-.7,5.97,.19,1.96,.89,3.32,2.34,4.08,4.36Zm-.21,.08c-.74-1.96-2.06-3.37-3.96-4.23-1.9-.86-3.83-.92-5.79-.18-1.96,.74-3.37,2.06-4.24,3.97-.86,1.91-.93,3.84-.19,5.79,.74,1.96,2.06,3.36,3.98,4.23,1.91,.86,3.85,.93,5.8,.19,1.96-.74,3.37-2.06,4.22-3.97,.86-1.91,.92-3.84,.18-5.8Zm-3.67,4.37l-.48,1.07-1,.81-1.49,.56-1.27,.05-1.02-.46,.08-.21,1,.45,1.16-.05,1.43-.54,.92-.74,.42-.94-.39-1.02-.6-.56-.47-.22-.85-.08-2.45,.1-.88-.09-.55-.24-.67-.63-.3-.8,.48-1.06,.98-.81,1.49-.56,1.29-.04,1.02,.46-.1,.21-.96-.44-1.2,.04-1.42,.54-.91,.75-.42,.94,.24,.65,.61,.56,.47,.22,.83,.08,2.47-.09,.88,.09,.53,.24,.68,.62,.43,1.15Z"/>
      <path class="cls-4" d="M1184.81,26.76c.29,2.14-.22,4.06-1.52,5.78-1.3,1.72-3.02,2.72-5.16,3.01-2.14,.29-4.06-.22-5.78-1.53-1.72-1.31-2.72-3.03-3.01-5.17-.29-2.14,.22-4.06,1.53-5.77,1.31-1.71,3.03-2.71,5.17-3,2.14-.29,4.06,.22,5.77,1.52,1.71,1.3,2.71,3.02,3,5.16Zm-.23,.03c-.28-2.08-1.25-3.75-2.92-5.01-1.66-1.26-3.53-1.76-5.6-1.47-2.08,.28-3.75,1.25-5.02,2.92-1.27,1.66-1.76,3.53-1.48,5.6,.28,2.07,1.26,3.74,2.93,5.01,1.67,1.27,3.54,1.77,5.61,1.48,2.07-.28,3.74-1.25,5.01-2.92,1.26-1.67,1.76-3.54,1.48-5.61Z"/>
    </g>
    <path class="cls-4" d="M1188,179.07c-39.19,0-71.07-31.88-71.07-71.07s31.88-71.07,71.07-71.07,71.07,31.88,71.07,71.07-31.88,71.07-71.07,71.07Z"/>
    <path class="cls-4" d="M1188,172.09c-35.34,0-64.09-28.75-64.09-64.09s28.75-64.08,64.09-64.08,64.08,28.75,64.08,64.08-28.75,64.09-64.08,64.09Z"/>
  </g>
  <g class="cls-10">
    <line class="cls-5" x1="75.59" y1="140.41" x2="75.59" y2="75.59"/>
    <line class="cls-5" x1="140.41" y1="75.59" x2="140.41" y2="140.41"/>
    <line class="cls-5" x1="76.63" y1="141.4" x2="140.41" y2="140.41"/>
    <line class="cls-5" x1="75.59" y1="75.59" x2="140.41" y2="75.59"/>
    <line class="cls-5" x1="62.16" y1="108" x2="108" y2="62.16"/>
    <line class="cls-5" x1="153.84" y1="108" x2="108" y2="153.84"/>
    <line class="cls-5" x1="62.2" y1="109.44" x2="108" y2="153.84"/>
    <line class="cls-5" x1="108" y1="62.16" x2="153.84" y2="108"/>
  </g>
</svg>